# MagicaVoxel @ Ephtracy

# group
o 

# material
mtllib Eruption-22.mtl
usemtl palette

# normals
vn -1 0 0
vn 1 0 0
vn 0 0 -1
vn 0 0 1
vn 0 1 0
vn 0 -1 0

# texcoords
vt 0.751953 0.5
vt 0.771484 0.5
vt 0.783203 0.5
vt 0.802734 0.5
vt 0.810547 0.5
vt 0.814453 0.5
vt 0.853516 0.5
vt 0.876953 0.5
vt 0.888672 0.5
vt 0.892578 0.5
vt 0.982422 0.5

# verts
v -6.2 2.4 4.6
v -6.2 2.4 5.3
v -6.2 2.3 4.4
v -6.2 2.3 4.6
v -6.2 2.3 5.3
v -6.2 2.3 5.5
v -6.2 2.2 4.3
v -6.2 2.2 4.4
v -6.2 2.2 5.5
v -6.2 2.2 5.6
v -6.2 2.1 4.2
v -6.2 2.1 4.3
v -6.2 2.1 5.6
v -6.2 2.1 5.7
v -6.2 2 4.1
v -6.2 2 4.2
v -6.2 2 5.7
v -6.2 2 5.8
v -6.2 1.9 4.1
v -6.2 1.9 4.2
v -6.2 1.9 4.9
v -6.2 1.9 5
v -6.2 1.8 4
v -6.2 1.8 4.1
v -6.2 1.8 4.2
v -6.2 1.8 4.8
v -6.2 1.8 4.9
v -6.2 1.8 5
v -6.2 1.8 5.1
v -6.2 1.8 5.8
v -6.2 1.8 5.9
v -6.2 1.7 4.7
v -6.2 1.7 4.8
v -6.2 1.7 4.9
v -6.2 1.7 5
v -6.2 1.7 5.1
v -6.2 1.7 5.2
v -6.2 1.7 5.8
v -6.2 1.7 5.9
v -6.2 1.6 4.6
v -6.2 1.6 4.7
v -6.2 1.6 4.8
v -6.2 1.6 5.1
v -6.2 1.6 5.2
v -6.2 1.6 5.3
v -6.2 1.5 4
v -6.2 1.5 4.1
v -6.2 1.5 4.5
v -6.2 1.5 4.6
v -6.2 1.5 4.7
v -6.2 1.5 5.2
v -6.2 1.5 5.3
v -6.2 1.5 5.4
v -6.2 1.4 4.1
v -6.2 1.4 4.2
v -6.2 1.4 4.5
v -6.2 1.4 4.6
v -6.2 1.4 4.7
v -6.2 1.4 5.2
v -6.2 1.4 5.3
v -6.2 1.4 5.4
v -6.2 1.4 5.8
v -6.2 1.4 5.9
v -6.2 1.3 4.2
v -6.2 1.3 4.4
v -6.2 1.3 4.6
v -6.2 1.3 4.7
v -6.2 1.3 4.8
v -6.2 1.3 5.1
v -6.2 1.3 5.2
v -6.2 1.3 5.3
v -6.2 1.2 4.4
v -6.2 1.2 4.5
v -6.2 1.2 4.8
v -6.2 1.2 4.9
v -6.2 1.2 5
v -6.2 1.2 5.1
v -6.2 1.2 5.2
v -6.2 1.1 4.5
v -6.2 1.1 4.6
v -6.2 1.1 4.9
v -6.2 1.1 5
v -6.2 1.1 5.8
v -6.2 1.1 5.9
v -6.2 0.9 4.6
v -6.2 0.9 4.7
v -6.2 0.9 5.7
v -6.2 0.9 5.8
v -6.2 0.8 5.6
v -6.2 0.8 5.7
v -6.2 0.7 4.7
v -6.2 0.7 4.8
v -6.2 0.7 5.5
v -6.2 0.7 5.6
v -6.2 0.6 5.3
v -6.2 0.6 5.5
v -6.2 0.5 4.8
v -6.2 0.5 5.3
v -5.9 2.4 4.6
v -5.9 2.4 5.3
v -5.9 2.3 4.4
v -5.9 2.3 4.6
v -5.9 2.3 4.7
v -5.9 2.3 4.8
v -5.9 2.3 5.1
v -5.9 2.3 5.3
v -5.9 2.3 5.5
v -5.9 2.2 4.3
v -5.9 2.2 4.4
v -5.9 2.2 4.6
v -5.9 2.2 4.7
v -5.9 2.2 4.9
v -5.9 2.2 5
v -5.9 2.2 5.1
v -5.9 2.2 5.2
v -5.9 2.2 5.3
v -5.9 2.2 5.4
v -5.9 2.2 5.5
v -5.9 2.2 5.6
v -5.9 2.1 4.2
v -5.9 2.1 4.3
v -5.9 2.1 4.4
v -5.9 2.1 4.5
v -5.9 2.1 4.7
v -5.9 2.1 4.8
v -5.9 2.1 5.2
v -5.9 2.1 5.3
v -5.9 2.1 5.4
v -5.9 2.1 5.5
v -5.9 2.1 5.6
v -5.9 2.1 5.7
v -5.9 2 4.1
v -5.9 2 4.2
v -5.9 2 4.6
v -5.9 2 4.7
v -5.9 2 4.8
v -5.9 2 4.9
v -5.9 2 5
v -5.9 2 5.1
v -5.9 2 5.3
v -5.9 2 5.4
v -5.9 2 5.5
v -5.9 2 5.6
v -5.9 2 5.7
v -5.9 2 5.8
v -5.9 1.9 4.1
v -5.9 1.9 4.2
v -5.9 1.9 4.3
v -5.9 1.9 4.4
v -5.9 1.9 4.7
v -5.9 1.9 4.8
v -5.9 1.9 5.1
v -5.9 1.9 5.2
v -5.9 1.9 5.4
v -5.9 1.9 5.5
v -5.9 1.9 5.6
v -5.9 1.8 4
v -5.9 1.8 4.1
v -5.9 1.8 4.2
v -5.9 1.8 4.3
v -5.9 1.8 4.4
v -5.9 1.8 4.5
v -5.9 1.8 4.7
v -5.9 1.8 4.9
v -5.9 1.8 5
v -5.9 1.8 5.1
v -5.9 1.8 5.2
v -5.9 1.8 5.6
v -5.9 1.8 5.7
v -5.9 1.8 5.8
v -5.9 1.8 5.9
v -5.9 1.7 4.2
v -5.9 1.7 4.3
v -5.9 1.7 4.4
v -5.9 1.7 4.5
v -5.9 1.7 4.6
v -5.9 1.7 4.8
v -5.9 1.7 4.9
v -5.9 1.7 5
v -5.9 1.7 5.1
v -5.9 1.7 5.2
v -5.9 1.7 5.3
v -5.9 1.7 5.7
v -5.9 1.7 5.9
v -5.9 1.6 4.1
v -5.9 1.6 4.2
v -5.9 1.6 4.3
v -5.9 1.6 4.4
v -5.9 1.6 4.5
v -5.9 1.6 4.6
v -5.9 1.6 4.7
v -5.9 1.6 4.8
v -5.9 1.6 5.1
v -5.9 1.6 5.2
v -5.9 1.6 5.3
v -5.9 1.6 5.5
v -5.9 1.6 5.7
v -5.9 1.5 4
v -5.9 1.5 4.1
v -5.9 1.5 4.2
v -5.9 1.5 4.3
v -5.9 1.5 4.4
v -5.9 1.5 4.5
v -5.9 1.5 4.6
v -5.9 1.5 4.7
v -5.9 1.5 5.2
v -5.9 1.5 5.3
v -5.9 1.5 5.5
v -5.9 1.5 5.7
v -5.9 1.4 4.1
v -5.9 1.4 4.2
v -5.9 1.4 4.3
v -5.9 1.4 4.5
v -5.9 1.4 4.6
v -5.9 1.4 4.7
v -5.9 1.4 5.2
v -5.9 1.4 5.3
v -5.9 1.4 5.7
v -5.9 1.4 5.9
v -5.9 1.3 4.2
v -5.9 1.3 4.4
v -5.9 1.3 4.6
v -5.9 1.3 4.7
v -5.9 1.3 4.8
v -5.9 1.3 5.1
v -5.9 1.3 5.2
v -5.9 1.3 5.5
v -5.9 1.3 5.7
v -5.9 1.2 4.4
v -5.9 1.2 4.5
v -5.9 1.2 4.6
v -5.9 1.2 4.7
v -5.9 1.2 4.8
v -5.9 1.2 4.9
v -5.9 1.2 5
v -5.9 1.2 5.1
v -5.9 1.2 5.5
v -5.9 1.1 4.5
v -5.9 1.1 4.6
v -5.9 1.1 4.7
v -5.9 1.1 4.8
v -5.9 1.1 4.9
v -5.9 1.1 5
v -5.9 1.1 5.3
v -5.9 1.1 5.4
v -5.9 1.1 5.6
v -5.9 1.1 5.7
v -5.9 1.1 5.8
v -5.9 1.1 5.9
v -5.9 1 4.7
v -5.9 1 4.8
v -5.9 1 5.2
v -5.9 1 5.3
v -5.9 1 5.4
v -5.9 1 5.5
v -5.9 1 5.6
v -5.9 1 5.7
v -5.9 0.9 4.6
v -5.9 0.9 4.7
v -5.9 0.9 5
v -5.9 0.9 5.1
v -5.9 0.9 5.2
v -5.9 0.9 5.3
v -5.9 0.9 5.5
v -5.9 0.9 5.6
v -5.9 0.9 5.7
v -5.9 0.9 5.8
v -5.9 0.8 5.6
v -5.9 0.8 5.7
v -5.9 0.7 4.7
v -5.9 0.7 4.8
v -5.9 0.7 5
v -5.9 0.7 5.1
v -5.9 0.7 5.5
v -5.9 0.7 5.6
v -5.9 0.6 5.3
v -5.9 0.6 5.5
v -5.9 0.5 4.8
v -5.9 0.5 5.3
v -6.2 1.8 4
v -6.2 1.5 4
v -5.9 1.8 4
v -5.9 1.5 4
v -6.2 2 4.1
v -6.2 1.9 4.1
v -6.2 1.8 4.1
v -6.2 1.5 4.1
v -6.2 1.4 4.1
v -5.9 2 4.1
v -5.9 1.9 4.1
v -5.9 1.8 4.1
v -5.9 1.5 4.1
v -5.9 1.4 4.1
v -6.2 2.1 4.2
v -6.2 2 4.2
v -6.2 1.4 4.2
v -6.2 1.3 4.2
v -5.9 2.1 4.2
v -5.9 2 4.2
v -5.9 1.4 4.2
v -5.9 1.3 4.2
v -6.2 2.2 4.3
v -6.2 2.1 4.3
v -5.9 2.2 4.3
v -5.9 2.1 4.3
v -6.2 2.3 4.4
v -6.2 2.2 4.4
v -6.2 1.3 4.4
v -6.2 1.2 4.4
v -5.9 2.3 4.4
v -5.9 2.2 4.4
v -5.9 1.3 4.4
v -5.9 1.2 4.4
v -6.2 1.2 4.5
v -6.2 1.1 4.5
v -5.9 1.2 4.5
v -5.9 1.1 4.5
v -6.2 2.4 4.6
v -6.2 2.3 4.6
v -6.2 1.1 4.6
v -6.2 0.9 4.6
v -5.9 2.4 4.6
v -5.9 2.3 4.6
v -5.9 1.1 4.6
v -5.9 0.9 4.6
v -6.2 0.9 4.7
v -6.2 0.7 4.7
v -5.9 0.9 4.7
v -5.9 0.7 4.7
v -6.2 0.7 4.8
v -6.2 0.5 4.8
v -5.9 0.7 4.8
v -5.9 0.5 4.8
v -6.2 1.8 5
v -6.2 1.7 5
v -6.2 1.2 5
v -6.2 1.1 5
v -5.9 1.8 5
v -5.9 1.7 5
v -5.9 1.2 5
v -5.9 1.1 5
v -6.2 1.7 5.1
v -6.2 1.6 5.1
v -6.2 1.3 5.1
v -6.2 1.2 5.1
v -5.9 1.7 5.1
v -5.9 1.6 5.1
v -5.9 1.3 5.1
v -5.9 1.2 5.1
v -6.2 1.6 5.2
v -6.2 1.5 5.2
v -6.2 1.4 5.2
v -6.2 1.3 5.2
v -5.9 1.6 5.2
v -5.9 1.5 5.2
v -5.9 1.4 5.2
v -5.9 1.3 5.2
v -6.2 1.5 5.3
v -6.2 1.4 5.3
v -5.9 1.5 5.3
v -5.9 1.4 5.3
v -6.2 1.5 4.6
v -6.2 1.4 4.6
v -5.9 1.5 4.6
v -5.9 1.4 4.6
v -6.2 1.6 4.7
v -6.2 1.5 4.7
v -6.2 1.4 4.7
v -6.2 1.3 4.7
v -5.9 1.6 4.7
v -5.9 1.5 4.7
v -5.9 1.4 4.7
v -5.9 1.3 4.7
v -6.2 1.7 4.8
v -6.2 1.6 4.8
v -6.2 1.3 4.8
v -6.2 1.2 4.8
v -5.9 1.7 4.8
v -5.9 1.6 4.8
v -5.9 1.3 4.8
v -5.9 1.2 4.8
v -6.2 1.8 4.9
v -6.2 1.7 4.9
v -6.2 1.2 4.9
v -6.2 1.1 4.9
v -5.9 1.8 4.9
v -5.9 1.7 4.9
v -5.9 1.2 4.9
v -5.9 1.1 4.9
v -6.2 2.4 5.3
v -6.2 2.3 5.3
v -6.2 0.6 5.3
v -6.2 0.5 5.3
v -5.9 2.4 5.3
v -5.9 2.3 5.3
v -5.9 0.6 5.3
v -5.9 0.5 5.3
v -6.2 2.3 5.5
v -6.2 2.2 5.5
v -6.2 0.7 5.5
v -6.2 0.6 5.5
v -5.9 2.3 5.5
v -5.9 2.2 5.5
v -5.9 0.7 5.5
v -5.9 0.6 5.5
v -6.2 2.2 5.6
v -6.2 2.1 5.6
v -6.2 0.8 5.6
v -6.2 0.7 5.6
v -5.9 2.2 5.6
v -5.9 2.1 5.6
v -5.9 0.8 5.6
v -5.9 0.7 5.6
v -6.2 2.1 5.7
v -6.2 2 5.7
v -6.2 0.9 5.7
v -6.2 0.8 5.7
v -5.9 2.1 5.7
v -5.9 2 5.7
v -5.9 0.9 5.7
v -5.9 0.8 5.7
v -6.2 2 5.8
v -6.2 1.8 5.8
v -6.2 1.1 5.8
v -6.2 0.9 5.8
v -5.9 2 5.8
v -5.9 1.8 5.8
v -5.9 1.1 5.8
v -5.9 0.9 5.8
v -6.2 1.8 5.9
v -6.2 1.7 5.9
v -6.2 1.4 5.9
v -6.2 1.1 5.9
v -5.9 1.8 5.9
v -5.9 1.7 5.9
v -5.9 1.4 5.9
v -5.9 1.1 5.9
v -6.2 2.4 4.6
v -5.9 2.4 4.6
v -6.2 2.4 5.3
v -5.9 2.4 5.3
v -6.2 2.3 4.4
v -5.9 2.3 4.4
v -6.2 2.3 4.6
v -5.9 2.3 4.6
v -6.2 2.3 5.3
v -5.9 2.3 5.3
v -6.2 2.3 5.5
v -5.9 2.3 5.5
v -6.2 2.2 4.3
v -5.9 2.2 4.3
v -6.2 2.2 4.4
v -5.9 2.2 4.4
v -6.2 2.2 5.5
v -5.9 2.2 5.5
v -6.2 2.2 5.6
v -5.9 2.2 5.6
v -6.2 2.1 4.2
v -5.9 2.1 4.2
v -6.2 2.1 4.3
v -5.9 2.1 4.3
v -6.2 2.1 5.6
v -5.9 2.1 5.6
v -6.2 2.1 5.7
v -5.9 2.1 5.7
v -6.2 2 4.1
v -5.9 2 4.1
v -6.2 2 4.2
v -5.9 2 4.2
v -6.2 2 5.7
v -5.9 2 5.7
v -6.2 2 5.8
v -5.9 2 5.8
v -6.2 1.8 4
v -5.9 1.8 4
v -6.2 1.8 4.1
v -5.9 1.8 4.1
v -6.2 1.8 5.8
v -5.9 1.8 5.8
v -6.2 1.8 5.9
v -5.9 1.8 5.9
v -6.2 1.4 4.6
v -5.9 1.4 4.6
v -6.2 1.4 4.7
v -5.9 1.4 4.7
v -6.2 1.4 5.2
v -5.9 1.4 5.2
v -6.2 1.4 5.3
v -5.9 1.4 5.3
v -6.2 1.3 4.7
v -5.9 1.3 4.7
v -6.2 1.3 4.8
v -5.9 1.3 4.8
v -6.2 1.3 5.1
v -5.9 1.3 5.1
v -6.2 1.3 5.2
v -5.9 1.3 5.2
v -6.2 1.2 4.8
v -5.9 1.2 4.8
v -6.2 1.2 4.9
v -5.9 1.2 4.9
v -6.2 1.2 5
v -5.9 1.2 5
v -6.2 1.2 5.1
v -5.9 1.2 5.1
v -6.2 1.1 4.9
v -5.9 1.1 4.9
v -6.2 1.1 5
v -5.9 1.1 5
v -6.2 1.8 4.9
v -5.9 1.8 4.9
v -6.2 1.8 5
v -5.9 1.8 5
v -6.2 1.7 4.8
v -5.9 1.7 4.8
v -6.2 1.7 4.9
v -5.9 1.7 4.9
v -6.2 1.7 5
v -5.9 1.7 5
v -6.2 1.7 5.1
v -5.9 1.7 5.1
v -6.2 1.6 4.7
v -5.9 1.6 4.7
v -6.2 1.6 4.8
v -5.9 1.6 4.8
v -6.2 1.6 5.1
v -5.9 1.6 5.1
v -6.2 1.6 5.2
v -5.9 1.6 5.2
v -6.2 1.5 4
v -5.9 1.5 4
v -6.2 1.5 4.1
v -5.9 1.5 4.1
v -6.2 1.5 4.6
v -5.9 1.5 4.6
v -6.2 1.5 4.7
v -5.9 1.5 4.7
v -6.2 1.5 5.2
v -5.9 1.5 5.2
v -6.2 1.5 5.3
v -5.9 1.5 5.3
v -6.2 1.4 4.1
v -5.9 1.4 4.1
v -6.2 1.4 4.2
v -5.9 1.4 4.2
v -6.2 1.3 4.2
v -5.9 1.3 4.2
v -6.2 1.3 4.4
v -5.9 1.3 4.4
v -6.2 1.2 4.4
v -5.9 1.2 4.4
v -6.2 1.2 4.5
v -5.9 1.2 4.5
v -6.2 1.1 4.5
v -5.9 1.1 4.5
v -6.2 1.1 4.6
v -5.9 1.1 4.6
v -6.2 1.1 5.8
v -5.9 1.1 5.8
v -6.2 1.1 5.9
v -5.9 1.1 5.9
v -6.2 0.9 4.6
v -5.9 0.9 4.6
v -6.2 0.9 4.7
v -5.9 0.9 4.7
v -6.2 0.9 5.7
v -5.9 0.9 5.7
v -6.2 0.9 5.8
v -5.9 0.9 5.8
v -6.2 0.8 5.6
v -5.9 0.8 5.6
v -6.2 0.8 5.7
v -5.9 0.8 5.7
v -6.2 0.7 4.7
v -5.9 0.7 4.7
v -6.2 0.7 4.8
v -5.9 0.7 4.8
v -6.2 0.7 5.5
v -5.9 0.7 5.5
v -6.2 0.7 5.6
v -5.9 0.7 5.6
v -6.2 0.6 5.3
v -5.9 0.6 5.3
v -6.2 0.6 5.5
v -5.9 0.6 5.5
v -6.2 0.5 4.8
v -5.9 0.5 4.8
v -6.2 0.5 5.3
v -5.9 0.5 5.3

# faces
f 4/1/1 2/1/1 1/1/1
f 5/1/1 2/1/1 4/1/1
f 8/1/1 4/1/1 3/1/1
f 8/1/1 6/1/1 5/1/1
f 8/1/1 5/1/1 4/1/1
f 9/1/1 6/1/1 8/1/1
f 12/1/1 8/1/1 7/1/1
f 12/1/1 10/1/1 9/1/1
f 12/1/1 9/1/1 8/1/1
f 13/1/1 10/1/1 12/1/1
f 16/1/1 12/1/1 11/1/1
f 16/1/1 14/1/1 13/1/1
f 16/1/1 13/1/1 12/1/1
f 17/1/1 14/1/1 16/1/1
f 19/1/1 16/1/1 15/1/1
f 19/1/1 18/1/1 17/1/1
f 19/1/1 17/1/1 16/1/1
f 20/1/1 18/1/1 19/1/1
f 21/1/1 18/1/1 20/1/1
f 22/1/1 18/1/1 21/1/1
f 24/2/1 20/2/1 19/2/1
f 25/1/1 21/1/1 20/1/1
f 25/2/1 20/2/1 24/2/1
f 26/1/1 21/1/1 25/1/1
f 27/2/1 22/2/1 21/2/1
f 27/1/1 21/1/1 26/1/1
f 28/1/1 18/1/1 22/1/1
f 28/2/1 22/2/1 27/2/1
f 29/1/1 18/1/1 28/1/1
f 30/1/1 18/1/1 29/1/1
f 32/7/1 24/7/1 23/7/1
f 32/7/1 26/7/1 25/7/1
f 32/7/1 25/7/1 24/7/1
f 33/2/1 27/2/1 26/2/1
f 33/7/1 26/7/1 32/7/1
f 34/2/1 27/2/1 33/2/1
f 35/2/1 29/2/1 28/2/1
f 36/7/1 30/7/1 29/7/1
f 36/2/1 29/2/1 35/2/1
f 37/7/1 30/7/1 36/7/1
f 38/1/1 31/1/1 30/1/1
f 38/7/1 30/7/1 37/7/1
f 39/1/1 31/1/1 38/1/1
f 40/7/1 32/7/1 23/7/1
f 41/2/1 33/2/1 32/2/1
f 41/7/1 32/7/1 40/7/1
f 42/2/1 33/2/1 41/2/1
f 43/2/1 37/2/1 36/2/1
f 44/7/1 38/7/1 37/7/1
f 44/2/1 37/2/1 43/2/1
f 45/7/1 38/7/1 44/7/1
f 46/7/1 40/7/1 23/7/1
f 47/7/1 40/7/1 46/7/1
f 48/7/1 40/7/1 47/7/1
f 49/2/1 41/2/1 40/2/1
f 49/7/1 40/7/1 48/7/1
f 50/2/1 41/2/1 49/2/1
f 51/2/1 45/2/1 44/2/1
f 52/7/1 38/7/1 45/7/1
f 52/2/1 45/2/1 51/2/1
f 53/7/1 38/7/1 52/7/1
f 54/7/1 48/7/1 47/7/1
f 55/7/1 48/7/1 54/7/1
f 56/2/1 49/2/1 48/2/1
f 56/7/1 48/7/1 55/7/1
f 57/2/1 49/2/1 56/2/1
f 60/2/1 53/2/1 52/2/1
f 61/7/1 38/7/1 53/7/1
f 61/2/1 53/2/1 60/2/1
f 62/2/1 39/2/1 38/2/1
f 62/7/1 38/7/1 61/7/1
f 63/2/1 39/2/1 62/2/1
f 64/7/1 56/7/1 55/7/1
f 64/7/1 57/7/1 56/7/1
f 65/7/1 57/7/1 64/7/1
f 66/2/1 58/2/1 57/2/1
f 66/7/1 57/7/1 65/7/1
f 67/2/1 58/2/1 66/2/1
f 70/2/1 60/2/1 59/2/1
f 71/7/1 61/7/1 60/7/1
f 71/7/1 63/7/1 62/7/1
f 71/2/1 60/2/1 70/2/1
f 71/7/1 62/7/1 61/7/1
f 72/7/1 68/7/1 67/7/1
f 72/7/1 67/7/1 66/7/1
f 72/7/1 66/7/1 65/7/1
f 73/7/1 68/7/1 72/7/1
f 74/7/1 68/7/1 73/7/1
f 77/2/1 70/2/1 69/2/1
f 78/7/1 71/7/1 70/7/1
f 78/2/1 70/2/1 77/2/1
f 79/7/1 75/7/1 74/7/1
f 79/7/1 74/7/1 73/7/1
f 80/7/1 75/7/1 79/7/1
f 81/7/1 75/7/1 80/7/1
f 82/7/1 77/7/1 76/7/1
f 82/7/1 78/7/1 77/7/1
f 83/7/1 71/7/1 78/7/1
f 83/7/1 63/7/1 71/7/1
f 83/7/1 78/7/1 82/7/1
f 84/7/1 63/7/1 83/7/1
f 85/7/1 82/7/1 81/7/1
f 85/7/1 81/7/1 80/7/1
f 85/7/1 83/7/1 82/7/1
f 86/7/1 83/7/1 85/7/1
f 87/7/1 83/7/1 86/7/1
f 88/7/1 83/7/1 87/7/1
f 89/7/1 87/7/1 86/7/1
f 90/7/1 87/7/1 89/7/1
f 91/7/1 89/7/1 86/7/1
f 92/7/1 89/7/1 91/7/1
f 93/7/1 89/7/1 92/7/1
f 94/7/1 89/7/1 93/7/1
f 95/7/1 93/7/1 92/7/1
f 96/7/1 93/7/1 95/7/1
f 97/7/1 95/7/1 92/7/1
f 98/7/1 95/7/1 97/7/1
f 99/1/2 100/1/2 102/1/2
f 102/1/2 100/1/2 103/1/2
f 103/1/2 100/1/2 104/1/2
f 104/1/2 100/1/2 105/1/2
f 105/1/2 100/1/2 106/1/2
f 101/1/2 102/1/2 109/1/2
f 102/1/2 103/1/2 109/1/2
f 109/1/2 103/1/2 110/1/2
f 103/3/2 104/3/2 111/3/2
f 110/1/2 103/1/2 111/1/2
f 104/1/2 105/1/2 112/1/2
f 112/1/2 105/1/2 113/1/2
f 105/3/2 106/3/2 114/3/2
f 113/1/2 105/1/2 114/1/2
f 114/3/2 106/3/2 115/3/2
f 106/1/2 107/1/2 116/1/2
f 115/3/2 106/3/2 116/3/2
f 116/1/2 107/1/2 117/1/2
f 117/1/2 107/1/2 118/1/2
f 109/1/2 110/1/2 121/1/2
f 108/1/2 109/1/2 121/1/2
f 121/1/2 110/1/2 122/1/2
f 122/1/2 110/1/2 123/1/2
f 111/3/2 104/3/2 124/3/2
f 110/3/2 111/3/2 124/3/2
f 104/1/2 112/1/2 125/1/2
f 124/3/2 104/3/2 125/3/2
f 114/1/2 115/1/2 126/1/2
f 113/1/2 114/1/2 126/1/2
f 115/3/2 116/3/2 126/3/2
f 116/3/2 117/3/2 126/3/2
f 126/3/2 117/3/2 127/3/2
f 118/1/2 119/1/2 128/1/2
f 127/3/2 117/3/2 128/3/2
f 117/1/2 118/1/2 128/1/2
f 128/1/2 119/1/2 129/1/2
f 129/1/2 119/1/2 130/1/2
f 121/1/2 122/1/2 133/1/2
f 120/1/2 121/1/2 133/1/2
f 123/1/2 110/1/2 134/1/2
f 110/3/2 124/3/2 134/3/2
f 124/1/2 125/1/2 135/1/2
f 134/3/2 124/3/2 135/3/2
f 125/1/2 112/1/2 136/1/2
f 135/1/2 125/1/2 136/1/2
f 112/2/2 113/2/2 137/2/2
f 136/1/2 112/1/2 137/1/2
f 113/1/2 126/1/2 138/1/2
f 137/2/2 113/2/2 138/2/2
f 138/1/2 126/1/2 139/1/2
f 126/2/2 127/2/2 140/2/2
f 127/1/2 128/1/2 140/1/2
f 128/3/2 129/3/2 141/3/2
f 140/1/2 128/1/2 141/1/2
f 130/1/2 131/1/2 142/1/2
f 141/3/2 129/3/2 142/3/2
f 129/1/2 130/1/2 142/1/2
f 142/1/2 131/1/2 143/1/2
f 143/1/2 131/1/2 144/1/2
f 132/1/2 133/1/2 146/1/2
f 133/1/2 122/1/2 147/1/2
f 146/1/2 133/1/2 147/1/2
f 147/1/2 122/1/2 148/1/2
f 122/2/2 123/2/2 149/2/2
f 148/1/2 122/1/2 149/1/2
f 134/1/2 135/1/2 150/1/2
f 135/1/2 136/1/2 150/1/2
f 136/2/2 137/2/2 151/2/2
f 150/1/2 136/1/2 151/1/2
f 137/2/2 138/2/2 151/2/2
f 138/2/2 139/2/2 151/2/2
f 139/1/2 126/1/2 152/1/2
f 151/2/2 139/2/2 152/2/2
f 140/2/2 141/2/2 153/2/2
f 152/1/2 126/1/2 153/1/2
f 126/2/2 140/2/2 153/2/2
f 141/1/2 142/1/2 154/1/2
f 153/2/2 141/2/2 154/2/2
f 142/3/2 143/3/2 155/3/2
f 154/1/2 142/1/2 155/1/2
f 144/1/2 145/1/2 156/1/2
f 155/3/2 143/3/2 156/3/2
f 143/1/2 144/1/2 156/1/2
f 146/2/2 147/2/2 158/2/2
f 147/1/2 148/1/2 159/1/2
f 158/2/2 147/2/2 159/2/2
f 148/2/2 149/2/2 160/2/2
f 159/1/2 148/1/2 160/1/2
f 149/2/2 123/2/2 161/2/2
f 160/2/2 149/2/2 161/2/2
f 134/1/2 150/1/2 162/1/2
f 161/2/2 123/2/2 162/2/2
f 123/1/2 134/1/2 162/1/2
f 150/2/2 151/2/2 163/2/2
f 162/1/2 150/1/2 163/1/2
f 154/2/2 155/2/2 163/2/2
f 155/2/2 156/2/2 163/2/2
f 151/2/2 152/2/2 163/2/2
f 153/2/2 154/2/2 163/2/2
f 152/2/2 153/2/2 163/2/2
f 163/2/2 156/2/2 164/2/2
f 164/2/2 156/2/2 165/2/2
f 165/2/2 156/2/2 166/2/2
f 166/2/2 156/2/2 167/2/2
f 156/1/2 145/1/2 168/1/2
f 167/2/2 156/2/2 168/2/2
f 168/1/2 145/1/2 169/1/2
f 169/1/2 145/1/2 170/1/2
f 159/2/2 160/2/2 172/2/2
f 158/7/2 159/7/2 172/7/2
f 160/2/2 161/2/2 172/2/2
f 157/7/2 158/7/2 172/7/2
f 172/2/2 161/2/2 173/2/2
f 161/11/2 162/11/2 174/11/2
f 173/2/2 161/2/2 174/2/2
f 162/2/2 163/2/2 175/2/2
f 174/11/2 162/11/2 175/11/2
f 163/2/2 164/2/2 175/2/2
f 175/2/2 164/2/2 176/2/2
f 176/2/2 164/2/2 177/2/2
f 177/2/2 164/2/2 178/2/2
f 165/2/2 166/2/2 179/2/2
f 166/10/2 167/10/2 180/10/2
f 179/2/2 166/2/2 180/2/2
f 168/2/2 169/2/2 181/2/2
f 180/10/2 167/10/2 181/10/2
f 167/2/2 168/2/2 181/2/2
f 181/2/2 169/2/2 182/2/2
f 170/1/2 171/1/2 183/1/2
f 182/2/2 169/2/2 183/2/2
f 169/1/2 170/1/2 183/1/2
f 183/1/2 171/1/2 184/1/2
f 172/7/2 173/7/2 185/7/2
f 157/7/2 172/7/2 185/7/2
f 185/7/2 173/7/2 186/7/2
f 173/2/2 174/2/2 187/2/2
f 186/7/2 173/7/2 187/7/2
f 174/2/2 175/2/2 187/2/2
f 187/2/2 175/2/2 188/2/2
f 175/11/2 176/11/2 189/11/2
f 188/2/2 175/2/2 189/2/2
f 176/2/2 177/2/2 190/2/2
f 189/11/2 176/11/2 190/11/2
f 190/2/2 177/2/2 191/2/2
f 191/2/2 177/2/2 192/2/2
f 180/2/2 181/2/2 193/2/2
f 181/10/2 182/10/2 194/10/2
f 193/2/2 181/2/2 194/2/2
f 183/2/2 184/2/2 195/2/2
f 194/10/2 182/10/2 195/10/2
f 182/2/2 183/2/2 195/2/2
f 195/2/2 184/2/2 196/2/2
f 196/2/2 184/2/2 197/2/2
f 157/7/2 185/7/2 198/7/2
f 185/9/2 186/9/2 199/9/2
f 198/7/2 185/7/2 199/7/2
f 187/7/2 188/7/2 200/7/2
f 199/9/2 186/9/2 200/9/2
f 186/7/2 187/7/2 200/7/2
f 200/7/2 188/7/2 201/7/2
f 188/2/2 189/2/2 202/2/2
f 201/7/2 188/7/2 202/7/2
f 190/2/2 191/2/2 202/2/2
f 189/2/2 190/2/2 202/2/2
f 202/2/2 191/2/2 203/2/2
f 203/2/2 191/2/2 204/2/2
f 204/2/2 191/2/2 205/2/2
f 195/2/2 196/2/2 206/2/2
f 194/2/2 195/2/2 206/2/2
f 206/2/2 196/2/2 207/2/2
f 196/9/2 197/9/2 208/9/2
f 207/2/2 196/2/2 208/2/2
f 197/2/2 184/2/2 209/2/2
f 208/9/2 197/9/2 209/9/2
f 199/7/2 200/7/2 210/7/2
f 200/9/2 201/9/2 211/9/2
f 210/7/2 200/7/2 211/7/2
f 202/7/2 203/7/2 212/7/2
f 211/9/2 201/9/2 212/9/2
f 201/7/2 202/7/2 212/7/2
f 203/2/2 204/2/2 213/2/2
f 212/7/2 203/7/2 213/7/2
f 213/2/2 204/2/2 214/2/2
f 207/2/2 208/2/2 217/2/2
f 208/2/2 209/2/2 217/2/2
f 209/2/2 184/2/2 218/2/2
f 217/2/2 209/2/2 218/2/2
f 218/2/2 184/2/2 219/2/2
f 213/7/2 214/7/2 220/7/2
f 211/7/2 212/7/2 220/7/2
f 212/7/2 213/7/2 220/7/2
f 220/7/2 214/7/2 221/7/2
f 214/2/2 215/2/2 222/2/2
f 221/7/2 214/7/2 222/7/2
f 222/2/2 215/2/2 223/2/2
f 216/2/2 217/2/2 226/2/2
f 217/2/2 218/2/2 226/2/2
f 226/2/2 218/2/2 227/2/2
f 218/7/2 219/7/2 228/7/2
f 227/2/2 218/2/2 228/2/2
f 223/7/2 224/7/2 229/7/2
f 222/7/2 223/7/2 229/7/2
f 221/7/2 222/7/2 229/7/2
f 229/7/2 224/7/2 230/7/2
f 230/7/2 224/7/2 231/7/2
f 231/7/2 224/7/2 232/7/2
f 232/7/2 224/7/2 233/7/2
f 226/2/2 227/2/2 236/2/2
f 225/2/2 226/2/2 236/2/2
f 227/7/2 228/7/2 237/7/2
f 236/2/2 227/2/2 237/2/2
f 230/7/2 231/7/2 238/7/2
f 231/8/2 232/8/2 239/8/2
f 238/7/2 231/7/2 239/7/2
f 233/7/2 234/7/2 240/7/2
f 239/8/2 232/8/2 240/8/2
f 232/7/2 233/7/2 240/7/2
f 240/7/2 234/7/2 241/7/2
f 241/7/2 234/7/2 242/7/2
f 235/7/2 236/7/2 243/7/2
f 236/7/2 237/7/2 243/7/2
f 243/7/2 237/7/2 244/7/2
f 244/7/2 237/7/2 245/7/2
f 237/7/2 228/7/2 246/7/2
f 245/7/2 237/7/2 246/7/2
f 228/7/2 219/7/2 247/7/2
f 246/7/2 228/7/2 247/7/2
f 247/7/2 219/7/2 248/7/2
f 248/7/2 219/7/2 249/7/2
f 240/8/2 241/8/2 250/8/2
f 239/7/2 240/7/2 250/7/2
f 241/7/2 242/7/2 251/7/2
f 250/8/2 241/8/2 251/8/2
f 242/7/2 243/7/2 251/7/2
f 243/7/2 244/7/2 251/7/2
f 251/7/2 244/7/2 252/7/2
f 244/9/2 245/9/2 253/9/2
f 252/7/2 244/7/2 253/7/2
f 245/7/2 246/7/2 254/7/2
f 253/9/2 245/9/2 254/9/2
f 254/7/2 246/7/2 255/7/2
f 246/11/2 247/11/2 256/11/2
f 255/7/2 246/7/2 256/7/2
f 247/7/2 248/7/2 257/7/2
f 256/11/2 247/11/2 257/11/2
f 239/7/2 250/7/2 258/7/2
f 251/7/2 252/7/2 258/7/2
f 250/7/2 251/7/2 258/7/2
f 258/7/2 252/7/2 259/7/2
f 259/7/2 252/7/2 260/7/2
f 260/7/2 252/7/2 261/7/2
f 252/9/2 253/9/2 262/9/2
f 261/7/2 252/7/2 262/7/2
f 254/7/2 255/7/2 263/7/2
f 262/9/2 253/9/2 263/9/2
f 253/7/2 254/7/2 263/7/2
f 255/11/2 256/11/2 264/11/2
f 263/7/2 255/7/2 264/7/2
f 256/7/2 257/7/2 265/7/2
f 264/11/2 256/11/2 265/11/2
f 257/7/2 248/7/2 266/7/2
f 265/7/2 257/7/2 266/7/2
f 266/7/2 248/7/2 267/7/2
f 264/7/2 265/7/2 268/7/2
f 263/7/2 264/7/2 268/7/2
f 265/7/2 266/7/2 268/7/2
f 262/7/2 263/7/2 268/7/2
f 261/7/2 262/7/2 268/7/2
f 268/7/2 266/7/2 269/7/2
f 259/7/2 260/7/2 270/7/2
f 270/7/2 260/7/2 271/7/2
f 260/8/2 261/8/2 272/8/2
f 271/7/2 260/7/2 272/7/2
f 261/7/2 268/7/2 273/7/2
f 272/8/2 261/8/2 273/8/2
f 273/7/2 268/7/2 274/7/2
f 274/7/2 268/7/2 275/7/2
f 271/7/2 272/7/2 276/7/2
f 273/7/2 274/7/2 276/7/2
f 272/7/2 273/7/2 276/7/2
f 276/7/2 274/7/2 277/7/2
f 271/7/2 276/7/2 278/7/2
f 278/7/2 276/7/2 279/7/2
f 282/7/3 281/7/3 280/7/3
f 283/7/3 281/7/3 282/7/3
f 289/1/3 285/1/3 284/1/3
f 290/2/3 286/2/3 285/2/3
f 290/1/3 285/1/3 289/1/3
f 291/2/3 286/2/3 290/2/3
f 292/7/3 288/7/3 287/7/3
f 293/7/3 288/7/3 292/7/3
f 298/1/3 295/1/3 294/1/3
f 299/1/3 295/1/3 298/1/3
f 300/7/3 297/7/3 296/7/3
f 301/7/3 297/7/3 300/7/3
f 304/1/3 303/1/3 302/1/3
f 305/1/3 303/1/3 304/1/3
f 310/1/3 307/1/3 306/1/3
f 311/1/3 307/1/3 310/1/3
f 312/7/3 309/7/3 308/7/3
f 313/7/3 309/7/3 312/7/3
f 316/7/3 315/7/3 314/7/3
f 317/7/3 315/7/3 316/7/3
f 322/1/3 319/1/3 318/1/3
f 323/1/3 319/1/3 322/1/3
f 324/7/3 321/7/3 320/7/3
f 325/7/3 321/7/3 324/7/3
f 328/7/3 327/7/3 326/7/3
f 329/7/3 327/7/3 328/7/3
f 332/7/3 331/7/3 330/7/3
f 333/7/3 331/7/3 332/7/3
f 338/2/3 335/2/3 334/2/3
f 339/2/3 335/2/3 338/2/3
f 340/7/3 337/7/3 336/7/3
f 341/7/3 337/7/3 340/7/3
f 346/2/3 343/2/3 342/2/3
f 347/2/3 343/2/3 346/2/3
f 348/2/3 345/2/3 344/2/3
f 349/2/3 345/2/3 348/2/3
f 354/2/3 351/2/3 350/2/3
f 355/2/3 351/2/3 354/2/3
f 356/2/3 353/2/3 352/2/3
f 357/2/3 353/2/3 356/2/3
f 360/2/3 359/2/3 358/2/3
f 361/2/3 359/2/3 360/2/3
f 362/2/4 363/2/4 364/2/4
f 364/2/4 363/2/4 365/2/4
f 366/2/4 367/2/4 370/2/4
f 370/2/4 367/2/4 371/2/4
f 368/2/4 369/2/4 372/2/4
f 372/2/4 369/2/4 373/2/4
f 374/2/4 375/2/4 378/2/4
f 378/2/4 375/2/4 379/2/4
f 376/7/4 377/7/4 380/7/4
f 380/7/4 377/7/4 381/7/4
f 382/2/4 383/2/4 386/2/4
f 386/2/4 383/2/4 387/2/4
f 384/7/4 385/7/4 388/7/4
f 388/7/4 385/7/4 389/7/4
f 390/1/4 391/1/4 394/1/4
f 394/1/4 391/1/4 395/1/4
f 392/7/4 393/7/4 396/7/4
f 396/7/4 393/7/4 397/7/4
f 398/1/4 399/1/4 402/1/4
f 402/1/4 399/1/4 403/1/4
f 400/7/4 401/7/4 404/7/4
f 404/7/4 401/7/4 405/7/4
f 406/1/4 407/1/4 410/1/4
f 410/1/4 407/1/4 411/1/4
f 408/7/4 409/7/4 412/7/4
f 412/7/4 409/7/4 413/7/4
f 414/1/4 415/1/4 418/1/4
f 418/1/4 415/1/4 419/1/4
f 416/7/4 417/7/4 420/7/4
f 420/7/4 417/7/4 421/7/4
f 422/1/4 423/1/4 426/1/4
f 426/1/4 423/1/4 427/1/4
f 424/7/4 425/7/4 428/7/4
f 428/7/4 425/7/4 429/7/4
f 430/1/4 431/1/4 434/1/4
f 431/2/4 432/2/4 435/2/4
f 434/1/4 431/1/4 435/1/4
f 432/7/4 433/7/4 436/7/4
f 435/2/4 432/2/4 436/2/4
f 436/7/4 433/7/4 437/7/4
f 440/1/5 439/1/5 438/1/5
f 441/1/5 439/1/5 440/1/5
f 444/1/5 443/1/5 442/1/5
f 445/1/5 443/1/5 444/1/5
f 448/1/5 447/1/5 446/1/5
f 449/1/5 447/1/5 448/1/5
f 452/1/5 451/1/5 450/1/5
f 453/1/5 451/1/5 452/1/5
f 456/1/5 455/1/5 454/1/5
f 457/1/5 455/1/5 456/1/5
f 460/1/5 459/1/5 458/1/5
f 461/1/5 459/1/5 460/1/5
f 464/1/5 463/1/5 462/1/5
f 465/1/5 463/1/5 464/1/5
f 468/1/5 467/1/5 466/1/5
f 469/1/5 467/1/5 468/1/5
f 472/1/5 471/1/5 470/1/5
f 473/1/5 471/1/5 472/1/5
f 476/7/5 475/7/5 474/7/5
f 477/7/5 475/7/5 476/7/5
f 480/1/5 479/1/5 478/1/5
f 481/1/5 479/1/5 480/1/5
f 484/2/5 483/2/5 482/2/5
f 485/2/5 483/2/5 484/2/5
f 488/2/5 487/2/5 486/2/5
f 489/2/5 487/2/5 488/2/5
f 492/7/5 491/7/5 490/7/5
f 493/7/5 491/7/5 492/7/5
f 496/2/5 495/2/5 494/2/5
f 497/2/5 495/2/5 496/2/5
f 500/7/5 499/7/5 498/7/5
f 501/7/5 499/7/5 500/7/5
f 504/7/5 503/7/5 502/7/5
f 505/7/5 503/7/5 504/7/5
f 508/7/5 507/7/5 506/7/5
f 509/7/5 507/7/5 508/7/5
f 510/2/6 511/2/6 512/2/6
f 512/2/6 511/2/6 513/2/6
f 514/2/6 515/2/6 516/2/6
f 516/2/6 515/2/6 517/2/6
f 518/2/6 519/2/6 520/2/6
f 520/2/6 519/2/6 521/2/6
f 522/2/6 523/2/6 524/2/6
f 524/2/6 523/2/6 525/2/6
f 526/2/6 527/2/6 528/2/6
f 528/2/6 527/2/6 529/2/6
f 530/7/6 531/7/6 532/7/6
f 532/7/6 531/7/6 533/7/6
f 534/2/6 535/2/6 536/2/6
f 536/2/6 535/2/6 537/2/6
f 538/2/6 539/2/6 540/2/6
f 540/2/6 539/2/6 541/2/6
f 542/7/6 543/7/6 544/7/6
f 544/7/6 543/7/6 545/7/6
f 546/7/6 547/7/6 548/7/6
f 548/7/6 547/7/6 549/7/6
f 550/7/6 551/7/6 552/7/6
f 552/7/6 551/7/6 553/7/6
f 554/7/6 555/7/6 556/7/6
f 556/7/6 555/7/6 557/7/6
f 558/7/6 559/7/6 560/7/6
f 560/7/6 559/7/6 561/7/6
f 562/7/6 563/7/6 564/7/6
f 564/7/6 563/7/6 565/7/6
f 566/7/6 567/7/6 568/7/6
f 568/7/6 567/7/6 569/7/6
f 570/7/6 571/7/6 572/7/6
f 572/7/6 571/7/6 573/7/6
f 574/7/6 575/7/6 576/7/6
f 576/7/6 575/7/6 577/7/6
f 578/7/6 579/7/6 580/7/6
f 580/7/6 579/7/6 581/7/6
f 582/7/6 583/7/6 584/7/6
f 584/7/6 583/7/6 585/7/6
f 586/7/6 587/7/6 588/7/6
f 588/7/6 587/7/6 589/7/6
