# MagicaVoxel @ Ephtracy

# group
o 

# material
mtllib Eruption-6.mtl
usemtl palette

# normals
vn -1 0 0
vn 1 0 0
vn 0 0 1
vn 0 0 -1
vn 0 -1 0
vn 0 1 0

# texcoords
vt 0.755859 0.5
vt 0.783203 0.5
vt 0.787109 0.5

# verts
v -20.3 0 -45.6
v -20.3 0 -46.1
v -20.3 0.3 -45.6
v -20.3 0.3 -46.1
v -20.2 0 -45.5
v -20.2 0 -45.6
v -20.2 0 -46.1
v -20.2 0 -46.2
v -20.2 0.3 -45.5
v -20.2 0.3 -45.6
v -20.2 0.3 -46.1
v -20.2 0.3 -46.2
v -20.1 0 -45.4
v -20.1 0 -45.5
v -20.1 0 -46.2
v -20.1 0 -46.3
v -20.1 0.3 -45.4
v -20.1 0.3 -45.5
v -20.1 0.3 -46.2
v -20.1 0.3 -46.3
v -19.8 0 -45.8
v -19.8 0 -45.9
v -19.8 0.1 -45.8
v -19.8 0.1 -45.9
v -19.8 0.2 -45.8
v -19.8 0.2 -45.9
v -19.8 0.3 -45.8
v -19.8 0.3 -45.9
v -19.9 0 -45.8
v -19.9 0 -45.9
v -19.9 0.1 -45.8
v -19.9 0.1 -45.9
v -19.9 0.2 -45.8
v -19.9 0.2 -45.9
v -19.9 0.3 -45.8
v -19.9 0.3 -45.9
v -19.6 0 -45.4
v -19.6 0 -45.5
v -19.6 0 -46.2
v -19.6 0 -46.3
v -19.6 0.3 -45.4
v -19.6 0.3 -45.5
v -19.6 0.3 -46.2
v -19.6 0.3 -46.3
v -19.5 0 -45.5
v -19.5 0 -45.6
v -19.5 0 -46.1
v -19.5 0 -46.2
v -19.5 0.3 -45.5
v -19.5 0.3 -45.6
v -19.5 0.3 -46.1
v -19.5 0.3 -46.2
v -19.4 0 -45.6
v -19.4 0 -46.1
v -19.4 0.3 -45.6
v -19.4 0.3 -46.1
v -20.1 0 -45.4
v -20.1 0.3 -45.4
v -19.9 0 -45.4
v -19.9 0.3 -45.4
v -19.8 0 -45.4
v -19.8 0.3 -45.4
v -19.6 0 -45.4
v -19.6 0.3 -45.4
v -20.2 0 -45.5
v -20.2 0.3 -45.5
v -20.1 0 -45.5
v -20.1 0.3 -45.5
v -19.6 0 -45.5
v -19.6 0.3 -45.5
v -19.5 0 -45.5
v -19.5 0.3 -45.5
v -20.3 0 -45.6
v -20.3 0.3 -45.6
v -20.2 0 -45.6
v -20.2 0.3 -45.6
v -19.5 0 -45.6
v -19.5 0.3 -45.6
v -19.4 0 -45.6
v -19.4 0.3 -45.6
v -19.9 0 -45.9
v -19.9 0.1 -45.9
v -19.9 0.2 -45.9
v -19.9 0.3 -45.9
v -19.8 0 -45.9
v -19.8 0.1 -45.9
v -19.8 0.2 -45.9
v -19.8 0.3 -45.9
v -19.9 0 -45.8
v -19.9 0.1 -45.8
v -19.9 0.2 -45.8
v -19.9 0.3 -45.8
v -19.8 0 -45.8
v -19.8 0.1 -45.8
v -19.8 0.2 -45.8
v -19.8 0.3 -45.8
v -20.3 0 -46.1
v -20.3 0.3 -46.1
v -20.2 0 -46.1
v -20.2 0.3 -46.1
v -19.5 0 -46.1
v -19.5 0.3 -46.1
v -19.4 0 -46.1
v -19.4 0.3 -46.1
v -20.2 0 -46.2
v -20.2 0.3 -46.2
v -20.1 0 -46.2
v -20.1 0.3 -46.2
v -19.6 0 -46.2
v -19.6 0.3 -46.2
v -19.5 0 -46.2
v -19.5 0.3 -46.2
v -20.1 0 -46.3
v -20.1 0.3 -46.3
v -19.9 0 -46.3
v -19.9 0.3 -46.3
v -19.8 0 -46.3
v -19.8 0.3 -46.3
v -19.6 0 -46.3
v -19.6 0.3 -46.3
v -20.1 0 -45.4
v -19.9 0 -45.4
v -19.8 0 -45.4
v -19.6 0 -45.4
v -20.2 0 -45.5
v -20.1 0 -45.5
v -19.6 0 -45.5
v -19.5 0 -45.5
v -20.3 0 -45.6
v -20.2 0 -45.6
v -19.5 0 -45.6
v -19.4 0 -45.6
v -19.9 0 -45.8
v -19.8 0 -45.8
v -19.9 0 -45.9
v -19.8 0 -45.9
v -20.3 0 -46.1
v -20.2 0 -46.1
v -19.5 0 -46.1
v -19.4 0 -46.1
v -20.2 0 -46.2
v -20.1 0 -46.2
v -19.6 0 -46.2
v -19.5 0 -46.2
v -20.1 0 -46.3
v -19.9 0 -46.3
v -19.8 0 -46.3
v -19.6 0 -46.3
v -20.1 0.3 -45.4
v -19.9 0.3 -45.4
v -19.8 0.3 -45.4
v -19.6 0.3 -45.4
v -20.2 0.3 -45.5
v -20.1 0.3 -45.5
v -19.6 0.3 -45.5
v -19.5 0.3 -45.5
v -20.3 0.3 -45.6
v -20.2 0.3 -45.6
v -19.5 0.3 -45.6
v -19.4 0.3 -45.6
v -19.9 0.3 -45.8
v -19.8 0.3 -45.8
v -19.9 0.3 -45.9
v -19.8 0.3 -45.9
v -20.3 0.3 -46.1
v -20.2 0.3 -46.1
v -19.5 0.3 -46.1
v -19.4 0.3 -46.1
v -20.2 0.3 -46.2
v -20.1 0.3 -46.2
v -19.6 0.3 -46.2
v -19.5 0.3 -46.2
v -20.1 0.3 -46.3
v -19.9 0.3 -46.3
v -19.8 0.3 -46.3
v -19.6 0.3 -46.3

# faces
f 3/3/1 2/3/1 1/3/1
f 4/3/1 2/3/1 3/3/1
f 9/3/1 6/3/1 5/3/1
f 10/3/1 6/3/1 9/3/1
f 11/3/1 8/3/1 7/3/1
f 12/3/1 8/3/1 11/3/1
f 17/1/1 14/1/1 13/1/1
f 18/1/1 14/1/1 17/1/1
f 19/1/1 16/1/1 15/1/1
f 20/1/1 16/1/1 19/1/1
f 23/1/1 22/1/1 21/1/1
f 24/1/1 22/1/1 23/1/1
f 25/2/1 24/2/1 23/2/1
f 26/2/1 24/2/1 25/2/1
f 27/1/1 26/1/1 25/1/1
f 28/1/1 26/1/1 27/1/1
f 29/1/2 30/1/2 31/1/2
f 31/1/2 30/1/2 32/1/2
f 31/2/2 32/2/2 33/2/2
f 33/2/2 32/2/2 34/2/2
f 33/1/2 34/1/2 35/1/2
f 35/1/2 34/1/2 36/1/2
f 37/1/2 38/1/2 41/1/2
f 41/1/2 38/1/2 42/1/2
f 39/1/2 40/1/2 43/1/2
f 43/1/2 40/1/2 44/1/2
f 45/3/2 46/3/2 49/3/2
f 49/3/2 46/3/2 50/3/2
f 47/3/2 48/3/2 51/3/2
f 51/3/2 48/3/2 52/3/2
f 53/3/2 54/3/2 55/3/2
f 55/3/2 54/3/2 56/3/2
f 59/1/3 58/1/3 57/1/3
f 60/1/3 58/1/3 59/1/3
f 61/3/3 60/3/3 59/3/3
f 62/3/3 60/3/3 61/3/3
f 63/1/3 62/1/3 61/1/3
f 64/1/3 62/1/3 63/1/3
f 67/3/3 66/3/3 65/3/3
f 68/3/3 66/3/3 67/3/3
f 71/3/3 70/3/3 69/3/3
f 72/3/3 70/3/3 71/3/3
f 75/3/3 74/3/3 73/3/3
f 76/3/3 74/3/3 75/3/3
f 79/3/3 78/3/3 77/3/3
f 80/3/3 78/3/3 79/3/3
f 85/3/3 82/3/3 81/3/3
f 86/2/3 83/2/3 82/2/3
f 86/3/3 82/3/3 85/3/3
f 87/3/3 84/3/3 83/3/3
f 87/2/3 83/2/3 86/2/3
f 88/3/3 84/3/3 87/3/3
f 89/3/4 90/3/4 93/3/4
f 90/2/4 91/2/4 94/2/4
f 93/3/4 90/3/4 94/3/4
f 91/3/4 92/3/4 95/3/4
f 94/2/4 91/2/4 95/2/4
f 95/3/4 92/3/4 96/3/4
f 97/3/4 98/3/4 99/3/4
f 99/3/4 98/3/4 100/3/4
f 101/3/4 102/3/4 103/3/4
f 103/3/4 102/3/4 104/3/4
f 105/3/4 106/3/4 107/3/4
f 107/3/4 106/3/4 108/3/4
f 109/3/4 110/3/4 111/3/4
f 111/3/4 110/3/4 112/3/4
f 113/1/4 114/1/4 115/1/4
f 115/1/4 114/1/4 116/1/4
f 115/3/4 116/3/4 117/3/4
f 117/3/4 116/3/4 118/3/4
f 117/1/4 118/1/4 119/1/4
f 119/1/4 118/1/4 120/1/4
f 126/1/5 122/1/5 121/1/5
f 127/1/5 124/1/5 123/1/5
f 130/3/5 126/3/5 125/3/5
f 131/3/5 128/3/5 127/3/5
f 133/3/5 123/3/5 122/3/5
f 133/1/5 122/1/5 126/1/5
f 134/1/5 127/1/5 123/1/5
f 134/3/5 123/3/5 133/3/5
f 135/1/5 133/1/5 126/1/5
f 136/1/5 127/1/5 134/1/5
f 137/3/5 130/3/5 129/3/5
f 138/3/5 126/3/5 130/3/5
f 138/3/5 130/3/5 137/3/5
f 139/3/5 132/3/5 131/3/5
f 139/3/5 131/3/5 127/3/5
f 140/3/5 132/3/5 139/3/5
f 141/3/5 126/3/5 138/3/5
f 142/1/5 135/1/5 126/1/5
f 142/3/5 126/3/5 141/3/5
f 143/3/5 139/3/5 127/3/5
f 143/1/5 127/1/5 136/1/5
f 144/3/5 139/3/5 143/3/5
f 145/1/5 135/1/5 142/1/5
f 146/3/5 136/3/5 135/3/5
f 146/1/5 135/1/5 145/1/5
f 147/1/5 143/1/5 136/1/5
f 147/3/5 136/3/5 146/3/5
f 148/1/5 143/1/5 147/1/5
f 149/1/6 150/1/6 154/1/6
f 151/1/6 152/1/6 155/1/6
f 153/3/6 154/3/6 158/3/6
f 155/3/6 156/3/6 159/3/6
f 150/3/6 151/3/6 161/3/6
f 154/1/6 150/1/6 161/1/6
f 151/1/6 155/1/6 162/1/6
f 161/3/6 151/3/6 162/3/6
f 154/1/6 161/1/6 163/1/6
f 162/1/6 155/1/6 164/1/6
f 157/3/6 158/3/6 165/3/6
f 158/3/6 154/3/6 166/3/6
f 165/3/6 158/3/6 166/3/6
f 159/3/6 160/3/6 167/3/6
f 155/3/6 159/3/6 167/3/6
f 167/3/6 160/3/6 168/3/6
f 166/3/6 154/3/6 169/3/6
f 154/1/6 163/1/6 170/1/6
f 169/3/6 154/3/6 170/3/6
f 155/3/6 167/3/6 171/3/6
f 164/1/6 155/1/6 171/1/6
f 171/3/6 167/3/6 172/3/6
f 170/1/6 163/1/6 173/1/6
f 163/3/6 164/3/6 174/3/6
f 173/1/6 163/1/6 174/1/6
f 164/1/6 171/1/6 175/1/6
f 174/3/6 164/3/6 175/3/6
f 175/1/6 171/1/6 176/1/6
