# MagicaVoxel @ Ephtracy

# group
o 

# material
mtllib Eruption-9.mtl
usemtl palette

# normals
vn 0 -1 0
vn 0 1 0
vn -1 0 0
vn 1 0 0
vn 0 0 1
vn 0 0 -1

# texcoords
vt 0.775391 0.5
vt 0.779297 0.5
vt 0.783203 0.5
vt 0.787109 0.5
vt 0.853516 0.5

# verts
v -15.8 0.1 -40.8
v -15.7 0.1 -40.8
v -15.9 0.1 -40.9
v -15.8 0.1 -40.9
v -15.7 0.1 -40.9
v -15.6 0.1 -40.9
v -15.4 0.1 -41
v -15.2 0.1 -41
v -16.2 0.1 -41.1
v -15.9 0.1 -41.1
v -15.6 0.1 -41.1
v -15.5 0.1 -41.1
v -15.4 0.1 -41.1
v -15.2 0.1 -41.1
v -15.1 0.1 -41.1
v -15.6 0.1 -41.2
v -15.5 0.1 -41.2
v -15.2 0.1 -41.2
v -15.1 0.1 -41.2
v -14.9 0.1 -41.2
v -16.2 0.1 -41.3
v -16.1 0.1 -41.3
v -15.3 0.1 -41.3
v -15.2 0.1 -41.3
v -14.9 0.1 -41.3
v -14.8 0.1 -41.3
v -16.1 0.1 -41.4
v -15.9 0.1 -41.4
v -15.7 0.1 -41.4
v -15.6 0.1 -41.4
v -15.4 0.1 -41.4
v -15.3 0.1 -41.4
v -15 0.1 -41.4
v -14.8 0.1 -41.4
v -14.7 0.1 -41.4
v -15.9 0.1 -41.5
v -15.8 0.1 -41.5
v -15.7 0.1 -41.5
v -15.5 0.1 -41.5
v -15.4 0.1 -41.5
v -15.1 0.1 -41.5
v -15 0.1 -41.5
v -14.7 0.1 -41.5
v -14.5 0.1 -41.5
v -15.9 0.1 -41.6
v -15.8 0.1 -41.6
v -15.6 0.1 -41.6
v -15.5 0.1 -41.6
v -15.2 0.1 -41.6
v -15.1 0.1 -41.6
v -14.5 0.1 -41.6
v -14.4 0.1 -41.6
v -15.7 0.1 -41.7
v -15.6 0.1 -41.7
v -15.4 0.1 -41.7
v -15.2 0.1 -41.7
v -14.7 0.1 -41.7
v -14.5 0.1 -41.7
v -14.4 0.1 -41.7
v -14.3 0.1 -41.7
v -15.9 0.1 -41.8
v -15.8 0.1 -41.8
v -15.7 0.1 -41.8
v -15.5 0.1 -41.8
v -15.4 0.1 -41.8
v -14.8 0.1 -41.8
v -14.7 0.1 -41.8
v -14.4 0.1 -41.8
v -14.3 0.1 -41.8
v -14.2 0.1 -41.8
v -15.8 0.1 -41.9
v -15.6 0.1 -41.9
v -15.5 0.1 -41.9
v -14.9 0.1 -41.9
v -14.8 0.1 -41.9
v -14.6 0.1 -41.9
v -14.4 0.1 -41.9
v -14.3 0.1 -41.9
v -14.2 0.1 -41.9
v -15.6 0.1 -42
v -15.5 0.1 -42
v -15.1 0.1 -42
v -14.9 0.1 -42
v -14.6 0.1 -42
v -14.3 0.1 -42
v -14.2 0.1 -42
v -15.5 0.1 -42.1
v -15.3 0.1 -42.1
v -15.2 0.1 -42.1
v -15.1 0.1 -42.1
v -14.8 0.1 -42.1
v -14.5 0.1 -42.1
v -14.2 0.1 -42.1
v -14 0.1 -42.1
v -15.3 0.1 -42.2
v -15.2 0.1 -42.2
v -15.1 0.1 -42.2
v -15 0.1 -42.2
v -14.8 0.1 -42.2
v -14 0.1 -42.2
v -13.9 0.1 -42.2
v -15.1 0.1 -42.3
v -15 0.1 -42.3
v -14.6 0.1 -42.3
v -14.5 0.1 -42.3
v -15 0.1 -42.4
v -14.9 0.1 -42.4
v -14.7 0.1 -42.4
v -14.6 0.1 -42.4
v -14.5 0.1 -42.4
v -14.2 0.1 -42.4
v -13.9 0.1 -42.4
v -14.9 0.1 -42.5
v -14.7 0.1 -42.5
v -14.5 0.1 -42.6
v -14.4 0.1 -42.6
v -14.3 0.1 -42.6
v -14.2 0.1 -42.6
v -14.4 0.1 -42.7
v -14.3 0.1 -42.7
v -15.9 0.3 -41.3
v -15.7 0.3 -41.3
v -15.9 0.3 -41.4
v -15.8 0.3 -41.4
v -15.8 0.3 -41.5
v -15.7 0.3 -41.5
v -15.9 0.2 -41.3
v -15.7 0.2 -41.3
v -15.9 0.2 -41.4
v -15.8 0.2 -41.4
v -15.8 0.2 -41.5
v -15.7 0.2 -41.5
v -15.8 0.4 -40.8
v -15.7 0.4 -40.8
v -15.9 0.4 -40.9
v -15.8 0.4 -40.9
v -15.7 0.4 -40.9
v -15.6 0.4 -40.9
v -16.2 0.4 -41.1
v -15.9 0.4 -41.1
v -15.6 0.4 -41.1
v -15.5 0.4 -41.1
v -15.6 0.4 -41.2
v -15.5 0.4 -41.2
v -16.2 0.4 -41.3
v -16.1 0.4 -41.3
v -15.7 0.4 -41.3
v -15.6 0.4 -41.3
v -16.1 0.4 -41.4
v -15.9 0.4 -41.4
v -15.9 0.4 -41.5
v -15.8 0.4 -41.5
v -15.7 0.4 -41.5
v -14.4 0.4 -42
v -14.3 0.4 -42
v -14.2 0.4 -42
v -14.5 0.4 -42.1
v -14.4 0.4 -42.1
v -14.2 0.4 -42.1
v -14 0.4 -42.1
v -14 0.4 -42.2
v -13.9 0.4 -42.2
v -14.6 0.4 -42.3
v -14.5 0.4 -42.3
v -14.6 0.4 -42.4
v -14.5 0.4 -42.4
v -14.2 0.4 -42.4
v -13.9 0.4 -42.4
v -14.5 0.4 -42.6
v -14.4 0.4 -42.6
v -14.3 0.4 -42.6
v -14.2 0.4 -42.6
v -14.4 0.4 -42.7
v -14.3 0.4 -42.7
v -15.4 0.5 -41
v -15.2 0.5 -41
v -15.5 0.5 -41.1
v -15.4 0.5 -41.1
v -15.2 0.5 -41.1
v -15.1 0.5 -41.1
v -15.6 0.5 -41.2
v -15.5 0.5 -41.2
v -15.1 0.5 -41.2
v -14.9 0.5 -41.2
v -15.7 0.5 -41.3
v -15.6 0.5 -41.3
v -15.3 0.5 -41.3
v -15.1 0.5 -41.3
v -14.9 0.5 -41.3
v -14.8 0.5 -41.3
v -15.4 0.5 -41.4
v -15.3 0.5 -41.4
v -14.9 0.5 -41.4
v -14.8 0.5 -41.4
v -14.7 0.5 -41.4
v -15.8 0.5 -41.5
v -15.7 0.5 -41.5
v -15.5 0.5 -41.5
v -15.4 0.5 -41.5
v -15.1 0.5 -41.5
v -14.9 0.5 -41.5
v -14.7 0.5 -41.5
v -14.5 0.5 -41.5
v -15.9 0.5 -41.6
v -15.8 0.5 -41.6
v -15.7 0.5 -41.6
v -15.5 0.5 -41.6
v -15.2 0.5 -41.6
v -15.1 0.5 -41.6
v -14.5 0.5 -41.6
v -14.4 0.5 -41.6
v -15.8 0.5 -41.7
v -15.7 0.5 -41.7
v -15.4 0.5 -41.7
v -15.2 0.5 -41.7
v -14.7 0.5 -41.7
v -14.5 0.5 -41.7
v -14.4 0.5 -41.7
v -14.3 0.5 -41.7
v -15.9 0.5 -41.8
v -15.8 0.5 -41.8
v -15.6 0.5 -41.8
v -15.4 0.5 -41.8
v -14.8 0.5 -41.8
v -14.7 0.5 -41.8
v -14.3 0.5 -41.8
v -14.2 0.5 -41.8
v -15.8 0.5 -41.9
v -15.6 0.5 -41.9
v -14.9 0.5 -41.9
v -14.8 0.5 -41.9
v -14.4 0.5 -41.9
v -14.3 0.5 -41.9
v -14.2 0.5 -41.9
v -15.6 0.5 -42
v -15.5 0.5 -42
v -15.1 0.5 -42
v -14.9 0.5 -42
v -14.6 0.5 -42
v -14.4 0.5 -42
v -14.3 0.5 -42
v -15.5 0.5 -42.1
v -15.3 0.5 -42.1
v -15.2 0.5 -42.1
v -15.1 0.5 -42.1
v -14.7 0.5 -42.1
v -14.6 0.5 -42.1
v -14.5 0.5 -42.1
v -14.4 0.5 -42.1
v -15.3 0.5 -42.2
v -15.2 0.5 -42.2
v -15.1 0.5 -42.2
v -14.9 0.5 -42.2
v -14.7 0.5 -42.2
v -15.1 0.5 -42.3
v -15 0.5 -42.3
v -14.9 0.5 -42.3
v -14.6 0.5 -42.3
v -14.5 0.5 -42.3
v -15 0.5 -42.4
v -14.9 0.5 -42.4
v -14.7 0.5 -42.4
v -14.6 0.5 -42.4
v -14.9 0.5 -42.5
v -14.7 0.5 -42.5
v -16.2 0.1 -41.1
v -16.2 0.1 -41.3
v -16.2 0.4 -41.1
v -16.2 0.4 -41.3
v -16.1 0.1 -41.3
v -16.1 0.1 -41.4
v -16.1 0.4 -41.3
v -16.1 0.4 -41.4
v -15.9 0.1 -40.9
v -15.9 0.1 -41.1
v -15.9 0.1 -41.4
v -15.9 0.1 -41.5
v -15.9 0.1 -41.6
v -15.9 0.1 -41.8
v -15.9 0.4 -40.9
v -15.9 0.4 -41.1
v -15.9 0.4 -41.4
v -15.9 0.4 -41.5
v -15.9 0.5 -41.6
v -15.9 0.5 -41.8
v -15.8 0.1 -40.8
v -15.8 0.1 -40.9
v -15.8 0.1 -41.5
v -15.8 0.1 -41.6
v -15.8 0.1 -41.8
v -15.8 0.1 -41.9
v -15.8 0.4 -40.8
v -15.8 0.4 -40.9
v -15.8 0.4 -41.5
v -15.8 0.5 -41.5
v -15.8 0.5 -41.6
v -15.8 0.5 -41.8
v -15.8 0.5 -41.9
v -15.7 0.2 -41.3
v -15.7 0.2 -41.5
v -15.7 0.3 -41.3
v -15.7 0.3 -41.5
v -15.7 0.4 -41.3
v -15.7 0.4 -41.5
v -15.7 0.5 -41.3
v -15.7 0.5 -41.5
v -15.6 0.1 -41.9
v -15.6 0.1 -42
v -15.6 0.4 -41.2
v -15.6 0.4 -41.3
v -15.6 0.5 -41.2
v -15.6 0.5 -41.3
v -15.6 0.5 -41.9
v -15.6 0.5 -42
v -15.5 0.1 -42
v -15.5 0.1 -42.1
v -15.5 0.4 -41.1
v -15.5 0.4 -41.2
v -15.5 0.5 -41.1
v -15.5 0.5 -41.2
v -15.5 0.5 -42
v -15.5 0.5 -42.1
v -15.4 0.1 -41
v -15.4 0.1 -41.1
v -15.4 0.2 -41.1
v -15.4 0.4 -41.1
v -15.4 0.5 -41
v -15.4 0.5 -41.1
v -15.3 0.1 -42.1
v -15.3 0.1 -42.2
v -15.3 0.5 -42.1
v -15.3 0.5 -42.2
v -15.1 0.1 -42.2
v -15.1 0.1 -42.3
v -15.1 0.5 -42.2
v -15.1 0.5 -42.3
v -15 0.1 -42.3
v -15 0.1 -42.4
v -15 0.5 -42.3
v -15 0.5 -42.4
v -14.9 0.1 -42.4
v -14.9 0.1 -42.5
v -14.9 0.5 -42.4
v -14.9 0.5 -42.5
v -14.5 0.1 -42.4
v -14.5 0.1 -42.6
v -14.5 0.4 -42.4
v -14.5 0.4 -42.6
v -14.4 0.1 -42.6
v -14.4 0.1 -42.7
v -14.4 0.4 -42.6
v -14.4 0.4 -42.7
v -15.9 0.2 -41.3
v -15.9 0.2 -41.4
v -15.9 0.3 -41.3
v -15.9 0.3 -41.4
v -15.8 0.2 -41.4
v -15.8 0.2 -41.5
v -15.8 0.3 -41.4
v -15.8 0.3 -41.5
v -15.7 0.1 -40.8
v -15.7 0.1 -40.9
v -15.7 0.4 -40.8
v -15.7 0.4 -40.9
v -15.6 0.1 -40.9
v -15.6 0.1 -41.1
v -15.6 0.4 -40.9
v -15.6 0.4 -41.1
v -15.2 0.1 -41
v -15.2 0.1 -41.1
v -15.2 0.5 -41
v -15.2 0.5 -41.1
v -15.1 0.1 -41.1
v -15.1 0.1 -41.2
v -15.1 0.5 -41.1
v -15.1 0.5 -41.2
v -14.9 0.1 -41.2
v -14.9 0.1 -41.3
v -14.9 0.5 -41.2
v -14.9 0.5 -41.3
v -14.8 0.1 -41.3
v -14.8 0.1 -41.4
v -14.8 0.5 -41.3
v -14.8 0.5 -41.4
v -14.7 0.1 -41.4
v -14.7 0.1 -41.5
v -14.7 0.1 -42.4
v -14.7 0.1 -42.5
v -14.7 0.5 -41.4
v -14.7 0.5 -41.5
v -14.7 0.5 -42.4
v -14.7 0.5 -42.5
v -14.6 0.4 -42.3
v -14.6 0.4 -42.4
v -14.6 0.5 -42.3
v -14.6 0.5 -42.4
v -14.5 0.1 -41.5
v -14.5 0.1 -41.6
v -14.5 0.4 -42.1
v -14.5 0.4 -42.3
v -14.5 0.5 -41.5
v -14.5 0.5 -41.6
v -14.5 0.5 -42.1
v -14.5 0.5 -42.3
v -14.4 0.1 -41.6
v -14.4 0.1 -41.7
v -14.4 0.4 -42
v -14.4 0.4 -42.1
v -14.4 0.5 -41.6
v -14.4 0.5 -41.7
v -14.4 0.5 -42
v -14.4 0.5 -42.1
v -14.3 0.1 -41.7
v -14.3 0.1 -41.8
v -14.3 0.1 -41.9
v -14.3 0.1 -42
v -14.3 0.1 -42.6
v -14.3 0.1 -42.7
v -14.3 0.4 -42
v -14.3 0.4 -42.6
v -14.3 0.4 -42.7
v -14.3 0.5 -41.7
v -14.3 0.5 -41.8
v -14.3 0.5 -41.9
v -14.3 0.5 -42
v -14.2 0.1 -41.8
v -14.2 0.1 -41.9
v -14.2 0.1 -42
v -14.2 0.1 -42.1
v -14.2 0.1 -42.4
v -14.2 0.1 -42.6
v -14.2 0.4 -42
v -14.2 0.4 -42.1
v -14.2 0.4 -42.4
v -14.2 0.4 -42.6
v -14.2 0.5 -41.8
v -14.2 0.5 -41.9
v -14 0.1 -42.1
v -14 0.1 -42.2
v -14 0.4 -42.1
v -14 0.4 -42.2
v -13.9 0.1 -42.2
v -13.9 0.1 -42.4
v -13.9 0.4 -42.2
v -13.9 0.4 -42.4
v -15.8 0.1 -40.8
v -15.8 0.4 -40.8
v -15.7 0.1 -40.8
v -15.7 0.4 -40.8
v -15.9 0.1 -40.9
v -15.9 0.4 -40.9
v -15.8 0.1 -40.9
v -15.8 0.4 -40.9
v -15.7 0.1 -40.9
v -15.7 0.4 -40.9
v -15.6 0.1 -40.9
v -15.6 0.4 -40.9
v -15.4 0.1 -41
v -15.4 0.5 -41
v -15.2 0.1 -41
v -15.2 0.5 -41
v -16.2 0.1 -41.1
v -16.2 0.4 -41.1
v -15.9 0.1 -41.1
v -15.9 0.4 -41.1
v -15.6 0.1 -41.1
v -15.6 0.4 -41.1
v -15.5 0.1 -41.1
v -15.5 0.2 -41.1
v -15.5 0.4 -41.1
v -15.5 0.5 -41.1
v -15.4 0.1 -41.1
v -15.4 0.2 -41.1
v -15.4 0.4 -41.1
v -15.4 0.5 -41.1
v -15.2 0.1 -41.1
v -15.2 0.5 -41.1
v -15.1 0.1 -41.1
v -15.1 0.5 -41.1
v -15.6 0.4 -41.2
v -15.6 0.5 -41.2
v -15.5 0.4 -41.2
v -15.5 0.5 -41.2
v -15.1 0.1 -41.2
v -15.1 0.5 -41.2
v -14.9 0.1 -41.2
v -14.9 0.5 -41.2
v -15.7 0.4 -41.3
v -15.7 0.5 -41.3
v -15.6 0.4 -41.3
v -15.6 0.5 -41.3
v -14.9 0.1 -41.3
v -14.9 0.5 -41.3
v -14.8 0.1 -41.3
v -14.8 0.5 -41.3
v -15.9 0.2 -41.4
v -15.9 0.3 -41.4
v -15.8 0.2 -41.4
v -15.8 0.3 -41.4
v -14.8 0.1 -41.4
v -14.8 0.5 -41.4
v -14.7 0.1 -41.4
v -14.7 0.5 -41.4
v -15.8 0.2 -41.5
v -15.8 0.3 -41.5
v -15.8 0.4 -41.5
v -15.8 0.5 -41.5
v -15.7 0.2 -41.5
v -15.7 0.3 -41.5
v -15.7 0.4 -41.5
v -15.7 0.5 -41.5
v -14.7 0.1 -41.5
v -14.7 0.5 -41.5
v -14.5 0.1 -41.5
v -14.5 0.5 -41.5
v -15.9 0.1 -41.6
v -15.9 0.5 -41.6
v -15.8 0.1 -41.6
v -15.8 0.5 -41.6
v -14.5 0.1 -41.6
v -14.5 0.5 -41.6
v -14.4 0.1 -41.6
v -14.4 0.5 -41.6
v -14.4 0.1 -41.7
v -14.4 0.5 -41.7
v -14.3 0.1 -41.7
v -14.3 0.5 -41.7
v -14.3 0.1 -41.8
v -14.3 0.5 -41.8
v -14.2 0.1 -41.8
v -14.2 0.5 -41.8
v -14.3 0.1 -42
v -14.3 0.4 -42
v -14.2 0.1 -42
v -14.2 0.4 -42
v -14.2 0.1 -42.1
v -14.2 0.4 -42.1
v -14 0.1 -42.1
v -14 0.4 -42.1
v -14 0.1 -42.2
v -14 0.4 -42.2
v -13.9 0.1 -42.2
v -13.9 0.4 -42.2
v -16.2 0.1 -41.3
v -16.2 0.4 -41.3
v -16.1 0.1 -41.3
v -16.1 0.4 -41.3
v -15.9 0.2 -41.3
v -15.9 0.3 -41.3
v -15.7 0.2 -41.3
v -15.7 0.3 -41.3
v -16.1 0.1 -41.4
v -16.1 0.4 -41.4
v -15.9 0.1 -41.4
v -15.9 0.4 -41.4
v -15.9 0.1 -41.5
v -15.9 0.4 -41.5
v -15.8 0.1 -41.5
v -15.8 0.4 -41.5
v -15.9 0.1 -41.8
v -15.9 0.5 -41.8
v -15.8 0.1 -41.8
v -15.8 0.5 -41.8
v -15.8 0.1 -41.9
v -15.8 0.5 -41.9
v -15.6 0.1 -41.9
v -15.6 0.5 -41.9
v -14.3 0.1 -41.9
v -14.3 0.5 -41.9
v -14.2 0.1 -41.9
v -14.2 0.5 -41.9
v -15.6 0.1 -42
v -15.6 0.5 -42
v -15.5 0.1 -42
v -15.5 0.5 -42
v -14.4 0.4 -42
v -14.4 0.5 -42
v -14.3 0.4 -42
v -14.3 0.5 -42
v -15.5 0.1 -42.1
v -15.5 0.5 -42.1
v -15.3 0.1 -42.1
v -15.3 0.5 -42.1
v -14.5 0.4 -42.1
v -14.5 0.5 -42.1
v -14.4 0.4 -42.1
v -14.4 0.5 -42.1
v -15.3 0.1 -42.2
v -15.3 0.5 -42.2
v -15.2 0.1 -42.2
v -15.2 0.5 -42.2
v -15.1 0.1 -42.2
v -15.1 0.5 -42.2
v -15.1 0.1 -42.3
v -15.1 0.5 -42.3
v -15 0.1 -42.3
v -15 0.5 -42.3
v -14.6 0.4 -42.3
v -14.6 0.5 -42.3
v -14.5 0.4 -42.3
v -14.5 0.5 -42.3
v -15 0.1 -42.4
v -15 0.5 -42.4
v -14.9 0.1 -42.4
v -14.9 0.5 -42.4
v -14.7 0.1 -42.4
v -14.7 0.5 -42.4
v -14.6 0.1 -42.4
v -14.6 0.4 -42.4
v -14.6 0.5 -42.4
v -14.5 0.1 -42.4
v -14.5 0.4 -42.4
v -14.2 0.1 -42.4
v -14.2 0.4 -42.4
v -13.9 0.1 -42.4
v -13.9 0.4 -42.4
v -14.9 0.1 -42.5
v -14.9 0.5 -42.5
v -14.7 0.1 -42.5
v -14.7 0.5 -42.5
v -14.5 0.1 -42.6
v -14.5 0.4 -42.6
v -14.4 0.1 -42.6
v -14.4 0.4 -42.6
v -14.3 0.1 -42.6
v -14.3 0.4 -42.6
v -14.2 0.1 -42.6
v -14.2 0.4 -42.6
v -14.4 0.1 -42.7
v -14.4 0.4 -42.7
v -14.3 0.1 -42.7
v -14.3 0.4 -42.7

# faces
f 4/3/1 2/3/1 1/3/1
f 5/3/1 2/3/1 4/3/1
f 10/3/1 4/3/1 3/3/1
f 10/3/1 5/3/1 4/3/1
f 10/3/1 6/3/1 5/3/1
f 11/3/1 6/3/1 10/3/1
f 13/4/1 8/4/1 7/4/1
f 14/4/1 8/4/1 13/4/1
f 16/3/1 12/3/1 11/3/1
f 16/3/1 10/3/1 9/3/1
f 16/3/1 11/3/1 10/3/1
f 17/4/1 15/4/1 14/4/1
f 17/3/1 12/3/1 16/3/1
f 17/4/1 14/4/1 13/4/1
f 17/4/1 13/4/1 12/4/1
f 18/4/1 15/4/1 17/4/1
f 19/4/1 15/4/1 18/4/1
f 21/3/1 16/3/1 9/3/1
f 22/3/1 16/3/1 21/3/1
f 23/4/1 17/4/1 16/4/1
f 23/4/1 18/4/1 17/4/1
f 24/3/1 20/3/1 19/3/1
f 24/4/1 18/4/1 23/4/1
f 24/3/1 19/3/1 18/3/1
f 25/3/1 20/3/1 24/3/1
f 27/3/1 16/3/1 22/3/1
f 28/3/1 16/3/1 27/3/1
f 29/3/1 16/3/1 28/3/1
f 30/4/1 23/4/1 16/4/1
f 30/3/1 16/3/1 29/3/1
f 31/4/1 23/4/1 30/4/1
f 32/3/1 26/3/1 25/3/1
f 32/4/1 23/4/1 31/4/1
f 32/3/1 25/3/1 24/3/1
f 32/3/1 24/3/1 23/3/1
f 33/3/1 26/3/1 32/3/1
f 34/3/1 26/3/1 33/3/1
f 36/3/1 29/3/1 28/3/1
f 37/3/1 29/3/1 36/3/1
f 38/4/1 31/4/1 30/4/1
f 38/3/1 29/3/1 37/3/1
f 38/4/1 30/4/1 29/4/1
f 39/4/1 31/4/1 38/4/1
f 40/3/1 32/3/1 31/3/1
f 40/4/1 31/4/1 39/4/1
f 40/3/1 33/3/1 32/3/1
f 41/3/1 33/3/1 40/3/1
f 42/4/1 35/4/1 34/4/1
f 42/3/1 33/3/1 41/3/1
f 42/4/1 34/4/1 33/4/1
f 43/4/1 35/4/1 42/4/1
f 46/4/1 39/4/1 38/4/1
f 46/4/1 38/4/1 37/4/1
f 47/4/1 39/4/1 46/4/1
f 48/3/1 41/3/1 40/3/1
f 48/4/1 39/4/1 47/4/1
f 48/3/1 40/3/1 39/3/1
f 49/3/1 41/3/1 48/3/1
f 50/4/1 44/4/1 43/4/1
f 50/3/1 41/3/1 49/3/1
f 50/4/1 43/4/1 42/4/1
f 50/4/1 42/4/1 41/4/1
f 51/4/1 44/4/1 50/4/1
f 53/4/1 47/4/1 46/4/1
f 53/4/1 46/4/1 45/4/1
f 54/3/1 49/3/1 48/3/1
f 54/4/1 47/4/1 53/4/1
f 54/3/1 48/3/1 47/3/1
f 55/3/1 49/3/1 54/3/1
f 56/4/1 51/4/1 50/4/1
f 56/3/1 49/3/1 55/3/1
f 56/4/1 50/4/1 49/4/1
f 57/4/1 51/4/1 56/4/1
f 58/3/1 52/3/1 51/3/1
f 58/4/1 51/4/1 57/4/1
f 59/3/1 52/3/1 58/3/1
f 61/4/1 53/4/1 45/4/1
f 62/4/1 53/4/1 61/4/1
f 63/3/1 55/3/1 54/3/1
f 63/4/1 53/4/1 62/4/1
f 63/3/1 54/3/1 53/3/1
f 64/3/1 55/3/1 63/3/1
f 65/4/1 57/4/1 56/4/1
f 65/3/1 55/3/1 64/3/1
f 65/4/1 56/4/1 55/4/1
f 66/4/1 57/4/1 65/4/1
f 67/3/1 60/3/1 59/3/1
f 67/4/1 57/4/1 66/4/1
f 67/3/1 58/3/1 57/3/1
f 67/3/1 59/3/1 58/3/1
f 68/3/1 60/3/1 67/3/1
f 69/3/1 60/3/1 68/3/1
f 71/3/1 64/3/1 63/3/1
f 71/3/1 63/3/1 62/3/1
f 72/3/1 64/3/1 71/3/1
f 73/4/1 66/4/1 65/4/1
f 73/3/1 64/3/1 72/3/1
f 73/4/1 65/4/1 64/4/1
f 74/4/1 66/4/1 73/4/1
f 75/3/1 68/3/1 67/3/1
f 75/4/1 66/4/1 74/4/1
f 75/3/1 67/3/1 66/3/1
f 76/3/1 68/3/1 75/3/1
f 77/4/1 70/4/1 69/4/1
f 77/3/1 68/3/1 76/3/1
f 77/4/1 69/4/1 68/4/1
f 78/4/1 70/4/1 77/4/1
f 79/4/1 70/4/1 78/4/1
f 80/4/1 74/4/1 73/4/1
f 80/4/1 73/4/1 72/4/1
f 81/4/1 74/4/1 80/4/1
f 82/4/1 74/4/1 81/4/1
f 83/3/1 76/3/1 75/3/1
f 83/4/1 74/4/1 82/4/1
f 83/3/1 75/3/1 74/3/1
f 84/4/1 78/4/1 77/4/1
f 84/3/1 76/3/1 83/3/1
f 84/4/1 77/4/1 76/4/1
f 85/4/1 78/4/1 84/4/1
f 87/4/1 82/4/1 81/4/1
f 88/4/1 82/4/1 87/4/1
f 89/4/1 82/4/1 88/4/1
f 90/3/1 86/3/1 85/3/1
f 90/4/1 82/4/1 89/4/1
f 90/3/1 85/3/1 84/3/1
f 90/3/1 83/3/1 82/3/1
f 90/3/1 84/3/1 83/3/1
f 91/3/1 86/3/1 90/3/1
f 92/3/1 86/3/1 91/3/1
f 93/3/1 86/3/1 92/3/1
f 95/4/1 89/4/1 88/4/1
f 96/3/1 90/3/1 89/3/1
f 96/4/1 89/4/1 95/4/1
f 96/3/1 91/3/1 90/3/1
f 97/3/1 91/3/1 96/3/1
f 98/3/1 91/3/1 97/3/1
f 99/4/1 92/4/1 91/4/1
f 99/3/1 91/3/1 98/3/1
f 100/3/1 94/3/1 93/3/1
f 100/3/1 93/3/1 92/3/1
f 102/3/1 98/3/1 97/3/1
f 103/4/1 99/4/1 98/4/1
f 103/3/1 98/3/1 102/3/1
f 104/4/1 92/4/1 99/4/1
f 104/4/1 99/4/1 103/4/1
f 105/3/1 101/3/1 100/3/1
f 105/4/1 92/4/1 104/4/1
f 105/3/1 100/3/1 92/3/1
f 106/4/1 104/4/1 103/4/1
f 107/4/1 104/4/1 106/4/1
f 108/4/1 104/4/1 107/4/1
f 109/3/1 105/3/1 104/3/1
f 109/4/1 104/4/1 108/4/1
f 110/3/1 101/3/1 105/3/1
f 110/3/1 105/3/1 109/3/1
f 111/3/1 101/3/1 110/3/1
f 112/3/1 101/3/1 111/3/1
f 113/4/1 108/4/1 107/4/1
f 114/4/1 108/4/1 113/4/1
f 115/3/1 111/3/1 110/3/1
f 116/3/1 111/3/1 115/3/1
f 117/3/1 111/3/1 116/3/1
f 118/3/1 111/3/1 117/3/1
f 119/3/1 117/3/1 116/3/1
f 120/3/1 117/3/1 119/3/1
f 123/3/1 122/3/1 121/3/1
f 124/3/1 122/3/1 123/3/1
f 125/3/1 122/3/1 124/3/1
f 126/3/1 122/3/1 125/3/1
f 127/3/2 128/3/2 129/3/2
f 129/3/2 128/3/2 130/3/2
f 130/3/2 128/3/2 131/3/2
f 131/3/2 128/3/2 132/3/2
f 133/3/2 134/3/2 136/3/2
f 136/3/2 134/3/2 137/3/2
f 135/3/2 136/3/2 140/3/2
f 137/3/2 138/3/2 140/3/2
f 136/3/2 137/3/2 140/3/2
f 140/3/2 138/3/2 141/3/2
f 139/3/2 140/3/2 143/3/2
f 141/3/2 142/3/2 143/3/2
f 140/3/2 141/3/2 143/3/2
f 143/3/2 142/3/2 144/3/2
f 139/3/2 143/3/2 145/3/2
f 145/3/2 143/3/2 146/3/2
f 146/3/2 143/3/2 147/3/2
f 147/3/2 143/3/2 148/3/2
f 146/3/2 147/3/2 149/3/2
f 149/3/2 147/3/2 150/3/2
f 150/3/2 147/3/2 151/3/2
f 151/3/2 147/3/2 152/3/2
f 152/3/2 147/3/2 153/3/2
f 154/3/2 155/3/2 158/3/2
f 155/3/2 156/3/2 158/3/2
f 158/3/2 156/3/2 159/3/2
f 157/3/2 158/3/2 161/3/2
f 159/3/2 160/3/2 161/3/2
f 158/3/2 159/3/2 161/3/2
f 157/3/2 161/3/2 164/3/2
f 161/3/2 162/3/2 164/3/2
f 163/3/2 164/3/2 165/3/2
f 164/3/2 162/3/2 166/3/2
f 165/3/2 164/3/2 166/3/2
f 166/3/2 162/3/2 167/3/2
f 167/3/2 162/3/2 168/3/2
f 166/3/2 167/3/2 169/3/2
f 169/3/2 167/3/2 170/3/2
f 170/3/2 167/3/2 171/3/2
f 171/3/2 167/3/2 172/3/2
f 170/3/2 171/3/2 173/3/2
f 173/3/2 171/3/2 174/3/2
f 175/4/2 176/4/2 178/4/2
f 178/4/2 176/4/2 179/4/2
f 177/4/2 178/4/2 182/4/2
f 179/4/2 180/4/2 182/4/2
f 178/4/2 179/4/2 182/4/2
f 182/4/2 180/4/2 183/4/2
f 181/4/2 182/4/2 186/4/2
f 182/4/2 183/4/2 186/4/2
f 186/4/2 183/4/2 187/4/2
f 183/3/2 184/3/2 188/3/2
f 187/4/2 183/4/2 188/4/2
f 188/3/2 184/3/2 189/3/2
f 186/4/2 187/4/2 191/4/2
f 185/4/2 186/4/2 191/4/2
f 189/3/2 190/3/2 192/3/2
f 191/4/2 187/4/2 192/4/2
f 188/3/2 189/3/2 192/3/2
f 187/3/2 188/3/2 192/3/2
f 192/3/2 190/3/2 193/3/2
f 193/3/2 190/3/2 194/3/2
f 185/4/2 191/4/2 197/4/2
f 197/4/2 191/4/2 198/4/2
f 191/3/2 192/3/2 199/3/2
f 198/4/2 191/4/2 199/4/2
f 192/3/2 193/3/2 199/3/2
f 199/3/2 193/3/2 200/3/2
f 194/4/2 195/4/2 201/4/2
f 200/3/2 193/3/2 201/3/2
f 193/4/2 194/4/2 201/4/2
f 201/4/2 195/4/2 202/4/2
f 197/4/2 198/4/2 205/4/2
f 196/4/2 197/4/2 205/4/2
f 205/4/2 198/4/2 206/4/2
f 199/3/2 200/3/2 207/3/2
f 206/4/2 198/4/2 207/4/2
f 198/3/2 199/3/2 207/3/2
f 207/3/2 200/3/2 208/3/2
f 202/4/2 203/4/2 209/4/2
f 208/3/2 200/3/2 209/3/2
f 201/4/2 202/4/2 209/4/2
f 200/4/2 201/4/2 209/4/2
f 209/4/2 203/4/2 210/4/2
f 205/4/2 206/4/2 212/4/2
f 204/4/2 205/4/2 212/4/2
f 207/3/2 208/3/2 213/3/2
f 212/4/2 206/4/2 213/4/2
f 206/3/2 207/3/2 213/3/2
f 213/3/2 208/3/2 214/3/2
f 208/4/2 209/4/2 215/4/2
f 214/3/2 208/3/2 215/3/2
f 209/4/2 210/4/2 215/4/2
f 215/4/2 210/4/2 216/4/2
f 210/3/2 211/3/2 217/3/2
f 216/4/2 210/4/2 217/4/2
f 217/3/2 211/3/2 218/3/2
f 204/4/2 212/4/2 220/4/2
f 213/3/2 214/3/2 221/3/2
f 220/4/2 212/4/2 221/4/2
f 212/3/2 213/3/2 221/3/2
f 221/3/2 214/3/2 222/3/2
f 215/4/2 216/4/2 223/4/2
f 222/3/2 214/3/2 223/3/2
f 214/4/2 215/4/2 223/4/2
f 223/4/2 216/4/2 224/4/2
f 218/3/2 219/3/2 225/3/2
f 224/4/2 216/4/2 225/4/2
f 217/3/2 218/3/2 225/3/2
f 216/3/2 217/3/2 225/3/2
f 225/3/2 219/3/2 226/3/2
f 221/3/2 222/3/2 228/3/2
f 223/4/2 224/4/2 229/4/2
f 228/3/2 222/3/2 229/3/2
f 222/4/2 223/4/2 229/4/2
f 229/4/2 224/4/2 230/4/2
f 224/3/2 225/3/2 231/3/2
f 230/4/2 224/4/2 231/4/2
f 225/3/2 226/3/2 231/3/2
f 231/3/2 226/3/2 232/3/2
f 226/4/2 227/4/2 233/4/2
f 232/3/2 226/3/2 233/3/2
f 233/4/2 227/4/2 234/4/2
f 229/4/2 230/4/2 235/4/2
f 235/4/2 230/4/2 236/4/2
f 236/4/2 230/4/2 237/4/2
f 231/3/2 232/3/2 238/3/2
f 237/4/2 230/4/2 238/4/2
f 230/3/2 231/3/2 238/3/2
f 238/3/2 232/3/2 239/3/2
f 232/4/2 233/4/2 240/4/2
f 239/3/2 232/3/2 240/3/2
f 240/4/2 233/4/2 241/4/2
f 236/4/2 237/4/2 242/4/2
f 242/4/2 237/4/2 243/4/2
f 243/4/2 237/4/2 244/4/2
f 238/3/2 239/3/2 245/3/2
f 244/4/2 237/4/2 245/4/2
f 237/3/2 238/3/2 245/3/2
f 245/3/2 239/3/2 246/3/2
f 239/4/2 240/4/2 247/4/2
f 246/3/2 239/3/2 247/3/2
f 247/4/2 240/4/2 248/4/2
f 248/4/2 240/4/2 249/4/2
f 243/4/2 244/4/2 250/4/2
f 245/3/2 246/3/2 251/3/2
f 250/4/2 244/4/2 251/4/2
f 244/3/2 245/3/2 251/3/2
f 251/3/2 246/3/2 252/3/2
f 252/3/2 246/3/2 253/3/2
f 247/4/2 248/4/2 254/4/2
f 253/3/2 246/3/2 254/3/2
f 246/4/2 247/4/2 254/4/2
f 252/3/2 253/3/2 255/3/2
f 255/3/2 253/3/2 256/3/2
f 253/4/2 254/4/2 257/4/2
f 256/3/2 253/3/2 257/3/2
f 254/4/2 248/4/2 258/4/2
f 257/4/2 254/4/2 258/4/2
f 258/4/2 248/4/2 259/4/2
f 256/4/2 257/4/2 260/4/2
f 257/4/2 258/4/2 260/4/2
f 260/4/2 258/4/2 261/4/2
f 261/4/2 258/4/2 262/4/2
f 262/4/2 258/4/2 263/4/2
f 261/4/2 262/4/2 264/4/2
f 264/4/2 262/4/2 265/4/2
f 268/3/3 267/3/3 266/3/3
f 269/3/3 267/3/3 268/3/3
f 272/3/3 271/3/3 270/3/3
f 273/3/3 271/3/3 272/3/3
f 280/3/3 275/3/3 274/3/3
f 281/3/3 275/3/3 280/3/3
f 282/3/3 277/3/3 276/3/3
f 283/3/3 277/3/3 282/3/3
f 284/4/3 279/4/3 278/4/3
f 285/4/3 279/4/3 284/4/3
f 292/3/3 287/3/3 286/3/3
f 293/3/3 287/3/3 292/3/3
f 294/4/3 289/4/3 288/4/3
f 295/4/3 289/4/3 294/4/3
f 296/4/3 289/4/3 295/4/3
f 297/3/3 291/3/3 290/3/3
f 298/3/3 291/3/3 297/3/3
f 301/1/3 300/1/3 299/1/3
f 302/1/3 300/1/3 301/1/3
f 305/4/3 304/4/3 303/4/3
f 306/4/3 304/4/3 305/4/3
f 311/4/3 310/4/3 309/4/3
f 312/4/3 310/4/3 311/4/3
f 313/4/3 308/4/3 307/4/3
f 314/4/3 308/4/3 313/4/3
f 319/4/3 318/4/3 317/4/3
f 320/4/3 318/4/3 319/4/3
f 321/4/3 316/4/3 315/4/3
f 322/4/3 316/4/3 321/4/3
f 325/4/3 324/4/3 323/4/3
f 326/4/3 325/4/3 323/4/3
f 327/4/3 326/4/3 323/4/3
f 328/4/3 326/4/3 327/4/3
f 331/4/3 330/4/3 329/4/3
f 332/4/3 330/4/3 331/4/3
f 335/3/3 334/3/3 333/3/3
f 336/3/3 334/3/3 335/3/3
f 339/4/3 338/4/3 337/4/3
f 340/4/3 338/4/3 339/4/3
f 343/4/3 342/4/3 341/4/3
f 344/4/3 342/4/3 343/4/3
f 347/3/3 346/3/3 345/3/3
f 348/3/3 346/3/3 347/3/3
f 351/3/3 350/3/3 349/3/3
f 352/3/3 350/3/3 351/3/3
f 353/3/4 354/3/4 355/3/4
f 355/3/4 354/3/4 356/3/4
f 357/3/4 358/3/4 359/3/4
f 359/3/4 358/3/4 360/3/4
f 361/3/4 362/3/4 363/3/4
f 363/3/4 362/3/4 364/3/4
f 365/3/4 366/3/4 367/3/4
f 367/3/4 366/3/4 368/3/4
f 369/4/4 370/4/4 371/4/4
f 371/4/4 370/4/4 372/4/4
f 373/4/4 374/4/4 375/4/4
f 375/4/4 374/4/4 376/4/4
f 377/3/4 378/3/4 379/3/4
f 379/3/4 378/3/4 380/3/4
f 381/3/4 382/3/4 383/3/4
f 383/3/4 382/3/4 384/3/4
f 385/4/4 386/4/4 389/4/4
f 389/4/4 386/4/4 390/4/4
f 387/4/4 388/4/4 391/4/4
f 391/4/4 388/4/4 392/4/4
f 393/4/4 394/4/4 395/4/4
f 395/4/4 394/4/4 396/4/4
f 397/4/4 398/4/4 401/4/4
f 401/4/4 398/4/4 402/4/4
f 399/4/4 400/4/4 403/4/4
f 403/4/4 400/4/4 404/4/4
f 405/3/4 406/3/4 409/3/4
f 409/3/4 406/3/4 410/3/4
f 407/4/4 408/4/4 411/4/4
f 411/4/4 408/4/4 412/4/4
f 415/4/4 416/4/4 419/4/4
f 417/3/4 418/3/4 420/3/4
f 420/3/4 418/3/4 421/3/4
f 413/3/4 414/3/4 422/3/4
f 422/3/4 414/3/4 423/3/4
f 415/4/4 419/4/4 424/4/4
f 424/4/4 419/4/4 425/4/4
f 428/3/4 429/3/4 432/3/4
f 432/3/4 429/3/4 433/3/4
f 430/3/4 431/3/4 434/3/4
f 434/3/4 431/3/4 435/3/4
f 426/4/4 427/4/4 436/4/4
f 436/4/4 427/4/4 437/4/4
f 438/3/4 439/3/4 440/3/4
f 440/3/4 439/3/4 441/3/4
f 442/3/4 443/3/4 444/3/4
f 444/3/4 443/3/4 445/3/4
f 448/3/5 447/3/5 446/3/5
f 449/3/5 447/3/5 448/3/5
f 452/3/5 451/3/5 450/3/5
f 453/3/5 451/3/5 452/3/5
f 456/3/5 455/3/5 454/3/5
f 457/3/5 455/3/5 456/3/5
f 460/4/5 459/4/5 458/4/5
f 461/4/5 459/4/5 460/4/5
f 464/3/5 463/3/5 462/3/5
f 465/3/5 463/3/5 464/3/5
f 468/3/5 467/3/5 466/3/5
f 469/3/5 467/3/5 468/3/5
f 470/3/5 467/3/5 469/3/5
f 472/4/5 469/4/5 468/4/5
f 473/1/5 470/1/5 469/1/5
f 473/4/5 469/4/5 472/4/5
f 474/4/5 471/4/5 470/4/5
f 474/1/5 470/1/5 473/1/5
f 475/4/5 471/4/5 474/4/5
f 478/4/5 477/4/5 476/4/5
f 479/4/5 477/4/5 478/4/5
f 482/4/5 481/4/5 480/4/5
f 483/4/5 481/4/5 482/4/5
f 486/3/5 485/3/5 484/3/5
f 487/3/5 485/3/5 486/3/5
f 490/4/5 489/4/5 488/4/5
f 491/4/5 489/4/5 490/4/5
f 494/3/5 493/3/5 492/3/5
f 495/3/5 493/3/5 494/3/5
f 498/3/5 497/3/5 496/3/5
f 499/3/5 497/3/5 498/3/5
f 502/4/5 501/4/5 500/4/5
f 503/4/5 501/4/5 502/4/5
f 508/4/5 505/4/5 504/4/5
f 509/4/5 505/4/5 508/4/5
f 510/4/5 507/4/5 506/4/5
f 511/4/5 507/4/5 510/4/5
f 514/4/5 513/4/5 512/4/5
f 515/4/5 513/4/5 514/4/5
f 518/4/5 517/4/5 516/4/5
f 519/4/5 517/4/5 518/4/5
f 522/3/5 521/3/5 520/3/5
f 523/3/5 521/3/5 522/3/5
f 526/3/5 525/3/5 524/3/5
f 527/3/5 525/3/5 526/3/5
f 530/4/5 529/4/5 528/4/5
f 531/4/5 529/4/5 530/4/5
f 534/3/5 533/3/5 532/3/5
f 535/3/5 533/3/5 534/3/5
f 538/3/5 537/3/5 536/3/5
f 539/3/5 537/3/5 538/3/5
f 542/3/5 541/3/5 540/3/5
f 543/3/5 541/3/5 542/3/5
f 544/3/6 545/3/6 546/3/6
f 546/3/6 545/3/6 547/3/6
f 548/2/6 549/2/6 550/2/6
f 550/2/6 549/2/6 551/2/6
f 552/3/6 553/3/6 554/3/6
f 554/3/6 553/3/6 555/3/6
f 556/3/6 557/3/6 558/3/6
f 558/3/6 557/3/6 559/3/6
f 560/4/6 561/4/6 562/4/6
f 562/4/6 561/4/6 563/4/6
f 564/3/6 565/3/6 566/3/6
f 566/3/6 565/3/6 567/3/6
f 568/4/6 569/4/6 570/4/6
f 570/4/6 569/4/6 571/4/6
f 572/4/6 573/4/6 574/4/6
f 574/4/6 573/4/6 575/4/6
f 576/4/6 577/4/6 578/4/6
f 578/4/6 577/4/6 579/4/6
f 580/4/6 581/4/6 582/4/6
f 582/4/6 581/4/6 583/4/6
f 584/4/6 585/4/6 586/4/6
f 586/4/6 585/4/6 587/4/6
f 588/4/6 589/4/6 590/4/6
f 590/4/6 589/4/6 591/4/6
f 590/3/6 591/3/6 592/3/6
f 592/3/6 591/3/6 593/3/6
f 594/3/6 595/3/6 596/3/6
f 596/3/6 595/3/6 597/3/6
f 598/4/6 599/4/6 600/4/6
f 600/4/6 599/4/6 601/4/6
f 602/4/6 603/4/6 604/4/6
f 604/4/6 603/4/6 605/4/6
f 606/4/6 607/4/6 608/4/6
f 608/4/6 607/4/6 609/4/6
f 609/4/6 607/4/6 610/4/6
f 608/3/6 609/3/6 611/3/6
f 611/3/6 609/3/6 612/3/6
f 613/3/6 614/3/6 615/3/6
f 615/3/6 614/3/6 616/3/6
f 617/4/6 618/4/6 619/4/6
f 619/4/6 618/4/6 620/4/6
f 621/3/6 622/3/6 623/3/6
f 623/3/6 622/3/6 624/3/6
f 625/3/6 626/3/6 627/3/6
f 627/3/6 626/3/6 628/3/6
f 629/3/6 630/3/6 631/3/6
f 631/3/6 630/3/6 632/3/6
