# MagicaVoxel @ Ephtracy

# group
o 

# material
mtllib Eruption-14.mtl
usemtl palette

# normals
vn 0 1 0
vn 0 -1 0
vn 0 0 1
vn 0 0 -1
vn -1 0 0
vn 1 0 0

# texcoords
vt 0.490234 0.5
vt 0.755859 0.5
vt 0.759766 0.5
vt 0.802734 0.5
vt 0.814453 0.5
vt 0.826172 0.5
vt 0.841797 0.5
vt 0.908203 0.5
vt 0.943359 0.5
vt 0.958984 0.5
vt 0.966797 0.5

# verts
v -7.2 7.1 -2.7
v -7.2 7.1 -3.7
v -6.8 7.1 -2.7
v -6.8 7.1 -3.7
v -7.2 7 -2.4
v -7.2 7 -2.5
v -7.2 7 -2.7
v -7.2 7 -3.7
v -7.2 7 -3.8
v -7.2 7 -3.9
v -6.8 7 -2.4
v -6.8 7 -2.5
v -6.8 7 -2.7
v -6.8 7 -3.7
v -6.8 7 -3.8
v -6.8 7 -3.9
v -7.2 6.9 -2.3
v -7.2 6.9 -2.4
v -7.2 6.9 -3.9
v -7.2 6.9 -4.1
v -6.8 6.9 -2.3
v -6.8 6.9 -2.4
v -6.8 6.9 -3.9
v -6.8 6.9 -4.1
v -7.2 6.7 -2.1
v -7.2 6.7 -2.3
v -7.2 6.7 -4.1
v -7.2 6.7 -4.2
v -6.8 6.7 -2.1
v -6.8 6.7 -2.3
v -6.8 6.7 -4.1
v -6.8 6.7 -4.2
v -7.2 6.6 -2
v -7.2 6.6 -2.1
v -7.2 6.6 -4.2
v -7.2 6.6 -4.4
v -6.8 6.6 -2
v -6.8 6.6 -2.1
v -6.8 6.6 -4.2
v -6.8 6.6 -4.4
v -7.2 6.3 -1.8
v -7.2 6.3 -2
v -7.2 6.3 -4.4
v -7.2 6.3 -4.5
v -6.8 6.3 -1.8
v -6.8 6.3 -2
v -6.8 6.3 -4.4
v -6.8 6.3 -4.5
v -7.2 5.3 -1.8
v -7.2 5.3 -2
v -7.2 5.3 -4.4
v -7.2 5.3 -4.5
v -6.8 5.3 -1.8
v -6.8 5.3 -2
v -6.8 5.3 -4.4
v -6.8 5.3 -4.5
v -7.2 5.1 -2
v -7.2 5.1 -2.1
v -7.2 5.1 -4.2
v -7.2 5.1 -4.4
v -6.8 5.1 -2
v -6.8 5.1 -2.1
v -6.8 5.1 -4.2
v -6.8 5.1 -4.4
v -7.2 4.9 -2.1
v -7.2 4.9 -2.3
v -7.2 4.9 -4.1
v -7.2 4.9 -4.2
v -6.8 4.9 -2.1
v -6.8 4.9 -2.3
v -6.8 4.9 -4.1
v -6.8 4.9 -4.2
v -7.2 4.8 -2.3
v -7.2 4.8 -2.4
v -7.2 4.8 -3.9
v -7.2 4.8 -4.1
v -6.8 4.8 -2.3
v -6.8 4.8 -2.4
v -6.8 4.8 -3.9
v -6.8 4.8 -4.1
v -7.2 4.6 -2.4
v -7.2 4.6 -2.7
v -7.2 4.6 -3.7
v -7.2 4.6 -3.9
v -6.9 4.6 -3.7
v -6.9 4.6 -3.8
v -6.8 4.6 -2.4
v -6.8 4.6 -2.7
v -6.8 4.6 -3.7
v -6.8 4.6 -3.8
v -6.8 4.6 -3.9
v -7.2 4.5 -2.7
v -7.2 4.5 -3.1
v -7.2 4.5 -3.2
v -7.2 4.5 -3.7
v -6.9 4.5 -3.1
v -6.9 4.5 -3.2
v -6.8 4.5 -2.7
v -6.8 4.5 -3.7
v -7.2 1.8 -3.1
v -7.2 1.8 -3.2
v -6.9 1.8 -3.1
v -6.9 1.8 -3.2
v -7.2 6.3 -1.8
v -6.8 6.3 -1.8
v -7.2 5.6 -1.8
v -6.8 5.6 -1.8
v -7.2 5.3 -1.8
v -6.8 5.3 -1.8
v -7.2 6.6 -2
v -6.8 6.6 -2
v -7.2 6.5 -2
v -6.8 6.5 -2
v -7.2 6.3 -2
v -6.8 6.3 -2
v -7.2 5.3 -2
v -6.8 5.3 -2
v -7.2 5.2 -2
v -6.8 5.2 -2
v -7.2 5.1 -2
v -6.8 5.1 -2
v -7.2 6.7 -2.1
v -6.8 6.7 -2.1
v -7.2 6.6 -2.1
v -6.8 6.6 -2.1
v -7.2 5.1 -2.1
v -6.8 5.1 -2.1
v -7.2 4.9 -2.1
v -6.8 4.9 -2.1
v -7.2 6.9 -2.3
v -6.8 6.9 -2.3
v -7.2 6.7 -2.3
v -6.8 6.7 -2.3
v -7.2 4.9 -2.3
v -6.8 4.9 -2.3
v -7.2 4.8 -2.3
v -6.8 4.8 -2.3
v -7.2 7 -2.4
v -6.8 7 -2.4
v -7.2 6.9 -2.4
v -6.8 6.9 -2.4
v -7.2 4.8 -2.4
v -6.8 4.8 -2.4
v -7.2 4.6 -2.4
v -6.8 4.6 -2.4
v -7.2 7.1 -2.7
v -6.8 7.1 -2.7
v -7.2 7 -2.7
v -6.8 7 -2.7
v -7.2 4.6 -2.7
v -6.8 4.6 -2.7
v -7.2 4.5 -2.7
v -6.8 4.5 -2.7
v -7.2 4.5 -3.1
v -6.9 4.5 -3.1
v -7.2 1.8 -3.1
v -6.9 1.8 -3.1
v -7.2 4.5 -3.2
v -6.9 4.5 -3.2
v -7.2 1.8 -3.2
v -6.9 1.8 -3.2
v -7.2 7.1 -3.7
v -6.8 7.1 -3.7
v -7.2 7 -3.7
v -6.8 7 -3.7
v -7.2 4.6 -3.7
v -6.9 4.6 -3.7
v -6.8 4.6 -3.7
v -7.2 4.5 -3.7
v -6.8 4.5 -3.7
v -7.2 7 -3.9
v -6.8 7 -3.9
v -7.2 6.9 -3.9
v -6.8 6.9 -3.9
v -7.2 4.8 -3.9
v -6.8 4.8 -3.9
v -7.2 4.6 -3.9
v -6.8 4.6 -3.9
v -7.2 6.9 -4.1
v -6.8 6.9 -4.1
v -7.2 6.7 -4.1
v -6.8 6.7 -4.1
v -7.2 4.9 -4.1
v -6.8 4.9 -4.1
v -7.2 4.8 -4.1
v -6.8 4.8 -4.1
v -7.2 6.7 -4.2
v -6.8 6.7 -4.2
v -7.2 6.6 -4.2
v -6.8 6.6 -4.2
v -7.2 5.1 -4.2
v -6.8 5.1 -4.2
v -7.2 4.9 -4.2
v -6.8 4.9 -4.2
v -7.2 6.6 -4.4
v -6.8 6.6 -4.4
v -7.2 6.5 -4.4
v -6.8 6.5 -4.4
v -7.2 6.3 -4.4
v -6.8 6.3 -4.4
v -7.2 5.3 -4.4
v -6.8 5.3 -4.4
v -7.2 5.2 -4.4
v -6.8 5.2 -4.4
v -7.2 5.1 -4.4
v -6.8 5.1 -4.4
v -7.2 6.3 -4.5
v -6.8 6.3 -4.5
v -7.2 5.5 -4.5
v -6.8 5.5 -4.5
v -7.2 5.3 -4.5
v -6.8 5.3 -4.5
v -7.2 6.3 -1.8
v -7.2 5.6 -1.8
v -7.2 5.3 -1.8
v -7.2 6.6 -2
v -7.2 6.5 -2
v -7.2 6.3 -2
v -7.2 5.3 -2
v -7.2 5.2 -2
v -7.2 5.1 -2
v -7.2 6.7 -2.1
v -7.2 6.6 -2.1
v -7.2 5.2 -2.1
v -7.2 5.1 -2.1
v -7.2 4.9 -2.1
v -7.2 6.9 -2.3
v -7.2 6.7 -2.3
v -7.2 5.1 -2.3
v -7.2 4.9 -2.3
v -7.2 4.8 -2.3
v -7.2 7 -2.4
v -7.2 6.9 -2.4
v -7.2 4.9 -2.4
v -7.2 4.8 -2.4
v -7.2 4.6 -2.4
v -7.2 7 -2.5
v -7.2 6.9 -2.5
v -7.2 7.1 -2.7
v -7.2 7 -2.7
v -7.2 4.6 -2.7
v -7.2 4.5 -2.7
v -7.2 4.6 -3.1
v -7.2 4.5 -3.1
v -7.2 1.8 -3.1
v -7.2 4.6 -3.2
v -7.2 4.5 -3.2
v -7.2 1.8 -3.2
v -7.2 4.8 -3.5
v -7.2 4.6 -3.5
v -7.2 7.1 -3.7
v -7.2 7 -3.7
v -7.2 4.6 -3.7
v -7.2 4.5 -3.7
v -7.2 7 -3.8
v -7.2 6.9 -3.8
v -7.2 7 -3.9
v -7.2 6.9 -3.9
v -7.2 4.8 -3.9
v -7.2 4.6 -3.9
v -7.2 6.9 -4.1
v -7.2 6.7 -4.1
v -7.2 5.6 -4.1
v -7.2 5.5 -4.1
v -7.2 4.9 -4.1
v -7.2 4.8 -4.1
v -7.2 6.7 -4.2
v -7.2 6.6 -4.2
v -7.2 5.3 -4.2
v -7.2 5.2 -4.2
v -7.2 5.1 -4.2
v -7.2 4.9 -4.2
v -7.2 6.6 -4.4
v -7.2 6.5 -4.4
v -7.2 6.3 -4.4
v -7.2 5.5 -4.4
v -7.2 5.3 -4.4
v -7.2 5.2 -4.4
v -7.2 5.1 -4.4
v -7.2 6.3 -4.5
v -7.2 5.5 -4.5
v -7.2 5.3 -4.5
v -6.9 4.5 -3.1
v -6.9 1.8 -3.1
v -6.9 4.5 -3.2
v -6.9 1.8 -3.2
v -6.8 6.3 -1.8
v -6.8 5.6 -1.8
v -6.8 5.3 -1.8
v -6.8 6.6 -2
v -6.8 6.5 -2
v -6.8 6.3 -2
v -6.8 5.6 -2
v -6.8 5.5 -2
v -6.8 5.3 -2
v -6.8 5.2 -2
v -6.8 5.1 -2
v -6.8 6.7 -2.1
v -6.8 6.6 -2.1
v -6.8 6.5 -2.1
v -6.8 6.3 -2.1
v -6.8 5.6 -2.1
v -6.8 5.5 -2.1
v -6.8 5.3 -2.1
v -6.8 5.2 -2.1
v -6.8 5.1 -2.1
v -6.8 4.9 -2.1
v -6.8 6.9 -2.3
v -6.8 6.7 -2.3
v -6.8 6.6 -2.3
v -6.8 6.5 -2.3
v -6.8 6.3 -2.3
v -6.8 5.6 -2.3
v -6.8 5.5 -2.3
v -6.8 5.3 -2.3
v -6.8 5.2 -2.3
v -6.8 5.1 -2.3
v -6.8 4.9 -2.3
v -6.8 4.8 -2.3
v -6.8 7 -2.4
v -6.8 6.9 -2.4
v -6.8 6.7 -2.4
v -6.8 6.6 -2.4
v -6.8 6.5 -2.4
v -6.8 6.3 -2.4
v -6.8 6.2 -2.4
v -6.8 5.8 -2.4
v -6.8 5.6 -2.4
v -6.8 5.5 -2.4
v -6.8 5.3 -2.4
v -6.8 5.2 -2.4
v -6.8 5.1 -2.4
v -6.8 4.9 -2.4
v -6.8 4.8 -2.4
v -6.8 4.6 -2.4
v -6.8 7 -2.5
v -6.8 6.9 -2.5
v -6.8 6.7 -2.5
v -6.8 6.6 -2.5
v -6.8 6.5 -2.5
v -6.8 6.3 -2.5
v -6.8 6.2 -2.5
v -6.8 5.8 -2.5
v -6.8 5.6 -2.5
v -6.8 5.5 -2.5
v -6.8 5.3 -2.5
v -6.8 5.2 -2.5
v -6.8 7.1 -2.7
v -6.8 7 -2.7
v -6.8 6.9 -2.7
v -6.8 6.7 -2.7
v -6.8 6.6 -2.7
v -6.8 6.5 -2.7
v -6.8 6.3 -2.7
v -6.8 6.2 -2.7
v -6.8 6 -2.7
v -6.8 5.9 -2.7
v -6.8 5.8 -2.7
v -6.8 5.6 -2.7
v -6.8 5.5 -2.7
v -6.8 4.6 -2.7
v -6.8 4.5 -2.7
v -6.8 6.6 -2.8
v -6.8 6.5 -2.8
v -6.8 6.3 -2.8
v -6.8 6.2 -2.8
v -6.8 6 -2.8
v -6.8 5.9 -2.8
v -6.8 5.8 -2.8
v -6.8 6.3 -3
v -6.8 6.2 -3
v -6.8 6 -3
v -6.8 6 -3.1
v -6.8 5.9 -3.1
v -6.8 5.8 -3.1
v -6.8 6 -3.2
v -6.8 5.9 -3.2
v -6.8 5.8 -3.2
v -6.8 5.6 -3.2
v -6.8 5.5 -3.2
v -6.8 6.3 -3.4
v -6.8 6.2 -3.4
v -6.8 5.8 -3.4
v -6.8 5.6 -3.4
v -6.8 5.5 -3.4
v -6.8 5.3 -3.4
v -6.8 5.2 -3.4
v -6.8 6.6 -3.5
v -6.8 6.5 -3.5
v -6.8 6.3 -3.5
v -6.8 6.2 -3.5
v -6.8 5.8 -3.5
v -6.8 5.6 -3.5
v -6.8 5.5 -3.5
v -6.8 5.3 -3.5
v -6.8 5.2 -3.5
v -6.8 5.1 -3.5
v -6.8 4.9 -3.5
v -6.8 4.8 -3.5
v -6.8 4.6 -3.5
v -6.8 7.1 -3.7
v -6.8 7 -3.7
v -6.8 6.9 -3.7
v -6.8 6.7 -3.7
v -6.8 6.6 -3.7
v -6.8 6.5 -3.7
v -6.8 6.3 -3.7
v -6.8 5.6 -3.7
v -6.8 5.5 -3.7
v -6.8 5.3 -3.7
v -6.8 5.2 -3.7
v -6.8 5.1 -3.7
v -6.8 4.9 -3.7
v -6.8 4.8 -3.7
v -6.8 4.6 -3.7
v -6.8 4.5 -3.7
v -6.8 7 -3.8
v -6.8 6.9 -3.8
v -6.8 6.7 -3.8
v -6.8 6.6 -3.8
v -6.8 6.5 -3.8
v -6.8 6.3 -3.8
v -6.8 5.6 -3.8
v -6.8 5.5 -3.8
v -6.8 5.3 -3.8
v -6.8 5.2 -3.8
v -6.8 5.1 -3.8
v -6.8 4.9 -3.8
v -6.8 4.8 -3.8
v -6.8 4.6 -3.8
v -6.8 7 -3.9
v -6.8 6.9 -3.9
v -6.8 6.7 -3.9
v -6.8 6.6 -3.9
v -6.8 6.5 -3.9
v -6.8 5.5 -3.9
v -6.8 5.3 -3.9
v -6.8 5.2 -3.9
v -6.8 5.1 -3.9
v -6.8 4.9 -3.9
v -6.8 4.8 -3.9
v -6.8 4.6 -3.9
v -6.8 6.9 -4.1
v -6.8 6.7 -4.1
v -6.8 6.6 -4.1
v -6.8 6.5 -4.1
v -6.8 5.5 -4.1
v -6.8 5.3 -4.1
v -6.8 5.2 -4.1
v -6.8 5.1 -4.1
v -6.8 4.9 -4.1
v -6.8 4.8 -4.1
v -6.8 6.7 -4.2
v -6.8 6.6 -4.2
v -6.8 6.5 -4.2
v -6.8 5.5 -4.2
v -6.8 5.3 -4.2
v -6.8 5.2 -4.2
v -6.8 5.1 -4.2
v -6.8 4.9 -4.2
v -6.8 6.6 -4.4
v -6.8 6.5 -4.4
v -6.8 6.3 -4.4
v -6.8 5.5 -4.4
v -6.8 5.3 -4.4
v -6.8 5.2 -4.4
v -6.8 5.1 -4.4
v -6.8 6.3 -4.5
v -6.8 5.5 -4.5
v -6.8 5.3 -4.5

# faces
f 3/6/1 2/6/1 1/6/1
f 4/6/1 2/6/1 3/6/1
f 11/8/1 6/8/1 5/8/1
f 12/6/1 7/6/1 6/6/1
f 12/8/1 6/8/1 11/8/1
f 13/6/1 7/6/1 12/6/1
f 14/6/1 9/6/1 8/6/1
f 15/8/1 10/8/1 9/8/1
f 15/6/1 9/6/1 14/6/1
f 16/8/1 10/8/1 15/8/1
f 21/8/1 18/8/1 17/8/1
f 22/8/1 18/8/1 21/8/1
f 23/8/1 20/8/1 19/8/1
f 24/8/1 20/8/1 23/8/1
f 29/8/1 26/8/1 25/8/1
f 30/8/1 26/8/1 29/8/1
f 31/8/1 28/8/1 27/8/1
f 32/8/1 28/8/1 31/8/1
f 37/8/1 34/8/1 33/8/1
f 38/8/1 34/8/1 37/8/1
f 39/8/1 36/8/1 35/8/1
f 40/8/1 36/8/1 39/8/1
f 45/8/1 42/8/1 41/8/1
f 46/8/1 42/8/1 45/8/1
f 47/8/1 44/8/1 43/8/1
f 48/8/1 44/8/1 47/8/1
f 49/6/2 50/6/2 53/6/2
f 53/6/2 50/6/2 54/6/2
f 51/11/2 52/11/2 55/11/2
f 55/11/2 52/11/2 56/11/2
f 57/6/2 58/6/2 61/6/2
f 61/6/2 58/6/2 62/6/2
f 59/10/2 60/10/2 63/10/2
f 63/10/2 60/10/2 64/10/2
f 65/6/2 66/6/2 69/6/2
f 69/6/2 66/6/2 70/6/2
f 67/10/2 68/10/2 71/10/2
f 71/10/2 68/10/2 72/10/2
f 73/6/2 74/6/2 77/6/2
f 77/6/2 74/6/2 78/6/2
f 75/10/2 76/10/2 79/10/2
f 79/10/2 76/10/2 80/10/2
f 83/10/2 84/10/2 85/10/2
f 85/10/2 84/10/2 86/10/2
f 81/6/2 82/6/2 87/6/2
f 87/6/2 82/6/2 88/6/2
f 85/11/2 86/11/2 89/11/2
f 86/10/2 84/10/2 90/10/2
f 89/11/2 86/11/2 90/11/2
f 90/10/2 84/10/2 91/10/2
f 92/8/2 93/8/2 96/8/2
f 94/8/2 95/8/2 97/8/2
f 92/8/2 96/8/2 98/8/2
f 96/8/2 97/8/2 98/8/2
f 97/8/2 95/8/2 99/8/2
f 98/8/2 97/8/2 99/8/2
f 100/9/2 101/9/2 102/9/2
f 102/9/2 101/9/2 103/9/2
f 106/8/3 105/8/3 104/8/3
f 107/8/3 105/8/3 106/8/3
f 108/6/3 107/6/3 106/6/3
f 109/6/3 107/6/3 108/6/3
f 112/8/3 111/8/3 110/8/3
f 113/8/3 111/8/3 112/8/3
f 114/6/3 113/6/3 112/6/3
f 115/6/3 113/6/3 114/6/3
f 118/7/3 117/7/3 116/7/3
f 119/7/3 117/7/3 118/7/3
f 120/6/3 119/6/3 118/6/3
f 121/6/3 119/6/3 120/6/3
f 124/8/3 123/8/3 122/8/3
f 125/8/3 123/8/3 124/8/3
f 128/6/3 127/6/3 126/6/3
f 129/6/3 127/6/3 128/6/3
f 132/8/3 131/8/3 130/8/3
f 133/8/3 131/8/3 132/8/3
f 136/6/3 135/6/3 134/6/3
f 137/6/3 135/6/3 136/6/3
f 140/8/3 139/8/3 138/8/3
f 141/8/3 139/8/3 140/8/3
f 144/6/3 143/6/3 142/6/3
f 145/6/3 143/6/3 144/6/3
f 148/6/3 147/6/3 146/6/3
f 149/6/3 147/6/3 148/6/3
f 152/8/3 151/8/3 150/8/3
f 153/8/3 151/8/3 152/8/3
f 156/9/3 155/9/3 154/9/3
f 157/9/3 155/9/3 156/9/3
f 158/9/4 159/9/4 160/9/4
f 160/9/4 159/9/4 161/9/4
f 162/6/4 163/6/4 164/6/4
f 164/6/4 163/6/4 165/6/4
f 166/8/4 167/8/4 169/8/4
f 167/8/4 168/8/4 169/8/4
f 169/8/4 168/8/4 170/8/4
f 171/8/4 172/8/4 173/8/4
f 173/8/4 172/8/4 174/8/4
f 175/10/4 176/10/4 177/10/4
f 177/10/4 176/10/4 178/10/4
f 179/8/4 180/8/4 181/8/4
f 181/8/4 180/8/4 182/8/4
f 183/10/4 184/10/4 185/10/4
f 185/10/4 184/10/4 186/10/4
f 187/8/4 188/8/4 189/8/4
f 189/8/4 188/8/4 190/8/4
f 191/10/4 192/10/4 193/10/4
f 193/10/4 192/10/4 194/10/4
f 195/8/4 196/8/4 197/8/4
f 197/8/4 196/8/4 198/8/4
f 197/6/4 198/6/4 199/6/4
f 199/6/4 198/6/4 200/6/4
f 201/11/4 202/11/4 203/11/4
f 203/11/4 202/11/4 204/11/4
f 203/10/4 204/10/4 205/10/4
f 205/10/4 204/10/4 206/10/4
f 207/8/4 208/8/4 209/8/4
f 209/8/4 208/8/4 210/8/4
f 209/11/4 210/11/4 211/11/4
f 211/11/4 210/11/4 212/11/4
f 218/8/5 214/8/5 213/8/5
f 219/6/5 215/6/5 214/6/5
f 223/8/5 217/8/5 216/8/5
f 224/6/5 221/6/5 220/6/5
f 224/7/5 220/7/5 219/7/5
f 225/6/5 221/6/5 224/6/5
f 228/8/5 223/8/5 222/8/5
f 229/6/5 226/6/5 225/6/5
f 229/10/5 225/10/5 224/10/5
f 230/6/5 226/6/5 229/6/5
f 233/8/5 228/8/5 227/8/5
f 234/6/5 231/6/5 230/6/5
f 234/10/5 230/10/5 229/10/5
f 235/6/5 231/6/5 234/6/5
f 237/8/5 233/8/5 232/8/5
f 238/8/5 228/8/5 233/8/5
f 238/8/5 233/8/5 237/8/5
f 240/6/5 238/6/5 237/6/5
f 241/6/5 236/6/5 235/6/5
f 243/6/5 241/6/5 235/6/5
f 243/8/5 242/8/5 241/8/5
f 244/8/5 242/8/5 243/8/5
f 246/6/5 243/6/5 235/6/5
f 246/1/5 244/1/5 243/1/5
f 247/9/5 245/9/5 244/9/5
f 247/1/5 244/1/5 246/1/5
f 248/9/5 245/9/5 247/9/5
f 249/10/5 235/10/5 234/10/5
f 249/6/5 246/6/5 235/6/5
f 250/8/5 247/8/5 246/8/5
f 250/6/5 246/6/5 249/6/5
f 251/6/5 240/6/5 239/6/5
f 252/6/5 238/6/5 240/6/5
f 252/6/5 240/6/5 251/6/5
f 253/8/5 247/8/5 250/8/5
f 253/10/5 250/10/5 249/10/5
f 254/8/5 247/8/5 253/8/5
f 255/6/5 238/6/5 252/6/5
f 256/8/5 228/8/5 238/8/5
f 256/6/5 238/6/5 255/6/5
f 257/8/5 256/8/5 255/8/5
f 258/8/5 228/8/5 256/8/5
f 258/8/5 256/8/5 257/8/5
f 259/10/5 249/10/5 234/10/5
f 259/10/5 253/10/5 249/10/5
f 260/10/5 253/10/5 259/10/5
f 261/8/5 228/8/5 258/8/5
f 262/8/5 223/8/5 228/8/5
f 262/8/5 228/8/5 261/8/5
f 263/8/5 214/8/5 218/8/5
f 263/6/5 219/6/5 214/6/5
f 264/6/5 219/6/5 263/6/5
f 265/10/5 234/10/5 229/10/5
f 265/10/5 259/10/5 234/10/5
f 266/10/5 259/10/5 265/10/5
f 267/8/5 223/8/5 262/8/5
f 268/8/5 217/8/5 223/8/5
f 268/8/5 223/8/5 267/8/5
f 269/7/5 224/7/5 219/7/5
f 269/6/5 219/6/5 264/6/5
f 270/10/5 265/10/5 229/10/5
f 270/7/5 224/7/5 269/7/5
f 270/10/5 229/10/5 224/10/5
f 271/10/5 265/10/5 270/10/5
f 272/10/5 265/10/5 271/10/5
f 273/8/5 217/8/5 268/8/5
f 274/6/5 218/6/5 217/6/5
f 274/8/5 217/8/5 273/8/5
f 275/8/5 263/8/5 218/8/5
f 275/6/5 218/6/5 274/6/5
f 275/8/5 264/8/5 263/8/5
f 276/6/5 269/6/5 264/6/5
f 276/8/5 264/8/5 275/8/5
f 277/11/5 270/11/5 269/11/5
f 277/6/5 269/6/5 276/6/5
f 278/10/5 271/10/5 270/10/5
f 278/11/5 270/11/5 277/11/5
f 279/10/5 271/10/5 278/10/5
f 280/8/5 276/8/5 275/8/5
f 281/11/5 277/11/5 276/11/5
f 281/8/5 276/8/5 280/8/5
f 282/11/5 277/11/5 281/11/5
f 283/9/6 284/9/6 285/9/6
f 285/9/6 284/9/6 286/9/6
f 287/8/6 288/8/6 292/8/6
f 288/6/6 289/6/6 293/6/6
f 292/8/6 288/8/6 293/8/6
f 293/6/6 289/6/6 294/6/6
f 294/6/6 289/6/6 295/6/6
f 290/8/6 291/8/6 299/8/6
f 291/6/6 292/6/6 300/6/6
f 292/6/6 293/6/6 300/6/6
f 299/8/6 291/8/6 300/8/6
f 300/6/6 293/6/6 301/6/6
f 293/2/6 294/2/6 302/2/6
f 301/6/6 293/6/6 302/6/6
f 294/3/6 295/3/6 303/3/6
f 302/2/6 294/2/6 303/2/6
f 295/7/6 296/7/6 304/7/6
f 303/3/6 295/3/6 304/3/6
f 296/6/6 297/6/6 305/6/6
f 304/7/6 296/7/6 305/7/6
f 305/6/6 297/6/6 306/6/6
f 298/8/6 299/8/6 309/8/6
f 299/6/6 300/6/6 310/6/6
f 309/8/6 299/8/6 310/8/6
f 300/7/6 301/7/6 311/7/6
f 310/6/6 300/6/6 311/6/6
f 301/3/6 302/3/6 312/3/6
f 311/7/6 301/7/6 312/7/6
f 303/2/6 304/2/6 313/2/6
f 312/3/6 302/3/6 313/3/6
f 302/2/6 303/2/6 313/2/6
f 313/2/6 304/2/6 314/2/6
f 304/3/6 305/3/6 315/3/6
f 314/2/6 304/2/6 315/2/6
f 305/7/6 306/7/6 316/7/6
f 315/3/6 305/3/6 316/3/6
f 306/6/6 307/6/6 317/6/6
f 316/7/6 306/7/6 317/7/6
f 317/6/6 307/6/6 318/6/6
f 308/8/6 309/8/6 321/8/6
f 309/6/6 310/6/6 322/6/6
f 321/8/6 309/8/6 322/8/6
f 310/7/6 311/7/6 323/7/6
f 322/6/6 310/6/6 323/6/6
f 311/3/6 312/3/6 324/3/6
f 323/7/6 311/7/6 324/7/6
f 312/2/6 313/2/6 325/2/6
f 324/3/6 312/3/6 325/3/6
f 325/2/6 313/2/6 326/2/6
f 326/2/6 313/2/6 327/2/6
f 313/3/6 314/3/6 328/3/6
f 327/2/6 313/2/6 328/2/6
f 315/2/6 316/2/6 329/2/6
f 328/3/6 314/3/6 329/3/6
f 314/2/6 315/2/6 329/2/6
f 329/2/6 316/2/6 330/2/6
f 316/3/6 317/3/6 331/3/6
f 330/2/6 316/2/6 331/2/6
f 317/7/6 318/7/6 332/7/6
f 331/3/6 317/3/6 332/3/6
f 318/6/6 319/6/6 333/6/6
f 332/7/6 318/7/6 333/7/6
f 333/6/6 319/6/6 334/6/6
f 320/8/6 321/8/6 336/8/6
f 321/6/6 322/6/6 337/6/6
f 336/8/6 321/8/6 337/8/6
f 322/7/6 323/7/6 338/7/6
f 337/6/6 322/6/6 338/6/6
f 323/3/6 324/3/6 339/3/6
f 338/7/6 323/7/6 339/7/6
f 325/2/6 326/2/6 340/2/6
f 339/3/6 324/3/6 340/3/6
f 324/2/6 325/2/6 340/2/6
f 340/2/6 326/2/6 341/2/6
f 326/3/6 327/3/6 342/3/6
f 341/2/6 326/2/6 342/2/6
f 327/2/6 328/2/6 343/2/6
f 342/3/6 327/3/6 343/3/6
f 328/2/6 329/2/6 343/2/6
f 343/2/6 329/2/6 344/2/6
f 329/3/6 330/3/6 345/3/6
f 344/2/6 329/2/6 345/2/6
f 331/2/6 332/2/6 346/2/6
f 345/3/6 330/3/6 346/3/6
f 330/2/6 331/2/6 346/2/6
f 346/2/6 332/2/6 347/2/6
f 336/6/6 337/6/6 349/6/6
f 337/7/6 338/7/6 350/7/6
f 349/6/6 337/6/6 350/6/6
f 338/3/6 339/3/6 351/3/6
f 350/7/6 338/7/6 351/7/6
f 340/2/6 341/2/6 352/2/6
f 351/3/6 339/3/6 352/3/6
f 339/2/6 340/2/6 352/2/6
f 352/2/6 341/2/6 353/2/6
f 341/3/6 342/3/6 354/3/6
f 353/2/6 341/2/6 354/2/6
f 342/2/6 343/2/6 355/2/6
f 354/3/6 342/3/6 355/3/6
f 355/2/6 343/2/6 356/2/6
f 356/2/6 343/2/6 357/2/6
f 343/3/6 344/3/6 358/3/6
f 357/2/6 343/2/6 358/2/6
f 344/2/6 345/2/6 359/2/6
f 358/3/6 344/3/6 359/3/6
f 345/2/6 346/2/6 359/2/6
f 359/2/6 346/2/6 360/2/6
f 334/6/6 335/6/6 361/6/6
f 352/2/6 353/2/6 363/2/6
f 351/2/6 352/2/6 363/2/6
f 353/3/6 354/3/6 364/3/6
f 363/2/6 353/2/6 364/2/6
f 355/2/6 356/2/6 365/2/6
f 364/3/6 354/3/6 365/3/6
f 354/2/6 355/2/6 365/2/6
f 365/2/6 356/2/6 366/2/6
f 356/3/6 357/3/6 367/3/6
f 366/2/6 356/2/6 367/2/6
f 357/2/6 358/2/6 368/2/6
f 367/3/6 357/3/6 368/3/6
f 358/2/6 359/2/6 368/2/6
f 368/2/6 359/2/6 369/2/6
f 365/2/6 366/2/6 370/2/6
f 364/2/6 365/2/6 370/2/6
f 366/3/6 367/3/6 371/3/6
f 370/2/6 366/2/6 371/2/6
f 367/2/6 368/2/6 372/2/6
f 371/3/6 367/3/6 372/3/6
f 371/2/6 372/2/6 373/2/6
f 372/2/6 368/2/6 373/2/6
f 368/3/6 369/3/6 374/3/6
f 373/2/6 368/2/6 374/2/6
f 369/2/6 359/2/6 375/2/6
f 374/3/6 369/3/6 375/3/6
f 373/3/6 374/3/6 376/3/6
f 371/2/6 373/2/6 376/2/6
f 374/2/6 375/2/6 377/2/6
f 376/3/6 374/3/6 377/3/6
f 375/2/6 359/2/6 378/2/6
f 377/2/6 375/2/6 378/2/6
f 359/3/6 360/3/6 379/3/6
f 378/2/6 359/2/6 379/2/6
f 360/2/6 346/2/6 380/2/6
f 379/3/6 360/3/6 380/3/6
f 364/2/6 370/2/6 381/2/6
f 370/3/6 371/3/6 381/3/6
f 376/2/6 377/2/6 382/2/6
f 381/3/6 371/3/6 382/3/6
f 377/2/6 378/2/6 382/2/6
f 371/2/6 376/2/6 382/2/6
f 378/3/6 379/3/6 383/3/6
f 382/2/6 378/2/6 383/2/6
f 379/2/6 380/2/6 384/2/6
f 383/3/6 379/3/6 384/3/6
f 380/2/6 346/2/6 385/2/6
f 384/2/6 380/2/6 385/2/6
f 346/3/6 347/3/6 386/3/6
f 385/2/6 346/2/6 386/2/6
f 347/2/6 332/2/6 387/2/6
f 386/3/6 347/3/6 387/3/6
f 351/2/6 363/2/6 388/2/6
f 363/3/6 364/3/6 388/3/6
f 381/2/6 382/2/6 389/2/6
f 388/3/6 364/3/6 389/3/6
f 364/2/6 381/2/6 389/2/6
f 389/2/6 382/2/6 390/2/6
f 382/3/6 383/3/6 391/3/6
f 390/2/6 382/2/6 391/2/6
f 383/2/6 384/2/6 392/2/6
f 391/3/6 383/3/6 392/3/6
f 384/2/6 385/2/6 392/2/6
f 392/2/6 385/2/6 393/2/6
f 385/3/6 386/3/6 394/3/6
f 393/2/6 385/2/6 394/2/6
f 386/2/6 387/2/6 395/2/6
f 394/3/6 386/3/6 395/3/6
f 387/2/6 332/2/6 396/2/6
f 395/2/6 387/2/6 396/2/6
f 332/3/6 333/3/6 397/3/6
f 396/2/6 332/2/6 397/2/6
f 333/7/6 334/7/6 398/7/6
f 397/3/6 333/3/6 398/3/6
f 334/6/6 361/6/6 399/6/6
f 398/7/6 334/7/6 399/7/6
f 361/8/6 362/8/6 400/8/6
f 399/6/6 361/6/6 400/6/6
f 348/6/6 349/6/6 401/6/6
f 349/7/6 350/7/6 402/7/6
f 401/6/6 349/6/6 402/6/6
f 350/3/6 351/3/6 403/3/6
f 402/7/6 350/7/6 403/7/6
f 351/2/6 388/2/6 404/2/6
f 403/3/6 351/3/6 404/3/6
f 388/2/6 389/2/6 404/2/6
f 404/2/6 389/2/6 405/2/6
f 389/3/6 390/3/6 406/3/6
f 405/2/6 389/2/6 406/2/6
f 392/2/6 393/2/6 407/2/6
f 406/3/6 390/3/6 407/3/6
f 390/2/6 391/2/6 407/2/6
f 391/2/6 392/2/6 407/2/6
f 393/3/6 394/3/6 408/3/6
f 407/2/6 393/2/6 408/2/6
f 394/2/6 395/2/6 409/2/6
f 408/3/6 394/3/6 409/3/6
f 395/2/6 396/2/6 409/2/6
f 409/2/6 396/2/6 410/2/6
f 396/3/6 397/3/6 411/3/6
f 410/2/6 396/2/6 411/2/6
f 397/7/6 398/7/6 412/7/6
f 411/3/6 397/3/6 412/3/6
f 398/6/6 399/6/6 413/6/6
f 412/7/6 398/7/6 413/7/6
f 399/8/6 400/8/6 414/8/6
f 413/6/6 399/6/6 414/6/6
f 400/8/6 362/8/6 415/8/6
f 414/8/6 400/8/6 415/8/6
f 415/8/6 362/8/6 416/8/6
f 402/6/6 403/6/6 417/6/6
f 403/7/6 404/7/6 418/7/6
f 417/6/6 403/6/6 418/6/6
f 404/3/6 405/3/6 419/3/6
f 418/7/6 404/7/6 419/7/6
f 405/2/6 406/2/6 420/2/6
f 419/3/6 405/3/6 420/3/6
f 406/2/6 407/2/6 420/2/6
f 420/2/6 407/2/6 421/2/6
f 407/3/6 408/3/6 422/3/6
f 421/2/6 407/2/6 422/2/6
f 409/2/6 410/2/6 423/2/6
f 422/3/6 408/3/6 423/3/6
f 408/2/6 409/2/6 423/2/6
f 423/2/6 410/2/6 424/2/6
f 410/3/6 411/3/6 425/3/6
f 424/2/6 410/2/6 425/2/6
f 411/7/6 412/7/6 426/7/6
f 425/3/6 411/3/6 426/3/6
f 412/6/6 413/6/6 427/6/6
f 426/7/6 412/7/6 427/7/6
f 413/8/6 414/8/6 428/8/6
f 427/6/6 413/6/6 428/6/6
f 414/11/6 415/11/6 429/11/6
f 428/8/6 414/8/6 429/8/6
f 429/11/6 415/11/6 430/11/6
f 417/8/6 418/8/6 431/8/6
f 418/6/6 419/6/6 432/6/6
f 431/8/6 418/8/6 432/8/6
f 419/7/6 420/7/6 433/7/6
f 432/6/6 419/6/6 433/6/6
f 420/3/6 421/3/6 434/3/6
f 433/7/6 420/7/6 434/7/6
f 421/2/6 422/2/6 435/2/6
f 434/3/6 421/3/6 435/3/6
f 423/2/6 424/2/6 435/2/6
f 422/2/6 423/2/6 435/2/6
f 424/3/6 425/3/6 436/3/6
f 435/2/6 424/2/6 436/2/6
f 425/7/6 426/7/6 437/7/6
f 436/3/6 425/3/6 437/3/6
f 426/6/6 427/6/6 438/6/6
f 437/7/6 426/7/6 438/7/6
f 427/8/6 428/8/6 439/8/6
f 438/6/6 427/6/6 439/6/6
f 428/11/6 429/11/6 440/11/6
f 439/8/6 428/8/6 440/8/6
f 429/10/6 430/10/6 441/10/6
f 440/11/6 429/11/6 441/11/6
f 441/10/6 430/10/6 442/10/6
f 432/8/6 433/8/6 443/8/6
f 433/6/6 434/6/6 444/6/6
f 443/8/6 433/8/6 444/8/6
f 434/7/6 435/7/6 445/7/6
f 444/6/6 434/6/6 445/6/6
f 435/3/6 436/3/6 446/3/6
f 445/7/6 435/7/6 446/7/6
f 436/7/6 437/7/6 447/7/6
f 446/3/6 436/3/6 447/3/6
f 437/6/6 438/6/6 448/6/6
f 447/7/6 437/7/6 448/7/6
f 438/8/6 439/8/6 449/8/6
f 448/6/6 438/6/6 449/6/6
f 439/11/6 440/11/6 450/11/6
f 449/8/6 439/8/6 450/8/6
f 440/10/6 441/10/6 451/10/6
f 450/11/6 440/11/6 451/11/6
f 451/10/6 441/10/6 452/10/6
f 444/8/6 445/8/6 453/8/6
f 445/6/6 446/6/6 454/6/6
f 453/8/6 445/8/6 454/8/6
f 446/7/6 447/7/6 455/7/6
f 454/6/6 446/6/6 455/6/6
f 447/6/6 448/6/6 456/6/6
f 455/7/6 447/7/6 456/7/6
f 448/8/6 449/8/6 457/8/6
f 456/6/6 448/6/6 457/6/6
f 449/11/6 450/11/6 458/11/6
f 457/8/6 449/8/6 458/8/6
f 450/10/6 451/10/6 459/10/6
f 458/11/6 450/11/6 459/11/6
f 459/10/6 451/10/6 460/10/6
f 454/8/6 455/8/6 461/8/6
f 455/6/6 456/6/6 462/6/6
f 461/8/6 455/8/6 462/8/6
f 462/6/6 456/6/6 463/6/6
f 456/8/6 457/8/6 464/8/6
f 463/6/6 456/6/6 464/6/6
f 457/11/6 458/11/6 465/11/6
f 464/8/6 457/8/6 465/8/6
f 458/10/6 459/10/6 466/10/6
f 465/11/6 458/11/6 466/11/6
f 466/10/6 459/10/6 467/10/6
f 463/8/6 464/8/6 468/8/6
f 464/11/6 465/11/6 469/11/6
f 468/8/6 464/8/6 469/8/6
f 469/11/6 465/11/6 470/11/6
