# MagicaVoxel @ Ephtracy

# group
o 

# material
mtllib Eruption-11.mtl
usemtl palette

# normals
vn -1 0 0
vn 1 0 0
vn 0 0 1
vn 0 0 -1
vn 0 -1 0
vn 0 1 0

# texcoords
vt 0.306641 0.5
vt 0.626953 0.5
vt 0.630859 0.5
vt 0.634766 0.5
vt 0.638672 0.5

# verts
v -42.8 1 -28.2
v -42.8 1 -29
v -42.8 1.2 -28.2
v -42.8 1.2 -29
v -42.8 2.3 -28.2
v -42.8 2.3 -28.3
v -42.8 2.3 -28.5
v -42.8 2.3 -28.7
v -42.8 2.3 -28.9
v -42.8 2.3 -29
v -42.8 2.4 -28.3
v -42.8 2.4 -28.4
v -42.8 2.4 -28.5
v -42.8 2.4 -28.7
v -42.8 2.4 -28.8
v -42.8 2.4 -28.9
v -42.8 2.5 -28.4
v -42.8 2.5 -28.5
v -42.8 2.5 -28.7
v -42.8 2.5 -28.8
v -42.8 2.6 -28.5
v -42.8 2.6 -28.7
v -42.7 0 -28.5
v -42.7 0 -28.7
v -42.7 1 -28.5
v -42.7 1 -28.7
v -42.1 0 -28.5
v -42.1 0 -28.7
v -42.1 1 -28.5
v -42.1 1 -28.7
v -42 1 -28.2
v -42 1 -29
v -42 1.2 -28.2
v -42 1.2 -29
v -42 2.3 -28.2
v -42 2.3 -28.3
v -42 2.3 -28.4
v -42 2.3 -28.8
v -42 2.3 -28.9
v -42 2.3 -29
v -42 2.4 -28.3
v -42 2.4 -28.4
v -42 2.4 -28.8
v -42 2.4 -28.9
v -42 2.5 -28.4
v -42 2.5 -28.5
v -42 2.5 -28.7
v -42 2.5 -28.8
v -42 2.6 -28.5
v -42 2.6 -28.7
v -42.8 1 -28.2
v -42.8 1.2 -28.2
v -42.8 2.3 -28.2
v -42 1 -28.2
v -42 1.2 -28.2
v -42 2.3 -28.2
v -42.8 2.3 -28.3
v -42.8 2.4 -28.3
v -42 2.3 -28.3
v -42 2.4 -28.3
v -42.8 2.4 -28.4
v -42.8 2.5 -28.4
v -42 2.4 -28.4
v -42 2.5 -28.4
v -42.8 2.5 -28.5
v -42.8 2.6 -28.5
v -42.7 0 -28.5
v -42.7 1 -28.5
v -42.1 0 -28.5
v -42.1 1 -28.5
v -42 2.5 -28.5
v -42 2.6 -28.5
v -42.8 2.5 -28.7
v -42.8 2.6 -28.7
v -42.7 0 -28.7
v -42.7 1 -28.7
v -42.1 0 -28.7
v -42.1 1 -28.7
v -42 2.5 -28.7
v -42 2.6 -28.7
v -42.8 2.4 -28.8
v -42.8 2.5 -28.8
v -42 2.4 -28.8
v -42 2.5 -28.8
v -42.8 2.3 -28.9
v -42.8 2.4 -28.9
v -42 2.3 -28.9
v -42 2.4 -28.9
v -42.8 1 -29
v -42.8 1.2 -29
v -42.8 2.3 -29
v -42 1 -29
v -42 1.2 -29
v -42 2.3 -29
v -42.7 0 -28.5
v -42.1 0 -28.5
v -42.7 0 -28.7
v -42.1 0 -28.7
v -42.8 1 -28.2
v -42 1 -28.2
v -42.7 1 -28.5
v -42.1 1 -28.5
v -42.7 1 -28.7
v -42.1 1 -28.7
v -42.8 1 -29
v -42 1 -29
v -42.8 2.3 -28.2
v -42 2.3 -28.2
v -42.8 2.3 -28.3
v -42 2.3 -28.3
v -42.8 2.3 -28.9
v -42 2.3 -28.9
v -42.8 2.3 -29
v -42 2.3 -29
v -42.8 2.4 -28.3
v -42 2.4 -28.3
v -42.8 2.4 -28.4
v -42 2.4 -28.4
v -42.8 2.4 -28.8
v -42 2.4 -28.8
v -42.8 2.4 -28.9
v -42 2.4 -28.9
v -42.8 2.5 -28.4
v -42 2.5 -28.4
v -42.8 2.5 -28.5
v -42 2.5 -28.5
v -42.8 2.5 -28.7
v -42 2.5 -28.7
v -42.8 2.5 -28.8
v -42 2.5 -28.8
v -42.8 2.6 -28.5
v -42 2.6 -28.5
v -42.8 2.6 -28.7
v -42 2.6 -28.7

# faces
f 3/4/1 2/4/1 1/4/1
f 4/4/1 2/4/1 3/4/1
f 5/3/1 4/3/1 3/3/1
f 6/3/1 4/3/1 5/3/1
f 7/3/1 4/3/1 6/3/1
f 8/3/1 4/3/1 7/3/1
f 9/3/1 4/3/1 8/3/1
f 10/3/1 4/3/1 9/3/1
f 11/5/1 7/5/1 6/5/1
f 12/5/1 7/5/1 11/5/1
f 13/3/1 8/3/1 7/3/1
f 13/5/1 7/5/1 12/5/1
f 14/5/1 9/5/1 8/5/1
f 14/3/1 8/3/1 13/3/1
f 15/5/1 9/5/1 14/5/1
f 16/5/1 9/5/1 15/5/1
f 17/5/1 13/5/1 12/5/1
f 17/5/1 15/5/1 14/5/1
f 17/5/1 14/5/1 13/5/1
f 18/5/1 15/5/1 17/5/1
f 19/5/1 15/5/1 18/5/1
f 20/5/1 15/5/1 19/5/1
f 21/5/1 19/5/1 18/5/1
f 22/5/1 19/5/1 21/5/1
f 25/2/1 24/2/1 23/2/1
f 26/2/1 24/2/1 25/2/1
f 27/2/2 28/2/2 29/2/2
f 29/2/2 28/2/2 30/2/2
f 31/4/2 32/4/2 33/4/2
f 33/4/2 32/4/2 34/4/2
f 33/3/2 34/3/2 35/3/2
f 35/3/2 34/3/2 36/3/2
f 36/3/2 34/3/2 37/3/2
f 37/3/2 34/3/2 38/3/2
f 38/3/2 34/3/2 39/3/2
f 39/3/2 34/3/2 40/3/2
f 36/5/2 37/5/2 41/5/2
f 37/3/2 38/3/2 42/3/2
f 41/5/2 37/5/2 42/5/2
f 38/5/2 39/5/2 43/5/2
f 42/3/2 38/3/2 43/3/2
f 43/5/2 39/5/2 44/5/2
f 42/5/2 43/5/2 45/5/2
f 45/5/2 43/5/2 46/5/2
f 46/5/2 43/5/2 47/5/2
f 47/5/2 43/5/2 48/5/2
f 46/5/2 47/5/2 49/5/2
f 49/5/2 47/5/2 50/5/2
f 54/4/3 52/4/3 51/4/3
f 55/3/3 53/3/3 52/3/3
f 55/4/3 52/4/3 54/4/3
f 56/3/3 53/3/3 55/3/3
f 59/5/3 58/5/3 57/5/3
f 60/5/3 58/5/3 59/5/3
f 63/5/3 62/5/3 61/5/3
f 64/5/3 62/5/3 63/5/3
f 69/2/3 68/2/3 67/2/3
f 70/2/3 68/2/3 69/2/3
f 71/5/3 66/5/3 65/5/3
f 72/5/3 66/5/3 71/5/3
f 75/2/4 76/2/4 77/2/4
f 77/2/4 76/2/4 78/2/4
f 73/5/4 74/5/4 79/5/4
f 79/5/4 74/5/4 80/5/4
f 81/5/4 82/5/4 83/5/4
f 83/5/4 82/5/4 84/5/4
f 85/5/4 86/5/4 87/5/4
f 87/5/4 86/5/4 88/5/4
f 89/4/4 90/4/4 92/4/4
f 90/3/4 91/3/4 93/3/4
f 92/4/4 90/4/4 93/4/4
f 93/3/4 91/3/4 94/3/4
f 97/2/5 96/2/5 95/2/5
f 98/2/5 96/2/5 97/2/5
f 101/4/5 100/4/5 99/4/5
f 102/4/5 100/4/5 101/4/5
f 103/4/5 101/4/5 99/4/5
f 104/4/5 100/4/5 102/4/5
f 105/4/5 103/4/5 99/4/5
f 105/4/5 104/4/5 103/4/5
f 106/4/5 100/4/5 104/4/5
f 106/4/5 104/4/5 105/4/5
f 107/3/6 108/3/6 109/3/6
f 109/3/6 108/3/6 110/3/6
f 111/3/6 112/3/6 113/3/6
f 113/3/6 112/3/6 114/3/6
f 115/5/6 116/5/6 117/5/6
f 117/5/6 116/5/6 118/5/6
f 119/5/6 120/5/6 121/5/6
f 121/5/6 120/5/6 122/5/6
f 123/5/6 124/5/6 125/5/6
f 125/5/6 124/5/6 126/5/6
f 127/5/6 128/5/6 129/5/6
f 129/5/6 128/5/6 130/5/6
f 131/5/6 132/5/6 133/5/6
f 133/5/6 132/5/6 134/5/6
