# MagicaVoxel @ Ephtracy

# group
o 

# material
mtllib Eruption-51.mtl
usemtl palette

# normals
vn -1 0 0
vn 1 0 0
vn 0 0 1
vn 0 0 -1
vn 0 -1 0
vn 0 1 0

# texcoords
vt 0.306641 0.5
vt 0.970703 0.5
vt 0.974609 0.5
vt 0.978516 0.5
vt 0.982422 0.5
vt 0.986328 0.5
vt 0.990234 0.5
vt 0.994141 0.5

# verts
v -5.9 0 10.2
v -5.9 0 -2.4
v -5.9 0.1 10.2
v -5.9 0.1 9.3
v -5.9 0.2 9.3
v -5.9 0.2 8
v -5.9 0.3 8
v -5.9 0.3 6.7
v -5.9 0.4 6.7
v -5.9 0.4 5.4
v -5.9 0.5 5.4
v -5.9 0.5 4.1
v -5.9 0.6 4.1
v -5.9 0.6 2.8
v -5.9 0.7 2.8
v -5.9 0.7 1.5
v -5.9 0.8 1.5
v -5.9 0.8 0.2
v -5.9 0.9 0.2
v -5.9 0.9 -1.1
v -5.9 1 -1.1
v -5.9 1 -2.4
v 3.9 0 10.2
v 3.9 0 -2.4
v 3.9 0.1 10.2
v 3.9 0.1 9.3
v 3.9 0.2 9.3
v 3.9 0.2 8
v 3.9 0.3 8
v 3.9 0.3 6.7
v 3.9 0.4 6.7
v 3.9 0.4 5.4
v 3.9 0.5 5.4
v 3.9 0.5 4.1
v 3.9 0.6 4.1
v 3.9 0.6 2.8
v 3.9 0.7 2.8
v 3.9 0.7 1.5
v 3.9 0.8 1.5
v 3.9 0.8 0.2
v 3.9 0.9 0.2
v 3.9 0.9 -1.1
v 3.9 1 -1.1
v 3.9 1 -2.4
v -5.9 0 10.2
v -5.9 0.1 10.2
v -4.5 0 10.2
v -4.5 0.1 10.2
v -3.1 0 10.2
v -3.1 0.1 10.2
v -1.7 0 10.2
v -1.7 0.1 10.2
v -0.3 0 10.2
v -0.3 0.1 10.2
v 1.1 0 10.2
v 1.1 0.1 10.2
v 2.5 0 10.2
v 2.5 0.1 10.2
v 3.9 0 10.2
v 3.9 0.1 10.2
v -5.9 0.1 9.3
v -5.9 0.2 9.3
v -4.5 0.1 9.3
v -4.5 0.2 9.3
v -3.1 0.1 9.3
v -3.1 0.2 9.3
v -1.7 0.1 9.3
v -1.7 0.2 9.3
v -0.3 0.1 9.3
v -0.3 0.2 9.3
v 1.1 0.1 9.3
v 1.1 0.2 9.3
v 2.5 0.1 9.3
v 2.5 0.2 9.3
v 3.9 0.1 9.3
v 3.9 0.2 9.3
v -5.9 0.2 8
v -5.9 0.3 8
v -4.5 0.2 8
v -4.5 0.3 8
v -3.1 0.2 8
v -3.1 0.3 8
v -1.7 0.2 8
v -1.7 0.3 8
v -0.3 0.2 8
v -0.3 0.3 8
v 1.1 0.2 8
v 1.1 0.3 8
v 2.5 0.2 8
v 2.5 0.3 8
v 3.9 0.2 8
v 3.9 0.3 8
v -5.9 0.3 6.7
v -5.9 0.4 6.7
v -4.5 0.3 6.7
v -4.5 0.4 6.7
v -3.1 0.3 6.7
v -3.1 0.4 6.7
v -1.7 0.3 6.7
v -1.7 0.4 6.7
v -0.3 0.3 6.7
v -0.3 0.4 6.7
v 1.1 0.3 6.7
v 1.1 0.4 6.7
v 2.5 0.3 6.7
v 2.5 0.4 6.7
v 3.9 0.3 6.7
v 3.9 0.4 6.7
v -5.9 0.4 5.4
v -5.9 0.5 5.4
v -4.5 0.4 5.4
v -4.5 0.5 5.4
v -3.1 0.4 5.4
v -3.1 0.5 5.4
v -1.7 0.4 5.4
v -1.7 0.5 5.4
v -0.3 0.4 5.4
v -0.3 0.5 5.4
v 1.1 0.4 5.4
v 1.1 0.5 5.4
v 2.5 0.4 5.4
v 2.5 0.5 5.4
v 3.9 0.4 5.4
v 3.9 0.5 5.4
v -5.9 0.5 4.1
v -5.9 0.6 4.1
v -4.5 0.5 4.1
v -4.5 0.6 4.1
v -3.1 0.5 4.1
v -3.1 0.6 4.1
v -1.7 0.5 4.1
v -1.7 0.6 4.1
v -0.3 0.5 4.1
v -0.3 0.6 4.1
v 1.1 0.5 4.1
v 1.1 0.6 4.1
v 2.5 0.5 4.1
v 2.5 0.6 4.1
v 3.9 0.5 4.1
v 3.9 0.6 4.1
v -5.9 0.6 2.8
v -5.9 0.7 2.8
v -4.5 0.6 2.8
v -4.5 0.7 2.8
v -3.1 0.6 2.8
v -3.1 0.7 2.8
v -1.7 0.6 2.8
v -1.7 0.7 2.8
v -0.3 0.6 2.8
v -0.3 0.7 2.8
v 1.1 0.6 2.8
v 1.1 0.7 2.8
v 2.5 0.6 2.8
v 2.5 0.7 2.8
v 3.9 0.6 2.8
v 3.9 0.7 2.8
v -5.9 0.7 1.5
v -5.9 0.8 1.5
v -4.5 0.7 1.5
v -4.5 0.8 1.5
v -3.1 0.7 1.5
v -3.1 0.8 1.5
v -1.7 0.7 1.5
v -1.7 0.8 1.5
v -0.3 0.7 1.5
v -0.3 0.8 1.5
v 1.1 0.7 1.5
v 1.1 0.8 1.5
v 2.5 0.7 1.5
v 2.5 0.8 1.5
v 3.9 0.7 1.5
v 3.9 0.8 1.5
v -5.9 0.8 0.2
v -5.9 0.9 0.2
v -4.5 0.8 0.2
v -4.5 0.9 0.2
v -3.1 0.8 0.2
v -3.1 0.9 0.2
v -1.7 0.8 0.2
v -1.7 0.9 0.2
v -0.3 0.8 0.2
v -0.3 0.9 0.2
v 1.1 0.8 0.2
v 1.1 0.9 0.2
v 2.5 0.8 0.2
v 2.5 0.9 0.2
v 3.9 0.8 0.2
v 3.9 0.9 0.2
v -5.9 0.9 -1.1
v -5.9 1 -1.1
v -4.5 0.9 -1.1
v -4.5 1 -1.1
v -3.1 0.9 -1.1
v -3.1 1 -1.1
v -1.7 0.9 -1.1
v -1.7 1 -1.1
v -0.3 0.9 -1.1
v -0.3 1 -1.1
v 1.1 0.9 -1.1
v 1.1 1 -1.1
v 2.5 0.9 -1.1
v 2.5 1 -1.1
v 3.9 0.9 -1.1
v 3.9 1 -1.1
v -5.9 0 -2.4
v -5.9 1 -2.4
v -5.8 0.1 -2.4
v -5.8 0.8 -2.4
v -4.5 0 -2.4
v -4.5 0.1 -2.4
v -4.5 0.8 -2.4
v -4.5 1 -2.4
v -3.1 0 -2.4
v -3.1 0.1 -2.4
v -3.1 0.8 -2.4
v -3.1 1 -2.4
v -1.8 0.7 -2.4
v -1.8 0.8 -2.4
v -1.7 0 -2.4
v -1.7 0.1 -2.4
v -1.7 0.7 -2.4
v -1.7 0.8 -2.4
v -1.7 1 -2.4
v -0.4 0.8 -2.4
v -0.4 0.9 -2.4
v -0.3 0 -2.4
v -0.3 0.1 -2.4
v -0.3 0.9 -2.4
v -0.3 1 -2.4
v 1.1 0 -2.4
v 1.1 0.1 -2.4
v 1.1 0.8 -2.4
v 1.1 1 -2.4
v 2.5 0 -2.4
v 2.5 0.1 -2.4
v 2.5 0.8 -2.4
v 2.5 1 -2.4
v 3.8 0.1 -2.4
v 3.8 0.8 -2.4
v 3.9 0 -2.4
v 3.9 1 -2.4
v -5.9 0 10.2
v -4.5 0 10.2
v -3.1 0 10.2
v -1.7 0 10.2
v -0.3 0 10.2
v 1.1 0 10.2
v 2.5 0 10.2
v 3.9 0 10.2
v -5.9 0 -2.4
v -4.5 0 -2.4
v -3.1 0 -2.4
v -1.7 0 -2.4
v -0.3 0 -2.4
v 1.1 0 -2.4
v 2.5 0 -2.4
v 3.9 0 -2.4
v -5.9 0.1 10.2
v -4.5 0.1 10.2
v -3.1 0.1 10.2
v -1.7 0.1 10.2
v -0.3 0.1 10.2
v 1.1 0.1 10.2
v 2.5 0.1 10.2
v 3.9 0.1 10.2
v -5.9 0.1 9.3
v -4.5 0.1 9.3
v -3.1 0.1 9.3
v -1.7 0.1 9.3
v -0.3 0.1 9.3
v 1.1 0.1 9.3
v 2.5 0.1 9.3
v 3.9 0.1 9.3
v -5.9 0.2 9.3
v -4.5 0.2 9.3
v -3.1 0.2 9.3
v -1.7 0.2 9.3
v -0.3 0.2 9.3
v 1.1 0.2 9.3
v 2.5 0.2 9.3
v 3.9 0.2 9.3
v -5.9 0.2 8
v -4.5 0.2 8
v -3.1 0.2 8
v -1.7 0.2 8
v -0.3 0.2 8
v 1.1 0.2 8
v 2.5 0.2 8
v 3.9 0.2 8
v -5.9 0.3 8
v -4.5 0.3 8
v -3.1 0.3 8
v -1.7 0.3 8
v -0.3 0.3 8
v 1.1 0.3 8
v 2.5 0.3 8
v 3.9 0.3 8
v -5.9 0.3 6.7
v -4.5 0.3 6.7
v -3.1 0.3 6.7
v -1.7 0.3 6.7
v -0.3 0.3 6.7
v 1.1 0.3 6.7
v 2.5 0.3 6.7
v 3.9 0.3 6.7
v -5.9 0.4 6.7
v -4.5 0.4 6.7
v -3.1 0.4 6.7
v -1.7 0.4 6.7
v -0.3 0.4 6.7
v 1.1 0.4 6.7
v 2.5 0.4 6.7
v 3.9 0.4 6.7
v -5.9 0.4 5.4
v -4.5 0.4 5.4
v -3.1 0.4 5.4
v -1.7 0.4 5.4
v -0.3 0.4 5.4
v 1.1 0.4 5.4
v 2.5 0.4 5.4
v 3.9 0.4 5.4
v -5.9 0.5 5.4
v -4.5 0.5 5.4
v -3.1 0.5 5.4
v -1.7 0.5 5.4
v -0.3 0.5 5.4
v 1.1 0.5 5.4
v 2.5 0.5 5.4
v 3.9 0.5 5.4
v -5.9 0.5 4.1
v -4.5 0.5 4.1
v -3.1 0.5 4.1
v -1.7 0.5 4.1
v -0.3 0.5 4.1
v 1.1 0.5 4.1
v 2.5 0.5 4.1
v 3.9 0.5 4.1
v -5.9 0.6 4.1
v -4.5 0.6 4.1
v -3.1 0.6 4.1
v -1.7 0.6 4.1
v -0.3 0.6 4.1
v 1.1 0.6 4.1
v 2.5 0.6 4.1
v 3.9 0.6 4.1
v -5.9 0.6 2.8
v -4.5 0.6 2.8
v -3.1 0.6 2.8
v -1.7 0.6 2.8
v -0.3 0.6 2.8
v 1.1 0.6 2.8
v 2.5 0.6 2.8
v 3.9 0.6 2.8
v -5.9 0.7 2.8
v -4.5 0.7 2.8
v -3.1 0.7 2.8
v -1.7 0.7 2.8
v -0.3 0.7 2.8
v 1.1 0.7 2.8
v 2.5 0.7 2.8
v 3.9 0.7 2.8
v -5.9 0.7 1.5
v -4.5 0.7 1.5
v -3.1 0.7 1.5
v -1.7 0.7 1.5
v -0.3 0.7 1.5
v 1.1 0.7 1.5
v 2.5 0.7 1.5
v 3.9 0.7 1.5
v -5.9 0.8 1.5
v -4.5 0.8 1.5
v -3.1 0.8 1.5
v -1.7 0.8 1.5
v -0.3 0.8 1.5
v 1.1 0.8 1.5
v 2.5 0.8 1.5
v 3.9 0.8 1.5
v -5.9 0.8 0.2
v -4.5 0.8 0.2
v -3.1 0.8 0.2
v -1.7 0.8 0.2
v -0.3 0.8 0.2
v 1.1 0.8 0.2
v 2.5 0.8 0.2
v 3.9 0.8 0.2
v -5.9 0.9 0.2
v -4.5 0.9 0.2
v -3.1 0.9 0.2
v -1.7 0.9 0.2
v -0.3 0.9 0.2
v 1.1 0.9 0.2
v 2.5 0.9 0.2
v 3.9 0.9 0.2
v -5.9 0.9 -1.1
v -4.5 0.9 -1.1
v -3.1 0.9 -1.1
v -1.7 0.9 -1.1
v -0.3 0.9 -1.1
v 1.1 0.9 -1.1
v 2.5 0.9 -1.1
v 3.9 0.9 -1.1
v -5.9 1 -1.1
v -4.5 1 -1.1
v -3.1 1 -1.1
v -1.7 1 -1.1
v -0.3 1 -1.1
v 1.1 1 -1.1
v 2.5 1 -1.1
v 3.9 1 -1.1
v -5.9 1 -2.4
v -4.5 1 -2.4
v -3.1 1 -2.4
v -1.7 1 -2.4
v -0.3 1 -2.4
v 1.1 1 -2.4
v 2.5 1 -2.4
v 3.9 1 -2.4

# faces
f 3/2/1 2/2/1 1/2/1
f 4/2/1 2/2/1 3/2/1
f 5/2/1 2/2/1 4/2/1
f 6/2/1 2/2/1 5/2/1
f 7/2/1 2/2/1 6/2/1
f 8/2/1 2/2/1 7/2/1
f 9/2/1 2/2/1 8/2/1
f 10/2/1 2/2/1 9/2/1
f 11/2/1 2/2/1 10/2/1
f 12/2/1 2/2/1 11/2/1
f 13/2/1 2/2/1 12/2/1
f 14/2/1 2/2/1 13/2/1
f 15/2/1 2/2/1 14/2/1
f 16/2/1 2/2/1 15/2/1
f 17/2/1 2/2/1 16/2/1
f 18/2/1 2/2/1 17/2/1
f 19/2/1 2/2/1 18/2/1
f 20/2/1 2/2/1 19/2/1
f 21/2/1 2/2/1 20/2/1
f 22/2/1 2/2/1 21/2/1
f 23/8/2 24/8/2 25/8/2
f 25/8/2 24/8/2 26/8/2
f 26/8/2 24/8/2 27/8/2
f 27/8/2 24/8/2 28/8/2
f 28/8/2 24/8/2 29/8/2
f 29/8/2 24/8/2 30/8/2
f 30/8/2 24/8/2 31/8/2
f 31/8/2 24/8/2 32/8/2
f 32/8/2 24/8/2 33/8/2
f 33/8/2 24/8/2 34/8/2
f 34/8/2 24/8/2 35/8/2
f 35/8/2 24/8/2 36/8/2
f 36/8/2 24/8/2 37/8/2
f 37/8/2 24/8/2 38/8/2
f 38/8/2 24/8/2 39/8/2
f 39/8/2 24/8/2 40/8/2
f 40/8/2 24/8/2 41/8/2
f 41/8/2 24/8/2 42/8/2
f 42/8/2 24/8/2 43/8/2
f 43/8/2 24/8/2 44/8/2
f 47/2/3 46/2/3 45/2/3
f 48/2/3 46/2/3 47/2/3
f 49/3/3 48/3/3 47/3/3
f 50/3/3 48/3/3 49/3/3
f 51/4/3 50/4/3 49/4/3
f 52/4/3 50/4/3 51/4/3
f 53/5/3 52/5/3 51/5/3
f 54/5/3 52/5/3 53/5/3
f 55/6/3 54/6/3 53/6/3
f 56/6/3 54/6/3 55/6/3
f 57/7/3 56/7/3 55/7/3
f 58/7/3 56/7/3 57/7/3
f 59/8/3 58/8/3 57/8/3
f 60/8/3 58/8/3 59/8/3
f 63/2/3 62/2/3 61/2/3
f 64/2/3 62/2/3 63/2/3
f 65/3/3 64/3/3 63/3/3
f 66/3/3 64/3/3 65/3/3
f 67/4/3 66/4/3 65/4/3
f 68/4/3 66/4/3 67/4/3
f 69/5/3 68/5/3 67/5/3
f 70/5/3 68/5/3 69/5/3
f 71/6/3 70/6/3 69/6/3
f 72/6/3 70/6/3 71/6/3
f 73/7/3 72/7/3 71/7/3
f 74/7/3 72/7/3 73/7/3
f 75/8/3 74/8/3 73/8/3
f 76/8/3 74/8/3 75/8/3
f 79/2/3 78/2/3 77/2/3
f 80/2/3 78/2/3 79/2/3
f 81/3/3 80/3/3 79/3/3
f 82/3/3 80/3/3 81/3/3
f 83/4/3 82/4/3 81/4/3
f 84/4/3 82/4/3 83/4/3
f 85/5/3 84/5/3 83/5/3
f 86/5/3 84/5/3 85/5/3
f 87/6/3 86/6/3 85/6/3
f 88/6/3 86/6/3 87/6/3
f 89/7/3 88/7/3 87/7/3
f 90/7/3 88/7/3 89/7/3
f 91/8/3 90/8/3 89/8/3
f 92/8/3 90/8/3 91/8/3
f 95/2/3 94/2/3 93/2/3
f 96/2/3 94/2/3 95/2/3
f 97/3/3 96/3/3 95/3/3
f 98/3/3 96/3/3 97/3/3
f 99/4/3 98/4/3 97/4/3
f 100/4/3 98/4/3 99/4/3
f 101/5/3 100/5/3 99/5/3
f 102/5/3 100/5/3 101/5/3
f 103/6/3 102/6/3 101/6/3
f 104/6/3 102/6/3 103/6/3
f 105/7/3 104/7/3 103/7/3
f 106/7/3 104/7/3 105/7/3
f 107/8/3 106/8/3 105/8/3
f 108/8/3 106/8/3 107/8/3
f 111/2/3 110/2/3 109/2/3
f 112/2/3 110/2/3 111/2/3
f 113/3/3 112/3/3 111/3/3
f 114/3/3 112/3/3 113/3/3
f 115/4/3 114/4/3 113/4/3
f 116/4/3 114/4/3 115/4/3
f 117/5/3 116/5/3 115/5/3
f 118/5/3 116/5/3 117/5/3
f 119/6/3 118/6/3 117/6/3
f 120/6/3 118/6/3 119/6/3
f 121/7/3 120/7/3 119/7/3
f 122/7/3 120/7/3 121/7/3
f 123/8/3 122/8/3 121/8/3
f 124/8/3 122/8/3 123/8/3
f 127/2/3 126/2/3 125/2/3
f 128/2/3 126/2/3 127/2/3
f 129/3/3 128/3/3 127/3/3
f 130/3/3 128/3/3 129/3/3
f 131/4/3 130/4/3 129/4/3
f 132/4/3 130/4/3 131/4/3
f 133/5/3 132/5/3 131/5/3
f 134/5/3 132/5/3 133/5/3
f 135/6/3 134/6/3 133/6/3
f 136/6/3 134/6/3 135/6/3
f 137/7/3 136/7/3 135/7/3
f 138/7/3 136/7/3 137/7/3
f 139/8/3 138/8/3 137/8/3
f 140/8/3 138/8/3 139/8/3
f 143/2/3 142/2/3 141/2/3
f 144/2/3 142/2/3 143/2/3
f 145/3/3 144/3/3 143/3/3
f 146/3/3 144/3/3 145/3/3
f 147/4/3 146/4/3 145/4/3
f 148/4/3 146/4/3 147/4/3
f 149/5/3 148/5/3 147/5/3
f 150/5/3 148/5/3 149/5/3
f 151/6/3 150/6/3 149/6/3
f 152/6/3 150/6/3 151/6/3
f 153/7/3 152/7/3 151/7/3
f 154/7/3 152/7/3 153/7/3
f 155/8/3 154/8/3 153/8/3
f 156/8/3 154/8/3 155/8/3
f 159/2/3 158/2/3 157/2/3
f 160/2/3 158/2/3 159/2/3
f 161/3/3 160/3/3 159/3/3
f 162/3/3 160/3/3 161/3/3
f 163/4/3 162/4/3 161/4/3
f 164/4/3 162/4/3 163/4/3
f 165/5/3 164/5/3 163/5/3
f 166/5/3 164/5/3 165/5/3
f 167/6/3 166/6/3 165/6/3
f 168/6/3 166/6/3 167/6/3
f 169/7/3 168/7/3 167/7/3
f 170/7/3 168/7/3 169/7/3
f 171/8/3 170/8/3 169/8/3
f 172/8/3 170/8/3 171/8/3
f 175/2/3 174/2/3 173/2/3
f 176/2/3 174/2/3 175/2/3
f 177/3/3 176/3/3 175/3/3
f 178/3/3 176/3/3 177/3/3
f 179/4/3 178/4/3 177/4/3
f 180/4/3 178/4/3 179/4/3
f 181/5/3 180/5/3 179/5/3
f 182/5/3 180/5/3 181/5/3
f 183/6/3 182/6/3 181/6/3
f 184/6/3 182/6/3 183/6/3
f 185/7/3 184/7/3 183/7/3
f 186/7/3 184/7/3 185/7/3
f 187/8/3 186/8/3 185/8/3
f 188/8/3 186/8/3 187/8/3
f 191/2/3 190/2/3 189/2/3
f 192/2/3 190/2/3 191/2/3
f 193/3/3 192/3/3 191/3/3
f 194/3/3 192/3/3 193/3/3
f 195/4/3 194/4/3 193/4/3
f 196/4/3 194/4/3 195/4/3
f 197/5/3 196/5/3 195/5/3
f 198/5/3 196/5/3 197/5/3
f 199/6/3 198/6/3 197/6/3
f 200/6/3 198/6/3 199/6/3
f 201/7/3 200/7/3 199/7/3
f 202/7/3 200/7/3 201/7/3
f 203/8/3 202/8/3 201/8/3
f 204/8/3 202/8/3 203/8/3
f 205/2/4 206/2/4 207/2/4
f 207/2/4 206/2/4 208/2/4
f 205/2/4 207/2/4 209/2/4
f 207/1/4 208/1/4 210/1/4
f 209/2/4 207/2/4 210/2/4
f 208/2/4 206/2/4 211/2/4
f 210/1/4 208/1/4 211/1/4
f 211/2/4 206/2/4 212/2/4
f 209/3/4 210/3/4 213/3/4
f 210/1/4 211/1/4 214/1/4
f 213/3/4 210/3/4 214/3/4
f 211/3/4 212/3/4 215/3/4
f 214/1/4 211/1/4 215/1/4
f 215/3/4 212/3/4 216/3/4
f 214/1/4 215/1/4 217/1/4
f 215/4/4 216/4/4 218/4/4
f 217/1/4 215/1/4 218/1/4
f 213/4/4 214/4/4 219/4/4
f 214/1/4 217/1/4 220/1/4
f 219/4/4 214/4/4 220/4/4
f 217/4/4 218/4/4 221/4/4
f 220/1/4 217/1/4 221/1/4
f 218/4/4 216/4/4 222/4/4
f 221/4/4 218/4/4 222/4/4
f 222/4/4 216/4/4 223/4/4
f 220/1/4 221/1/4 224/1/4
f 221/1/4 222/1/4 224/1/4
f 222/5/4 223/5/4 224/5/4
f 224/5/4 223/5/4 225/5/4
f 219/5/4 220/5/4 226/5/4
f 220/1/4 224/1/4 227/1/4
f 226/5/4 220/5/4 227/5/4
f 225/5/4 223/5/4 228/5/4
f 224/6/4 225/6/4 228/6/4
f 228/5/4 223/5/4 229/5/4
f 226/6/4 227/6/4 230/6/4
f 227/1/4 224/1/4 231/1/4
f 230/6/4 227/6/4 231/6/4
f 224/6/4 228/6/4 232/6/4
f 231/1/4 224/1/4 232/1/4
f 228/6/4 229/6/4 232/6/4
f 232/6/4 229/6/4 233/6/4
f 230/7/4 231/7/4 234/7/4
f 231/1/4 232/1/4 235/1/4
f 234/7/4 231/7/4 235/7/4
f 232/7/4 233/7/4 236/7/4
f 235/1/4 232/1/4 236/1/4
f 236/7/4 233/7/4 237/7/4
f 234/8/4 235/8/4 238/8/4
f 235/1/4 236/1/4 238/1/4
f 236/8/4 237/8/4 239/8/4
f 238/1/4 236/1/4 239/1/4
f 234/8/4 238/8/4 240/8/4
f 238/8/4 239/8/4 240/8/4
f 239/8/4 237/8/4 241/8/4
f 240/8/4 239/8/4 241/8/4
f 250/2/5 243/2/5 242/2/5
f 251/3/5 244/3/5 243/3/5
f 251/2/5 243/2/5 250/2/5
f 252/4/5 245/4/5 244/4/5
f 252/3/5 244/3/5 251/3/5
f 253/5/5 246/5/5 245/5/5
f 253/4/5 245/4/5 252/4/5
f 254/6/5 247/6/5 246/6/5
f 254/5/5 246/5/5 253/5/5
f 255/7/5 248/7/5 247/7/5
f 255/6/5 247/6/5 254/6/5
f 256/8/5 249/8/5 248/8/5
f 256/7/5 248/7/5 255/7/5
f 257/8/5 249/8/5 256/8/5
f 258/2/6 259/2/6 266/2/6
f 259/3/6 260/3/6 267/3/6
f 266/2/6 259/2/6 267/2/6
f 260/4/6 261/4/6 268/4/6
f 267/3/6 260/3/6 268/3/6
f 261/5/6 262/5/6 269/5/6
f 268/4/6 261/4/6 269/4/6
f 262/6/6 263/6/6 270/6/6
f 269/5/6 262/5/6 270/5/6
f 263/7/6 264/7/6 271/7/6
f 270/6/6 263/6/6 271/6/6
f 264/8/6 265/8/6 272/8/6
f 271/7/6 264/7/6 272/7/6
f 272/8/6 265/8/6 273/8/6
f 274/2/6 275/2/6 282/2/6
f 275/3/6 276/3/6 283/3/6
f 282/2/6 275/2/6 283/2/6
f 276/4/6 277/4/6 284/4/6
f 283/3/6 276/3/6 284/3/6
f 277/5/6 278/5/6 285/5/6
f 284/4/6 277/4/6 285/4/6
f 278/6/6 279/6/6 286/6/6
f 285/5/6 278/5/6 286/5/6
f 279/7/6 280/7/6 287/7/6
f 286/6/6 279/6/6 287/6/6
f 280/8/6 281/8/6 288/8/6
f 287/7/6 280/7/6 288/7/6
f 288/8/6 281/8/6 289/8/6
f 290/2/6 291/2/6 298/2/6
f 291/3/6 292/3/6 299/3/6
f 298/2/6 291/2/6 299/2/6
f 292/4/6 293/4/6 300/4/6
f 299/3/6 292/3/6 300/3/6
f 293/5/6 294/5/6 301/5/6
f 300/4/6 293/4/6 301/4/6
f 294/6/6 295/6/6 302/6/6
f 301/5/6 294/5/6 302/5/6
f 295/7/6 296/7/6 303/7/6
f 302/6/6 295/6/6 303/6/6
f 296/8/6 297/8/6 304/8/6
f 303/7/6 296/7/6 304/7/6
f 304/8/6 297/8/6 305/8/6
f 306/2/6 307/2/6 314/2/6
f 307/3/6 308/3/6 315/3/6
f 314/2/6 307/2/6 315/2/6
f 308/4/6 309/4/6 316/4/6
f 315/3/6 308/3/6 316/3/6
f 309/5/6 310/5/6 317/5/6
f 316/4/6 309/4/6 317/4/6
f 310/6/6 311/6/6 318/6/6
f 317/5/6 310/5/6 318/5/6
f 311/7/6 312/7/6 319/7/6
f 318/6/6 311/6/6 319/6/6
f 312/8/6 313/8/6 320/8/6
f 319/7/6 312/7/6 320/7/6
f 320/8/6 313/8/6 321/8/6
f 322/2/6 323/2/6 330/2/6
f 323/3/6 324/3/6 331/3/6
f 330/2/6 323/2/6 331/2/6
f 324/4/6 325/4/6 332/4/6
f 331/3/6 324/3/6 332/3/6
f 325/5/6 326/5/6 333/5/6
f 332/4/6 325/4/6 333/4/6
f 326/6/6 327/6/6 334/6/6
f 333/5/6 326/5/6 334/5/6
f 327/7/6 328/7/6 335/7/6
f 334/6/6 327/6/6 335/6/6
f 328/8/6 329/8/6 336/8/6
f 335/7/6 328/7/6 336/7/6
f 336/8/6 329/8/6 337/8/6
f 338/2/6 339/2/6 346/2/6
f 339/3/6 340/3/6 347/3/6
f 346/2/6 339/2/6 347/2/6
f 340/4/6 341/4/6 348/4/6
f 347/3/6 340/3/6 348/3/6
f 341/5/6 342/5/6 349/5/6
f 348/4/6 341/4/6 349/4/6
f 342/6/6 343/6/6 350/6/6
f 349/5/6 342/5/6 350/5/6
f 343/7/6 344/7/6 351/7/6
f 350/6/6 343/6/6 351/6/6
f 344/8/6 345/8/6 352/8/6
f 351/7/6 344/7/6 352/7/6
f 352/8/6 345/8/6 353/8/6
f 354/2/6 355/2/6 362/2/6
f 355/3/6 356/3/6 363/3/6
f 362/2/6 355/2/6 363/2/6
f 356/4/6 357/4/6 364/4/6
f 363/3/6 356/3/6 364/3/6
f 357/5/6 358/5/6 365/5/6
f 364/4/6 357/4/6 365/4/6
f 358/6/6 359/6/6 366/6/6
f 365/5/6 358/5/6 366/5/6
f 359/7/6 360/7/6 367/7/6
f 366/6/6 359/6/6 367/6/6
f 360/8/6 361/8/6 368/8/6
f 367/7/6 360/7/6 368/7/6
f 368/8/6 361/8/6 369/8/6
f 370/2/6 371/2/6 378/2/6
f 371/3/6 372/3/6 379/3/6
f 378/2/6 371/2/6 379/2/6
f 372/4/6 373/4/6 380/4/6
f 379/3/6 372/3/6 380/3/6
f 373/5/6 374/5/6 381/5/6
f 380/4/6 373/4/6 381/4/6
f 374/6/6 375/6/6 382/6/6
f 381/5/6 374/5/6 382/5/6
f 375/7/6 376/7/6 383/7/6
f 382/6/6 375/6/6 383/6/6
f 376/8/6 377/8/6 384/8/6
f 383/7/6 376/7/6 384/7/6
f 384/8/6 377/8/6 385/8/6
f 386/2/6 387/2/6 394/2/6
f 387/3/6 388/3/6 395/3/6
f 394/2/6 387/2/6 395/2/6
f 388/4/6 389/4/6 396/4/6
f 395/3/6 388/3/6 396/3/6
f 389/5/6 390/5/6 397/5/6
f 396/4/6 389/4/6 397/4/6
f 390/6/6 391/6/6 398/6/6
f 397/5/6 390/5/6 398/5/6
f 391/7/6 392/7/6 399/7/6
f 398/6/6 391/6/6 399/6/6
f 392/8/6 393/8/6 400/8/6
f 399/7/6 392/7/6 400/7/6
f 400/8/6 393/8/6 401/8/6
f 402/2/6 403/2/6 410/2/6
f 403/3/6 404/3/6 411/3/6
f 410/2/6 403/2/6 411/2/6
f 404/4/6 405/4/6 412/4/6
f 411/3/6 404/3/6 412/3/6
f 405/5/6 406/5/6 413/5/6
f 412/4/6 405/4/6 413/4/6
f 406/6/6 407/6/6 414/6/6
f 413/5/6 406/5/6 414/5/6
f 407/7/6 408/7/6 415/7/6
f 414/6/6 407/6/6 415/6/6
f 408/8/6 409/8/6 416/8/6
f 415/7/6 408/7/6 416/7/6
f 416/8/6 409/8/6 417/8/6
