# MagicaVoxel @ Ephtracy

# group
o 

# material
mtllib Eruption-39.mtl
usemtl palette

# normals
vn 0 1 0
vn 0 -1 0
vn 0 0 1
vn 0 0 -1
vn -1 0 0
vn 1 0 0

# texcoords
vt 0.490234 0.5
vt 0.720703 0.5
vt 0.724609 0.5
vt 0.728516 0.5
vt 0.732422 0.5
vt 0.802734 0.5
vt 0.814453 0.5
vt 0.826172 0.5
vt 0.841797 0.5
vt 0.908203 0.5
vt 0.943359 0.5
vt 0.958984 0.5

# verts
v -10.6 5 -5.3
v -10.6 5 -6
v -10.3 5 -5.3
v -10.3 5 -6
v -10.6 4.9 -5.1
v -10.6 4.9 -5.2
v -10.6 4.9 -5.3
v -10.6 4.9 -6
v -10.6 4.9 -6.1
v -10.6 4.9 -6.2
v -10.3 4.9 -5.1
v -10.3 4.9 -5.2
v -10.3 4.9 -5.3
v -10.3 4.9 -6
v -10.3 4.9 -6.1
v -10.3 4.9 -6.2
v -10.6 4.8 -5
v -10.6 4.8 -5.1
v -10.6 4.8 -6.2
v -10.6 4.8 -6.3
v -10.3 4.8 -5
v -10.3 4.8 -5.1
v -10.3 4.8 -6.2
v -10.3 4.8 -6.3
v -10.6 4.7 -4.9
v -10.6 4.7 -5
v -10.6 4.7 -6.3
v -10.6 4.7 -6.4
v -10.3 4.7 -4.9
v -10.3 4.7 -5
v -10.3 4.7 -6.3
v -10.3 4.7 -6.4
v -10.6 4.6 -4.8
v -10.6 4.6 -4.9
v -10.6 4.6 -6.4
v -10.6 4.6 -6.5
v -10.3 4.6 -4.8
v -10.3 4.6 -4.9
v -10.3 4.6 -6.4
v -10.3 4.6 -6.5
v -10.6 4.4 -4.7
v -10.6 4.4 -4.8
v -10.6 4.4 -6.5
v -10.6 4.4 -6.6
v -10.5 4.4 -4.7
v -10.5 4.4 -4.8
v -10.4 4.4 -4.7
v -10.4 4.4 -4.8
v -10.3 4.4 -4.7
v -10.3 4.4 -4.8
v -10.3 4.4 -6.5
v -10.3 4.4 -6.6
v -10.6 3.7 -4.7
v -10.6 3.7 -4.8
v -10.6 3.7 -6.5
v -10.6 3.7 -6.6
v -10.5 3.7 -4.7
v -10.5 3.7 -4.8
v -10.4 3.7 -4.7
v -10.4 3.7 -4.8
v -10.3 3.7 -4.7
v -10.3 3.7 -4.8
v -10.3 3.7 -6.5
v -10.3 3.7 -6.6
v -10.6 3.5 -4.8
v -10.6 3.5 -4.9
v -10.6 3.5 -6.4
v -10.6 3.5 -6.5
v -10.5 3.5 -4.8
v -10.5 3.5 -4.9
v -10.4 3.5 -4.8
v -10.4 3.5 -4.9
v -10.3 3.5 -4.8
v -10.3 3.5 -4.9
v -10.3 3.5 -6.4
v -10.3 3.5 -6.5
v -10.6 3.4 -4.9
v -10.6 3.4 -5
v -10.6 3.4 -6.3
v -10.6 3.4 -6.4
v -10.5 3.4 -4.9
v -10.5 3.4 -5
v -10.4 3.4 -4.9
v -10.4 3.4 -5
v -10.3 3.4 -4.9
v -10.3 3.4 -5
v -10.3 3.4 -6.3
v -10.3 3.4 -6.4
v -10.6 3.3 -5
v -10.6 3.3 -5.1
v -10.6 3.3 -6.2
v -10.6 3.3 -6.3
v -10.5 3.3 -5
v -10.5 3.3 -5.1
v -10.4 3.3 -5
v -10.4 3.3 -5.1
v -10.3 3.3 -5
v -10.3 3.3 -5.1
v -10.3 3.3 -6.2
v -10.3 3.3 -6.3
v -10.6 3.2 -5.1
v -10.6 3.2 -5.3
v -10.6 3.2 -6
v -10.6 3.2 -6.2
v -10.5 3.2 -5.1
v -10.5 3.2 -5.3
v -10.4 3.2 -5.1
v -10.4 3.2 -5.3
v -10.4 3.2 -6
v -10.4 3.2 -6.1
v -10.3 3.2 -5.1
v -10.3 3.2 -5.3
v -10.3 3.2 -6
v -10.3 3.2 -6.1
v -10.3 3.2 -6.2
v -10.6 3.1 -5.3
v -10.6 3.1 -5.6
v -10.6 3.1 -5.7
v -10.6 3.1 -6
v -10.4 3.1 -5.3
v -10.4 3.1 -5.6
v -10.4 3.1 -5.7
v -10.4 3.1 -6
v -10.3 3.1 -5.3
v -10.3 3.1 -6
v -10.6 1.2 -5.6
v -10.6 1.2 -5.7
v -10.4 1.2 -5.6
v -10.4 1.2 -5.7
v -10.6 4.4 -4.7
v -10.5 4.4 -4.7
v -10.4 4.4 -4.7
v -10.3 4.4 -4.7
v -10.6 3.9 -4.7
v -10.5 3.9 -4.7
v -10.4 3.9 -4.7
v -10.3 3.9 -4.7
v -10.6 3.7 -4.7
v -10.5 3.7 -4.7
v -10.4 3.7 -4.7
v -10.3 3.7 -4.7
v -10.6 4.6 -4.8
v -10.3 4.6 -4.8
v -10.6 4.5 -4.8
v -10.5 4.5 -4.8
v -10.4 4.5 -4.8
v -10.3 4.5 -4.8
v -10.6 4.4 -4.8
v -10.5 4.4 -4.8
v -10.4 4.4 -4.8
v -10.3 4.4 -4.8
v -10.6 3.7 -4.8
v -10.5 3.7 -4.8
v -10.4 3.7 -4.8
v -10.3 3.7 -4.8
v -10.6 3.6 -4.8
v -10.5 3.6 -4.8
v -10.4 3.6 -4.8
v -10.3 3.6 -4.8
v -10.6 3.5 -4.8
v -10.5 3.5 -4.8
v -10.4 3.5 -4.8
v -10.3 3.5 -4.8
v -10.6 4.7 -4.9
v -10.3 4.7 -4.9
v -10.6 4.6 -4.9
v -10.3 4.6 -4.9
v -10.6 3.5 -4.9
v -10.5 3.5 -4.9
v -10.4 3.5 -4.9
v -10.3 3.5 -4.9
v -10.6 3.4 -4.9
v -10.5 3.4 -4.9
v -10.4 3.4 -4.9
v -10.3 3.4 -4.9
v -10.6 4.8 -5
v -10.3 4.8 -5
v -10.6 4.7 -5
v -10.3 4.7 -5
v -10.6 3.4 -5
v -10.5 3.4 -5
v -10.4 3.4 -5
v -10.3 3.4 -5
v -10.6 3.3 -5
v -10.5 3.3 -5
v -10.4 3.3 -5
v -10.3 3.3 -5
v -10.6 4.9 -5.1
v -10.3 4.9 -5.1
v -10.6 4.8 -5.1
v -10.3 4.8 -5.1
v -10.6 3.3 -5.1
v -10.5 3.3 -5.1
v -10.4 3.3 -5.1
v -10.3 3.3 -5.1
v -10.6 3.2 -5.1
v -10.5 3.2 -5.1
v -10.4 3.2 -5.1
v -10.3 3.2 -5.1
v -10.6 5 -5.3
v -10.3 5 -5.3
v -10.6 4.9 -5.3
v -10.3 4.9 -5.3
v -10.6 3.2 -5.3
v -10.5 3.2 -5.3
v -10.4 3.2 -5.3
v -10.3 3.2 -5.3
v -10.6 3.1 -5.3
v -10.4 3.1 -5.3
v -10.3 3.1 -5.3
v -10.6 3.1 -5.6
v -10.4 3.1 -5.6
v -10.6 1.2 -5.6
v -10.4 1.2 -5.6
v -10.6 3.1 -5.7
v -10.4 3.1 -5.7
v -10.6 1.2 -5.7
v -10.4 1.2 -5.7
v -10.6 5 -6
v -10.3 5 -6
v -10.6 4.9 -6
v -10.3 4.9 -6
v -10.6 3.2 -6
v -10.4 3.2 -6
v -10.3 3.2 -6
v -10.6 3.1 -6
v -10.4 3.1 -6
v -10.3 3.1 -6
v -10.6 4.9 -6.2
v -10.3 4.9 -6.2
v -10.6 4.8 -6.2
v -10.3 4.8 -6.2
v -10.6 3.3 -6.2
v -10.3 3.3 -6.2
v -10.6 3.2 -6.2
v -10.3 3.2 -6.2
v -10.6 4.8 -6.3
v -10.3 4.8 -6.3
v -10.6 4.7 -6.3
v -10.3 4.7 -6.3
v -10.6 3.4 -6.3
v -10.3 3.4 -6.3
v -10.6 3.3 -6.3
v -10.3 3.3 -6.3
v -10.6 4.7 -6.4
v -10.3 4.7 -6.4
v -10.6 4.6 -6.4
v -10.3 4.6 -6.4
v -10.6 3.5 -6.4
v -10.3 3.5 -6.4
v -10.6 3.4 -6.4
v -10.3 3.4 -6.4
v -10.6 4.6 -6.5
v -10.3 4.6 -6.5
v -10.6 4.5 -6.5
v -10.3 4.5 -6.5
v -10.6 4.4 -6.5
v -10.3 4.4 -6.5
v -10.6 3.7 -6.5
v -10.3 3.7 -6.5
v -10.6 3.6 -6.5
v -10.3 3.6 -6.5
v -10.6 3.5 -6.5
v -10.3 3.5 -6.5
v -10.6 4.4 -6.6
v -10.3 4.4 -6.6
v -10.6 3.7 -6.6
v -10.3 3.7 -6.6
v -10.6 4.4 -4.7
v -10.6 3.9 -4.7
v -10.6 3.7 -4.7
v -10.6 4.6 -4.8
v -10.6 4.5 -4.8
v -10.6 4.4 -4.8
v -10.6 3.7 -4.8
v -10.6 3.6 -4.8
v -10.6 3.5 -4.8
v -10.6 4.7 -4.9
v -10.6 4.6 -4.9
v -10.6 3.6 -4.9
v -10.6 3.5 -4.9
v -10.6 3.4 -4.9
v -10.6 4.8 -5
v -10.6 4.7 -5
v -10.6 3.5 -5
v -10.6 3.4 -5
v -10.6 3.3 -5
v -10.6 4.9 -5.1
v -10.6 4.8 -5.1
v -10.6 3.4 -5.1
v -10.6 3.3 -5.1
v -10.6 3.2 -5.1
v -10.6 4.9 -5.2
v -10.6 4.8 -5.2
v -10.6 5 -5.3
v -10.6 4.9 -5.3
v -10.6 3.2 -5.3
v -10.6 3.1 -5.3
v -10.6 3.2 -5.6
v -10.6 3.1 -5.6
v -10.6 1.2 -5.6
v -10.6 3.2 -5.7
v -10.6 3.1 -5.7
v -10.6 1.2 -5.7
v -10.6 3.3 -5.9
v -10.6 3.2 -5.9
v -10.6 5 -6
v -10.6 4.9 -6
v -10.6 3.2 -6
v -10.6 3.1 -6
v -10.6 4.9 -6.1
v -10.6 4.8 -6.1
v -10.6 4.9 -6.2
v -10.6 4.8 -6.2
v -10.6 3.3 -6.2
v -10.6 3.2 -6.2
v -10.6 4.8 -6.3
v -10.6 4.7 -6.3
v -10.6 3.9 -6.3
v -10.6 3.8 -6.3
v -10.6 3.4 -6.3
v -10.6 3.3 -6.3
v -10.6 4.7 -6.4
v -10.6 4.6 -6.4
v -10.6 3.7 -6.4
v -10.6 3.6 -6.4
v -10.6 3.5 -6.4
v -10.6 3.4 -6.4
v -10.6 4.6 -6.5
v -10.6 4.5 -6.5
v -10.6 4.4 -6.5
v -10.6 3.8 -6.5
v -10.6 3.7 -6.5
v -10.6 3.6 -6.5
v -10.6 3.5 -6.5
v -10.6 4.4 -6.6
v -10.6 3.7 -6.6
v -10.4 3.1 -5.6
v -10.4 1.2 -5.6
v -10.4 3.1 -5.7
v -10.4 1.2 -5.7
v -10.3 4.4 -4.7
v -10.3 3.9 -4.7
v -10.3 3.7 -4.7
v -10.3 4.6 -4.8
v -10.3 4.5 -4.8
v -10.3 4.4 -4.8
v -10.3 3.9 -4.8
v -10.3 3.8 -4.8
v -10.3 3.7 -4.8
v -10.3 3.6 -4.8
v -10.3 3.5 -4.8
v -10.3 4.7 -4.9
v -10.3 4.6 -4.9
v -10.3 4.5 -4.9
v -10.3 4.4 -4.9
v -10.3 3.9 -4.9
v -10.3 3.8 -4.9
v -10.3 3.7 -4.9
v -10.3 3.6 -4.9
v -10.3 3.5 -4.9
v -10.3 3.4 -4.9
v -10.3 4.8 -5
v -10.3 4.7 -5
v -10.3 4.6 -5
v -10.3 4.5 -5
v -10.3 4.4 -5
v -10.3 3.9 -5
v -10.3 3.8 -5
v -10.3 3.7 -5
v -10.3 3.6 -5
v -10.3 3.5 -5
v -10.3 3.4 -5
v -10.3 3.3 -5
v -10.3 4.9 -5.1
v -10.3 4.8 -5.1
v -10.3 4.7 -5.1
v -10.3 4.6 -5.1
v -10.3 4.5 -5.1
v -10.3 4.4 -5.1
v -10.3 4.3 -5.1
v -10.3 4 -5.1
v -10.3 3.9 -5.1
v -10.3 3.8 -5.1
v -10.3 3.7 -5.1
v -10.3 3.6 -5.1
v -10.3 3.5 -5.1
v -10.3 3.4 -5.1
v -10.3 3.3 -5.1
v -10.3 3.2 -5.1
v -10.3 4.9 -5.2
v -10.3 4.8 -5.2
v -10.3 4.7 -5.2
v -10.3 4.6 -5.2
v -10.3 4.5 -5.2
v -10.3 4.4 -5.2
v -10.3 4.3 -5.2
v -10.3 4 -5.2
v -10.3 3.9 -5.2
v -10.3 3.8 -5.2
v -10.3 3.7 -5.2
v -10.3 3.6 -5.2
v -10.3 5 -5.3
v -10.3 4.9 -5.3
v -10.3 4.8 -5.3
v -10.3 4.7 -5.3
v -10.3 4.6 -5.3
v -10.3 4.5 -5.3
v -10.3 4.4 -5.3
v -10.3 4.3 -5.3
v -10.3 4.2 -5.3
v -10.3 4.1 -5.3
v -10.3 4 -5.3
v -10.3 3.9 -5.3
v -10.3 3.8 -5.3
v -10.3 3.2 -5.3
v -10.3 3.1 -5.3
v -10.3 4.6 -5.4
v -10.3 4.5 -5.4
v -10.3 4.4 -5.4
v -10.3 4.3 -5.4
v -10.3 4.2 -5.4
v -10.3 4.1 -5.4
v -10.3 4 -5.4
v -10.3 4.4 -5.5
v -10.3 4.3 -5.5
v -10.3 4.2 -5.5
v -10.3 4.2 -5.6
v -10.3 4.1 -5.6
v -10.3 4 -5.6
v -10.3 4.2 -5.7
v -10.3 4.1 -5.7
v -10.3 4 -5.7
v -10.3 3.9 -5.7
v -10.3 3.8 -5.7
v -10.3 4.4 -5.8
v -10.3 4.3 -5.8
v -10.3 4 -5.8
v -10.3 3.9 -5.8
v -10.3 3.8 -5.8
v -10.3 3.7 -5.8
v -10.3 3.6 -5.8
v -10.3 4.6 -5.9
v -10.3 4.5 -5.9
v -10.3 4.4 -5.9
v -10.3 4.3 -5.9
v -10.3 4 -5.9
v -10.3 3.9 -5.9
v -10.3 3.8 -5.9
v -10.3 3.7 -5.9
v -10.3 3.6 -5.9
v -10.3 3.5 -5.9
v -10.3 3.4 -5.9
v -10.3 3.3 -5.9
v -10.3 3.2 -5.9
v -10.3 5 -6
v -10.3 4.9 -6
v -10.3 4.8 -6
v -10.3 4.7 -6
v -10.3 4.6 -6
v -10.3 4.5 -6
v -10.3 4.4 -6
v -10.3 3.9 -6
v -10.3 3.8 -6
v -10.3 3.7 -6
v -10.3 3.6 -6
v -10.3 3.5 -6
v -10.3 3.4 -6
v -10.3 3.3 -6
v -10.3 3.2 -6
v -10.3 3.1 -6
v -10.3 4.9 -6.1
v -10.3 4.8 -6.1
v -10.3 4.7 -6.1
v -10.3 4.6 -6.1
v -10.3 4.5 -6.1
v -10.3 4.4 -6.1
v -10.3 3.9 -6.1
v -10.3 3.8 -6.1
v -10.3 3.7 -6.1
v -10.3 3.6 -6.1
v -10.3 3.5 -6.1
v -10.3 3.4 -6.1
v -10.3 3.3 -6.1
v -10.3 3.2 -6.1
v -10.3 4.9 -6.2
v -10.3 4.8 -6.2
v -10.3 4.7 -6.2
v -10.3 4.6 -6.2
v -10.3 4.5 -6.2
v -10.3 3.8 -6.2
v -10.3 3.7 -6.2
v -10.3 3.6 -6.2
v -10.3 3.5 -6.2
v -10.3 3.4 -6.2
v -10.3 3.3 -6.2
v -10.3 3.2 -6.2
v -10.3 4.8 -6.3
v -10.3 4.7 -6.3
v -10.3 4.6 -6.3
v -10.3 4.5 -6.3
v -10.3 3.8 -6.3
v -10.3 3.7 -6.3
v -10.3 3.6 -6.3
v -10.3 3.5 -6.3
v -10.3 3.4 -6.3
v -10.3 3.3 -6.3
v -10.3 4.7 -6.4
v -10.3 4.6 -6.4
v -10.3 4.5 -6.4
v -10.3 3.8 -6.4
v -10.3 3.7 -6.4
v -10.3 3.6 -6.4
v -10.3 3.5 -6.4
v -10.3 3.4 -6.4
v -10.3 4.6 -6.5
v -10.3 4.5 -6.5
v -10.3 4.4 -6.5
v -10.3 3.8 -6.5
v -10.3 3.7 -6.5
v -10.3 3.6 -6.5
v -10.3 3.5 -6.5
v -10.3 4.4 -6.6
v -10.3 3.7 -6.6

# faces
f 3/2/1 2/2/1 1/2/1
f 4/2/1 2/2/1 3/2/1
f 11/3/1 6/3/1 5/3/1
f 12/2/1 7/2/1 6/2/1
f 12/3/1 6/3/1 11/3/1
f 13/2/1 7/2/1 12/2/1
f 14/2/1 9/2/1 8/2/1
f 15/3/1 10/3/1 9/3/1
f 15/2/1 9/2/1 14/2/1
f 16/3/1 10/3/1 15/3/1
f 21/3/1 18/3/1 17/3/1
f 22/3/1 18/3/1 21/3/1
f 23/3/1 20/3/1 19/3/1
f 24/3/1 20/3/1 23/3/1
f 29/3/1 26/3/1 25/3/1
f 30/3/1 26/3/1 29/3/1
f 31/3/1 28/3/1 27/3/1
f 32/3/1 28/3/1 31/3/1
f 37/3/1 34/3/1 33/3/1
f 38/3/1 34/3/1 37/3/1
f 39/3/1 36/3/1 35/3/1
f 40/3/1 36/3/1 39/3/1
f 45/3/1 42/3/1 41/3/1
f 46/3/1 42/3/1 45/3/1
f 47/10/1 46/10/1 45/10/1
f 48/10/1 46/10/1 47/10/1
f 49/3/1 48/3/1 47/3/1
f 50/3/1 48/3/1 49/3/1
f 51/3/1 44/3/1 43/3/1
f 52/3/1 44/3/1 51/3/1
f 53/2/2 54/2/2 57/2/2
f 57/2/2 54/2/2 58/2/2
f 57/8/2 58/8/2 59/8/2
f 59/8/2 58/8/2 60/8/2
f 59/2/2 60/2/2 61/2/2
f 61/2/2 60/2/2 62/2/2
f 55/3/2 56/3/2 63/3/2
f 63/3/2 56/3/2 64/3/2
f 65/2/2 66/2/2 69/2/2
f 69/2/2 66/2/2 70/2/2
f 69/8/2 70/8/2 71/8/2
f 71/8/2 70/8/2 72/8/2
f 71/2/2 72/2/2 73/2/2
f 73/2/2 72/2/2 74/2/2
f 67/12/2 68/12/2 75/12/2
f 75/12/2 68/12/2 76/12/2
f 77/2/2 78/2/2 81/2/2
f 81/2/2 78/2/2 82/2/2
f 81/8/2 82/8/2 83/8/2
f 83/8/2 82/8/2 84/8/2
f 83/2/2 84/2/2 85/2/2
f 85/2/2 84/2/2 86/2/2
f 79/12/2 80/12/2 87/12/2
f 87/12/2 80/12/2 88/12/2
f 89/2/2 90/2/2 93/2/2
f 93/2/2 90/2/2 94/2/2
f 93/8/2 94/8/2 95/8/2
f 95/8/2 94/8/2 96/8/2
f 95/2/2 96/2/2 97/2/2
f 97/2/2 96/2/2 98/2/2
f 91/12/2 92/12/2 99/12/2
f 99/12/2 92/12/2 100/12/2
f 101/2/2 102/2/2 105/2/2
f 105/2/2 102/2/2 106/2/2
f 105/8/2 106/8/2 107/8/2
f 107/8/2 106/8/2 108/8/2
f 103/12/2 104/12/2 109/12/2
f 109/12/2 104/12/2 110/12/2
f 107/2/2 108/2/2 111/2/2
f 111/2/2 108/2/2 112/2/2
f 109/3/2 110/3/2 113/3/2
f 110/12/2 104/12/2 114/12/2
f 113/3/2 110/3/2 114/3/2
f 114/12/2 104/12/2 115/12/2
f 116/10/2 117/10/2 120/10/2
f 120/10/2 117/10/2 121/10/2
f 118/10/2 119/10/2 122/10/2
f 122/10/2 119/10/2 123/10/2
f 120/3/2 121/3/2 124/3/2
f 121/3/2 122/3/2 124/3/2
f 122/3/2 123/3/2 124/3/2
f 124/3/2 123/3/2 125/3/2
f 126/11/2 127/11/2 128/11/2
f 128/11/2 127/11/2 129/11/2
f 134/3/3 131/3/3 130/3/3
f 135/10/3 132/10/3 131/10/3
f 135/3/3 131/3/3 134/3/3
f 136/3/3 133/3/3 132/3/3
f 136/10/3 132/10/3 135/10/3
f 137/3/3 133/3/3 136/3/3
f 138/2/3 135/2/3 134/2/3
f 139/8/3 136/8/3 135/8/3
f 139/2/3 135/2/3 138/2/3
f 140/2/3 137/2/3 136/2/3
f 140/8/3 136/8/3 139/8/3
f 141/2/3 137/2/3 140/2/3
f 144/3/3 143/3/3 142/3/3
f 145/3/3 143/3/3 144/3/3
f 146/3/3 143/3/3 145/3/3
f 147/3/3 143/3/3 146/3/3
f 148/2/3 145/2/3 144/2/3
f 149/8/3 146/8/3 145/8/3
f 149/2/3 145/2/3 148/2/3
f 150/2/3 147/2/3 146/2/3
f 150/8/3 146/8/3 149/8/3
f 151/2/3 147/2/3 150/2/3
f 156/9/3 153/9/3 152/9/3
f 156/9/3 155/9/3 154/9/3
f 156/9/3 154/9/3 153/9/3
f 157/9/3 155/9/3 156/9/3
f 158/9/3 155/9/3 157/9/3
f 159/9/3 155/9/3 158/9/3
f 160/2/3 157/2/3 156/2/3
f 161/8/3 158/8/3 157/8/3
f 161/2/3 157/2/3 160/2/3
f 162/2/3 159/2/3 158/2/3
f 162/8/3 158/8/3 161/8/3
f 163/2/3 159/2/3 162/2/3
f 166/3/3 165/3/3 164/3/3
f 167/3/3 165/3/3 166/3/3
f 172/2/3 169/2/3 168/2/3
f 173/8/3 170/8/3 169/8/3
f 173/2/3 169/2/3 172/2/3
f 174/2/3 171/2/3 170/2/3
f 174/8/3 170/8/3 173/8/3
f 175/2/3 171/2/3 174/2/3
f 178/3/3 177/3/3 176/3/3
f 179/3/3 177/3/3 178/3/3
f 184/2/3 181/2/3 180/2/3
f 185/8/3 182/8/3 181/8/3
f 185/2/3 181/2/3 184/2/3
f 186/2/3 183/2/3 182/2/3
f 186/8/3 182/8/3 185/8/3
f 187/2/3 183/2/3 186/2/3
f 190/3/3 189/3/3 188/3/3
f 191/3/3 189/3/3 190/3/3
f 196/2/3 193/2/3 192/2/3
f 197/8/3 194/8/3 193/8/3
f 197/2/3 193/2/3 196/2/3
f 198/2/3 195/2/3 194/2/3
f 198/8/3 194/8/3 197/8/3
f 199/2/3 195/2/3 198/2/3
f 202/2/3 201/2/3 200/2/3
f 203/2/3 201/2/3 202/2/3
f 208/10/3 205/10/3 204/10/3
f 208/10/3 206/10/3 205/10/3
f 209/3/3 207/3/3 206/3/3
f 209/10/3 206/10/3 208/10/3
f 210/3/3 207/3/3 209/3/3
f 213/11/3 212/11/3 211/11/3
f 214/11/3 212/11/3 213/11/3
f 215/11/4 216/11/4 217/11/4
f 217/11/4 216/11/4 218/11/4
f 219/2/4 220/2/4 221/2/4
f 221/2/4 220/2/4 222/2/4
f 223/10/4 224/10/4 226/10/4
f 224/3/4 225/3/4 227/3/4
f 226/10/4 224/10/4 227/10/4
f 227/3/4 225/3/4 228/3/4
f 229/3/4 230/3/4 231/3/4
f 231/3/4 230/3/4 232/3/4
f 233/12/4 234/12/4 235/12/4
f 235/12/4 234/12/4 236/12/4
f 237/3/4 238/3/4 239/3/4
f 239/3/4 238/3/4 240/3/4
f 241/12/4 242/12/4 243/12/4
f 243/12/4 242/12/4 244/12/4
f 245/3/4 246/3/4 247/3/4
f 247/3/4 246/3/4 248/3/4
f 249/12/4 250/12/4 251/12/4
f 251/12/4 250/12/4 252/12/4
f 253/3/4 254/3/4 255/3/4
f 255/3/4 254/3/4 256/3/4
f 255/2/4 256/2/4 257/2/4
f 257/2/4 256/2/4 258/2/4
f 259/3/4 260/3/4 261/3/4
f 261/3/4 260/3/4 262/3/4
f 261/12/4 262/12/4 263/12/4
f 263/12/4 262/12/4 264/12/4
f 265/3/4 266/3/4 267/3/4
f 267/3/4 266/3/4 268/3/4
f 274/3/5 270/3/5 269/3/5
f 275/2/5 271/2/5 270/2/5
f 279/3/5 273/3/5 272/3/5
f 280/2/5 277/2/5 276/2/5
f 280/9/5 276/9/5 275/9/5
f 281/2/5 277/2/5 280/2/5
f 284/3/5 279/3/5 278/3/5
f 285/2/5 282/2/5 281/2/5
f 285/12/5 281/12/5 280/12/5
f 286/2/5 282/2/5 285/2/5
f 289/3/5 284/3/5 283/3/5
f 290/2/5 287/2/5 286/2/5
f 290/12/5 286/12/5 285/12/5
f 291/2/5 287/2/5 290/2/5
f 293/3/5 289/3/5 288/3/5
f 294/3/5 284/3/5 289/3/5
f 294/3/5 289/3/5 293/3/5
f 296/2/5 294/2/5 293/2/5
f 297/2/5 292/2/5 291/2/5
f 299/2/5 297/2/5 291/2/5
f 299/10/5 298/10/5 297/10/5
f 300/10/5 298/10/5 299/10/5
f 302/2/5 299/2/5 291/2/5
f 302/1/5 300/1/5 299/1/5
f 303/11/5 301/11/5 300/11/5
f 303/1/5 300/1/5 302/1/5
f 304/11/5 301/11/5 303/11/5
f 305/12/5 291/12/5 290/12/5
f 305/2/5 302/2/5 291/2/5
f 306/10/5 303/10/5 302/10/5
f 306/2/5 302/2/5 305/2/5
f 307/2/5 296/2/5 295/2/5
f 308/2/5 294/2/5 296/2/5
f 308/2/5 296/2/5 307/2/5
f 309/10/5 303/10/5 306/10/5
f 309/12/5 306/12/5 305/12/5
f 310/10/5 303/10/5 309/10/5
f 311/2/5 294/2/5 308/2/5
f 312/3/5 284/3/5 294/3/5
f 312/2/5 294/2/5 311/2/5
f 313/3/5 312/3/5 311/3/5
f 314/3/5 284/3/5 312/3/5
f 314/3/5 312/3/5 313/3/5
f 315/12/5 305/12/5 290/12/5
f 315/12/5 309/12/5 305/12/5
f 316/12/5 309/12/5 315/12/5
f 317/3/5 284/3/5 314/3/5
f 318/3/5 279/3/5 284/3/5
f 318/3/5 284/3/5 317/3/5
f 319/3/5 270/3/5 274/3/5
f 319/2/5 275/2/5 270/2/5
f 320/2/5 275/2/5 319/2/5
f 321/12/5 290/12/5 285/12/5
f 321/12/5 315/12/5 290/12/5
f 322/12/5 315/12/5 321/12/5
f 323/3/5 279/3/5 318/3/5
f 324/3/5 273/3/5 279/3/5
f 324/3/5 279/3/5 323/3/5
f 325/9/5 280/9/5 275/9/5
f 325/2/5 275/2/5 320/2/5
f 326/12/5 321/12/5 285/12/5
f 326/9/5 280/9/5 325/9/5
f 326/12/5 285/12/5 280/12/5
f 327/12/5 321/12/5 326/12/5
f 328/12/5 321/12/5 327/12/5
f 329/3/5 273/3/5 324/3/5
f 330/2/5 274/2/5 273/2/5
f 330/3/5 273/3/5 329/3/5
f 331/3/5 319/3/5 274/3/5
f 331/2/5 274/2/5 330/2/5
f 331/3/5 320/3/5 319/3/5
f 332/2/5 325/2/5 320/2/5
f 332/3/5 320/3/5 331/3/5
f 333/3/5 326/3/5 325/3/5
f 333/2/5 325/2/5 332/2/5
f 334/12/5 327/12/5 326/12/5
f 334/3/5 326/3/5 333/3/5
f 335/12/5 327/12/5 334/12/5
f 336/3/5 333/3/5 332/3/5
f 336/3/5 332/3/5 331/3/5
f 337/3/5 333/3/5 336/3/5
f 338/11/6 339/11/6 340/11/6
f 340/11/6 339/11/6 341/11/6
f 342/3/6 343/3/6 347/3/6
f 343/2/6 344/2/6 348/2/6
f 347/3/6 343/3/6 348/3/6
f 348/2/6 344/2/6 349/2/6
f 349/2/6 344/2/6 350/2/6
f 345/3/6 346/3/6 354/3/6
f 346/2/6 347/2/6 355/2/6
f 347/2/6 348/2/6 355/2/6
f 354/3/6 346/3/6 355/3/6
f 355/2/6 348/2/6 356/2/6
f 348/4/6 349/4/6 357/4/6
f 356/2/6 348/2/6 357/2/6
f 349/5/6 350/5/6 358/5/6
f 357/4/6 349/4/6 358/4/6
f 350/9/6 351/9/6 359/9/6
f 358/5/6 350/5/6 359/5/6
f 351/2/6 352/2/6 360/2/6
f 359/9/6 351/9/6 360/9/6
f 360/2/6 352/2/6 361/2/6
f 353/3/6 354/3/6 364/3/6
f 354/2/6 355/2/6 365/2/6
f 364/3/6 354/3/6 365/3/6
f 355/9/6 356/9/6 366/9/6
f 365/2/6 355/2/6 366/2/6
f 356/5/6 357/5/6 367/5/6
f 366/9/6 356/9/6 367/9/6
f 358/4/6 359/4/6 368/4/6
f 367/5/6 357/5/6 368/5/6
f 357/4/6 358/4/6 368/4/6
f 368/4/6 359/4/6 369/4/6
f 359/5/6 360/5/6 370/5/6
f 369/4/6 359/4/6 370/4/6
f 360/9/6 361/9/6 371/9/6
f 370/5/6 360/5/6 371/5/6
f 361/2/6 362/2/6 372/2/6
f 371/9/6 361/9/6 372/9/6
f 372/2/6 362/2/6 373/2/6
f 363/3/6 364/3/6 376/3/6
f 364/2/6 365/2/6 377/2/6
f 376/3/6 364/3/6 377/3/6
f 365/9/6 366/9/6 378/9/6
f 377/2/6 365/2/6 378/2/6
f 366/5/6 367/5/6 379/5/6
f 378/9/6 366/9/6 379/9/6
f 367/4/6 368/4/6 380/4/6
f 379/5/6 367/5/6 380/5/6
f 380/4/6 368/4/6 381/4/6
f 381/4/6 368/4/6 382/4/6
f 368/5/6 369/5/6 383/5/6
f 382/4/6 368/4/6 383/4/6
f 370/4/6 371/4/6 384/4/6
f 383/5/6 369/5/6 384/5/6
f 369/4/6 370/4/6 384/4/6
f 384/4/6 371/4/6 385/4/6
f 371/5/6 372/5/6 386/5/6
f 385/4/6 371/4/6 386/4/6
f 372/9/6 373/9/6 387/9/6
f 386/5/6 372/5/6 387/5/6
f 373/2/6 374/2/6 388/2/6
f 387/9/6 373/9/6 388/9/6
f 388/2/6 374/2/6 389/2/6
f 375/3/6 376/3/6 391/3/6
f 376/2/6 377/2/6 392/2/6
f 391/3/6 376/3/6 392/3/6
f 377/9/6 378/9/6 393/9/6
f 392/2/6 377/2/6 393/2/6
f 378/5/6 379/5/6 394/5/6
f 393/9/6 378/9/6 394/9/6
f 380/4/6 381/4/6 395/4/6
f 394/5/6 379/5/6 395/5/6
f 379/4/6 380/4/6 395/4/6
f 395/4/6 381/4/6 396/4/6
f 381/5/6 382/5/6 397/5/6
f 396/4/6 381/4/6 397/4/6
f 382/4/6 383/4/6 398/4/6
f 397/5/6 382/5/6 398/5/6
f 383/4/6 384/4/6 398/4/6
f 398/4/6 384/4/6 399/4/6
f 384/5/6 385/5/6 400/5/6
f 399/4/6 384/4/6 400/4/6
f 386/4/6 387/4/6 401/4/6
f 400/5/6 385/5/6 401/5/6
f 385/4/6 386/4/6 401/4/6
f 401/4/6 387/4/6 402/4/6
f 391/2/6 392/2/6 404/2/6
f 392/9/6 393/9/6 405/9/6
f 404/2/6 392/2/6 405/2/6
f 393/5/6 394/5/6 406/5/6
f 405/9/6 393/9/6 406/9/6
f 395/4/6 396/4/6 407/4/6
f 406/5/6 394/5/6 407/5/6
f 394/4/6 395/4/6 407/4/6
f 407/4/6 396/4/6 408/4/6
f 396/5/6 397/5/6 409/5/6
f 408/4/6 396/4/6 409/4/6
f 397/4/6 398/4/6 410/4/6
f 409/5/6 397/5/6 410/5/6
f 410/4/6 398/4/6 411/4/6
f 411/4/6 398/4/6 412/4/6
f 398/5/6 399/5/6 413/5/6
f 412/4/6 398/4/6 413/4/6
f 399/4/6 400/4/6 414/4/6
f 413/5/6 399/5/6 414/5/6
f 400/4/6 401/4/6 414/4/6
f 414/4/6 401/4/6 415/4/6
f 389/2/6 390/2/6 416/2/6
f 407/4/6 408/4/6 418/4/6
f 406/4/6 407/4/6 418/4/6
f 408/5/6 409/5/6 419/5/6
f 418/4/6 408/4/6 419/4/6
f 410/4/6 411/4/6 420/4/6
f 419/5/6 409/5/6 420/5/6
f 409/4/6 410/4/6 420/4/6
f 420/4/6 411/4/6 421/4/6
f 411/5/6 412/5/6 422/5/6
f 421/4/6 411/4/6 422/4/6
f 412/4/6 413/4/6 423/4/6
f 422/5/6 412/5/6 423/5/6
f 413/4/6 414/4/6 423/4/6
f 423/4/6 414/4/6 424/4/6
f 420/4/6 421/4/6 425/4/6
f 419/4/6 420/4/6 425/4/6
f 421/5/6 422/5/6 426/5/6
f 425/4/6 421/4/6 426/4/6
f 422/4/6 423/4/6 427/4/6
f 426/5/6 422/5/6 427/5/6
f 426/4/6 427/4/6 428/4/6
f 427/4/6 423/4/6 428/4/6
f 423/5/6 424/5/6 429/5/6
f 428/4/6 423/4/6 429/4/6
f 424/4/6 414/4/6 430/4/6
f 429/5/6 424/5/6 430/5/6
f 428/5/6 429/5/6 431/5/6
f 426/4/6 428/4/6 431/4/6
f 429/4/6 430/4/6 432/4/6
f 431/5/6 429/5/6 432/5/6
f 430/4/6 414/4/6 433/4/6
f 432/4/6 430/4/6 433/4/6
f 414/5/6 415/5/6 434/5/6
f 433/4/6 414/4/6 434/4/6
f 415/4/6 401/4/6 435/4/6
f 434/5/6 415/5/6 435/5/6
f 419/4/6 425/4/6 436/4/6
f 425/5/6 426/5/6 436/5/6
f 431/4/6 432/4/6 437/4/6
f 436/5/6 426/5/6 437/5/6
f 432/4/6 433/4/6 437/4/6
f 426/4/6 431/4/6 437/4/6
f 433/5/6 434/5/6 438/5/6
f 437/4/6 433/4/6 438/4/6
f 434/4/6 435/4/6 439/4/6
f 438/5/6 434/5/6 439/5/6
f 435/4/6 401/4/6 440/4/6
f 439/4/6 435/4/6 440/4/6
f 401/5/6 402/5/6 441/5/6
f 440/4/6 401/4/6 441/4/6
f 402/4/6 387/4/6 442/4/6
f 441/5/6 402/5/6 442/5/6
f 406/4/6 418/4/6 443/4/6
f 418/5/6 419/5/6 443/5/6
f 436/4/6 437/4/6 444/4/6
f 443/5/6 419/5/6 444/5/6
f 419/4/6 436/4/6 444/4/6
f 444/4/6 437/4/6 445/4/6
f 437/5/6 438/5/6 446/5/6
f 445/4/6 437/4/6 446/4/6
f 438/4/6 439/4/6 447/4/6
f 446/5/6 438/5/6 447/5/6
f 439/4/6 440/4/6 447/4/6
f 447/4/6 440/4/6 448/4/6
f 440/5/6 441/5/6 449/5/6
f 448/4/6 440/4/6 449/4/6
f 441/4/6 442/4/6 450/4/6
f 449/5/6 441/5/6 450/5/6
f 442/4/6 387/4/6 451/4/6
f 450/4/6 442/4/6 451/4/6
f 387/5/6 388/5/6 452/5/6
f 451/4/6 387/4/6 452/4/6
f 388/9/6 389/9/6 453/9/6
f 452/5/6 388/5/6 453/5/6
f 389/2/6 416/2/6 454/2/6
f 453/9/6 389/9/6 454/9/6
f 416/3/6 417/3/6 455/3/6
f 454/2/6 416/2/6 455/2/6
f 403/2/6 404/2/6 456/2/6
f 404/9/6 405/9/6 457/9/6
f 456/2/6 404/2/6 457/2/6
f 405/5/6 406/5/6 458/5/6
f 457/9/6 405/9/6 458/9/6
f 406/4/6 443/4/6 459/4/6
f 458/5/6 406/5/6 459/5/6
f 443/4/6 444/4/6 459/4/6
f 459/4/6 444/4/6 460/4/6
f 444/5/6 445/5/6 461/5/6
f 460/4/6 444/4/6 461/4/6
f 447/4/6 448/4/6 462/4/6
f 461/5/6 445/5/6 462/5/6
f 445/4/6 446/4/6 462/4/6
f 446/4/6 447/4/6 462/4/6
f 448/5/6 449/5/6 463/5/6
f 462/4/6 448/4/6 463/4/6
f 449/4/6 450/4/6 464/4/6
f 463/5/6 449/5/6 464/5/6
f 450/4/6 451/4/6 464/4/6
f 464/4/6 451/4/6 465/4/6
f 451/5/6 452/5/6 466/5/6
f 465/4/6 451/4/6 466/4/6
f 452/9/6 453/9/6 467/9/6
f 466/5/6 452/5/6 467/5/6
f 453/2/6 454/2/6 468/2/6
f 467/9/6 453/9/6 468/9/6
f 454/3/6 455/3/6 469/3/6
f 468/2/6 454/2/6 469/2/6
f 455/3/6 417/3/6 470/3/6
f 469/3/6 455/3/6 470/3/6
f 470/3/6 417/3/6 471/3/6
f 457/2/6 458/2/6 472/2/6
f 458/9/6 459/9/6 473/9/6
f 472/2/6 458/2/6 473/2/6
f 459/5/6 460/5/6 474/5/6
f 473/9/6 459/9/6 474/9/6
f 460/4/6 461/4/6 475/4/6
f 474/5/6 460/5/6 475/5/6
f 461/4/6 462/4/6 475/4/6
f 475/4/6 462/4/6 476/4/6
f 462/5/6 463/5/6 477/5/6
f 476/4/6 462/4/6 477/4/6
f 464/4/6 465/4/6 478/4/6
f 477/5/6 463/5/6 478/5/6
f 463/4/6 464/4/6 478/4/6
f 478/4/6 465/4/6 479/4/6
f 465/5/6 466/5/6 480/5/6
f 479/4/6 465/4/6 480/4/6
f 466/9/6 467/9/6 481/9/6
f 480/5/6 466/5/6 481/5/6
f 467/2/6 468/2/6 482/2/6
f 481/9/6 467/9/6 482/9/6
f 469/3/6 470/3/6 483/3/6
f 482/2/6 468/2/6 483/2/6
f 468/3/6 469/3/6 483/3/6
f 483/3/6 470/3/6 484/3/6
f 484/3/6 470/3/6 485/3/6
f 472/3/6 473/3/6 486/3/6
f 473/2/6 474/2/6 487/2/6
f 486/3/6 473/3/6 487/3/6
f 474/9/6 475/9/6 488/9/6
f 487/2/6 474/2/6 488/2/6
f 475/5/6 476/5/6 489/5/6
f 488/9/6 475/9/6 489/9/6
f 477/4/6 478/4/6 490/4/6
f 489/5/6 476/5/6 490/5/6
f 476/4/6 477/4/6 490/4/6
f 478/4/6 479/4/6 490/4/6
f 479/5/6 480/5/6 491/5/6
f 490/4/6 479/4/6 491/4/6
f 480/9/6 481/9/6 492/9/6
f 491/5/6 480/5/6 492/5/6
f 481/2/6 482/2/6 493/2/6
f 492/9/6 481/9/6 493/9/6
f 483/3/6 484/3/6 494/3/6
f 493/2/6 482/2/6 494/2/6
f 482/3/6 483/3/6 494/3/6
f 494/3/6 484/3/6 495/3/6
f 484/12/6 485/12/6 496/12/6
f 495/3/6 484/3/6 496/3/6
f 496/12/6 485/12/6 497/12/6
f 487/3/6 488/3/6 498/3/6
f 488/2/6 489/2/6 499/2/6
f 498/3/6 488/3/6 499/3/6
f 489/9/6 490/9/6 500/9/6
f 499/2/6 489/2/6 500/2/6
f 490/5/6 491/5/6 501/5/6
f 500/9/6 490/9/6 501/9/6
f 491/9/6 492/9/6 502/9/6
f 501/5/6 491/5/6 502/5/6
f 492/2/6 493/2/6 503/2/6
f 502/9/6 492/9/6 503/9/6
f 494/3/6 495/3/6 504/3/6
f 503/2/6 493/2/6 504/2/6
f 493/3/6 494/3/6 504/3/6
f 504/3/6 495/3/6 505/3/6
f 495/12/6 496/12/6 506/12/6
f 505/3/6 495/3/6 506/3/6
f 506/12/6 496/12/6 507/12/6
f 499/3/6 500/3/6 508/3/6
f 500/2/6 501/2/6 509/2/6
f 508/3/6 500/3/6 509/3/6
f 501/9/6 502/9/6 510/9/6
f 509/2/6 501/2/6 510/2/6
f 502/2/6 503/2/6 511/2/6
f 510/9/6 502/9/6 511/9/6
f 504/3/6 505/3/6 512/3/6
f 511/2/6 503/2/6 512/2/6
f 503/3/6 504/3/6 512/3/6
f 512/3/6 505/3/6 513/3/6
f 505/12/6 506/12/6 514/12/6
f 513/3/6 505/3/6 514/3/6
f 514/12/6 506/12/6 515/12/6
f 509/3/6 510/3/6 516/3/6
f 510/2/6 511/2/6 517/2/6
f 516/3/6 510/3/6 517/3/6
f 517/2/6 511/2/6 518/2/6
f 512/3/6 513/3/6 519/3/6
f 518/2/6 511/2/6 519/2/6
f 511/3/6 512/3/6 519/3/6
f 519/3/6 513/3/6 520/3/6
f 513/12/6 514/12/6 521/12/6
f 520/3/6 513/3/6 521/3/6
f 521/12/6 514/12/6 522/12/6
f 519/3/6 520/3/6 523/3/6
f 518/3/6 519/3/6 523/3/6
f 523/3/6 520/3/6 524/3/6
