# MagicaVoxel @ Ephtracy

# group
o 

# material
mtllib Eruption-35.mtl
usemtl palette

# normals
vn 1 0 0
vn -1 0 0
vn 0 1 0
vn 0 -1 0
vn 0 0 1
vn 0 0 -1

# texcoords
vt 0.775391 0.5
vt 0.779297 0.5
vt 0.853516 0.5

# verts
v -19.8 1.9 -42
v -19.8 1.8 -42
v -19.8 2 -42.1
v -19.8 1.9 -42.1
v -19.8 1.8 -42.1
v -19.8 1.7 -42.1
v -19.8 1.5 -42.2
v -19.8 1.3 -42.2
v -19.8 2.3 -42.3
v -19.8 2 -42.3
v -19.8 1.7 -42.3
v -19.8 1.6 -42.3
v -19.8 1.5 -42.3
v -19.8 1.3 -42.3
v -19.8 1.2 -42.3
v -19.8 1.7 -42.4
v -19.8 1.6 -42.4
v -19.8 1.3 -42.4
v -19.8 1.2 -42.4
v -19.8 1 -42.4
v -19.8 2.3 -42.5
v -19.8 2.2 -42.5
v -19.8 1.4 -42.5
v -19.8 1.3 -42.5
v -19.8 1 -42.5
v -19.8 0.9 -42.5
v -19.8 2.2 -42.6
v -19.8 2 -42.6
v -19.8 1.8 -42.6
v -19.8 1.7 -42.6
v -19.8 1.5 -42.6
v -19.8 1.4 -42.6
v -19.8 1.1 -42.6
v -19.8 0.9 -42.6
v -19.8 0.8 -42.6
v -19.8 2 -42.7
v -19.8 1.9 -42.7
v -19.8 1.8 -42.7
v -19.8 1.6 -42.7
v -19.8 1.5 -42.7
v -19.8 1.2 -42.7
v -19.8 1.1 -42.7
v -19.8 0.8 -42.7
v -19.8 0.6 -42.7
v -19.8 2 -42.8
v -19.8 1.9 -42.8
v -19.8 1.7 -42.8
v -19.8 1.6 -42.8
v -19.8 1.3 -42.8
v -19.8 1.2 -42.8
v -19.8 0.6 -42.8
v -19.8 0.5 -42.8
v -19.8 1.8 -42.9
v -19.8 1.7 -42.9
v -19.8 1.5 -42.9
v -19.8 1.3 -42.9
v -19.8 0.8 -42.9
v -19.8 0.6 -42.9
v -19.8 0.5 -42.9
v -19.8 0.4 -42.9
v -19.8 2 -43
v -19.8 1.9 -43
v -19.8 1.8 -43
v -19.8 1.6 -43
v -19.8 1.5 -43
v -19.8 0.9 -43
v -19.8 0.8 -43
v -19.8 0.5 -43
v -19.8 0.4 -43
v -19.8 0.3 -43
v -19.8 1.9 -43.1
v -19.8 1.7 -43.1
v -19.8 1.6 -43.1
v -19.8 1 -43.1
v -19.8 0.9 -43.1
v -19.8 0.7 -43.1
v -19.8 0.5 -43.1
v -19.8 0.4 -43.1
v -19.8 0.3 -43.1
v -19.8 1.7 -43.2
v -19.8 1.6 -43.2
v -19.8 1.2 -43.2
v -19.8 1 -43.2
v -19.8 0.8 -43.2
v -19.8 0.7 -43.2
v -19.8 0.5 -43.2
v -19.8 0.4 -43.2
v -19.8 0.3 -43.2
v -19.8 1.6 -43.3
v -19.8 1.4 -43.3
v -19.8 1.3 -43.3
v -19.8 1.2 -43.3
v -19.8 0.9 -43.3
v -19.8 0.8 -43.3
v -19.8 0.6 -43.3
v -19.8 0.5 -43.3
v -19.8 0.3 -43.3
v -19.8 0.1 -43.3
v -19.8 1.4 -43.4
v -19.8 1.3 -43.4
v -19.8 1.2 -43.4
v -19.8 1.1 -43.4
v -19.8 0.9 -43.4
v -19.8 0.1 -43.4
v -19.8 0 -43.4
v -19.8 1.2 -43.5
v -19.8 1.1 -43.5
v -19.8 0.7 -43.5
v -19.8 0.6 -43.5
v -19.8 1.1 -43.6
v -19.8 1 -43.6
v -19.8 0.8 -43.6
v -19.8 0.7 -43.6
v -19.8 0.6 -43.6
v -19.8 0.3 -43.6
v -19.8 0 -43.6
v -19.8 1 -43.7
v -19.8 0.8 -43.7
v -19.8 0.6 -43.8
v -19.8 0.5 -43.8
v -19.8 0.4 -43.8
v -19.8 0.3 -43.8
v -19.8 0.5 -43.9
v -19.8 0.4 -43.9
v -20 2 -42.5
v -20 1.8 -42.5
v -20 2 -42.6
v -20 1.9 -42.6
v -20 1.9 -42.7
v -20 1.8 -42.7
v -19.9 2 -42.5
v -19.9 1.8 -42.5
v -19.9 2 -42.6
v -19.9 1.9 -42.6
v -19.9 1.9 -42.7
v -19.9 1.8 -42.7
v -20.1 1.9 -42
v -20.1 1.8 -42
v -20.1 2 -42.1
v -20.1 1.9 -42.1
v -20.1 1.8 -42.1
v -20.1 1.7 -42.1
v -20.1 2.3 -42.3
v -20.1 2 -42.3
v -20.1 1.7 -42.3
v -20.1 1.6 -42.3
v -20.1 1.7 -42.4
v -20.1 1.6 -42.4
v -20.1 2.3 -42.5
v -20.1 2.2 -42.5
v -20.1 1.8 -42.5
v -20.1 1.7 -42.5
v -20.1 2.2 -42.6
v -20.1 2 -42.6
v -20.1 2 -42.7
v -20.1 1.9 -42.7
v -20.1 1.8 -42.7
v -20.1 0.5 -43.2
v -20.1 0.4 -43.2
v -20.1 0.3 -43.2
v -20.1 0.6 -43.3
v -20.1 0.5 -43.3
v -20.1 0.3 -43.3
v -20.1 0.1 -43.3
v -20.1 0.1 -43.4
v -20.1 0 -43.4
v -20.1 0.7 -43.5
v -20.1 0.6 -43.5
v -20.1 0.7 -43.6
v -20.1 0.6 -43.6
v -20.1 0.3 -43.6
v -20.1 0 -43.6
v -20.1 0.6 -43.8
v -20.1 0.5 -43.8
v -20.1 0.4 -43.8
v -20.1 0.3 -43.8
v -20.1 0.5 -43.9
v -20.1 0.4 -43.9
v -20.2 1.5 -42.2
v -20.2 1.3 -42.2
v -20.2 1.6 -42.3
v -20.2 1.5 -42.3
v -20.2 1.3 -42.3
v -20.2 1.2 -42.3
v -20.2 1.7 -42.4
v -20.2 1.6 -42.4
v -20.2 1.2 -42.4
v -20.2 1 -42.4
v -20.2 1.8 -42.5
v -20.2 1.7 -42.5
v -20.2 1.4 -42.5
v -20.2 1.2 -42.5
v -20.2 1 -42.5
v -20.2 0.9 -42.5
v -20.2 1.5 -42.6
v -20.2 1.4 -42.6
v -20.2 1 -42.6
v -20.2 0.9 -42.6
v -20.2 0.8 -42.6
v -20.2 1.9 -42.7
v -20.2 1.8 -42.7
v -20.2 1.6 -42.7
v -20.2 1.5 -42.7
v -20.2 1.2 -42.7
v -20.2 1 -42.7
v -20.2 0.8 -42.7
v -20.2 0.6 -42.7
v -20.2 2 -42.8
v -20.2 1.9 -42.8
v -20.2 1.8 -42.8
v -20.2 1.6 -42.8
v -20.2 1.3 -42.8
v -20.2 1.2 -42.8
v -20.2 0.6 -42.8
v -20.2 0.5 -42.8
v -20.2 1.9 -42.9
v -20.2 1.8 -42.9
v -20.2 1.5 -42.9
v -20.2 1.3 -42.9
v -20.2 0.8 -42.9
v -20.2 0.6 -42.9
v -20.2 0.5 -42.9
v -20.2 0.4 -42.9
v -20.2 2 -43
v -20.2 1.9 -43
v -20.2 1.7 -43
v -20.2 1.5 -43
v -20.2 0.9 -43
v -20.2 0.8 -43
v -20.2 0.4 -43
v -20.2 0.3 -43
v -20.2 1.9 -43.1
v -20.2 1.7 -43.1
v -20.2 1 -43.1
v -20.2 0.9 -43.1
v -20.2 0.5 -43.1
v -20.2 0.4 -43.1
v -20.2 0.3 -43.1
v -20.2 1.7 -43.2
v -20.2 1.6 -43.2
v -20.2 1.2 -43.2
v -20.2 1 -43.2
v -20.2 0.7 -43.2
v -20.2 0.5 -43.2
v -20.2 0.4 -43.2
v -20.2 1.6 -43.3
v -20.2 1.4 -43.3
v -20.2 1.3 -43.3
v -20.2 1.2 -43.3
v -20.2 0.8 -43.3
v -20.2 0.7 -43.3
v -20.2 0.6 -43.3
v -20.2 0.5 -43.3
v -20.2 1.4 -43.4
v -20.2 1.3 -43.4
v -20.2 1.2 -43.4
v -20.2 1 -43.4
v -20.2 0.8 -43.4
v -20.2 1.2 -43.5
v -20.2 1.1 -43.5
v -20.2 1 -43.5
v -20.2 0.7 -43.5
v -20.2 0.6 -43.5
v -20.2 1.1 -43.6
v -20.2 1 -43.6
v -20.2 0.8 -43.6
v -20.2 0.7 -43.6
v -20.2 1 -43.7
v -20.2 0.8 -43.7
v -19.8 2.3 -42.3
v -19.8 2.3 -42.5
v -20.1 2.3 -42.3
v -20.1 2.3 -42.5
v -19.8 2.2 -42.5
v -19.8 2.2 -42.6
v -20.1 2.2 -42.5
v -20.1 2.2 -42.6
v -19.8 2 -42.1
v -19.8 2 -42.3
v -19.8 2 -42.6
v -19.8 2 -42.7
v -19.8 2 -42.8
v -19.8 2 -43
v -20.1 2 -42.1
v -20.1 2 -42.3
v -20.1 2 -42.6
v -20.1 2 -42.7
v -20.2 2 -42.8
v -20.2 2 -43
v -19.8 1.9 -42
v -19.8 1.9 -42.1
v -19.8 1.9 -42.7
v -19.8 1.9 -42.8
v -19.8 1.9 -43
v -19.8 1.9 -43.1
v -20.1 1.9 -42
v -20.1 1.9 -42.1
v -20.1 1.9 -42.7
v -20.2 1.9 -42.7
v -20.2 1.9 -42.8
v -20.2 1.9 -43
v -20.2 1.9 -43.1
v -19.9 1.8 -42.5
v -19.9 1.8 -42.7
v -20 1.8 -42.5
v -20 1.8 -42.7
v -20.1 1.8 -42.5
v -20.1 1.8 -42.7
v -20.2 1.8 -42.5
v -20.2 1.8 -42.7
v -19.8 1.7 -43.1
v -19.8 1.7 -43.2
v -20.1 1.7 -42.4
v -20.1 1.7 -42.5
v -20.2 1.7 -42.4
v -20.2 1.7 -42.5
v -20.2 1.7 -43.1
v -20.2 1.7 -43.2
v -19.8 1.6 -43.2
v -19.8 1.6 -43.3
v -20.1 1.6 -42.3
v -20.1 1.6 -42.4
v -20.2 1.6 -42.3
v -20.2 1.6 -42.4
v -20.2 1.6 -43.2
v -20.2 1.6 -43.3
v -19.8 1.5 -42.2
v -19.8 1.5 -42.3
v -20.2 1.5 -42.2
v -20.2 1.5 -42.3
v -19.8 1.4 -43.3
v -19.8 1.4 -43.4
v -20.2 1.4 -43.3
v -20.2 1.4 -43.4
v -19.8 1.2 -43.4
v -19.8 1.2 -43.5
v -20.2 1.2 -43.4
v -20.2 1.2 -43.5
v -19.8 1.1 -43.5
v -19.8 1.1 -43.6
v -20.2 1.1 -43.5
v -20.2 1.1 -43.6
v -19.8 1 -43.6
v -19.8 1 -43.7
v -20.2 1 -43.6
v -20.2 1 -43.7
v -19.8 0.6 -43.6
v -19.8 0.6 -43.8
v -20.1 0.6 -43.6
v -20.1 0.6 -43.8
v -19.8 0.5 -43.8
v -19.8 0.5 -43.9
v -20.1 0.5 -43.8
v -20.1 0.5 -43.9
v -19.9 2 -42.5
v -19.9 2 -42.6
v -20 2 -42.5
v -20 2 -42.6
v -19.9 1.9 -42.6
v -19.9 1.9 -42.7
v -20 1.9 -42.6
v -20 1.9 -42.7
v -19.8 1.8 -42
v -19.8 1.8 -42.1
v -20.1 1.8 -42
v -20.1 1.8 -42.1
v -19.8 1.7 -42.1
v -19.8 1.7 -42.3
v -20.1 1.7 -42.1
v -20.1 1.7 -42.3
v -19.8 1.3 -42.2
v -19.8 1.3 -42.3
v -20.2 1.3 -42.2
v -20.2 1.3 -42.3
v -19.8 1.2 -42.3
v -19.8 1.2 -42.4
v -20.2 1.2 -42.3
v -20.2 1.2 -42.4
v -19.8 1 -42.4
v -19.8 1 -42.5
v -20.2 1 -42.4
v -20.2 1 -42.5
v -19.8 0.9 -42.5
v -19.8 0.9 -42.6
v -20.2 0.9 -42.5
v -20.2 0.9 -42.6
v -19.8 0.8 -42.6
v -19.8 0.8 -42.7
v -19.8 0.8 -43.6
v -19.8 0.8 -43.7
v -20.2 0.8 -42.6
v -20.2 0.8 -42.7
v -20.2 0.8 -43.6
v -20.2 0.8 -43.7
v -20.1 0.7 -43.5
v -20.1 0.7 -43.6
v -20.2 0.7 -43.5
v -20.2 0.7 -43.6
v -19.8 0.6 -42.7
v -19.8 0.6 -42.8
v -20.1 0.6 -43.3
v -20.1 0.6 -43.5
v -20.2 0.6 -42.7
v -20.2 0.6 -42.8
v -20.2 0.6 -43.3
v -20.2 0.6 -43.5
v -19.8 0.5 -42.8
v -19.8 0.5 -42.9
v -20.1 0.5 -43.2
v -20.1 0.5 -43.3
v -20.2 0.5 -42.8
v -20.2 0.5 -42.9
v -20.2 0.5 -43.2
v -20.2 0.5 -43.3
v -19.8 0.4 -42.9
v -19.8 0.4 -43
v -19.8 0.4 -43.1
v -19.8 0.4 -43.2
v -19.8 0.4 -43.8
v -19.8 0.4 -43.9
v -20.1 0.4 -43.2
v -20.1 0.4 -43.8
v -20.1 0.4 -43.9
v -20.2 0.4 -42.9
v -20.2 0.4 -43
v -20.2 0.4 -43.1
v -20.2 0.4 -43.2
v -19.8 0.3 -43
v -19.8 0.3 -43.1
v -19.8 0.3 -43.2
v -19.8 0.3 -43.3
v -19.8 0.3 -43.6
v -19.8 0.3 -43.8
v -20.1 0.3 -43.2
v -20.1 0.3 -43.3
v -20.1 0.3 -43.6
v -20.1 0.3 -43.8
v -20.2 0.3 -43
v -20.2 0.3 -43.1
v -19.8 0.1 -43.3
v -19.8 0.1 -43.4
v -20.1 0.1 -43.3
v -20.1 0.1 -43.4
v -19.8 0 -43.4
v -19.8 0 -43.6
v -20.1 0 -43.4
v -20.1 0 -43.6
v -19.8 1.9 -42
v -20.1 1.9 -42
v -19.8 1.8 -42
v -20.1 1.8 -42
v -19.8 2 -42.1
v -20.1 2 -42.1
v -19.8 1.9 -42.1
v -20.1 1.9 -42.1
v -19.8 1.8 -42.1
v -20.1 1.8 -42.1
v -19.8 1.7 -42.1
v -20.1 1.7 -42.1
v -19.8 1.5 -42.2
v -20.2 1.5 -42.2
v -19.8 1.3 -42.2
v -20.2 1.3 -42.2
v -19.8 2.3 -42.3
v -20.1 2.3 -42.3
v -19.8 2 -42.3
v -20.1 2 -42.3
v -19.8 1.7 -42.3
v -20.1 1.7 -42.3
v -19.8 1.6 -42.3
v -20.1 1.6 -42.3
v -20.2 1.6 -42.3
v -19.8 1.5 -42.3
v -20.2 1.5 -42.3
v -19.8 1.3 -42.3
v -20.2 1.3 -42.3
v -19.8 1.2 -42.3
v -20.2 1.2 -42.3
v -20.1 1.7 -42.4
v -20.2 1.7 -42.4
v -20.1 1.6 -42.4
v -20.2 1.6 -42.4
v -19.8 1.2 -42.4
v -20.2 1.2 -42.4
v -19.8 1 -42.4
v -20.2 1 -42.4
v -20.1 1.8 -42.5
v -20.2 1.8 -42.5
v -20.1 1.7 -42.5
v -20.2 1.7 -42.5
v -19.8 1 -42.5
v -20.2 1 -42.5
v -19.8 0.9 -42.5
v -20.2 0.9 -42.5
v -19.9 2 -42.6
v -20 2 -42.6
v -19.9 1.9 -42.6
v -20 1.9 -42.6
v -19.8 0.9 -42.6
v -20.2 0.9 -42.6
v -19.8 0.8 -42.6
v -20.2 0.8 -42.6
v -19.9 1.9 -42.7
v -20 1.9 -42.7
v -20.1 1.9 -42.7
v -20.2 1.9 -42.7
v -19.9 1.8 -42.7
v -20 1.8 -42.7
v -20.1 1.8 -42.7
v -20.2 1.8 -42.7
v -19.8 0.8 -42.7
v -20.2 0.8 -42.7
v -19.8 0.6 -42.7
v -20.2 0.6 -42.7
v -19.8 2 -42.8
v -20.2 2 -42.8
v -19.8 1.9 -42.8
v -20.2 1.9 -42.8
v -19.8 0.6 -42.8
v -20.2 0.6 -42.8
v -19.8 0.5 -42.8
v -20.2 0.5 -42.8
v -19.8 0.5 -42.9
v -20.2 0.5 -42.9
v -19.8 0.4 -42.9
v -20.2 0.4 -42.9
v -19.8 0.4 -43
v -20.2 0.4 -43
v -19.8 0.3 -43
v -20.2 0.3 -43
v -19.8 0.4 -43.2
v -20.1 0.4 -43.2
v -19.8 0.3 -43.2
v -20.1 0.3 -43.2
v -19.8 0.3 -43.3
v -20.1 0.3 -43.3
v -19.8 0.1 -43.3
v -20.1 0.1 -43.3
v -19.8 0.1 -43.4
v -20.1 0.1 -43.4
v -19.8 0 -43.4
v -20.1 0 -43.4
v -19.8 2.3 -42.5
v -20.1 2.3 -42.5
v -19.8 2.2 -42.5
v -20.1 2.2 -42.5
v -19.9 2 -42.5
v -20 2 -42.5
v -19.9 1.8 -42.5
v -20 1.8 -42.5
v -19.8 2.2 -42.6
v -20.1 2.2 -42.6
v -19.8 2 -42.6
v -20.1 2 -42.6
v -19.8 2 -42.7
v -20.1 2 -42.7
v -19.8 1.9 -42.7
v -20.1 1.9 -42.7
v -19.8 2 -43
v -20.2 2 -43
v -19.8 1.9 -43
v -20.2 1.9 -43
v -19.8 1.9 -43.1
v -20.2 1.9 -43.1
v -19.8 1.7 -43.1
v -20.2 1.7 -43.1
v -19.8 0.4 -43.1
v -20.2 0.4 -43.1
v -19.8 0.3 -43.1
v -20.2 0.3 -43.1
v -19.8 1.7 -43.2
v -20.2 1.7 -43.2
v -19.8 1.6 -43.2
v -20.2 1.6 -43.2
v -20.1 0.5 -43.2
v -20.2 0.5 -43.2
v -20.1 0.4 -43.2
v -20.2 0.4 -43.2
v -19.8 1.6 -43.3
v -20.2 1.6 -43.3
v -19.8 1.4 -43.3
v -20.2 1.4 -43.3
v -20.1 0.6 -43.3
v -20.2 0.6 -43.3
v -20.1 0.5 -43.3
v -20.2 0.5 -43.3
v -19.8 1.4 -43.4
v -20.2 1.4 -43.4
v -19.8 1.3 -43.4
v -20.2 1.3 -43.4
v -19.8 1.2 -43.4
v -20.2 1.2 -43.4
v -19.8 1.2 -43.5
v -20.2 1.2 -43.5
v -19.8 1.1 -43.5
v -20.2 1.1 -43.5
v -20.1 0.7 -43.5
v -20.2 0.7 -43.5
v -20.1 0.6 -43.5
v -20.2 0.6 -43.5
v -19.8 1.1 -43.6
v -20.2 1.1 -43.6
v -19.8 1 -43.6
v -20.2 1 -43.6
v -19.8 0.8 -43.6
v -20.2 0.8 -43.6
v -19.8 0.7 -43.6
v -20.1 0.7 -43.6
v -20.2 0.7 -43.6
v -19.8 0.6 -43.6
v -20.1 0.6 -43.6
v -19.8 0.3 -43.6
v -20.1 0.3 -43.6
v -19.8 0 -43.6
v -20.1 0 -43.6
v -19.8 1 -43.7
v -20.2 1 -43.7
v -19.8 0.8 -43.7
v -20.2 0.8 -43.7
v -19.8 0.6 -43.8
v -20.1 0.6 -43.8
v -19.8 0.5 -43.8
v -20.1 0.5 -43.8
v -19.8 0.4 -43.8
v -20.1 0.4 -43.8
v -19.8 0.3 -43.8
v -20.1 0.3 -43.8
v -19.8 0.5 -43.9
v -20.1 0.5 -43.9
v -19.8 0.4 -43.9
v -20.1 0.4 -43.9

# faces
f 1/2/1 2/2/1 4/2/1
f 4/2/1 2/2/1 5/2/1
f 3/2/1 4/2/1 10/2/1
f 4/2/1 5/2/1 10/2/1
f 5/2/1 6/2/1 10/2/1
f 10/2/1 6/2/1 11/2/1
f 7/1/1 8/1/1 13/1/1
f 13/1/1 8/1/1 14/1/1
f 11/2/1 12/2/1 16/2/1
f 9/2/1 10/2/1 16/2/1
f 10/2/1 11/2/1 16/2/1
f 14/1/1 15/1/1 17/1/1
f 16/2/1 12/2/1 17/2/1
f 13/1/1 14/1/1 17/1/1
f 12/1/1 13/1/1 17/1/1
f 17/1/1 15/1/1 18/1/1
f 18/1/1 15/1/1 19/1/1
f 9/2/1 16/2/1 21/2/1
f 21/2/1 16/2/1 22/2/1
f 16/1/1 17/1/1 23/1/1
f 17/1/1 18/1/1 23/1/1
f 19/2/1 20/2/1 24/2/1
f 23/1/1 18/1/1 24/1/1
f 18/2/1 19/2/1 24/2/1
f 24/2/1 20/2/1 25/2/1
f 22/2/1 16/2/1 27/2/1
f 27/2/1 16/2/1 28/2/1
f 28/2/1 16/2/1 29/2/1
f 16/1/1 23/1/1 30/1/1
f 29/2/1 16/2/1 30/2/1
f 30/1/1 23/1/1 31/1/1
f 25/2/1 26/2/1 32/2/1
f 31/1/1 23/1/1 32/1/1
f 24/2/1 25/2/1 32/2/1
f 23/2/1 24/2/1 32/2/1
f 32/2/1 26/2/1 33/2/1
f 33/2/1 26/2/1 34/2/1
f 28/2/1 29/2/1 36/2/1
f 36/2/1 29/2/1 37/2/1
f 30/1/1 31/1/1 38/1/1
f 37/2/1 29/2/1 38/2/1
f 29/1/1 30/1/1 38/1/1
f 38/1/1 31/1/1 39/1/1
f 31/2/1 32/2/1 40/2/1
f 39/1/1 31/1/1 40/1/1
f 32/2/1 33/2/1 40/2/1
f 40/2/1 33/2/1 41/2/1
f 34/1/1 35/1/1 42/1/1
f 41/2/1 33/2/1 42/2/1
f 33/1/1 34/1/1 42/1/1
f 42/1/1 35/1/1 43/1/1
f 38/1/1 39/1/1 46/1/1
f 37/1/1 38/1/1 46/1/1
f 46/1/1 39/1/1 47/1/1
f 40/2/1 41/2/1 48/2/1
f 47/1/1 39/1/1 48/1/1
f 39/2/1 40/2/1 48/2/1
f 48/2/1 41/2/1 49/2/1
f 43/1/1 44/1/1 50/1/1
f 49/2/1 41/2/1 50/2/1
f 42/1/1 43/1/1 50/1/1
f 41/1/1 42/1/1 50/1/1
f 50/1/1 44/1/1 51/1/1
f 46/1/1 47/1/1 53/1/1
f 45/1/1 46/1/1 53/1/1
f 48/2/1 49/2/1 54/2/1
f 53/1/1 47/1/1 54/1/1
f 47/2/1 48/2/1 54/2/1
f 54/2/1 49/2/1 55/2/1
f 50/1/1 51/1/1 56/1/1
f 55/2/1 49/2/1 56/2/1
f 49/1/1 50/1/1 56/1/1
f 56/1/1 51/1/1 57/1/1
f 51/2/1 52/2/1 58/2/1
f 57/1/1 51/1/1 58/1/1
f 58/2/1 52/2/1 59/2/1
f 45/1/1 53/1/1 61/1/1
f 61/1/1 53/1/1 62/1/1
f 54/2/1 55/2/1 63/2/1
f 62/1/1 53/1/1 63/1/1
f 53/2/1 54/2/1 63/2/1
f 63/2/1 55/2/1 64/2/1
f 56/1/1 57/1/1 65/1/1
f 64/2/1 55/2/1 65/2/1
f 55/1/1 56/1/1 65/1/1
f 65/1/1 57/1/1 66/1/1
f 59/2/1 60/2/1 67/2/1
f 66/1/1 57/1/1 67/1/1
f 57/2/1 58/2/1 67/2/1
f 58/2/1 59/2/1 67/2/1
f 67/2/1 60/2/1 68/2/1
f 68/2/1 60/2/1 69/2/1
f 63/2/1 64/2/1 71/2/1
f 62/2/1 63/2/1 71/2/1
f 71/2/1 64/2/1 72/2/1
f 65/1/1 66/1/1 73/1/1
f 72/2/1 64/2/1 73/2/1
f 64/1/1 65/1/1 73/1/1
f 73/1/1 66/1/1 74/1/1
f 67/2/1 68/2/1 75/2/1
f 74/1/1 66/1/1 75/1/1
f 66/2/1 67/2/1 75/2/1
f 75/2/1 68/2/1 76/2/1
f 69/1/1 70/1/1 77/1/1
f 76/2/1 68/2/1 77/2/1
f 68/1/1 69/1/1 77/1/1
f 77/1/1 70/1/1 78/1/1
f 78/1/1 70/1/1 79/1/1
f 73/1/1 74/1/1 80/1/1
f 72/1/1 73/1/1 80/1/1
f 80/1/1 74/1/1 81/1/1
f 81/1/1 74/1/1 82/1/1
f 75/2/1 76/2/1 83/2/1
f 82/1/1 74/1/1 83/1/1
f 74/2/1 75/2/1 83/2/1
f 83/2/1 76/2/1 84/2/1
f 77/1/1 78/1/1 85/1/1
f 84/2/1 76/2/1 85/2/1
f 76/1/1 77/1/1 85/1/1
f 85/1/1 78/1/1 86/1/1
f 86/1/1 78/1/1 87/1/1
f 81/1/1 82/1/1 89/1/1
f 89/1/1 82/1/1 90/1/1
f 90/1/1 82/1/1 91/1/1
f 83/2/1 84/2/1 92/2/1
f 91/1/1 82/1/1 92/1/1
f 82/2/1 83/2/1 92/2/1
f 92/2/1 84/2/1 93/2/1
f 84/1/1 85/1/1 94/1/1
f 93/2/1 84/2/1 94/2/1
f 85/1/1 86/1/1 94/1/1
f 94/1/1 86/1/1 95/1/1
f 87/2/1 88/2/1 96/2/1
f 95/1/1 86/1/1 96/1/1
f 86/2/1 87/2/1 96/2/1
f 96/2/1 88/2/1 97/2/1
f 90/1/1 91/1/1 99/1/1
f 92/2/1 93/2/1 100/2/1
f 99/1/1 91/1/1 100/1/1
f 91/2/1 92/2/1 100/2/1
f 100/2/1 93/2/1 101/2/1
f 101/2/1 93/2/1 102/2/1
f 94/1/1 95/1/1 103/1/1
f 102/2/1 93/2/1 103/2/1
f 93/1/1 94/1/1 103/1/1
f 96/2/1 97/2/1 104/2/1
f 97/2/1 98/2/1 104/2/1
f 95/2/1 96/2/1 104/2/1
f 101/2/1 102/2/1 106/2/1
f 102/1/1 103/1/1 107/1/1
f 106/2/1 102/2/1 107/2/1
f 103/1/1 95/1/1 108/1/1
f 107/1/1 103/1/1 108/1/1
f 104/2/1 105/2/1 109/2/1
f 108/1/1 95/1/1 109/1/1
f 95/2/1 104/2/1 109/2/1
f 107/1/1 108/1/1 110/1/1
f 110/1/1 108/1/1 111/1/1
f 111/1/1 108/1/1 112/1/1
f 108/2/1 109/2/1 113/2/1
f 112/1/1 108/1/1 113/1/1
f 109/2/1 105/2/1 114/2/1
f 113/2/1 109/2/1 114/2/1
f 114/2/1 105/2/1 115/2/1
f 115/2/1 105/2/1 116/2/1
f 111/1/1 112/1/1 117/1/1
f 117/1/1 112/1/1 118/1/1
f 114/2/1 115/2/1 119/2/1
f 119/2/1 115/2/1 120/2/1
f 120/2/1 115/2/1 121/2/1
f 121/2/1 115/2/1 122/2/1
f 120/2/1 121/2/1 123/2/1
f 123/2/1 121/2/1 124/2/1
f 125/2/1 126/2/1 127/2/1
f 127/2/1 126/2/1 128/2/1
f 128/2/1 126/2/1 129/2/1
f 129/2/1 126/2/1 130/2/1
f 133/2/2 132/2/2 131/2/2
f 134/2/2 132/2/2 133/2/2
f 135/2/2 132/2/2 134/2/2
f 136/2/2 132/2/2 135/2/2
f 140/2/2 138/2/2 137/2/2
f 141/2/2 138/2/2 140/2/2
f 144/2/2 140/2/2 139/2/2
f 144/2/2 142/2/2 141/2/2
f 144/2/2 141/2/2 140/2/2
f 145/2/2 142/2/2 144/2/2
f 147/2/2 144/2/2 143/2/2
f 147/2/2 146/2/2 145/2/2
f 147/2/2 145/2/2 144/2/2
f 148/2/2 146/2/2 147/2/2
f 149/2/2 147/2/2 143/2/2
f 150/2/2 147/2/2 149/2/2
f 151/2/2 147/2/2 150/2/2
f 152/2/2 147/2/2 151/2/2
f 153/2/2 151/2/2 150/2/2
f 154/2/2 151/2/2 153/2/2
f 155/2/2 151/2/2 154/2/2
f 156/2/2 151/2/2 155/2/2
f 157/2/2 151/2/2 156/2/2
f 162/2/2 159/2/2 158/2/2
f 162/2/2 160/2/2 159/2/2
f 163/2/2 160/2/2 162/2/2
f 165/2/2 162/2/2 161/2/2
f 165/2/2 164/2/2 163/2/2
f 165/2/2 163/2/2 162/2/2
f 168/2/2 165/2/2 161/2/2
f 168/2/2 166/2/2 165/2/2
f 169/2/2 168/2/2 167/2/2
f 170/2/2 166/2/2 168/2/2
f 170/2/2 168/2/2 169/2/2
f 171/2/2 166/2/2 170/2/2
f 172/2/2 166/2/2 171/2/2
f 173/2/2 171/2/2 170/2/2
f 174/2/2 171/2/2 173/2/2
f 175/2/2 171/2/2 174/2/2
f 176/2/2 171/2/2 175/2/2
f 177/2/2 175/2/2 174/2/2
f 178/2/2 175/2/2 177/2/2
f 182/1/2 180/1/2 179/1/2
f 183/1/2 180/1/2 182/1/2
f 186/1/2 182/1/2 181/1/2
f 186/1/2 184/1/2 183/1/2
f 186/1/2 183/1/2 182/1/2
f 187/1/2 184/1/2 186/1/2
f 190/1/2 186/1/2 185/1/2
f 190/1/2 187/1/2 186/1/2
f 191/1/2 187/1/2 190/1/2
f 192/2/2 188/2/2 187/2/2
f 192/1/2 187/1/2 191/1/2
f 193/2/2 188/2/2 192/2/2
f 195/1/2 191/1/2 190/1/2
f 195/1/2 190/1/2 189/1/2
f 196/2/2 194/2/2 193/2/2
f 196/1/2 191/1/2 195/1/2
f 196/2/2 193/2/2 192/2/2
f 196/2/2 192/2/2 191/2/2
f 197/2/2 194/2/2 196/2/2
f 198/2/2 194/2/2 197/2/2
f 201/1/2 195/1/2 189/1/2
f 202/1/2 195/1/2 201/1/2
f 203/2/2 196/2/2 195/2/2
f 203/1/2 195/1/2 202/1/2
f 203/2/2 197/2/2 196/2/2
f 204/2/2 197/2/2 203/2/2
f 205/1/2 199/1/2 198/1/2
f 205/2/2 197/2/2 204/2/2
f 205/1/2 198/1/2 197/1/2
f 206/1/2 199/1/2 205/1/2
f 209/1/2 202/1/2 201/1/2
f 209/1/2 201/1/2 200/1/2
f 210/1/2 202/1/2 209/1/2
f 211/2/2 204/2/2 203/2/2
f 211/1/2 202/1/2 210/1/2
f 211/2/2 203/2/2 202/2/2
f 212/2/2 204/2/2 211/2/2
f 213/1/2 207/1/2 206/1/2
f 213/2/2 204/2/2 212/2/2
f 213/1/2 206/1/2 205/1/2
f 213/1/2 205/1/2 204/1/2
f 214/1/2 207/1/2 213/1/2
f 216/1/2 210/1/2 209/1/2
f 216/1/2 209/1/2 208/1/2
f 217/2/2 212/2/2 211/2/2
f 217/1/2 210/1/2 216/1/2
f 217/2/2 211/2/2 210/2/2
f 218/2/2 212/2/2 217/2/2
f 219/1/2 213/1/2 212/1/2
f 219/2/2 212/2/2 218/2/2
f 219/1/2 214/1/2 213/1/2
f 220/1/2 214/1/2 219/1/2
f 221/2/2 215/2/2 214/2/2
f 221/1/2 214/1/2 220/1/2
f 222/2/2 215/2/2 221/2/2
f 224/1/2 216/1/2 208/1/2
f 225/2/2 218/2/2 217/2/2
f 225/1/2 216/1/2 224/1/2
f 225/2/2 217/2/2 216/2/2
f 226/2/2 218/2/2 225/2/2
f 227/1/2 220/1/2 219/1/2
f 227/2/2 218/2/2 226/2/2
f 227/1/2 219/1/2 218/1/2
f 228/1/2 220/1/2 227/1/2
f 229/2/2 223/2/2 222/2/2
f 229/1/2 220/1/2 228/1/2
f 229/2/2 222/2/2 221/2/2
f 229/2/2 221/2/2 220/2/2
f 230/2/2 223/2/2 229/2/2
f 232/2/2 226/2/2 225/2/2
f 233/1/2 228/1/2 227/1/2
f 233/2/2 226/2/2 232/2/2
f 233/1/2 227/1/2 226/1/2
f 234/1/2 228/1/2 233/1/2
f 235/2/2 229/2/2 228/2/2
f 235/1/2 228/1/2 234/1/2
f 235/2/2 230/2/2 229/2/2
f 236/2/2 230/2/2 235/2/2
f 237/1/2 231/1/2 230/1/2
f 237/2/2 230/2/2 236/2/2
f 238/1/2 231/1/2 237/1/2
f 239/1/2 234/1/2 233/1/2
f 240/1/2 234/1/2 239/1/2
f 241/1/2 234/1/2 240/1/2
f 242/2/2 236/2/2 235/2/2
f 242/1/2 234/1/2 241/1/2
f 242/2/2 235/2/2 234/2/2
f 243/2/2 236/2/2 242/2/2
f 244/1/2 237/1/2 236/1/2
f 244/2/2 236/2/2 243/2/2
f 245/1/2 237/1/2 244/1/2
f 246/1/2 241/1/2 240/1/2
f 247/1/2 241/1/2 246/1/2
f 248/1/2 241/1/2 247/1/2
f 249/2/2 243/2/2 242/2/2
f 249/1/2 241/1/2 248/1/2
f 249/2/2 242/2/2 241/2/2
f 250/2/2 243/2/2 249/2/2
f 251/1/2 244/1/2 243/1/2
f 251/2/2 243/2/2 250/2/2
f 252/1/2 244/1/2 251/1/2
f 253/1/2 244/1/2 252/1/2
f 254/1/2 248/1/2 247/1/2
f 255/2/2 250/2/2 249/2/2
f 255/1/2 248/1/2 254/1/2
f 255/2/2 249/2/2 248/2/2
f 256/2/2 250/2/2 255/2/2
f 257/2/2 250/2/2 256/2/2
f 258/1/2 252/1/2 251/1/2
f 258/2/2 250/2/2 257/2/2
f 258/1/2 251/1/2 250/1/2
f 259/2/2 257/2/2 256/2/2
f 260/2/2 257/2/2 259/2/2
f 261/1/2 258/1/2 257/1/2
f 261/2/2 257/2/2 260/2/2
f 262/1/2 252/1/2 258/1/2
f 262/1/2 258/1/2 261/1/2
f 263/1/2 252/1/2 262/1/2
f 264/1/2 261/1/2 260/1/2
f 264/1/2 262/1/2 261/1/2
f 265/1/2 262/1/2 264/1/2
f 266/1/2 262/1/2 265/1/2
f 267/1/2 262/1/2 266/1/2
f 268/1/2 266/1/2 265/1/2
f 269/1/2 266/1/2 268/1/2
f 270/2/3 271/2/3 272/2/3
f 272/2/3 271/2/3 273/2/3
f 274/2/3 275/2/3 276/2/3
f 276/2/3 275/2/3 277/2/3
f 278/2/3 279/2/3 284/2/3
f 284/2/3 279/2/3 285/2/3
f 280/2/3 281/2/3 286/2/3
f 286/2/3 281/2/3 287/2/3
f 282/1/3 283/1/3 288/1/3
f 288/1/3 283/1/3 289/1/3
f 290/2/3 291/2/3 296/2/3
f 296/2/3 291/2/3 297/2/3
f 292/1/3 293/1/3 298/1/3
f 298/1/3 293/1/3 299/1/3
f 299/1/3 293/1/3 300/1/3
f 294/2/3 295/2/3 301/2/3
f 301/2/3 295/2/3 302/2/3
f 303/1/3 304/1/3 305/1/3
f 305/1/3 304/1/3 306/1/3
f 307/1/3 308/1/3 309/1/3
f 309/1/3 308/1/3 310/1/3
f 313/1/3 314/1/3 315/1/3
f 315/1/3 314/1/3 316/1/3
f 311/1/3 312/1/3 317/1/3
f 317/1/3 312/1/3 318/1/3
f 321/1/3 322/1/3 323/1/3
f 323/1/3 322/1/3 324/1/3
f 319/1/3 320/1/3 325/1/3
f 325/1/3 320/1/3 326/1/3
f 327/1/3 328/1/3 329/1/3
f 329/1/3 328/1/3 330/1/3
f 331/1/3 332/1/3 333/1/3
f 333/1/3 332/1/3 334/1/3
f 335/2/3 336/2/3 337/2/3
f 337/2/3 336/2/3 338/2/3
f 339/1/3 340/1/3 341/1/3
f 341/1/3 340/1/3 342/1/3
f 343/1/3 344/1/3 345/1/3
f 345/1/3 344/1/3 346/1/3
f 347/2/3 348/2/3 349/2/3
f 349/2/3 348/2/3 350/2/3
f 351/2/3 352/2/3 353/2/3
f 353/2/3 352/2/3 354/2/3
f 357/2/4 356/2/4 355/2/4
f 358/2/4 356/2/4 357/2/4
f 361/2/4 360/2/4 359/2/4
f 362/2/4 360/2/4 361/2/4
f 365/2/4 364/2/4 363/2/4
f 366/2/4 364/2/4 365/2/4
f 369/2/4 368/2/4 367/2/4
f 370/2/4 368/2/4 369/2/4
f 373/1/4 372/1/4 371/1/4
f 374/1/4 372/1/4 373/1/4
f 377/1/4 376/1/4 375/1/4
f 378/1/4 376/1/4 377/1/4
f 381/2/4 380/2/4 379/2/4
f 382/2/4 380/2/4 381/2/4
f 385/2/4 384/2/4 383/2/4
f 386/2/4 384/2/4 385/2/4
f 391/1/4 388/1/4 387/1/4
f 392/1/4 388/1/4 391/1/4
f 393/1/4 390/1/4 389/1/4
f 394/1/4 390/1/4 393/1/4
f 397/1/4 396/1/4 395/1/4
f 398/1/4 396/1/4 397/1/4
f 403/1/4 400/1/4 399/1/4
f 404/1/4 400/1/4 403/1/4
f 405/1/4 402/1/4 401/1/4
f 406/1/4 402/1/4 405/1/4
f 411/2/4 408/2/4 407/2/4
f 412/2/4 408/2/4 411/2/4
f 413/1/4 410/1/4 409/1/4
f 414/1/4 410/1/4 413/1/4
f 421/1/4 418/1/4 417/1/4
f 422/2/4 420/2/4 419/2/4
f 423/2/4 420/2/4 422/2/4
f 424/2/4 416/2/4 415/2/4
f 425/2/4 416/2/4 424/2/4
f 426/1/4 421/1/4 417/1/4
f 427/1/4 421/1/4 426/1/4
f 434/2/4 431/2/4 430/2/4
f 435/2/4 431/2/4 434/2/4
f 436/2/4 433/2/4 432/2/4
f 437/2/4 433/2/4 436/2/4
f 438/1/4 429/1/4 428/1/4
f 439/1/4 429/1/4 438/1/4
f 442/2/4 441/2/4 440/2/4
f 443/2/4 441/2/4 442/2/4
f 446/2/4 445/2/4 444/2/4
f 447/2/4 445/2/4 446/2/4
f 448/2/5 449/2/5 450/2/5
f 450/2/5 449/2/5 451/2/5
f 452/2/5 453/2/5 454/2/5
f 454/2/5 453/2/5 455/2/5
f 456/2/5 457/2/5 458/2/5
f 458/2/5 457/2/5 459/2/5
f 460/1/5 461/1/5 462/1/5
f 462/1/5 461/1/5 463/1/5
f 464/2/5 465/2/5 466/2/5
f 466/2/5 465/2/5 467/2/5
f 468/2/5 469/2/5 470/2/5
f 470/2/5 469/2/5 471/2/5
f 470/1/5 471/1/5 473/1/5
f 471/1/5 472/1/5 473/1/5
f 473/1/5 472/1/5 474/1/5
f 475/1/5 476/1/5 477/1/5
f 477/1/5 476/1/5 478/1/5
f 479/1/5 480/1/5 481/1/5
f 481/1/5 480/1/5 482/1/5
f 483/2/5 484/2/5 485/2/5
f 485/2/5 484/2/5 486/2/5
f 487/1/5 488/1/5 489/1/5
f 489/1/5 488/1/5 490/1/5
f 491/2/5 492/2/5 493/2/5
f 493/2/5 492/2/5 494/2/5
f 495/2/5 496/2/5 497/2/5
f 497/2/5 496/2/5 498/2/5
f 499/1/5 500/1/5 501/1/5
f 501/1/5 500/1/5 502/1/5
f 503/1/5 504/1/5 507/1/5
f 507/1/5 504/1/5 508/1/5
f 505/1/5 506/1/5 509/1/5
f 509/1/5 506/1/5 510/1/5
f 511/1/5 512/1/5 513/1/5
f 513/1/5 512/1/5 514/1/5
f 515/1/5 516/1/5 517/1/5
f 517/1/5 516/1/5 518/1/5
f 519/2/5 520/2/5 521/2/5
f 521/2/5 520/2/5 522/2/5
f 523/2/5 524/2/5 525/2/5
f 525/2/5 524/2/5 526/2/5
f 527/1/5 528/1/5 529/1/5
f 529/1/5 528/1/5 530/1/5
f 531/2/5 532/2/5 533/2/5
f 533/2/5 532/2/5 534/2/5
f 535/2/5 536/2/5 537/2/5
f 537/2/5 536/2/5 538/2/5
f 539/2/5 540/2/5 541/2/5
f 541/2/5 540/2/5 542/2/5
f 545/2/6 544/2/6 543/2/6
f 546/2/6 544/2/6 545/2/6
f 549/2/6 548/2/6 547/2/6
f 550/2/6 548/2/6 549/2/6
f 553/2/6 552/2/6 551/2/6
f 554/2/6 552/2/6 553/2/6
f 557/2/6 556/2/6 555/2/6
f 558/2/6 556/2/6 557/2/6
f 561/1/6 560/1/6 559/1/6
f 562/1/6 560/1/6 561/1/6
f 565/2/6 564/2/6 563/2/6
f 566/2/6 564/2/6 565/2/6
f 569/1/6 568/1/6 567/1/6
f 570/1/6 568/1/6 569/1/6
f 573/1/6 572/1/6 571/1/6
f 574/1/6 572/1/6 573/1/6
f 577/1/6 576/1/6 575/1/6
f 578/1/6 576/1/6 577/1/6
f 581/1/6 580/1/6 579/1/6
f 582/1/6 580/1/6 581/1/6
f 585/1/6 584/1/6 583/1/6
f 586/1/6 584/1/6 585/1/6
f 589/1/6 588/1/6 587/1/6
f 590/1/6 588/1/6 589/1/6
f 591/2/6 590/2/6 589/2/6
f 592/2/6 590/2/6 591/2/6
f 595/2/6 594/2/6 593/2/6
f 596/2/6 594/2/6 595/2/6
f 599/1/6 598/1/6 597/1/6
f 600/1/6 598/1/6 599/1/6
f 603/1/6 602/1/6 601/1/6
f 604/1/6 602/1/6 603/1/6
f 607/1/6 606/1/6 605/1/6
f 608/1/6 606/1/6 607/1/6
f 609/1/6 606/1/6 608/1/6
f 610/2/6 608/2/6 607/2/6
f 611/2/6 608/2/6 610/2/6
f 614/2/6 613/2/6 612/2/6
f 615/2/6 613/2/6 614/2/6
f 618/1/6 617/1/6 616/1/6
f 619/1/6 617/1/6 618/1/6
f 622/2/6 621/2/6 620/2/6
f 623/2/6 621/2/6 622/2/6
f 626/2/6 625/2/6 624/2/6
f 627/2/6 625/2/6 626/2/6
f 630/2/6 629/2/6 628/2/6
f 631/2/6 629/2/6 630/2/6
