# MagicaVoxel @ Ephtracy

# group
o 

# material
mtllib Eruption-31.mtl
usemtl palette

# normals
vn 0 0 1
vn 0 0 -1
vn 0 1 0
vn 0 -1 0
vn -1 0 0
vn 1 0 0

# texcoords
vt 0.794922 0.5
vt 0.798828 0.5
vt 0.802734 0.5
vt 0.806641 0.5
vt 0.810547 0.5
vt 0.814453 0.5
vt 0.841797 0.5

# verts
v -5.9 1.6 10.7
v -5.9 0.9 10.7
v -5.7 1.5 10.7
v -5.7 1.4 10.7
v -5.6 1.6 10.7
v -5.6 1.5 10.7
v -5.6 1.4 10.7
v -5.6 0.9 10.7
v -5.9 1.8 10.6
v -5.9 1.6 10.6
v -5.9 0.9 10.6
v -5.9 0.7 10.6
v -5.7 0.9 10.6
v -5.7 0.8 10.6
v -5.6 1.8 10.6
v -5.6 1.6 10.6
v -5.6 0.9 10.6
v -5.6 0.8 10.6
v -5.6 0.7 10.6
v -5.9 1.9 10.5
v -5.9 1.8 10.5
v -5.9 0.7 10.5
v -5.9 0.6 10.5
v -5.6 1.9 10.5
v -5.6 1.8 10.5
v -5.6 0.7 10.5
v -5.6 0.6 10.5
v -5.9 2 10.4
v -5.9 1.9 10.4
v -5.9 0.6 10.4
v -5.9 0.5 10.4
v -5.6 2 10.4
v -5.6 1.9 10.4
v -5.6 0.6 10.4
v -5.6 0.5 10.4
v -5.9 2.1 10.3
v -5.9 2 10.3
v -5.9 0.5 10.3
v -5.9 0.4 10.3
v -5.6 2.1 10.3
v -5.6 2 10.3
v -5.6 0.5 10.3
v -5.6 0.4 10.3
v -5.9 2.2 10.1
v -5.9 2.1 10.1
v -5.9 0.4 10.1
v -5.9 0.3 10.1
v -5.6 2.2 10.1
v -5.6 2.1 10.1
v -5.6 0.4 10.1
v -5.6 0.3 10.1
v -5.9 1.6 9.7
v -5.9 1.5 9.7
v -5.9 1 9.7
v -5.9 0.9 9.7
v -5.6 1.6 9.7
v -5.6 1.5 9.7
v -5.6 1 9.7
v -5.6 0.9 9.7
v -5.9 1.5 9.6
v -5.9 1.4 9.6
v -5.9 1.1 9.6
v -5.9 1 9.6
v -5.8 1.5 9.6
v -5.8 1.4 9.6
v -5.7 1.5 9.6
v -5.7 1.4 9.6
v -5.6 1.5 9.6
v -5.6 1.4 9.6
v -5.6 1.1 9.6
v -5.6 1 9.6
v -5.9 1.4 9.5
v -5.9 1.3 9.5
v -5.9 1.2 9.5
v -5.9 1.1 9.5
v -5.8 1.4 9.5
v -5.7 1.4 9.5
v -5.6 1.4 9.5
v -5.6 1.3 9.5
v -5.6 1.2 9.5
v -5.6 1.1 9.5
v -5.9 1.3 9.4
v -5.9 1.2 9.4
v -5.7 1.3 9.4
v -5.7 1.2 9.4
v -5.6 1.3 9.4
v -5.6 1.2 9.4
v -5.9 1.3 10.1
v -5.9 1.2 10.1
v -5.6 1.3 10.1
v -5.6 1.2 10.1
v -5.9 1.4 10
v -5.9 1.3 10
v -5.9 1.2 10
v -5.9 1.1 10
v -5.6 1.4 10
v -5.6 1.3 10
v -5.6 1.2 10
v -5.6 1.1 10
v -5.9 1.5 9.9
v -5.9 1.4 9.9
v -5.9 1.1 9.9
v -5.9 1 9.9
v -5.6 1.5 9.9
v -5.6 1.4 9.9
v -5.6 1.1 9.9
v -5.6 1 9.9
v -5.9 1.6 9.8
v -5.9 1.5 9.8
v -5.9 1 9.8
v -5.9 0.9 9.8
v -5.6 1.6 9.8
v -5.6 1.5 9.8
v -5.6 1 9.8
v -5.6 0.9 9.8
v -5.9 2.2 9.4
v -5.9 2.1 9.4
v -5.9 0.4 9.4
v -5.9 0.3 9.4
v -5.6 2.2 9.4
v -5.6 2.1 9.4
v -5.6 0.4 9.4
v -5.6 0.3 9.4
v -5.9 2.1 9.2
v -5.9 2 9.2
v -5.9 0.5 9.2
v -5.9 0.4 9.2
v -5.6 2.1 9.2
v -5.6 2 9.2
v -5.6 0.5 9.2
v -5.6 0.4 9.2
v -5.9 2 9.1
v -5.9 1.9 9.1
v -5.9 0.6 9.1
v -5.9 0.5 9.1
v -5.6 2 9.1
v -5.6 1.9 9.1
v -5.6 0.6 9.1
v -5.6 0.5 9.1
v -5.9 1.9 9
v -5.9 1.8 9
v -5.9 0.7 9
v -5.9 0.6 9
v -5.6 1.9 9
v -5.6 1.8 9
v -5.6 0.7 9
v -5.6 0.6 9
v -5.9 1.8 8.9
v -5.9 1.6 8.9
v -5.9 0.9 8.9
v -5.9 0.7 8.9
v -5.6 1.8 8.9
v -5.6 1.6 8.9
v -5.6 0.9 8.9
v -5.6 0.7 8.9
v -5.9 1.6 8.8
v -5.9 0.9 8.8
v -5.6 1.6 8.8
v -5.6 0.9 8.8
v -5.9 2.2 10.1
v -5.6 2.2 10.1
v -5.7 2.2 9.8
v -5.6 2.2 9.8
v -5.7 2.2 9.7
v -5.6 2.2 9.7
v -5.9 2.2 9.4
v -5.6 2.2 9.4
v -5.9 2.1 10.3
v -5.6 2.1 10.3
v -5.9 2.1 10.1
v -5.6 2.1 10.1
v -5.9 2.1 9.4
v -5.6 2.1 9.4
v -5.9 2.1 9.3
v -5.6 2.1 9.3
v -5.9 2.1 9.2
v -5.6 2.1 9.2
v -5.9 2 10.4
v -5.6 2 10.4
v -5.9 2 10.3
v -5.6 2 10.3
v -5.9 2 9.2
v -5.6 2 9.2
v -5.9 2 9.1
v -5.6 2 9.1
v -5.9 1.9 10.5
v -5.6 1.9 10.5
v -5.9 1.9 10.4
v -5.6 1.9 10.4
v -5.9 1.9 9.1
v -5.6 1.9 9.1
v -5.9 1.9 9
v -5.6 1.9 9
v -5.9 1.8 10.6
v -5.6 1.8 10.6
v -5.9 1.8 10.5
v -5.6 1.8 10.5
v -5.9 1.8 9
v -5.6 1.8 9
v -5.9 1.8 8.9
v -5.6 1.8 8.9
v -5.9 1.6 10.7
v -5.6 1.6 10.7
v -5.9 1.6 10.6
v -5.6 1.6 10.6
v -5.9 1.6 8.9
v -5.6 1.6 8.9
v -5.9 1.6 8.8
v -5.6 1.6 8.8
v -5.9 1.2 10.1
v -5.6 1.2 10.1
v -5.9 1.2 10
v -5.6 1.2 10
v -5.9 1.2 9.5
v -5.6 1.2 9.5
v -5.9 1.2 9.4
v -5.7 1.2 9.4
v -5.6 1.2 9.4
v -5.9 1.1 10
v -5.6 1.1 10
v -5.9 1.1 9.9
v -5.6 1.1 9.9
v -5.9 1.1 9.6
v -5.6 1.1 9.6
v -5.9 1.1 9.5
v -5.6 1.1 9.5
v -5.9 1 9.9
v -5.6 1 9.9
v -5.9 1 9.8
v -5.6 1 9.8
v -5.9 1 9.7
v -5.6 1 9.7
v -5.9 1 9.6
v -5.6 1 9.6
v -5.9 0.9 9.8
v -5.6 0.9 9.8
v -5.9 0.9 9.7
v -5.6 0.9 9.7
v -5.9 1.6 9.8
v -5.6 1.6 9.8
v -5.9 1.6 9.7
v -5.6 1.6 9.7
v -5.9 1.5 9.9
v -5.6 1.5 9.9
v -5.9 1.5 9.8
v -5.6 1.5 9.8
v -5.9 1.5 9.7
v -5.6 1.5 9.7
v -5.9 1.5 9.6
v -5.8 1.5 9.6
v -5.7 1.5 9.6
v -5.6 1.5 9.6
v -5.9 1.4 10
v -5.6 1.4 10
v -5.9 1.4 9.9
v -5.6 1.4 9.9
v -5.9 1.4 9.6
v -5.8 1.4 9.6
v -5.7 1.4 9.6
v -5.6 1.4 9.6
v -5.9 1.4 9.5
v -5.8 1.4 9.5
v -5.7 1.4 9.5
v -5.6 1.4 9.5
v -5.9 1.3 10.1
v -5.6 1.3 10.1
v -5.9 1.3 10
v -5.6 1.3 10
v -5.9 1.3 9.5
v -5.6 1.3 9.5
v -5.9 1.3 9.4
v -5.7 1.3 9.4
v -5.6 1.3 9.4
v -5.9 0.9 10.7
v -5.6 0.9 10.7
v -5.9 0.9 10.6
v -5.7 0.9 10.6
v -5.6 0.9 10.6
v -5.9 0.9 8.9
v -5.6 0.9 8.9
v -5.9 0.9 8.8
v -5.6 0.9 8.8
v -5.9 0.7 10.6
v -5.6 0.7 10.6
v -5.9 0.7 10.5
v -5.6 0.7 10.5
v -5.9 0.7 9
v -5.6 0.7 9
v -5.9 0.7 8.9
v -5.6 0.7 8.9
v -5.9 0.6 10.5
v -5.6 0.6 10.5
v -5.9 0.6 10.4
v -5.6 0.6 10.4
v -5.9 0.6 9.1
v -5.6 0.6 9.1
v -5.9 0.6 9
v -5.6 0.6 9
v -5.9 0.5 10.4
v -5.6 0.5 10.4
v -5.9 0.5 10.3
v -5.6 0.5 10.3
v -5.9 0.5 9.2
v -5.6 0.5 9.2
v -5.9 0.5 9.1
v -5.6 0.5 9.1
v -5.9 0.4 10.3
v -5.6 0.4 10.3
v -5.9 0.4 10.1
v -5.6 0.4 10.1
v -5.9 0.4 9.4
v -5.6 0.4 9.4
v -5.9 0.4 9.3
v -5.6 0.4 9.3
v -5.9 0.4 9.2
v -5.6 0.4 9.2
v -5.9 0.3 10.1
v -5.6 0.3 10.1
v -5.9 0.3 9.4
v -5.6 0.3 9.4
v -5.9 2.2 10.1
v -5.9 2.2 9.4
v -5.9 2.1 10.3
v -5.9 2.1 10.1
v -5.9 2.1 9.4
v -5.9 2.1 9.3
v -5.9 2.1 9.2
v -5.9 2 10.4
v -5.9 2 10.3
v -5.9 2 9.3
v -5.9 2 9.2
v -5.9 2 9.1
v -5.9 1.9 10.5
v -5.9 1.9 10.4
v -5.9 1.9 9.1
v -5.9 1.9 9
v -5.9 1.8 10.6
v -5.9 1.8 10.5
v -5.9 1.8 9
v -5.9 1.8 8.9
v -5.9 1.6 10.7
v -5.9 1.6 10.6
v -5.9 1.6 9.8
v -5.9 1.6 9.7
v -5.9 1.6 8.9
v -5.9 1.6 8.8
v -5.9 1.5 9.9
v -5.9 1.5 9.8
v -5.9 1.5 9.7
v -5.9 1.5 9.6
v -5.9 1.4 10
v -5.9 1.4 9.9
v -5.9 1.4 9.6
v -5.9 1.4 9.5
v -5.9 1.3 10.1
v -5.9 1.3 10
v -5.9 1.3 9.5
v -5.9 1.3 9.4
v -5.9 1.2 10.1
v -5.9 1.2 10
v -5.9 1.2 9.5
v -5.9 1.2 9.4
v -5.9 1.1 10
v -5.9 1.1 9.9
v -5.9 1.1 9.6
v -5.9 1.1 9.5
v -5.9 1 9.9
v -5.9 1 9.8
v -5.9 1 9.7
v -5.9 1 9.6
v -5.9 0.9 10.7
v -5.9 0.9 10.6
v -5.9 0.9 9.8
v -5.9 0.9 9.7
v -5.9 0.9 9.4
v -5.9 0.9 9.3
v -5.9 0.9 8.9
v -5.9 0.9 8.8
v -5.9 0.7 10.6
v -5.9 0.7 10.5
v -5.9 0.7 9
v -5.9 0.7 8.9
v -5.9 0.6 10.5
v -5.9 0.6 10.4
v -5.9 0.6 9.1
v -5.9 0.6 9
v -5.9 0.5 10.4
v -5.9 0.5 10.3
v -5.9 0.5 9.2
v -5.9 0.5 9.1
v -5.9 0.4 10.3
v -5.9 0.4 10.1
v -5.9 0.4 9.4
v -5.9 0.4 9.3
v -5.9 0.4 9.2
v -5.9 0.3 10.1
v -5.9 0.3 9.4
v -5.6 2.2 10.1
v -5.6 2.2 9.8
v -5.6 2.2 9.7
v -5.6 2.2 9.4
v -5.6 2.1 10.3
v -5.6 2.1 10.1
v -5.6 2.1 9.8
v -5.6 2.1 9.7
v -5.6 2.1 9.5
v -5.6 2.1 9.4
v -5.6 2.1 9.3
v -5.6 2.1 9.2
v -5.6 2 10.4
v -5.6 2 10.3
v -5.6 2 10.2
v -5.6 2 10.1
v -5.6 2 9.9
v -5.6 2 9.8
v -5.6 2 9.5
v -5.6 2 9.4
v -5.6 2 9.2
v -5.6 2 9.1
v -5.6 1.9 10.5
v -5.6 1.9 10.4
v -5.6 1.9 10.2
v -5.6 1.9 10.1
v -5.6 1.9 9.9
v -5.6 1.9 9.8
v -5.6 1.9 9.6
v -5.6 1.9 9.5
v -5.6 1.9 9.4
v -5.6 1.9 9.3
v -5.6 1.9 9.2
v -5.6 1.9 9.1
v -5.6 1.9 9
v -5.6 1.8 10.6
v -5.6 1.8 10.5
v -5.6 1.8 10.4
v -5.6 1.8 10.3
v -5.6 1.8 10.1
v -5.6 1.8 10
v -5.6 1.8 9.9
v -5.6 1.8 9.8
v -5.6 1.8 9.6
v -5.6 1.8 9.5
v -5.6 1.8 9
v -5.6 1.8 8.9
v -5.6 1.7 10.4
v -5.6 1.7 10.3
v -5.6 1.7 10.1
v -5.6 1.7 10
v -5.6 1.7 9.9
v -5.6 1.7 9.8
v -5.6 1.6 10.7
v -5.6 1.6 10.6
v -5.6 1.6 10.4
v -5.6 1.6 10.3
v -5.6 1.6 10.1
v -5.6 1.6 10
v -5.6 1.6 9.8
v -5.6 1.6 9.7
v -5.6 1.6 9.6
v -5.6 1.6 9.5
v -5.6 1.6 8.9
v -5.6 1.6 8.8
v -5.6 1.5 10.7
v -5.6 1.5 10.6
v -5.6 1.5 10.4
v -5.6 1.5 10.3
v -5.6 1.5 10.1
v -5.6 1.5 10
v -5.6 1.5 9.9
v -5.6 1.5 9.8
v -5.6 1.5 9.7
v -5.6 1.5 9.6
v -5.6 1.5 9.5
v -5.6 1.5 9.4
v -5.6 1.5 9.3
v -5.6 1.5 9.2
v -5.6 1.4 10.7
v -5.6 1.4 10.6
v -5.6 1.4 10.5
v -5.6 1.4 10.4
v -5.6 1.4 10
v -5.6 1.4 9.9
v -5.6 1.4 9.6
v -5.6 1.4 9.5
v -5.6 1.4 9.3
v -5.6 1.4 9.2
v -5.6 1.4 9.1
v -5.6 1.3 10.5
v -5.6 1.3 10.4
v -5.6 1.3 10.3
v -5.6 1.3 10.2
v -5.6 1.3 10.1
v -5.6 1.3 10
v -5.6 1.3 9.5
v -5.6 1.3 9.4
v -5.6 1.3 9.3
v -5.6 1.2 10.5
v -5.6 1.2 10.4
v -5.6 1.2 10.3
v -5.6 1.2 10.2
v -5.6 1.2 10.1
v -5.6 1.2 10
v -5.6 1.2 9.5
v -5.6 1.2 9.4
v -5.6 1.2 9.3
v -5.6 1.1 10.6
v -5.6 1.1 10.5
v -5.6 1.1 10.4
v -5.6 1.1 10
v -5.6 1.1 9.9
v -5.6 1.1 9.6
v -5.6 1.1 9.5
v -5.6 1.1 9.4
v -5.6 1.1 9.3
v -5.6 1.1 9.2
v -5.6 1.1 9.1
v -5.6 1 10.6
v -5.6 1 10.5
v -5.6 1 10.4
v -5.6 1 10.3
v -5.6 1 10.1
v -5.6 1 10
v -5.6 1 9.9
v -5.6 1 9.8
v -5.6 1 9.7
v -5.6 1 9.6
v -5.6 1 9.5
v -5.6 1 9.4
v -5.6 1 9.3
v -5.6 1 9.2
v -5.6 0.9 10.7
v -5.6 0.9 10.6
v -5.6 0.9 10.5
v -5.6 0.9 10.4
v -5.6 0.9 10.3
v -5.6 0.9 10.1
v -5.6 0.9 10
v -5.6 0.9 9.8
v -5.6 0.9 9.7
v -5.6 0.9 9.6
v -5.6 0.9 9.4
v -5.6 0.9 9.3
v -5.6 0.9 8.9
v -5.6 0.9 8.8
v -5.6 0.8 10.6
v -5.6 0.8 10.5
v -5.6 0.8 10.2
v -5.6 0.8 10.1
v -5.6 0.8 9.7
v -5.6 0.8 9.6
v -5.6 0.8 9.4
v -5.6 0.7 10.6
v -5.6 0.7 10.5
v -5.6 0.7 10.3
v -5.6 0.7 10.2
v -5.6 0.7 10.1
v -5.6 0.7 9.9
v -5.6 0.7 9.8
v -5.6 0.7 9.7
v -5.6 0.7 9.6
v -5.6 0.7 9.5
v -5.6 0.7 9
v -5.6 0.7 8.9
v -5.6 0.6 10.5
v -5.6 0.6 10.4
v -5.6 0.6 10.3
v -5.6 0.6 10.2
v -5.6 0.6 9.9
v -5.6 0.6 9.8
v -5.6 0.6 9.6
v -5.6 0.6 9.5
v -5.6 0.6 9.4
v -5.6 0.6 9.1
v -5.6 0.6 9
v -5.6 0.5 10.4
v -5.6 0.5 10.3
v -5.6 0.5 10.1
v -5.6 0.5 10
v -5.6 0.5 9.9
v -5.6 0.5 9.8
v -5.6 0.5 9.6
v -5.6 0.5 9.5
v -5.6 0.5 9.4
v -5.6 0.5 9.3
v -5.6 0.5 9.2
v -5.6 0.5 9.1
v -5.6 0.4 10.3
v -5.6 0.4 10.1
v -5.6 0.4 10
v -5.6 0.4 9.9
v -5.6 0.4 9.8
v -5.6 0.4 9.6
v -5.6 0.4 9.5
v -5.6 0.4 9.4
v -5.6 0.4 9.3
v -5.6 0.4 9.2
v -5.6 0.3 10.1
v -5.6 0.3 9.4

# faces
f 1/3/1 2/3/1 3/3/1
f 3/3/1 2/3/1 4/3/1
f 1/3/1 3/3/1 5/3/1
f 3/4/1 4/4/1 6/4/1
f 5/3/1 3/3/1 6/3/1
f 4/3/1 2/3/1 7/3/1
f 6/4/1 4/4/1 7/4/1
f 7/3/1 2/3/1 8/3/1
f 11/3/1 12/3/1 13/3/1
f 13/3/1 12/3/1 14/3/1
f 9/3/1 10/3/1 15/3/1
f 15/3/1 10/3/1 16/3/1
f 13/2/1 14/2/1 17/2/1
f 14/3/1 12/3/1 18/3/1
f 17/2/1 14/2/1 18/2/1
f 18/3/1 12/3/1 19/3/1
f 20/3/1 21/3/1 24/3/1
f 24/3/1 21/3/1 25/3/1
f 22/3/1 23/3/1 26/3/1
f 26/3/1 23/3/1 27/3/1
f 28/3/1 29/3/1 32/3/1
f 32/3/1 29/3/1 33/3/1
f 30/3/1 31/3/1 34/3/1
f 34/3/1 31/3/1 35/3/1
f 36/3/1 37/3/1 40/3/1
f 40/3/1 37/3/1 41/3/1
f 38/3/1 39/3/1 42/3/1
f 42/3/1 39/3/1 43/3/1
f 44/3/1 45/3/1 48/3/1
f 48/3/1 45/3/1 49/3/1
f 46/3/1 47/3/1 50/3/1
f 50/3/1 47/3/1 51/3/1
f 52/3/1 53/3/1 56/3/1
f 56/3/1 53/3/1 57/3/1
f 54/3/1 55/3/1 58/3/1
f 58/3/1 55/3/1 59/3/1
f 60/3/1 61/3/1 64/3/1
f 64/3/1 61/3/1 65/3/1
f 64/7/1 65/7/1 66/7/1
f 66/7/1 65/7/1 67/7/1
f 66/3/1 67/3/1 68/3/1
f 68/3/1 67/3/1 69/3/1
f 62/3/1 63/3/1 70/3/1
f 70/3/1 63/3/1 71/3/1
f 72/3/1 73/3/1 76/3/1
f 76/3/1 73/3/1 77/3/1
f 77/3/1 73/3/1 78/3/1
f 78/3/1 73/3/1 79/3/1
f 74/3/1 75/3/1 80/3/1
f 80/3/1 75/3/1 81/3/1
f 82/3/1 83/3/1 84/3/1
f 84/3/1 83/3/1 85/3/1
f 84/4/1 85/4/1 86/4/1
f 86/4/1 85/4/1 87/4/1
f 90/3/2 89/3/2 88/3/2
f 91/3/2 89/3/2 90/3/2
f 96/3/2 93/3/2 92/3/2
f 97/3/2 93/3/2 96/3/2
f 98/3/2 95/3/2 94/3/2
f 99/3/2 95/3/2 98/3/2
f 104/3/2 101/3/2 100/3/2
f 105/3/2 101/3/2 104/3/2
f 106/3/2 103/3/2 102/3/2
f 107/3/2 103/3/2 106/3/2
f 112/3/2 109/3/2 108/3/2
f 113/3/2 109/3/2 112/3/2
f 114/3/2 111/3/2 110/3/2
f 115/3/2 111/3/2 114/3/2
f 120/3/2 117/3/2 116/3/2
f 121/3/2 117/3/2 120/3/2
f 122/3/2 119/3/2 118/3/2
f 123/3/2 119/3/2 122/3/2
f 128/5/2 125/5/2 124/5/2
f 129/5/2 125/5/2 128/5/2
f 130/4/2 127/4/2 126/4/2
f 131/4/2 127/4/2 130/4/2
f 136/4/2 133/4/2 132/4/2
f 137/4/2 133/4/2 136/4/2
f 138/4/2 135/4/2 134/4/2
f 139/4/2 135/4/2 138/4/2
f 144/4/2 141/4/2 140/4/2
f 145/4/2 141/4/2 144/4/2
f 146/4/2 143/4/2 142/4/2
f 147/4/2 143/4/2 146/4/2
f 152/4/2 149/4/2 148/4/2
f 153/4/2 149/4/2 152/4/2
f 154/4/2 151/4/2 150/4/2
f 155/4/2 151/4/2 154/4/2
f 158/4/2 157/4/2 156/4/2
f 159/4/2 157/4/2 158/4/2
f 160/3/3 161/3/3 162/3/3
f 162/3/3 161/3/3 163/3/3
f 160/3/3 162/3/3 164/3/3
f 162/4/3 163/4/3 164/4/3
f 164/4/3 163/4/3 165/4/3
f 160/3/3 164/3/3 166/3/3
f 164/3/3 165/3/3 166/3/3
f 166/3/3 165/3/3 167/3/3
f 168/3/3 169/3/3 170/3/3
f 170/3/3 169/3/3 171/3/3
f 172/3/3 173/3/3 174/3/3
f 174/3/3 173/3/3 175/3/3
f 174/5/3 175/5/3 176/5/3
f 176/5/3 175/5/3 177/5/3
f 178/3/3 179/3/3 180/3/3
f 180/3/3 179/3/3 181/3/3
f 182/4/3 183/4/3 184/4/3
f 184/4/3 183/4/3 185/4/3
f 186/3/3 187/3/3 188/3/3
f 188/3/3 187/3/3 189/3/3
f 190/4/3 191/4/3 192/4/3
f 192/4/3 191/4/3 193/4/3
f 194/3/3 195/3/3 196/3/3
f 196/3/3 195/3/3 197/3/3
f 198/4/3 199/4/3 200/4/3
f 200/4/3 199/4/3 201/4/3
f 202/3/3 203/3/3 204/3/3
f 204/3/3 203/3/3 205/3/3
f 206/4/3 207/4/3 208/4/3
f 208/4/3 207/4/3 209/4/3
f 210/3/3 211/3/3 212/3/3
f 212/3/3 211/3/3 213/3/3
f 214/3/3 215/3/3 216/3/3
f 216/3/3 215/3/3 217/3/3
f 217/3/3 215/3/3 218/3/3
f 219/3/3 220/3/3 221/3/3
f 221/3/3 220/3/3 222/3/3
f 223/3/3 224/3/3 225/3/3
f 225/3/3 224/3/3 226/3/3
f 227/3/3 228/3/3 229/3/3
f 229/3/3 228/3/3 230/3/3
f 231/3/3 232/3/3 233/3/3
f 233/3/3 232/3/3 234/3/3
f 235/3/3 236/3/3 237/3/3
f 237/3/3 236/3/3 238/3/3
f 241/3/4 240/3/4 239/3/4
f 242/3/4 240/3/4 241/3/4
f 245/3/4 244/3/4 243/3/4
f 246/3/4 244/3/4 245/3/4
f 249/3/4 248/3/4 247/3/4
f 250/3/4 248/3/4 249/3/4
f 251/3/4 248/3/4 250/3/4
f 252/3/4 248/3/4 251/3/4
f 255/3/4 254/3/4 253/3/4
f 256/3/4 254/3/4 255/3/4
f 261/3/4 258/3/4 257/3/4
f 262/7/4 259/7/4 258/7/4
f 262/3/4 258/3/4 261/3/4
f 263/3/4 260/3/4 259/3/4
f 263/7/4 259/7/4 262/7/4
f 264/3/4 260/3/4 263/3/4
f 267/3/4 266/3/4 265/3/4
f 268/3/4 266/3/4 267/3/4
f 271/3/4 270/3/4 269/3/4
f 272/3/4 270/3/4 271/3/4
f 273/3/4 270/3/4 272/3/4
f 276/3/4 275/3/4 274/3/4
f 277/3/4 275/3/4 276/3/4
f 278/3/4 275/3/4 277/3/4
f 281/4/4 280/4/4 279/4/4
f 282/4/4 280/4/4 281/4/4
f 285/3/4 284/3/4 283/3/4
f 286/3/4 284/3/4 285/3/4
f 289/4/4 288/4/4 287/4/4
f 290/4/4 288/4/4 289/4/4
f 293/3/4 292/3/4 291/3/4
f 294/3/4 292/3/4 293/3/4
f 297/4/4 296/4/4 295/4/4
f 298/4/4 296/4/4 297/4/4
f 301/3/4 300/3/4 299/3/4
f 302/3/4 300/3/4 301/3/4
f 305/4/4 304/4/4 303/4/4
f 306/4/4 304/4/4 305/4/4
f 309/3/4 308/3/4 307/3/4
f 310/3/4 308/3/4 309/3/4
f 313/5/4 312/5/4 311/5/4
f 314/5/4 312/5/4 313/5/4
f 315/4/4 314/4/4 313/4/4
f 316/4/4 314/4/4 315/4/4
f 319/3/4 318/3/4 317/3/4
f 320/3/4 318/3/4 319/3/4
f 321/3/5 322/3/5 324/3/5
f 324/3/5 322/3/5 325/3/5
f 323/3/5 324/3/5 329/3/5
f 324/3/5 325/3/5 329/3/5
f 325/3/5 326/3/5 329/3/5
f 326/5/5 327/5/5 330/5/5
f 329/3/5 326/3/5 330/3/5
f 330/5/5 327/5/5 331/5/5
f 328/3/5 329/3/5 334/3/5
f 329/3/5 330/3/5 334/3/5
f 331/4/5 332/4/5 335/4/5
f 330/4/5 331/4/5 335/4/5
f 333/3/5 334/3/5 338/3/5
f 335/4/5 336/4/5 339/4/5
f 337/3/5 338/3/5 342/3/5
f 334/3/5 330/3/5 343/3/5
f 338/3/5 334/3/5 343/3/5
f 342/3/5 338/3/5 343/3/5
f 343/3/5 330/3/5 344/3/5
f 339/4/5 340/4/5 345/4/5
f 341/3/5 342/3/5 347/3/5
f 342/3/5 343/3/5 347/3/5
f 347/3/5 343/3/5 348/3/5
f 344/3/5 330/3/5 349/3/5
f 349/3/5 330/3/5 350/3/5
f 341/3/5 347/3/5 351/3/5
f 351/3/5 347/3/5 352/3/5
f 350/3/5 330/3/5 353/3/5
f 353/3/5 330/3/5 354/3/5
f 341/3/5 351/3/5 355/3/5
f 355/3/5 351/3/5 356/3/5
f 354/3/5 330/3/5 357/3/5
f 357/3/5 330/3/5 358/3/5
f 341/3/5 355/3/5 359/3/5
f 358/3/5 330/3/5 362/3/5
f 359/3/5 360/3/5 363/3/5
f 361/3/5 362/3/5 366/3/5
f 363/3/5 364/3/5 367/3/5
f 365/3/5 366/3/5 370/3/5
f 367/3/5 368/3/5 371/3/5
f 341/3/5 359/3/5 371/3/5
f 359/3/5 363/3/5 371/3/5
f 363/3/5 367/3/5 371/3/5
f 371/3/5 368/3/5 372/3/5
f 372/3/5 368/3/5 373/3/5
f 369/3/5 370/3/5 374/3/5
f 370/3/5 366/3/5 375/3/5
f 362/3/5 330/3/5 375/3/5
f 374/3/5 370/3/5 375/3/5
f 366/3/5 362/3/5 375/3/5
f 345/4/5 346/4/5 376/4/5
f 375/3/5 330/3/5 376/3/5
f 330/4/5 335/4/5 376/4/5
f 335/4/5 339/4/5 376/4/5
f 339/4/5 345/4/5 376/4/5
f 376/4/5 346/4/5 377/4/5
f 377/4/5 346/4/5 378/4/5
f 372/3/5 373/3/5 379/3/5
f 374/3/5 375/3/5 379/3/5
f 373/3/5 374/3/5 379/3/5
f 379/3/5 375/3/5 380/3/5
f 376/4/5 377/4/5 381/4/5
f 381/4/5 377/4/5 382/4/5
f 380/3/5 375/3/5 383/3/5
f 383/3/5 375/3/5 384/3/5
f 376/4/5 381/4/5 385/4/5
f 385/4/5 381/4/5 386/4/5
f 384/3/5 375/3/5 387/3/5
f 387/3/5 375/3/5 388/3/5
f 376/4/5 385/4/5 389/4/5
f 389/4/5 385/4/5 390/4/5
f 388/3/5 375/3/5 391/3/5
f 391/3/5 375/3/5 392/3/5
f 375/5/5 376/5/5 393/5/5
f 392/3/5 375/3/5 393/3/5
f 376/4/5 389/4/5 394/4/5
f 393/5/5 376/5/5 394/5/5
f 394/4/5 389/4/5 395/4/5
f 392/3/5 393/3/5 396/3/5
f 396/3/5 393/3/5 397/3/5
f 403/3/6 399/3/6 398/3/6
f 404/4/6 400/4/6 399/4/6
f 404/3/6 399/3/6 403/3/6
f 405/3/6 401/3/6 400/3/6
f 405/4/6 400/4/6 404/4/6
f 406/3/6 401/3/6 405/3/6
f 407/3/6 401/3/6 406/3/6
f 411/3/6 404/3/6 403/3/6
f 411/3/6 403/3/6 402/3/6
f 411/3/6 405/3/6 404/3/6
f 411/3/6 406/3/6 405/3/6
f 412/3/6 406/3/6 411/3/6
f 413/3/6 406/3/6 412/3/6
f 414/3/6 406/3/6 413/3/6
f 415/3/6 406/3/6 414/3/6
f 416/2/6 407/2/6 406/2/6
f 416/3/6 406/3/6 415/3/6
f 417/3/6 408/3/6 407/3/6
f 417/2/6 407/2/6 416/2/6
f 418/5/6 409/5/6 408/5/6
f 421/3/6 411/3/6 410/3/6
f 421/3/6 412/3/6 411/3/6
f 422/4/6 413/4/6 412/4/6
f 422/3/6 412/3/6 421/3/6
f 423/3/6 414/3/6 413/3/6
f 423/4/6 413/4/6 422/4/6
f 424/2/6 415/2/6 414/2/6
f 424/3/6 414/3/6 423/3/6
f 425/3/6 416/3/6 415/3/6
f 425/2/6 415/2/6 424/2/6
f 425/3/6 417/3/6 416/3/6
f 426/3/6 417/3/6 425/3/6
f 427/3/6 417/3/6 426/3/6
f 428/3/6 408/3/6 417/3/6
f 428/3/6 417/3/6 427/3/6
f 429/5/6 418/5/6 408/5/6
f 429/3/6 408/3/6 428/3/6
f 430/4/6 419/4/6 418/4/6
f 430/5/6 418/5/6 429/5/6
f 431/4/6 419/4/6 430/4/6
f 434/3/6 424/3/6 423/3/6
f 434/3/6 423/3/6 422/3/6
f 434/3/6 421/3/6 420/3/6
f 434/3/6 422/3/6 421/3/6
f 434/3/6 426/3/6 425/3/6
f 434/3/6 425/3/6 424/3/6
f 435/3/6 426/3/6 434/3/6
f 436/3/6 426/3/6 435/3/6
f 437/3/6 426/3/6 436/3/6
f 438/3/6 426/3/6 437/3/6
f 439/3/6 426/3/6 438/3/6
f 440/3/6 426/3/6 439/3/6
f 441/4/6 427/4/6 426/4/6
f 441/3/6 426/3/6 440/3/6
f 442/3/6 428/3/6 427/3/6
f 442/4/6 427/4/6 441/4/6
f 443/4/6 432/4/6 431/4/6
f 443/4/6 431/4/6 430/4/6
f 443/4/6 430/4/6 429/4/6
f 445/3/6 434/3/6 433/3/6
f 445/3/6 435/3/6 434/3/6
f 445/2/6 436/2/6 435/2/6
f 446/3/6 437/3/6 436/3/6
f 446/2/6 436/2/6 445/2/6
f 447/4/6 438/4/6 437/4/6
f 447/3/6 437/3/6 446/3/6
f 448/3/6 439/3/6 438/3/6
f 448/4/6 438/4/6 447/4/6
f 449/4/6 440/4/6 439/4/6
f 449/3/6 439/3/6 448/3/6
f 450/3/6 442/3/6 441/3/6
f 450/4/6 440/4/6 449/4/6
f 450/3/6 441/3/6 440/3/6
f 452/3/6 448/3/6 447/3/6
f 452/3/6 449/3/6 448/3/6
f 452/3/6 450/3/6 449/3/6
f 452/3/6 446/3/6 445/3/6
f 452/3/6 445/3/6 433/3/6
f 452/3/6 447/3/6 446/3/6
f 453/3/6 450/3/6 452/3/6
f 454/3/6 450/3/6 453/3/6
f 455/3/6 450/3/6 454/3/6
f 456/3/6 450/3/6 455/3/6
f 457/3/6 442/3/6 450/3/6
f 457/3/6 450/3/6 456/3/6
f 458/3/6 442/3/6 457/3/6
f 459/3/6 442/3/6 458/3/6
f 460/3/6 428/3/6 442/3/6
f 460/3/6 442/3/6 459/3/6
f 461/4/6 444/4/6 443/4/6
f 463/3/6 452/3/6 451/3/6
f 463/3/6 453/3/6 452/3/6
f 464/3/6 453/3/6 463/3/6
f 465/4/6 454/4/6 453/4/6
f 465/3/6 453/3/6 464/3/6
f 466/3/6 455/3/6 454/3/6
f 466/4/6 454/4/6 465/4/6
f 467/2/6 456/2/6 455/2/6
f 467/3/6 455/3/6 466/3/6
f 468/3/6 457/3/6 456/3/6
f 468/2/6 456/2/6 467/2/6
f 469/3/6 457/3/6 468/3/6
f 470/3/6 457/3/6 469/3/6
f 471/3/6 459/3/6 458/3/6
f 472/2/6 460/2/6 459/2/6
f 472/3/6 459/3/6 471/3/6
f 473/3/6 428/3/6 460/3/6
f 473/2/6 460/2/6 472/2/6
f 474/5/6 429/5/6 428/5/6
f 474/3/6 428/3/6 473/3/6
f 475/4/6 443/4/6 429/4/6
f 475/5/6 429/5/6 474/5/6
f 475/4/6 462/4/6 461/4/6
f 475/4/6 461/4/6 443/4/6
f 476/4/6 462/4/6 475/4/6
f 477/4/6 464/4/6 463/4/6
f 478/3/6 466/3/6 465/3/6
f 478/4/6 464/4/6 477/4/6
f 478/3/6 469/3/6 468/3/6
f 478/3/6 468/3/6 467/3/6
f 478/3/6 465/3/6 464/3/6
f 478/3/6 467/3/6 466/3/6
f 479/3/6 469/3/6 478/3/6
f 480/3/6 469/3/6 479/3/6
f 481/3/6 469/3/6 480/3/6
f 482/3/6 469/3/6 481/3/6
f 483/3/6 474/3/6 473/3/6
f 483/3/6 473/3/6 472/3/6
f 483/3/6 475/3/6 474/3/6
f 484/3/6 475/3/6 483/3/6
f 485/5/6 476/5/6 475/5/6
f 485/3/6 475/3/6 484/3/6
f 486/4/6 462/4/6 476/4/6
f 486/5/6 476/5/6 485/5/6
f 487/4/6 462/4/6 486/4/6
f 488/1/6 480/1/6 479/1/6
f 488/3/6 478/3/6 477/3/6
f 488/3/6 479/3/6 478/3/6
f 489/3/6 481/3/6 480/3/6
f 489/1/6 480/1/6 488/1/6
f 490/3/6 481/3/6 489/3/6
f 491/3/6 481/3/6 490/3/6
f 492/3/6 481/3/6 491/3/6
f 493/3/6 481/3/6 492/3/6
f 494/3/6 485/3/6 484/3/6
f 494/3/6 486/3/6 485/3/6
f 495/3/6 486/3/6 494/3/6
f 496/3/6 486/3/6 495/3/6
f 497/3/6 488/3/6 477/3/6
f 497/3/6 489/3/6 488/3/6
f 497/3/6 490/3/6 489/3/6
f 498/3/6 490/3/6 497/3/6
f 499/4/6 491/4/6 490/4/6
f 499/3/6 490/3/6 498/3/6
f 500/3/6 492/3/6 491/3/6
f 500/4/6 491/4/6 499/4/6
f 501/3/6 492/3/6 500/3/6
f 504/4/6 496/4/6 495/4/6
f 505/3/6 486/3/6 496/3/6
f 505/4/6 496/4/6 504/4/6
f 506/3/6 497/3/6 477/3/6
f 507/2/6 498/2/6 497/2/6
f 507/3/6 497/3/6 506/3/6
f 508/3/6 502/3/6 501/3/6
f 508/2/6 498/2/6 507/2/6
f 508/3/6 499/3/6 498/3/6
f 508/3/6 500/3/6 499/3/6
f 508/3/6 501/3/6 500/3/6
f 509/3/6 502/3/6 508/3/6
f 512/3/6 504/3/6 503/3/6
f 512/3/6 505/3/6 504/3/6
f 513/3/6 505/3/6 512/3/6
f 514/3/6 486/3/6 505/3/6
f 514/3/6 505/3/6 513/3/6
f 515/5/6 487/5/6 486/5/6
f 515/3/6 486/3/6 514/3/6
f 516/4/6 462/4/6 487/4/6
f 516/5/6 487/5/6 515/5/6
f 517/4/6 507/4/6 506/4/6
f 517/3/6 506/3/6 477/3/6
f 518/3/6 510/3/6 509/3/6
f 518/4/6 507/4/6 517/4/6
f 518/3/6 509/3/6 508/3/6
f 518/3/6 508/3/6 507/3/6
f 519/3/6 510/3/6 518/3/6
f 520/3/6 510/3/6 519/3/6
f 521/3/6 510/3/6 520/3/6
f 522/3/6 510/3/6 521/3/6
f 523/3/6 510/3/6 522/3/6
f 526/3/6 512/3/6 511/3/6
f 527/1/6 513/1/6 512/1/6
f 527/3/6 512/3/6 526/3/6
f 528/3/6 514/3/6 513/3/6
f 528/1/6 513/1/6 527/1/6
f 529/5/6 515/5/6 514/5/6
f 529/3/6 514/3/6 528/3/6
f 530/4/6 516/4/6 515/4/6
f 530/5/6 515/5/6 529/5/6
f 531/3/6 517/3/6 477/3/6
f 531/3/6 518/3/6 517/3/6
f 531/3/6 519/3/6 518/3/6
f 532/3/6 519/3/6 531/3/6
f 533/3/6 519/3/6 532/3/6
f 534/1/6 520/1/6 519/1/6
f 534/3/6 519/3/6 533/3/6
f 535/3/6 521/3/6 520/3/6
f 535/1/6 520/1/6 534/1/6
f 536/2/6 522/2/6 521/2/6
f 536/3/6 521/3/6 535/3/6
f 537/3/6 524/3/6 523/3/6
f 537/2/6 522/2/6 536/2/6
f 537/3/6 523/3/6 522/3/6
f 538/3/6 524/3/6 537/3/6
f 539/3/6 528/3/6 527/3/6
f 539/3/6 527/3/6 526/3/6
f 539/3/6 526/3/6 525/3/6
f 540/3/6 528/3/6 539/3/6
f 541/5/6 529/5/6 528/5/6
f 541/3/6 528/3/6 540/3/6
f 542/4/6 530/4/6 529/4/6
f 542/5/6 529/5/6 541/5/6
f 543/4/6 516/4/6 530/4/6
f 543/4/6 530/4/6 542/4/6
f 543/4/6 462/4/6 516/4/6
f 544/4/6 462/4/6 543/4/6
f 545/2/6 533/2/6 532/2/6
f 546/3/6 538/3/6 537/3/6
f 546/2/6 533/2/6 545/2/6
f 546/3/6 539/3/6 538/3/6
f 546/3/6 537/3/6 536/3/6
f 546/3/6 536/3/6 535/3/6
f 546/3/6 535/3/6 534/3/6
f 546/3/6 534/3/6 533/3/6
f 546/3/6 540/3/6 539/3/6
f 547/3/6 540/3/6 546/3/6
f 548/3/6 540/3/6 547/3/6
f 549/3/6 540/3/6 548/3/6
f 550/5/6 541/5/6 540/5/6
f 550/3/6 540/3/6 549/3/6
f 551/4/6 542/4/6 541/4/6
f 551/5/6 541/5/6 550/5/6
f 551/4/6 543/4/6 542/4/6
f 552/3/6 546/3/6 545/3/6
f 552/3/6 547/3/6 546/3/6
f 553/3/6 547/3/6 552/3/6
f 554/3/6 547/3/6 553/3/6
f 555/1/6 548/1/6 547/1/6
f 555/3/6 547/3/6 554/3/6
f 556/3/6 549/3/6 548/3/6
f 556/1/6 548/1/6 555/1/6
f 557/3/6 549/3/6 556/3/6
f 558/3/6 549/3/6 557/3/6
f 559/5/6 550/5/6 549/5/6
f 559/3/6 549/3/6 558/3/6
f 560/4/6 551/4/6 550/4/6
f 560/5/6 550/5/6 559/5/6
f 561/4/6 551/4/6 560/4/6
f 562/4/6 543/4/6 551/4/6
f 562/4/6 551/4/6 561/4/6
f 563/4/6 543/4/6 562/4/6
f 564/3/6 554/3/6 553/3/6
f 565/3/6 554/3/6 564/3/6
f 566/4/6 555/4/6 554/4/6
f 566/3/6 554/3/6 565/3/6
f 567/3/6 556/3/6 555/3/6
f 567/4/6 555/4/6 566/4/6
f 567/3/6 557/3/6 556/3/6
f 568/4/6 558/4/6 557/4/6
f 568/3/6 557/3/6 567/3/6
f 569/3/6 559/3/6 558/3/6
f 569/4/6 558/4/6 568/4/6
f 569/3/6 560/3/6 559/3/6
f 570/5/6 561/5/6 560/5/6
f 570/3/6 560/3/6 569/3/6
f 571/4/6 562/4/6 561/4/6
f 571/5/6 561/5/6 570/5/6
f 572/4/6 562/4/6 571/4/6
f 573/4/6 562/4/6 572/4/6
f 574/4/6 562/4/6 573/4/6
f 575/3/6 567/3/6 566/3/6
f 575/3/6 569/3/6 568/3/6
f 575/3/6 568/3/6 567/3/6
f 575/3/6 571/3/6 570/3/6
f 575/3/6 570/3/6 569/3/6
f 575/3/6 566/3/6 565/3/6
f 576/3/6 571/3/6 575/3/6
f 577/3/6 571/3/6 576/3/6
f 578/3/6 571/3/6 577/3/6
f 579/3/6 571/3/6 578/3/6
f 580/3/6 571/3/6 579/3/6
f 581/3/6 571/3/6 580/3/6
f 582/5/6 572/5/6 571/5/6
f 582/3/6 571/3/6 581/3/6
f 583/4/6 573/4/6 572/4/6
f 583/5/6 572/5/6 582/5/6
f 584/4/6 573/4/6 583/4/6
f 585/4/6 573/4/6 584/4/6
f 586/4/6 573/4/6 585/4/6
f 587/3/6 577/3/6 576/3/6
f 588/2/6 578/2/6 577/2/6
f 588/3/6 577/3/6 587/3/6
f 589/3/6 579/3/6 578/3/6
f 589/2/6 578/2/6 588/2/6
f 590/1/6 580/1/6 579/1/6
f 590/3/6 579/3/6 589/3/6
f 591/3/6 581/3/6 580/3/6
f 591/1/6 580/1/6 590/1/6
f 592/4/6 582/4/6 581/4/6
f 592/3/6 581/3/6 591/3/6
f 593/3/6 583/3/6 582/3/6
f 593/4/6 582/4/6 592/4/6
f 594/5/6 584/5/6 583/5/6
f 594/3/6 583/3/6 593/3/6
f 595/4/6 585/4/6 584/4/6
f 595/5/6 584/5/6 594/5/6
f 596/4/6 585/4/6 595/4/6
f 597/3/6 591/3/6 590/3/6
f 597/3/6 590/3/6 589/3/6
f 597/3/6 593/3/6 592/3/6
f 597/3/6 592/3/6 591/3/6
f 597/3/6 589/3/6 588/3/6
f 597/3/6 594/3/6 593/3/6
f 598/3/6 594/3/6 597/3/6
