# MagicaVoxel @ Ephtracy

# group
o 

# material
mtllib Eruption-8.mtl
usemtl palette

# normals
vn -1 0 0
vn 1 0 0
vn 0 0 1
vn 0 0 -1
vn 0 -1 0
vn 0 1 0

# texcoords
vt 0.306641 0.5
vt 0.595703 0.5
vt 0.626953 0.5
vt 0.634766 0.5
vt 0.642578 0.5
vt 0.646484 0.5
vt 0.650391 0.5
vt 0.654297 0.5
vt 0.673828 0.5

# verts
v -47.9 1 -36.7
v -47.9 1 -37.3
v -47.9 1.2 -36.7
v -47.9 1.2 -37.3
v -47.9 1.7 -36.7
v -47.9 1.7 -37.3
v -47.9 2.2 -36.7
v -47.9 2.2 -37.3
v -47.9 2.7 -36.7
v -47.9 2.7 -37.3
v -47.9 3.2 -36.7
v -47.9 3.2 -37.3
v -47.8 0 -36.9
v -47.8 0 -37.1
v -47.8 1 -36.9
v -47.8 1 -37.1
v -47.4 0 -36.9
v -47.4 0 -37.1
v -47.4 1 -36.9
v -47.4 1 -37.1
v -47.3 1 -36.7
v -47.3 1 -37.3
v -47.3 1.2 -36.7
v -47.3 1.2 -37.3
v -47.3 1.7 -36.7
v -47.3 1.7 -37.3
v -47.3 2.2 -36.7
v -47.3 2.2 -37.3
v -47.3 2.7 -36.7
v -47.3 2.7 -37.3
v -47.3 3.2 -36.7
v -47.3 3.2 -37.3
v -47.9 1 -36.7
v -47.9 1.2 -36.7
v -47.9 1.7 -36.7
v -47.9 2.2 -36.7
v -47.9 2.7 -36.7
v -47.9 3.2 -36.7
v -47.3 1 -36.7
v -47.3 1.2 -36.7
v -47.3 1.7 -36.7
v -47.3 2.2 -36.7
v -47.3 2.7 -36.7
v -47.3 3.2 -36.7
v -47.8 0 -36.9
v -47.8 1 -36.9
v -47.4 0 -36.9
v -47.4 1 -36.9
v -47.8 0 -37.1
v -47.8 1 -37.1
v -47.4 0 -37.1
v -47.4 1 -37.1
v -47.9 1 -37.3
v -47.9 1.2 -37.3
v -47.9 1.7 -37.3
v -47.9 2.2 -37.3
v -47.9 2.7 -37.3
v -47.9 3.2 -37.3
v -47.3 1 -37.3
v -47.3 1.2 -37.3
v -47.3 1.7 -37.3
v -47.3 2.2 -37.3
v -47.3 2.7 -37.3
v -47.3 3.2 -37.3
v -47.8 0 -36.9
v -47.4 0 -36.9
v -47.8 0 -37.1
v -47.4 0 -37.1
v -47.9 1 -36.7
v -47.3 1 -36.7
v -47.8 1 -36.9
v -47.4 1 -36.9
v -47.8 1 -37.1
v -47.4 1 -37.1
v -47.9 1 -37.3
v -47.3 1 -37.3
v -47.9 3.2 -36.7
v -47.3 3.2 -36.7
v -47.9 3.2 -37.3
v -47.3 3.2 -37.3

# faces
f 3/2/1 2/2/1 1/2/1
f 4/2/1 2/2/1 3/2/1
f 5/8/1 4/8/1 3/8/1
f 6/8/1 4/8/1 5/8/1
f 7/7/1 6/7/1 5/7/1
f 8/7/1 6/7/1 7/7/1
f 9/6/1 8/6/1 7/6/1
f 10/6/1 8/6/1 9/6/1
f 11/5/1 10/5/1 9/5/1
f 12/5/1 10/5/1 11/5/1
f 15/3/1 14/3/1 13/3/1
f 16/3/1 14/3/1 15/3/1
f 17/3/2 18/3/2 19/3/2
f 19/3/2 18/3/2 20/3/2
f 21/2/2 22/2/2 23/2/2
f 23/2/2 22/2/2 24/2/2
f 23/8/2 24/8/2 25/8/2
f 25/8/2 24/8/2 26/8/2
f 25/7/2 26/7/2 27/7/2
f 27/7/2 26/7/2 28/7/2
f 27/6/2 28/6/2 29/6/2
f 29/6/2 28/6/2 30/6/2
f 29/5/2 30/5/2 31/5/2
f 31/5/2 30/5/2 32/5/2
f 39/2/3 34/2/3 33/2/3
f 40/8/3 35/8/3 34/8/3
f 40/2/3 34/2/3 39/2/3
f 41/7/3 36/7/3 35/7/3
f 41/8/3 35/8/3 40/8/3
f 42/6/3 37/6/3 36/6/3
f 42/7/3 36/7/3 41/7/3
f 43/5/3 38/5/3 37/5/3
f 43/6/3 37/6/3 42/6/3
f 44/5/3 38/5/3 43/5/3
f 47/3/3 46/3/3 45/3/3
f 48/3/3 46/3/3 47/3/3
f 49/3/4 50/3/4 51/3/4
f 51/3/4 50/3/4 52/3/4
f 53/2/4 54/2/4 59/2/4
f 54/8/4 55/8/4 60/8/4
f 59/2/4 54/2/4 60/2/4
f 55/7/4 56/7/4 61/7/4
f 60/8/4 55/8/4 61/8/4
f 56/6/4 57/6/4 62/6/4
f 61/7/4 56/7/4 62/7/4
f 57/5/4 58/5/4 63/5/4
f 62/6/4 57/6/4 63/6/4
f 63/5/4 58/5/4 64/5/4
f 67/3/5 66/3/5 65/3/5
f 68/3/5 66/3/5 67/3/5
f 71/2/5 70/2/5 69/2/5
f 72/2/5 70/2/5 71/2/5
f 73/2/5 71/2/5 69/2/5
f 74/2/5 70/2/5 72/2/5
f 75/2/5 73/2/5 69/2/5
f 75/2/5 74/2/5 73/2/5
f 76/2/5 70/2/5 74/2/5
f 76/2/5 74/2/5 75/2/5
f 77/5/6 78/5/6 79/5/6
f 79/5/6 78/5/6 80/5/6
