# MagicaVoxel @ Ephtracy

# group
o 

# material
mtllib Eruption-10.mtl
usemtl palette

# normals
vn -1 0 0
vn 1 0 0
vn 0 0 1
vn 0 0 -1
vn 0 -1 0
vn 0 1 0

# texcoords
vt 0.626953 0.5
vt 0.630859 0.5
vt 0.638672 0.5

# verts
v -49.6 0.7 -34.5
v -49.6 0.7 -35
v -49.6 1.1 -34.5
v -49.6 1.1 -35
v -49.5 0.7 -34.4
v -49.5 0.7 -34.5
v -49.5 0.7 -35
v -49.5 0.7 -35.1
v -49.5 1.1 -34.4
v -49.5 1.1 -34.5
v -49.5 1.1 -35
v -49.5 1.1 -35.1
v -49.5 1.4 -34.5
v -49.5 1.4 -35
v -49.4 0 -34.6
v -49.4 0 -34.9
v -49.4 0.7 -34.3
v -49.4 0.7 -34.4
v -49.4 0.7 -34.6
v -49.4 0.7 -34.9
v -49.4 0.7 -35.1
v -49.4 0.7 -35.2
v -49.4 1.1 -34.3
v -49.4 1.1 -34.4
v -49.4 1.1 -34.5
v -49.4 1.1 -35
v -49.4 1.1 -35.1
v -49.4 1.1 -35.2
v -49.4 1.4 -34.4
v -49.4 1.4 -34.5
v -49.4 1.4 -35
v -49.4 1.4 -35.1
v -49.4 1.6 -34.5
v -49.4 1.6 -35
v -49.3 0.7 -34.2
v -49.3 0.7 -34.3
v -49.3 0.7 -35.2
v -49.3 0.7 -35.3
v -49.3 1.1 -34.2
v -49.3 1.1 -34.3
v -49.3 1.1 -34.4
v -49.3 1.1 -35.1
v -49.3 1.1 -35.2
v -49.3 1.1 -35.3
v -49.3 1.4 -34.3
v -49.3 1.4 -34.4
v -49.3 1.4 -34.5
v -49.3 1.4 -35
v -49.3 1.4 -35.1
v -49.3 1.4 -35.2
v -49.3 1.6 -34.4
v -49.3 1.6 -34.5
v -49.3 1.6 -35
v -49.3 1.6 -35.1
v -49.3 1.7 -34.5
v -49.3 1.7 -35
v -49.2 1.7 -34.6
v -49.2 1.7 -34.9
v -49.2 1.8 -34.6
v -49.2 1.8 -34.9
v -49.1 1.8 -34.7
v -49.1 1.8 -34.8
v -49.1 1.9 -34.7
v -49.1 1.9 -34.8
v -49 1.8 -34.7
v -49 1.8 -34.8
v -49 1.9 -34.7
v -49 1.9 -34.8
v -48.9 1.7 -34.6
v -48.9 1.7 -34.9
v -48.9 1.8 -34.6
v -48.9 1.8 -34.9
v -48.8 0 -34.6
v -48.8 0 -34.9
v -48.8 0.7 -34.2
v -48.8 0.7 -34.3
v -48.8 0.7 -34.6
v -48.8 0.7 -34.9
v -48.8 0.7 -35.2
v -48.8 0.7 -35.3
v -48.8 1.1 -34.2
v -48.8 1.1 -34.3
v -48.8 1.1 -34.4
v -48.8 1.1 -35.1
v -48.8 1.1 -35.2
v -48.8 1.1 -35.3
v -48.8 1.4 -34.3
v -48.8 1.4 -34.4
v -48.8 1.4 -34.5
v -48.8 1.4 -35
v -48.8 1.4 -35.1
v -48.8 1.4 -35.2
v -48.8 1.6 -34.4
v -48.8 1.6 -34.5
v -48.8 1.6 -35
v -48.8 1.6 -35.1
v -48.8 1.7 -34.5
v -48.8 1.7 -35
v -48.7 0.7 -34.3
v -48.7 0.7 -34.4
v -48.7 0.7 -35.1
v -48.7 0.7 -35.2
v -48.7 1.1 -34.3
v -48.7 1.1 -34.4
v -48.7 1.1 -34.5
v -48.7 1.1 -35
v -48.7 1.1 -35.1
v -48.7 1.1 -35.2
v -48.7 1.4 -34.4
v -48.7 1.4 -34.5
v -48.7 1.4 -35
v -48.7 1.4 -35.1
v -48.7 1.6 -34.5
v -48.7 1.6 -35
v -48.6 0.7 -34.4
v -48.6 0.7 -34.5
v -48.6 0.7 -35
v -48.6 0.7 -35.1
v -48.6 1.1 -34.4
v -48.6 1.1 -34.5
v -48.6 1.1 -35
v -48.6 1.1 -35.1
v -48.6 1.4 -34.5
v -48.6 1.4 -35
v -48.5 0.7 -34.5
v -48.5 0.7 -35
v -48.5 1.1 -34.5
v -48.5 1.1 -35
v -49.3 0.7 -34.2
v -49.3 1.1 -34.2
v -48.8 0.7 -34.2
v -48.8 1.1 -34.2
v -49.4 0.7 -34.3
v -49.4 1.1 -34.3
v -49.3 0.7 -34.3
v -49.3 1.1 -34.3
v -49.3 1.4 -34.3
v -48.8 0.7 -34.3
v -48.8 1.1 -34.3
v -48.8 1.4 -34.3
v -48.7 0.7 -34.3
v -48.7 1.1 -34.3
v -49.5 0.7 -34.4
v -49.5 1.1 -34.4
v -49.4 0.7 -34.4
v -49.4 1.1 -34.4
v -49.4 1.4 -34.4
v -49.3 1.1 -34.4
v -49.3 1.4 -34.4
v -49.3 1.6 -34.4
v -48.8 1.1 -34.4
v -48.8 1.4 -34.4
v -48.8 1.6 -34.4
v -48.7 0.7 -34.4
v -48.7 1.1 -34.4
v -48.7 1.4 -34.4
v -48.6 0.7 -34.4
v -48.6 1.1 -34.4
v -49.6 0.7 -34.5
v -49.6 1.1 -34.5
v -49.5 0.7 -34.5
v -49.5 1.1 -34.5
v -49.5 1.4 -34.5
v -49.4 1.1 -34.5
v -49.4 1.4 -34.5
v -49.4 1.6 -34.5
v -49.3 1.4 -34.5
v -49.3 1.6 -34.5
v -49.3 1.7 -34.5
v -48.8 1.4 -34.5
v -48.8 1.6 -34.5
v -48.8 1.7 -34.5
v -48.7 1.1 -34.5
v -48.7 1.4 -34.5
v -48.7 1.6 -34.5
v -48.6 0.7 -34.5
v -48.6 1.1 -34.5
v -48.6 1.4 -34.5
v -48.5 0.7 -34.5
v -48.5 1.1 -34.5
v -49.4 0 -34.6
v -49.4 0.7 -34.6
v -49.2 1.7 -34.6
v -49.2 1.8 -34.6
v -48.9 1.7 -34.6
v -48.9 1.8 -34.6
v -48.8 0 -34.6
v -48.8 0.7 -34.6
v -49.1 1.8 -34.7
v -49.1 1.9 -34.7
v -49 1.8 -34.7
v -49 1.9 -34.7
v -49.1 1.8 -34.8
v -49.1 1.9 -34.8
v -49 1.8 -34.8
v -49 1.9 -34.8
v -49.4 0 -34.9
v -49.4 0.7 -34.9
v -49.2 1.7 -34.9
v -49.2 1.8 -34.9
v -48.9 1.7 -34.9
v -48.9 1.8 -34.9
v -48.8 0 -34.9
v -48.8 0.7 -34.9
v -49.6 0.7 -35
v -49.6 1.1 -35
v -49.5 0.7 -35
v -49.5 1.1 -35
v -49.5 1.4 -35
v -49.4 1.1 -35
v -49.4 1.4 -35
v -49.4 1.6 -35
v -49.3 1.4 -35
v -49.3 1.6 -35
v -49.3 1.7 -35
v -48.8 1.4 -35
v -48.8 1.6 -35
v -48.8 1.7 -35
v -48.7 1.1 -35
v -48.7 1.4 -35
v -48.7 1.6 -35
v -48.6 0.7 -35
v -48.6 1.1 -35
v -48.6 1.4 -35
v -48.5 0.7 -35
v -48.5 1.1 -35
v -49.5 0.7 -35.1
v -49.5 1.1 -35.1
v -49.4 0.7 -35.1
v -49.4 1.1 -35.1
v -49.4 1.4 -35.1
v -49.3 1.1 -35.1
v -49.3 1.4 -35.1
v -49.3 1.6 -35.1
v -48.8 1.1 -35.1
v -48.8 1.4 -35.1
v -48.8 1.6 -35.1
v -48.7 0.7 -35.1
v -48.7 1.1 -35.1
v -48.7 1.4 -35.1
v -48.6 0.7 -35.1
v -48.6 1.1 -35.1
v -49.4 0.7 -35.2
v -49.4 1.1 -35.2
v -49.3 0.7 -35.2
v -49.3 1.1 -35.2
v -49.3 1.4 -35.2
v -48.8 0.7 -35.2
v -48.8 1.1 -35.2
v -48.8 1.4 -35.2
v -48.7 0.7 -35.2
v -48.7 1.1 -35.2
v -49.3 0.7 -35.3
v -49.3 1.1 -35.3
v -48.8 0.7 -35.3
v -48.8 1.1 -35.3
v -49.4 0 -34.6
v -48.8 0 -34.6
v -49.4 0 -34.9
v -48.8 0 -34.9
v -49.3 0.7 -34.2
v -48.8 0.7 -34.2
v -49.4 0.7 -34.3
v -49.3 0.7 -34.3
v -48.8 0.7 -34.3
v -48.7 0.7 -34.3
v -49.5 0.7 -34.4
v -49.4 0.7 -34.4
v -48.7 0.7 -34.4
v -48.6 0.7 -34.4
v -49.6 0.7 -34.5
v -49.5 0.7 -34.5
v -48.6 0.7 -34.5
v -48.5 0.7 -34.5
v -49.4 0.7 -34.6
v -48.8 0.7 -34.6
v -49.4 0.7 -34.9
v -48.8 0.7 -34.9
v -49.6 0.7 -35
v -49.5 0.7 -35
v -48.6 0.7 -35
v -48.5 0.7 -35
v -49.5 0.7 -35.1
v -49.4 0.7 -35.1
v -48.7 0.7 -35.1
v -48.6 0.7 -35.1
v -49.4 0.7 -35.2
v -49.3 0.7 -35.2
v -48.8 0.7 -35.2
v -48.7 0.7 -35.2
v -49.3 0.7 -35.3
v -48.8 0.7 -35.3
v -49.3 1.1 -34.2
v -48.8 1.1 -34.2
v -49.4 1.1 -34.3
v -49.3 1.1 -34.3
v -48.8 1.1 -34.3
v -48.7 1.1 -34.3
v -49.5 1.1 -34.4
v -49.4 1.1 -34.4
v -49.3 1.1 -34.4
v -48.8 1.1 -34.4
v -48.7 1.1 -34.4
v -48.6 1.1 -34.4
v -49.6 1.1 -34.5
v -49.5 1.1 -34.5
v -49.4 1.1 -34.5
v -48.7 1.1 -34.5
v -48.6 1.1 -34.5
v -48.5 1.1 -34.5
v -49.6 1.1 -35
v -49.5 1.1 -35
v -49.4 1.1 -35
v -48.7 1.1 -35
v -48.6 1.1 -35
v -48.5 1.1 -35
v -49.5 1.1 -35.1
v -49.4 1.1 -35.1
v -49.3 1.1 -35.1
v -48.8 1.1 -35.1
v -48.7 1.1 -35.1
v -48.6 1.1 -35.1
v -49.4 1.1 -35.2
v -49.3 1.1 -35.2
v -48.8 1.1 -35.2
v -48.7 1.1 -35.2
v -49.3 1.1 -35.3
v -48.8 1.1 -35.3
v -49.3 1.4 -34.3
v -48.8 1.4 -34.3
v -49.4 1.4 -34.4
v -49.3 1.4 -34.4
v -48.8 1.4 -34.4
v -48.7 1.4 -34.4
v -49.5 1.4 -34.5
v -49.4 1.4 -34.5
v -49.3 1.4 -34.5
v -48.8 1.4 -34.5
v -48.7 1.4 -34.5
v -48.6 1.4 -34.5
v -49.5 1.4 -35
v -49.4 1.4 -35
v -49.3 1.4 -35
v -48.8 1.4 -35
v -48.7 1.4 -35
v -48.6 1.4 -35
v -49.4 1.4 -35.1
v -49.3 1.4 -35.1
v -48.8 1.4 -35.1
v -48.7 1.4 -35.1
v -49.3 1.4 -35.2
v -48.8 1.4 -35.2
v -49.3 1.6 -34.4
v -48.8 1.6 -34.4
v -49.4 1.6 -34.5
v -49.3 1.6 -34.5
v -48.8 1.6 -34.5
v -48.7 1.6 -34.5
v -49.4 1.6 -35
v -49.3 1.6 -35
v -48.8 1.6 -35
v -48.7 1.6 -35
v -49.3 1.6 -35.1
v -48.8 1.6 -35.1
v -49.3 1.7 -34.5
v -48.8 1.7 -34.5
v -49.2 1.7 -34.6
v -48.9 1.7 -34.6
v -49.2 1.7 -34.9
v -48.9 1.7 -34.9
v -49.3 1.7 -35
v -48.8 1.7 -35
v -49.2 1.8 -34.6
v -48.9 1.8 -34.6
v -49.1 1.8 -34.7
v -49 1.8 -34.7
v -49.1 1.8 -34.8
v -49 1.8 -34.8
v -49.2 1.8 -34.9
v -48.9 1.8 -34.9
v -49.1 1.9 -34.7
v -49 1.9 -34.7
v -49.1 1.9 -34.8
v -49 1.9 -34.8

# faces
f 3/3/1 2/3/1 1/3/1
f 4/3/1 2/3/1 3/3/1
f 9/3/1 6/3/1 5/3/1
f 10/3/1 6/3/1 9/3/1
f 11/3/1 8/3/1 7/3/1
f 12/3/1 8/3/1 11/3/1
f 13/3/1 11/3/1 10/3/1
f 14/3/1 11/3/1 13/3/1
f 19/1/1 16/1/1 15/1/1
f 20/1/1 16/1/1 19/1/1
f 23/3/1 18/3/1 17/3/1
f 24/3/1 18/3/1 23/3/1
f 27/3/1 22/3/1 21/3/1
f 28/3/1 22/3/1 27/3/1
f 29/3/1 25/3/1 24/3/1
f 30/3/1 25/3/1 29/3/1
f 31/3/1 27/3/1 26/3/1
f 32/3/1 27/3/1 31/3/1
f 33/3/1 31/3/1 30/3/1
f 34/3/1 31/3/1 33/3/1
f 39/3/1 36/3/1 35/3/1
f 40/3/1 36/3/1 39/3/1
f 43/3/1 38/3/1 37/3/1
f 44/3/1 38/3/1 43/3/1
f 45/3/1 41/3/1 40/3/1
f 46/3/1 41/3/1 45/3/1
f 49/3/1 43/3/1 42/3/1
f 50/3/1 43/3/1 49/3/1
f 51/3/1 47/3/1 46/3/1
f 52/3/1 47/3/1 51/3/1
f 53/3/1 49/3/1 48/3/1
f 54/3/1 49/3/1 53/3/1
f 55/3/1 53/3/1 52/3/1
f 56/3/1 53/3/1 55/3/1
f 59/3/1 58/3/1 57/3/1
f 60/3/1 58/3/1 59/3/1
f 63/2/1 62/2/1 61/2/1
f 64/2/1 62/2/1 63/2/1
f 65/2/2 66/2/2 67/2/2
f 67/2/2 66/2/2 68/2/2
f 69/3/2 70/3/2 71/3/2
f 71/3/2 70/3/2 72/3/2
f 73/1/2 74/1/2 77/1/2
f 77/1/2 74/1/2 78/1/2
f 75/3/2 76/3/2 81/3/2
f 81/3/2 76/3/2 82/3/2
f 79/3/2 80/3/2 85/3/2
f 85/3/2 80/3/2 86/3/2
f 82/3/2 83/3/2 87/3/2
f 87/3/2 83/3/2 88/3/2
f 84/3/2 85/3/2 91/3/2
f 91/3/2 85/3/2 92/3/2
f 88/3/2 89/3/2 93/3/2
f 93/3/2 89/3/2 94/3/2
f 90/3/2 91/3/2 95/3/2
f 95/3/2 91/3/2 96/3/2
f 94/3/2 95/3/2 97/3/2
f 97/3/2 95/3/2 98/3/2
f 99/3/2 100/3/2 103/3/2
f 103/3/2 100/3/2 104/3/2
f 101/3/2 102/3/2 107/3/2
f 107/3/2 102/3/2 108/3/2
f 104/3/2 105/3/2 109/3/2
f 109/3/2 105/3/2 110/3/2
f 106/3/2 107/3/2 111/3/2
f 111/3/2 107/3/2 112/3/2
f 110/3/2 111/3/2 113/3/2
f 113/3/2 111/3/2 114/3/2
f 115/3/2 116/3/2 119/3/2
f 119/3/2 116/3/2 120/3/2
f 117/3/2 118/3/2 121/3/2
f 121/3/2 118/3/2 122/3/2
f 120/3/2 121/3/2 123/3/2
f 123/3/2 121/3/2 124/3/2
f 125/3/2 126/3/2 127/3/2
f 127/3/2 126/3/2 128/3/2
f 131/3/3 130/3/3 129/3/3
f 132/3/3 130/3/3 131/3/3
f 135/3/3 134/3/3 133/3/3
f 136/3/3 134/3/3 135/3/3
f 139/3/3 137/3/3 136/3/3
f 140/3/3 137/3/3 139/3/3
f 141/3/3 139/3/3 138/3/3
f 142/3/3 139/3/3 141/3/3
f 145/3/3 144/3/3 143/3/3
f 146/3/3 144/3/3 145/3/3
f 148/3/3 147/3/3 146/3/3
f 149/3/3 147/3/3 148/3/3
f 152/3/3 150/3/3 149/3/3
f 153/3/3 150/3/3 152/3/3
f 155/3/3 152/3/3 151/3/3
f 156/3/3 152/3/3 155/3/3
f 157/3/3 155/3/3 154/3/3
f 158/3/3 155/3/3 157/3/3
f 161/3/3 160/3/3 159/3/3
f 162/3/3 160/3/3 161/3/3
f 164/3/3 163/3/3 162/3/3
f 165/3/3 163/3/3 164/3/3
f 167/3/3 166/3/3 165/3/3
f 168/3/3 166/3/3 167/3/3
f 171/3/3 169/3/3 168/3/3
f 172/3/3 169/3/3 171/3/3
f 174/3/3 171/3/3 170/3/3
f 175/3/3 171/3/3 174/3/3
f 177/3/3 174/3/3 173/3/3
f 178/3/3 174/3/3 177/3/3
f 179/3/3 177/3/3 176/3/3
f 180/3/3 177/3/3 179/3/3
f 185/3/3 184/3/3 183/3/3
f 186/3/3 184/3/3 185/3/3
f 187/1/3 182/1/3 181/1/3
f 188/1/3 182/1/3 187/1/3
f 191/2/3 190/2/3 189/2/3
f 192/2/3 190/2/3 191/2/3
f 193/2/4 194/2/4 195/2/4
f 195/2/4 194/2/4 196/2/4
f 199/3/4 200/3/4 201/3/4
f 201/3/4 200/3/4 202/3/4
f 197/1/4 198/1/4 203/1/4
f 203/1/4 198/1/4 204/1/4
f 205/3/4 206/3/4 207/3/4
f 207/3/4 206/3/4 208/3/4
f 208/3/4 209/3/4 210/3/4
f 210/3/4 209/3/4 211/3/4
f 211/3/4 212/3/4 213/3/4
f 213/3/4 212/3/4 214/3/4
f 214/3/4 215/3/4 217/3/4
f 217/3/4 215/3/4 218/3/4
f 216/3/4 217/3/4 220/3/4
f 220/3/4 217/3/4 221/3/4
f 219/3/4 220/3/4 223/3/4
f 223/3/4 220/3/4 224/3/4
f 222/3/4 223/3/4 225/3/4
f 225/3/4 223/3/4 226/3/4
f 227/3/4 228/3/4 229/3/4
f 229/3/4 228/3/4 230/3/4
f 230/3/4 231/3/4 232/3/4
f 232/3/4 231/3/4 233/3/4
f 233/3/4 234/3/4 236/3/4
f 236/3/4 234/3/4 237/3/4
f 235/3/4 236/3/4 239/3/4
f 239/3/4 236/3/4 240/3/4
f 238/3/4 239/3/4 241/3/4
f 241/3/4 239/3/4 242/3/4
f 243/3/4 244/3/4 245/3/4
f 245/3/4 244/3/4 246/3/4
f 246/3/4 247/3/4 249/3/4
f 249/3/4 247/3/4 250/3/4
f 248/3/4 249/3/4 251/3/4
f 251/3/4 249/3/4 252/3/4
f 253/3/4 254/3/4 255/3/4
f 255/3/4 254/3/4 256/3/4
f 259/1/5 258/1/5 257/1/5
f 260/1/5 258/1/5 259/1/5
f 264/3/5 262/3/5 261/3/5
f 265/3/5 262/3/5 264/3/5
f 268/3/5 264/3/5 263/3/5
f 268/3/5 266/3/5 265/3/5
f 268/3/5 265/3/5 264/3/5
f 269/3/5 266/3/5 268/3/5
f 272/3/5 268/3/5 267/3/5
f 272/3/5 270/3/5 269/3/5
f 272/3/5 269/3/5 268/3/5
f 273/3/5 270/3/5 272/3/5
f 275/3/5 272/3/5 271/3/5
f 275/3/5 274/3/5 273/3/5
f 275/3/5 273/3/5 272/3/5
f 276/3/5 274/3/5 275/3/5
f 277/3/5 275/3/5 271/3/5
f 278/3/5 274/3/5 276/3/5
f 279/3/5 277/3/5 271/3/5
f 279/3/5 278/3/5 277/3/5
f 280/3/5 278/3/5 279/3/5
f 281/3/5 274/3/5 278/3/5
f 281/3/5 278/3/5 280/3/5
f 282/3/5 274/3/5 281/3/5
f 283/3/5 281/3/5 280/3/5
f 284/3/5 281/3/5 283/3/5
f 285/3/5 281/3/5 284/3/5
f 286/3/5 281/3/5 285/3/5
f 287/3/5 285/3/5 284/3/5
f 288/3/5 285/3/5 287/3/5
f 289/3/5 285/3/5 288/3/5
f 290/3/5 285/3/5 289/3/5
f 291/3/5 289/3/5 288/3/5
f 292/3/5 289/3/5 291/3/5
f 293/3/6 294/3/6 296/3/6
f 296/3/6 294/3/6 297/3/6
f 295/3/6 296/3/6 300/3/6
f 300/3/6 296/3/6 301/3/6
f 297/3/6 298/3/6 302/3/6
f 302/3/6 298/3/6 303/3/6
f 299/3/6 300/3/6 306/3/6
f 306/3/6 300/3/6 307/3/6
f 303/3/6 304/3/6 308/3/6
f 308/3/6 304/3/6 309/3/6
f 305/3/6 306/3/6 311/3/6
f 311/3/6 306/3/6 312/3/6
f 309/3/6 310/3/6 315/3/6
f 315/3/6 310/3/6 316/3/6
f 312/3/6 313/3/6 317/3/6
f 317/3/6 313/3/6 318/3/6
f 314/3/6 315/3/6 321/3/6
f 321/3/6 315/3/6 322/3/6
f 318/3/6 319/3/6 323/3/6
f 323/3/6 319/3/6 324/3/6
f 320/3/6 321/3/6 325/3/6
f 325/3/6 321/3/6 326/3/6
f 324/3/6 325/3/6 327/3/6
f 327/3/6 325/3/6 328/3/6
f 329/3/6 330/3/6 332/3/6
f 332/3/6 330/3/6 333/3/6
f 331/3/6 332/3/6 336/3/6
f 336/3/6 332/3/6 337/3/6
f 333/3/6 334/3/6 338/3/6
f 338/3/6 334/3/6 339/3/6
f 335/3/6 336/3/6 341/3/6
f 341/3/6 336/3/6 342/3/6
f 339/3/6 340/3/6 345/3/6
f 345/3/6 340/3/6 346/3/6
f 342/3/6 343/3/6 347/3/6
f 347/3/6 343/3/6 348/3/6
f 344/3/6 345/3/6 349/3/6
f 349/3/6 345/3/6 350/3/6
f 348/3/6 349/3/6 351/3/6
f 351/3/6 349/3/6 352/3/6
f 353/3/6 354/3/6 356/3/6
f 356/3/6 354/3/6 357/3/6
f 355/3/6 356/3/6 359/3/6
f 359/3/6 356/3/6 360/3/6
f 357/3/6 358/3/6 361/3/6
f 361/3/6 358/3/6 362/3/6
f 360/3/6 361/3/6 363/3/6
f 363/3/6 361/3/6 364/3/6
f 365/3/6 366/3/6 367/3/6
f 367/3/6 366/3/6 368/3/6
f 365/3/6 367/3/6 369/3/6
f 368/3/6 366/3/6 370/3/6
f 365/3/6 369/3/6 371/3/6
f 369/3/6 370/3/6 371/3/6
f 370/3/6 366/3/6 372/3/6
f 371/3/6 370/3/6 372/3/6
f 373/3/6 374/3/6 375/3/6
f 375/3/6 374/3/6 376/3/6
f 373/3/6 375/3/6 377/3/6
f 376/3/6 374/3/6 378/3/6
f 373/3/6 377/3/6 379/3/6
f 377/3/6 378/3/6 379/3/6
f 378/3/6 374/3/6 380/3/6
f 379/3/6 378/3/6 380/3/6
f 381/2/6 382/2/6 383/2/6
f 383/2/6 382/2/6 384/2/6
