# MagicaVoxel @ Ephtracy

# group
o 

# material
mtllib Eruption-23.mtl
usemtl palette

# normals
vn 0 1 0
vn 0 -1 0
vn 0 0 1
vn 0 0 -1
vn -1 0 0
vn 1 0 0

# texcoords
vt 0.658203 0.5
vt 0.662109 0.5
vt 0.783203 0.5

# verts
v -16.1 1 -38.8
v -16.1 1 -39.3
v -15.8 1 -38.8
v -15.8 1 -39.3
v -16.1 0.9 -38.7
v -16.1 0.9 -38.8
v -16.1 0.9 -39.3
v -16.1 0.9 -39.4
v -15.8 0.9 -38.7
v -15.8 0.9 -38.8
v -15.8 0.9 -39.3
v -15.8 0.9 -39.4
v -16.1 0.8 -38.6
v -16.1 0.8 -38.7
v -16.1 0.8 -39.4
v -16.1 0.8 -39.5
v -15.8 0.8 -38.6
v -15.8 0.8 -38.7
v -15.8 0.8 -39.4
v -15.8 0.8 -39.5
v -16.1 0.5 -39
v -16.1 0.5 -39.1
v -16 0.5 -39
v -16 0.5 -39.1
v -15.9 0.5 -39
v -15.9 0.5 -39.1
v -15.8 0.5 -39
v -15.8 0.5 -39.1
v -16.1 0.6 -39
v -16.1 0.6 -39.1
v -16 0.6 -39
v -16 0.6 -39.1
v -15.9 0.6 -39
v -15.9 0.6 -39.1
v -15.8 0.6 -39
v -15.8 0.6 -39.1
v -16.1 0.3 -38.6
v -16.1 0.3 -38.7
v -16.1 0.3 -39.4
v -16.1 0.3 -39.5
v -15.8 0.3 -38.6
v -15.8 0.3 -38.7
v -15.8 0.3 -39.4
v -15.8 0.3 -39.5
v -16.1 0.2 -38.7
v -16.1 0.2 -38.8
v -16.1 0.2 -39.3
v -16.1 0.2 -39.4
v -15.8 0.2 -38.7
v -15.8 0.2 -38.8
v -15.8 0.2 -39.3
v -15.8 0.2 -39.4
v -16.1 0.1 -38.8
v -16.1 0.1 -39.3
v -15.8 0.1 -38.8
v -15.8 0.1 -39.3
v -16.1 0.8 -38.6
v -15.8 0.8 -38.6
v -16.1 0.6 -38.6
v -15.8 0.6 -38.6
v -16.1 0.5 -38.6
v -15.8 0.5 -38.6
v -16.1 0.3 -38.6
v -15.8 0.3 -38.6
v -16.1 0.9 -38.7
v -15.8 0.9 -38.7
v -16.1 0.8 -38.7
v -15.8 0.8 -38.7
v -16.1 0.3 -38.7
v -15.8 0.3 -38.7
v -16.1 0.2 -38.7
v -15.8 0.2 -38.7
v -16.1 1 -38.8
v -15.8 1 -38.8
v -16.1 0.9 -38.8
v -15.8 0.9 -38.8
v -16.1 0.2 -38.8
v -15.8 0.2 -38.8
v -16.1 0.1 -38.8
v -15.8 0.1 -38.8
v -16.1 0.6 -39.1
v -16 0.6 -39.1
v -15.9 0.6 -39.1
v -15.8 0.6 -39.1
v -16.1 0.5 -39.1
v -16 0.5 -39.1
v -15.9 0.5 -39.1
v -15.8 0.5 -39.1
v -16.1 0.6 -39
v -16 0.6 -39
v -15.9 0.6 -39
v -15.8 0.6 -39
v -16.1 0.5 -39
v -16 0.5 -39
v -15.9 0.5 -39
v -15.8 0.5 -39
v -16.1 1 -39.3
v -15.8 1 -39.3
v -16.1 0.9 -39.3
v -15.8 0.9 -39.3
v -16.1 0.2 -39.3
v -15.8 0.2 -39.3
v -16.1 0.1 -39.3
v -15.8 0.1 -39.3
v -16.1 0.9 -39.4
v -15.8 0.9 -39.4
v -16.1 0.8 -39.4
v -15.8 0.8 -39.4
v -16.1 0.3 -39.4
v -15.8 0.3 -39.4
v -16.1 0.2 -39.4
v -15.8 0.2 -39.4
v -16.1 0.8 -39.5
v -15.8 0.8 -39.5
v -16.1 0.6 -39.5
v -15.8 0.6 -39.5
v -16.1 0.5 -39.5
v -15.8 0.5 -39.5
v -16.1 0.3 -39.5
v -15.8 0.3 -39.5
v -16.1 0.8 -38.6
v -16.1 0.6 -38.6
v -16.1 0.5 -38.6
v -16.1 0.3 -38.6
v -16.1 0.9 -38.7
v -16.1 0.8 -38.7
v -16.1 0.3 -38.7
v -16.1 0.2 -38.7
v -16.1 1 -38.8
v -16.1 0.9 -38.8
v -16.1 0.2 -38.8
v -16.1 0.1 -38.8
v -16.1 0.6 -39
v -16.1 0.5 -39
v -16.1 0.6 -39.1
v -16.1 0.5 -39.1
v -16.1 1 -39.3
v -16.1 0.9 -39.3
v -16.1 0.2 -39.3
v -16.1 0.1 -39.3
v -16.1 0.9 -39.4
v -16.1 0.8 -39.4
v -16.1 0.3 -39.4
v -16.1 0.2 -39.4
v -16.1 0.8 -39.5
v -16.1 0.6 -39.5
v -16.1 0.5 -39.5
v -16.1 0.3 -39.5
v -15.8 0.8 -38.6
v -15.8 0.6 -38.6
v -15.8 0.5 -38.6
v -15.8 0.3 -38.6
v -15.8 0.9 -38.7
v -15.8 0.8 -38.7
v -15.8 0.3 -38.7
v -15.8 0.2 -38.7
v -15.8 1 -38.8
v -15.8 0.9 -38.8
v -15.8 0.2 -38.8
v -15.8 0.1 -38.8
v -15.8 0.6 -39
v -15.8 0.5 -39
v -15.8 0.6 -39.1
v -15.8 0.5 -39.1
v -15.8 1 -39.3
v -15.8 0.9 -39.3
v -15.8 0.2 -39.3
v -15.8 0.1 -39.3
v -15.8 0.9 -39.4
v -15.8 0.8 -39.4
v -15.8 0.3 -39.4
v -15.8 0.2 -39.4
v -15.8 0.8 -39.5
v -15.8 0.6 -39.5
v -15.8 0.5 -39.5
v -15.8 0.3 -39.5

# faces
f 3/2/1 2/2/1 1/2/1
f 4/2/1 2/2/1 3/2/1
f 9/2/1 6/2/1 5/2/1
f 10/2/1 6/2/1 9/2/1
f 11/2/1 8/2/1 7/2/1
f 12/2/1 8/2/1 11/2/1
f 17/1/1 14/1/1 13/1/1
f 18/1/1 14/1/1 17/1/1
f 19/1/1 16/1/1 15/1/1
f 20/1/1 16/1/1 19/1/1
f 23/1/1 22/1/1 21/1/1
f 24/1/1 22/1/1 23/1/1
f 25/2/1 24/2/1 23/2/1
f 26/2/1 24/2/1 25/2/1
f 27/1/1 26/1/1 25/1/1
f 28/1/1 26/1/1 27/1/1
f 29/1/2 30/1/2 31/1/2
f 31/1/2 30/1/2 32/1/2
f 31/3/2 32/3/2 33/3/2
f 33/3/2 32/3/2 34/3/2
f 33/1/2 34/1/2 35/1/2
f 35/1/2 34/1/2 36/1/2
f 37/1/2 38/1/2 41/1/2
f 41/1/2 38/1/2 42/1/2
f 39/1/2 40/1/2 43/1/2
f 43/1/2 40/1/2 44/1/2
f 45/2/2 46/2/2 49/2/2
f 49/2/2 46/2/2 50/2/2
f 47/2/2 48/2/2 51/2/2
f 51/2/2 48/2/2 52/2/2
f 53/2/2 54/2/2 55/2/2
f 55/2/2 54/2/2 56/2/2
f 59/1/3 58/1/3 57/1/3
f 60/1/3 58/1/3 59/1/3
f 61/2/3 60/2/3 59/2/3
f 62/2/3 60/2/3 61/2/3
f 63/1/3 62/1/3 61/1/3
f 64/1/3 62/1/3 63/1/3
f 67/2/3 66/2/3 65/2/3
f 68/2/3 66/2/3 67/2/3
f 71/2/3 70/2/3 69/2/3
f 72/2/3 70/2/3 71/2/3
f 75/2/3 74/2/3 73/2/3
f 76/2/3 74/2/3 75/2/3
f 79/2/3 78/2/3 77/2/3
f 80/2/3 78/2/3 79/2/3
f 85/2/3 82/2/3 81/2/3
f 85/2/3 84/2/3 83/2/3
f 85/2/3 83/2/3 82/2/3
f 86/2/3 84/2/3 85/2/3
f 87/2/3 84/2/3 86/2/3
f 88/2/3 84/2/3 87/2/3
f 89/2/4 90/2/4 93/2/4
f 90/3/4 91/3/4 94/3/4
f 93/2/4 90/2/4 94/2/4
f 91/2/4 92/2/4 95/2/4
f 94/3/4 91/3/4 95/3/4
f 95/2/4 92/2/4 96/2/4
f 97/2/4 98/2/4 99/2/4
f 99/2/4 98/2/4 100/2/4
f 101/2/4 102/2/4 103/2/4
f 103/2/4 102/2/4 104/2/4
f 105/2/4 106/2/4 107/2/4
f 107/2/4 106/2/4 108/2/4
f 109/2/4 110/2/4 111/2/4
f 111/2/4 110/2/4 112/2/4
f 113/1/4 114/1/4 115/1/4
f 115/1/4 114/1/4 116/1/4
f 115/2/4 116/2/4 117/2/4
f 117/2/4 116/2/4 118/2/4
f 117/1/4 118/1/4 119/1/4
f 119/1/4 118/1/4 120/1/4
f 126/1/5 122/1/5 121/1/5
f 127/1/5 124/1/5 123/1/5
f 130/2/5 126/2/5 125/2/5
f 131/2/5 128/2/5 127/2/5
f 133/2/5 123/2/5 122/2/5
f 133/1/5 122/1/5 126/1/5
f 134/1/5 127/1/5 123/1/5
f 134/2/5 123/2/5 133/2/5
f 135/1/5 133/1/5 126/1/5
f 136/1/5 127/1/5 134/1/5
f 137/2/5 130/2/5 129/2/5
f 138/2/5 126/2/5 130/2/5
f 138/2/5 130/2/5 137/2/5
f 139/2/5 132/2/5 131/2/5
f 139/2/5 131/2/5 127/2/5
f 140/2/5 132/2/5 139/2/5
f 141/2/5 126/2/5 138/2/5
f 142/1/5 135/1/5 126/1/5
f 142/2/5 126/2/5 141/2/5
f 143/2/5 139/2/5 127/2/5
f 143/1/5 127/1/5 136/1/5
f 144/2/5 139/2/5 143/2/5
f 145/1/5 135/1/5 142/1/5
f 146/2/5 136/2/5 135/2/5
f 146/1/5 135/1/5 145/1/5
f 147/1/5 143/1/5 136/1/5
f 147/2/5 136/2/5 146/2/5
f 148/1/5 143/1/5 147/1/5
f 149/1/6 150/1/6 154/1/6
f 151/1/6 152/1/6 155/1/6
f 153/2/6 154/2/6 158/2/6
f 155/2/6 156/2/6 159/2/6
f 150/2/6 151/2/6 161/2/6
f 154/1/6 150/1/6 161/1/6
f 151/1/6 155/1/6 162/1/6
f 161/2/6 151/2/6 162/2/6
f 154/1/6 161/1/6 163/1/6
f 162/1/6 155/1/6 164/1/6
f 157/2/6 158/2/6 165/2/6
f 158/2/6 154/2/6 166/2/6
f 165/2/6 158/2/6 166/2/6
f 159/2/6 160/2/6 167/2/6
f 155/2/6 159/2/6 167/2/6
f 167/2/6 160/2/6 168/2/6
f 166/2/6 154/2/6 169/2/6
f 154/1/6 163/1/6 170/1/6
f 169/2/6 154/2/6 170/2/6
f 155/2/6 167/2/6 171/2/6
f 164/1/6 155/1/6 171/1/6
f 171/2/6 167/2/6 172/2/6
f 170/1/6 163/1/6 173/1/6
f 163/2/6 164/2/6 174/2/6
f 173/1/6 163/1/6 174/1/6
f 164/1/6 171/1/6 175/1/6
f 174/2/6 164/2/6 175/2/6
f 175/1/6 171/1/6 176/1/6
