# MagicaVoxel @ Ephtracy

# group
o 

# material
mtllib Eruption-7.mtl
usemtl palette

# normals
vn -1 0 0
vn 1 0 0
vn 0 0 1
vn 0 0 -1
vn 0 -1 0
vn 0 1 0

# texcoords
vt 0.599609 0.5
vt 0.603516 0.5
vt 0.607422 0.5
vt 0.611328 0.5
vt 0.626953 0.5
vt 0.630859 0.5
vt 0.638672 0.5

# verts
v -46 0.7 -31.2
v -46 0.7 -31.7
v -46 1.1 -31.2
v -46 1.1 -31.7
v -45.9 0.7 -31.1
v -45.9 0.7 -31.2
v -45.9 0.7 -31.7
v -45.9 0.7 -31.8
v -45.9 1.1 -31.1
v -45.9 1.1 -31.2
v -45.9 1.1 -31.7
v -45.9 1.1 -31.8
v -45.9 1.4 -31.2
v -45.9 1.4 -31.7
v -45.8 0 -31.3
v -45.8 0 -31.6
v -45.8 0.7 -31
v -45.8 0.7 -31.1
v -45.8 0.7 -31.3
v -45.8 0.7 -31.6
v -45.8 0.7 -31.8
v -45.8 0.7 -31.9
v -45.8 1.1 -31
v -45.8 1.1 -31.1
v -45.8 1.1 -31.2
v -45.8 1.1 -31.7
v -45.8 1.1 -31.8
v -45.8 1.1 -31.9
v -45.8 1.4 -31.1
v -45.8 1.4 -31.2
v -45.8 1.4 -31.7
v -45.8 1.4 -31.8
v -45.8 1.6 -31.2
v -45.8 1.6 -31.7
v -45.7 0.7 -30.9
v -45.7 0.7 -31
v -45.7 0.7 -31.9
v -45.7 0.7 -32
v -45.7 1.1 -30.9
v -45.7 1.1 -31
v -45.7 1.1 -31.1
v -45.7 1.1 -31.8
v -45.7 1.1 -31.9
v -45.7 1.1 -32
v -45.7 1.4 -31
v -45.7 1.4 -31.1
v -45.7 1.4 -31.2
v -45.7 1.4 -31.7
v -45.7 1.4 -31.8
v -45.7 1.4 -31.9
v -45.7 1.6 -31.1
v -45.7 1.6 -31.2
v -45.7 1.6 -31.7
v -45.7 1.6 -31.8
v -45.7 1.7 -31.2
v -45.7 1.7 -31.7
v -45.6 1.7 -31.3
v -45.6 1.7 -31.6
v -45.6 1.8 -31.3
v -45.6 1.8 -31.6
v -45.5 1.8 -31.4
v -45.5 1.8 -31.5
v -45.5 1.9 -31.4
v -45.5 1.9 -31.5
v -45.4 1.8 -31.4
v -45.4 1.8 -31.5
v -45.4 1.9 -31.4
v -45.4 1.9 -31.5
v -45.3 1.7 -31.3
v -45.3 1.7 -31.6
v -45.3 1.8 -31.3
v -45.3 1.8 -31.6
v -45.2 0 -31.3
v -45.2 0 -31.6
v -45.2 0.7 -30.9
v -45.2 0.7 -31
v -45.2 0.7 -31.3
v -45.2 0.7 -31.6
v -45.2 0.7 -31.9
v -45.2 0.7 -32
v -45.2 1.1 -30.9
v -45.2 1.1 -31
v -45.2 1.1 -31.1
v -45.2 1.1 -31.8
v -45.2 1.1 -31.9
v -45.2 1.1 -32
v -45.2 1.4 -31
v -45.2 1.4 -31.1
v -45.2 1.4 -31.2
v -45.2 1.4 -31.7
v -45.2 1.4 -31.8
v -45.2 1.4 -31.9
v -45.2 1.6 -31.1
v -45.2 1.6 -31.2
v -45.2 1.6 -31.7
v -45.2 1.6 -31.8
v -45.2 1.7 -31.2
v -45.2 1.7 -31.7
v -45.1 0.7 -31
v -45.1 0.7 -31.1
v -45.1 0.7 -31.8
v -45.1 0.7 -31.9
v -45.1 1.1 -31
v -45.1 1.1 -31.1
v -45.1 1.1 -31.2
v -45.1 1.1 -31.7
v -45.1 1.1 -31.8
v -45.1 1.1 -31.9
v -45.1 1.4 -31.1
v -45.1 1.4 -31.2
v -45.1 1.4 -31.7
v -45.1 1.4 -31.8
v -45.1 1.6 -31.2
v -45.1 1.6 -31.7
v -45 0.7 -31.1
v -45 0.7 -31.2
v -45 0.7 -31.7
v -45 0.7 -31.8
v -45 1.1 -31.1
v -45 1.1 -31.2
v -45 1.1 -31.7
v -45 1.1 -31.8
v -45 1.4 -31.2
v -45 1.4 -31.7
v -44.9 0.7 -31.2
v -44.9 0.7 -31.7
v -44.9 1.1 -31.2
v -44.9 1.1 -31.7
v -45.7 0.7 -30.9
v -45.7 1.1 -30.9
v -45.2 0.7 -30.9
v -45.2 1.1 -30.9
v -45.8 0.7 -31
v -45.8 1.1 -31
v -45.7 0.7 -31
v -45.7 1.1 -31
v -45.7 1.4 -31
v -45.2 0.7 -31
v -45.2 1.1 -31
v -45.2 1.4 -31
v -45.1 0.7 -31
v -45.1 1.1 -31
v -45.9 0.7 -31.1
v -45.9 1.1 -31.1
v -45.8 0.7 -31.1
v -45.8 1.1 -31.1
v -45.8 1.4 -31.1
v -45.7 1.1 -31.1
v -45.7 1.4 -31.1
v -45.7 1.6 -31.1
v -45.2 1.1 -31.1
v -45.2 1.4 -31.1
v -45.2 1.6 -31.1
v -45.1 0.7 -31.1
v -45.1 1.1 -31.1
v -45.1 1.4 -31.1
v -45 0.7 -31.1
v -45 1.1 -31.1
v -46 0.7 -31.2
v -46 1.1 -31.2
v -45.9 0.7 -31.2
v -45.9 1.1 -31.2
v -45.9 1.4 -31.2
v -45.8 1.1 -31.2
v -45.8 1.4 -31.2
v -45.8 1.6 -31.2
v -45.7 1.4 -31.2
v -45.7 1.6 -31.2
v -45.7 1.7 -31.2
v -45.2 1.4 -31.2
v -45.2 1.6 -31.2
v -45.2 1.7 -31.2
v -45.1 1.1 -31.2
v -45.1 1.4 -31.2
v -45.1 1.6 -31.2
v -45 0.7 -31.2
v -45 1.1 -31.2
v -45 1.4 -31.2
v -44.9 0.7 -31.2
v -44.9 1.1 -31.2
v -45.8 0 -31.3
v -45.8 0.7 -31.3
v -45.6 1.7 -31.3
v -45.6 1.8 -31.3
v -45.3 1.7 -31.3
v -45.3 1.8 -31.3
v -45.2 0 -31.3
v -45.2 0.7 -31.3
v -45.5 1.8 -31.4
v -45.5 1.9 -31.4
v -45.4 1.8 -31.4
v -45.4 1.9 -31.4
v -45.5 1.8 -31.5
v -45.5 1.9 -31.5
v -45.4 1.8 -31.5
v -45.4 1.9 -31.5
v -45.8 0 -31.6
v -45.8 0.7 -31.6
v -45.6 1.7 -31.6
v -45.6 1.8 -31.6
v -45.3 1.7 -31.6
v -45.3 1.8 -31.6
v -45.2 0 -31.6
v -45.2 0.7 -31.6
v -46 0.7 -31.7
v -46 1.1 -31.7
v -45.9 0.7 -31.7
v -45.9 1.1 -31.7
v -45.9 1.4 -31.7
v -45.8 1.1 -31.7
v -45.8 1.4 -31.7
v -45.8 1.6 -31.7
v -45.7 1.4 -31.7
v -45.7 1.6 -31.7
v -45.7 1.7 -31.7
v -45.2 1.4 -31.7
v -45.2 1.6 -31.7
v -45.2 1.7 -31.7
v -45.1 1.1 -31.7
v -45.1 1.4 -31.7
v -45.1 1.6 -31.7
v -45 0.7 -31.7
v -45 1.1 -31.7
v -45 1.4 -31.7
v -44.9 0.7 -31.7
v -44.9 1.1 -31.7
v -45.9 0.7 -31.8
v -45.9 1.1 -31.8
v -45.8 0.7 -31.8
v -45.8 1.1 -31.8
v -45.8 1.4 -31.8
v -45.7 1.1 -31.8
v -45.7 1.4 -31.8
v -45.7 1.6 -31.8
v -45.2 1.1 -31.8
v -45.2 1.4 -31.8
v -45.2 1.6 -31.8
v -45.1 0.7 -31.8
v -45.1 1.1 -31.8
v -45.1 1.4 -31.8
v -45 0.7 -31.8
v -45 1.1 -31.8
v -45.8 0.7 -31.9
v -45.8 1.1 -31.9
v -45.7 0.7 -31.9
v -45.7 1.1 -31.9
v -45.7 1.4 -31.9
v -45.2 0.7 -31.9
v -45.2 1.1 -31.9
v -45.2 1.4 -31.9
v -45.1 0.7 -31.9
v -45.1 1.1 -31.9
v -45.7 0.7 -32
v -45.7 1.1 -32
v -45.2 0.7 -32
v -45.2 1.1 -32
v -45.8 0 -31.3
v -45.2 0 -31.3
v -45.8 0 -31.6
v -45.2 0 -31.6
v -45.7 0.7 -30.9
v -45.2 0.7 -30.9
v -45.8 0.7 -31
v -45.7 0.7 -31
v -45.2 0.7 -31
v -45.1 0.7 -31
v -45.9 0.7 -31.1
v -45.8 0.7 -31.1
v -45.7 0.7 -31.1
v -45.2 0.7 -31.1
v -45.1 0.7 -31.1
v -45 0.7 -31.1
v -46 0.7 -31.2
v -45.9 0.7 -31.2
v -45.8 0.7 -31.2
v -45.1 0.7 -31.2
v -45 0.7 -31.2
v -44.9 0.7 -31.2
v -45.8 0.7 -31.3
v -45.2 0.7 -31.3
v -45.8 0.7 -31.6
v -45.2 0.7 -31.6
v -46 0.7 -31.7
v -45.9 0.7 -31.7
v -45.8 0.7 -31.7
v -45.1 0.7 -31.7
v -45 0.7 -31.7
v -44.9 0.7 -31.7
v -45.9 0.7 -31.8
v -45.8 0.7 -31.8
v -45.7 0.7 -31.8
v -45.2 0.7 -31.8
v -45.1 0.7 -31.8
v -45 0.7 -31.8
v -45.8 0.7 -31.9
v -45.7 0.7 -31.9
v -45.2 0.7 -31.9
v -45.1 0.7 -31.9
v -45.7 0.7 -32
v -45.2 0.7 -32
v -45.7 1.1 -30.9
v -45.2 1.1 -30.9
v -45.8 1.1 -31
v -45.7 1.1 -31
v -45.2 1.1 -31
v -45.1 1.1 -31
v -45.9 1.1 -31.1
v -45.8 1.1 -31.1
v -45.7 1.1 -31.1
v -45.2 1.1 -31.1
v -45.1 1.1 -31.1
v -45 1.1 -31.1
v -46 1.1 -31.2
v -45.9 1.1 -31.2
v -45.8 1.1 -31.2
v -45.1 1.1 -31.2
v -45 1.1 -31.2
v -44.9 1.1 -31.2
v -46 1.1 -31.7
v -45.9 1.1 -31.7
v -45.8 1.1 -31.7
v -45.1 1.1 -31.7
v -45 1.1 -31.7
v -44.9 1.1 -31.7
v -45.9 1.1 -31.8
v -45.8 1.1 -31.8
v -45.7 1.1 -31.8
v -45.2 1.1 -31.8
v -45.1 1.1 -31.8
v -45 1.1 -31.8
v -45.8 1.1 -31.9
v -45.7 1.1 -31.9
v -45.2 1.1 -31.9
v -45.1 1.1 -31.9
v -45.7 1.1 -32
v -45.2 1.1 -32
v -45.7 1.4 -31
v -45.2 1.4 -31
v -45.8 1.4 -31.1
v -45.7 1.4 -31.1
v -45.2 1.4 -31.1
v -45.1 1.4 -31.1
v -45.9 1.4 -31.2
v -45.8 1.4 -31.2
v -45.7 1.4 -31.2
v -45.2 1.4 -31.2
v -45.1 1.4 -31.2
v -45 1.4 -31.2
v -45.9 1.4 -31.7
v -45.8 1.4 -31.7
v -45.7 1.4 -31.7
v -45.2 1.4 -31.7
v -45.1 1.4 -31.7
v -45 1.4 -31.7
v -45.8 1.4 -31.8
v -45.7 1.4 -31.8
v -45.2 1.4 -31.8
v -45.1 1.4 -31.8
v -45.7 1.4 -31.9
v -45.2 1.4 -31.9
v -45.7 1.6 -31.1
v -45.2 1.6 -31.1
v -45.8 1.6 -31.2
v -45.7 1.6 -31.2
v -45.2 1.6 -31.2
v -45.1 1.6 -31.2
v -45.8 1.6 -31.7
v -45.7 1.6 -31.7
v -45.2 1.6 -31.7
v -45.1 1.6 -31.7
v -45.7 1.6 -31.8
v -45.2 1.6 -31.8
v -45.7 1.7 -31.2
v -45.2 1.7 -31.2
v -45.6 1.7 -31.3
v -45.3 1.7 -31.3
v -45.6 1.7 -31.6
v -45.3 1.7 -31.6
v -45.7 1.7 -31.7
v -45.2 1.7 -31.7
v -45.6 1.8 -31.3
v -45.3 1.8 -31.3
v -45.5 1.8 -31.4
v -45.4 1.8 -31.4
v -45.5 1.8 -31.5
v -45.4 1.8 -31.5
v -45.6 1.8 -31.6
v -45.3 1.8 -31.6
v -45.5 1.9 -31.4
v -45.4 1.9 -31.4
v -45.5 1.9 -31.5
v -45.4 1.9 -31.5

# faces
f 3/1/1 2/1/1 1/1/1
f 4/1/1 2/1/1 3/1/1
f 9/1/1 6/1/1 5/1/1
f 10/1/1 6/1/1 9/1/1
f 11/1/1 8/1/1 7/1/1
f 12/1/1 8/1/1 11/1/1
f 13/2/1 11/2/1 10/2/1
f 14/2/1 11/2/1 13/2/1
f 19/5/1 16/5/1 15/5/1
f 20/5/1 16/5/1 19/5/1
f 23/1/1 18/1/1 17/1/1
f 24/1/1 18/1/1 23/1/1
f 27/1/1 22/1/1 21/1/1
f 28/1/1 22/1/1 27/1/1
f 29/2/1 25/2/1 24/2/1
f 30/2/1 25/2/1 29/2/1
f 31/2/1 27/2/1 26/2/1
f 32/2/1 27/2/1 31/2/1
f 33/3/1 31/3/1 30/3/1
f 34/3/1 31/3/1 33/3/1
f 39/1/1 36/1/1 35/1/1
f 40/1/1 36/1/1 39/1/1
f 43/1/1 38/1/1 37/1/1
f 44/1/1 38/1/1 43/1/1
f 45/2/1 41/2/1 40/2/1
f 46/2/1 41/2/1 45/2/1
f 49/2/1 43/2/1 42/2/1
f 50/2/1 43/2/1 49/2/1
f 51/3/1 47/3/1 46/3/1
f 52/3/1 47/3/1 51/3/1
f 53/3/1 49/3/1 48/3/1
f 54/3/1 49/3/1 53/3/1
f 55/3/1 53/3/1 52/3/1
f 56/3/1 53/3/1 55/3/1
f 59/4/1 58/4/1 57/4/1
f 60/4/1 58/4/1 59/4/1
f 63/4/1 62/4/1 61/4/1
f 64/4/1 62/4/1 63/4/1
f 65/4/2 66/4/2 67/4/2
f 67/4/2 66/4/2 68/4/2
f 69/4/2 70/4/2 71/4/2
f 71/4/2 70/4/2 72/4/2
f 73/5/2 74/5/2 77/5/2
f 77/5/2 74/5/2 78/5/2
f 75/1/2 76/1/2 81/1/2
f 81/1/2 76/1/2 82/1/2
f 79/1/2 80/1/2 85/1/2
f 85/1/2 80/1/2 86/1/2
f 82/2/2 83/2/2 87/2/2
f 87/2/2 83/2/2 88/2/2
f 84/2/2 85/2/2 91/2/2
f 91/2/2 85/2/2 92/2/2
f 88/3/2 89/3/2 93/3/2
f 93/3/2 89/3/2 94/3/2
f 90/3/2 91/3/2 95/3/2
f 95/3/2 91/3/2 96/3/2
f 94/3/2 95/3/2 97/3/2
f 97/3/2 95/3/2 98/3/2
f 99/1/2 100/1/2 103/1/2
f 103/1/2 100/1/2 104/1/2
f 101/1/2 102/1/2 107/1/2
f 107/1/2 102/1/2 108/1/2
f 104/2/2 105/2/2 109/2/2
f 109/2/2 105/2/2 110/2/2
f 106/2/2 107/2/2 111/2/2
f 111/2/2 107/2/2 112/2/2
f 110/3/2 111/3/2 113/3/2
f 113/3/2 111/3/2 114/3/2
f 115/1/2 116/1/2 119/1/2
f 119/1/2 116/1/2 120/1/2
f 117/1/2 118/1/2 121/1/2
f 121/1/2 118/1/2 122/1/2
f 120/2/2 121/2/2 123/2/2
f 123/2/2 121/2/2 124/2/2
f 125/1/2 126/1/2 127/1/2
f 127/1/2 126/1/2 128/1/2
f 131/1/3 130/1/3 129/1/3
f 132/1/3 130/1/3 131/1/3
f 135/1/3 134/1/3 133/1/3
f 136/1/3 134/1/3 135/1/3
f 139/2/3 137/2/3 136/2/3
f 140/2/3 137/2/3 139/2/3
f 141/1/3 139/1/3 138/1/3
f 142/1/3 139/1/3 141/1/3
f 145/1/3 144/1/3 143/1/3
f 146/1/3 144/1/3 145/1/3
f 148/2/3 147/2/3 146/2/3
f 149/2/3 147/2/3 148/2/3
f 152/3/3 150/3/3 149/3/3
f 153/3/3 150/3/3 152/3/3
f 155/2/3 152/2/3 151/2/3
f 156/2/3 152/2/3 155/2/3
f 157/1/3 155/1/3 154/1/3
f 158/1/3 155/1/3 157/1/3
f 161/1/3 160/1/3 159/1/3
f 162/1/3 160/1/3 161/1/3
f 164/2/3 163/2/3 162/2/3
f 165/2/3 163/2/3 164/2/3
f 167/3/3 166/3/3 165/3/3
f 168/3/3 166/3/3 167/3/3
f 171/3/3 169/3/3 168/3/3
f 172/3/3 169/3/3 171/3/3
f 174/3/3 171/3/3 170/3/3
f 175/3/3 171/3/3 174/3/3
f 177/2/3 174/2/3 173/2/3
f 178/2/3 174/2/3 177/2/3
f 179/1/3 177/1/3 176/1/3
f 180/1/3 177/1/3 179/1/3
f 185/4/3 184/4/3 183/4/3
f 186/4/3 184/4/3 185/4/3
f 187/5/3 182/5/3 181/5/3
f 188/5/3 182/5/3 187/5/3
f 191/4/3 190/4/3 189/4/3
f 192/4/3 190/4/3 191/4/3
f 193/4/4 194/4/4 195/4/4
f 195/4/4 194/4/4 196/4/4
f 199/4/4 200/4/4 201/4/4
f 201/4/4 200/4/4 202/4/4
f 197/5/4 198/5/4 203/5/4
f 203/5/4 198/5/4 204/5/4
f 205/1/4 206/1/4 207/1/4
f 207/1/4 206/1/4 208/1/4
f 208/2/4 209/2/4 210/2/4
f 210/2/4 209/2/4 211/2/4
f 211/3/4 212/3/4 213/3/4
f 213/3/4 212/3/4 214/3/4
f 214/3/4 215/3/4 217/3/4
f 217/3/4 215/3/4 218/3/4
f 216/3/4 217/3/4 220/3/4
f 220/3/4 217/3/4 221/3/4
f 219/2/4 220/2/4 223/2/4
f 223/2/4 220/2/4 224/2/4
f 222/1/4 223/1/4 225/1/4
f 225/1/4 223/1/4 226/1/4
f 227/1/4 228/1/4 229/1/4
f 229/1/4 228/1/4 230/1/4
f 230/2/4 231/2/4 232/2/4
f 232/2/4 231/2/4 233/2/4
f 233/3/4 234/3/4 236/3/4
f 236/3/4 234/3/4 237/3/4
f 235/2/4 236/2/4 239/2/4
f 239/2/4 236/2/4 240/2/4
f 238/1/4 239/1/4 241/1/4
f 241/1/4 239/1/4 242/1/4
f 243/1/4 244/1/4 245/1/4
f 245/1/4 244/1/4 246/1/4
f 246/2/4 247/2/4 249/2/4
f 249/2/4 247/2/4 250/2/4
f 248/1/4 249/1/4 251/1/4
f 251/1/4 249/1/4 252/1/4
f 253/1/4 254/1/4 255/1/4
f 255/1/4 254/1/4 256/1/4
f 259/5/5 258/5/5 257/5/5
f 260/5/5 258/5/5 259/5/5
f 264/1/5 262/1/5 261/1/5
f 265/1/5 262/1/5 264/1/5
f 268/1/5 264/1/5 263/1/5
f 269/7/5 265/7/5 264/7/5
f 269/1/5 264/1/5 268/1/5
f 270/1/5 266/1/5 265/1/5
f 270/7/5 265/7/5 269/7/5
f 271/1/5 266/1/5 270/1/5
f 274/1/5 268/1/5 267/1/5
f 275/7/5 269/7/5 268/7/5
f 275/7/5 270/7/5 269/7/5
f 275/1/5 268/1/5 274/1/5
f 275/7/5 271/7/5 270/7/5
f 276/1/5 272/1/5 271/1/5
f 276/7/5 271/7/5 275/7/5
f 277/1/5 272/1/5 276/1/5
f 279/7/5 275/7/5 274/7/5
f 279/7/5 276/7/5 275/7/5
f 279/7/5 277/7/5 276/7/5
f 280/7/5 277/7/5 279/7/5
f 281/7/5 279/7/5 274/7/5
f 282/7/5 277/7/5 280/7/5
f 283/1/5 274/1/5 273/1/5
f 284/7/5 282/7/5 281/7/5
f 284/1/5 274/1/5 283/1/5
f 284/7/5 281/7/5 274/7/5
f 285/7/5 282/7/5 284/7/5
f 286/7/5 277/7/5 282/7/5
f 286/7/5 282/7/5 285/7/5
f 287/1/5 278/1/5 277/1/5
f 287/7/5 277/7/5 286/7/5
f 288/1/5 278/1/5 287/1/5
f 289/1/5 285/1/5 284/1/5
f 290/7/5 286/7/5 285/7/5
f 290/1/5 285/1/5 289/1/5
f 291/7/5 286/7/5 290/7/5
f 292/7/5 286/7/5 291/7/5
f 293/1/5 287/1/5 286/1/5
f 293/7/5 286/7/5 292/7/5
f 294/1/5 287/1/5 293/1/5
f 295/1/5 291/1/5 290/1/5
f 296/7/5 292/7/5 291/7/5
f 296/1/5 291/1/5 295/1/5
f 297/1/5 293/1/5 292/1/5
f 297/7/5 292/7/5 296/7/5
f 298/1/5 293/1/5 297/1/5
f 299/1/5 297/1/5 296/1/5
f 300/1/5 297/1/5 299/1/5
f 301/1/6 302/1/6 304/1/6
f 304/1/6 302/1/6 305/1/6
f 303/1/6 304/1/6 308/1/6
f 308/1/6 304/1/6 309/1/6
f 305/1/6 306/1/6 310/1/6
f 310/1/6 306/1/6 311/1/6
f 307/1/6 308/1/6 314/1/6
f 314/1/6 308/1/6 315/1/6
f 311/1/6 312/1/6 316/1/6
f 316/1/6 312/1/6 317/1/6
f 313/1/6 314/1/6 319/1/6
f 319/1/6 314/1/6 320/1/6
f 317/1/6 318/1/6 323/1/6
f 323/1/6 318/1/6 324/1/6
f 320/1/6 321/1/6 325/1/6
f 325/1/6 321/1/6 326/1/6
f 322/1/6 323/1/6 329/1/6
f 329/1/6 323/1/6 330/1/6
f 326/1/6 327/1/6 331/1/6
f 331/1/6 327/1/6 332/1/6
f 328/1/6 329/1/6 333/1/6
f 333/1/6 329/1/6 334/1/6
f 332/1/6 333/1/6 335/1/6
f 335/1/6 333/1/6 336/1/6
f 337/2/6 338/2/6 340/2/6
f 340/2/6 338/2/6 341/2/6
f 339/2/6 340/2/6 344/2/6
f 344/2/6 340/2/6 345/2/6
f 341/2/6 342/2/6 346/2/6
f 346/2/6 342/2/6 347/2/6
f 343/2/6 344/2/6 349/2/6
f 349/2/6 344/2/6 350/2/6
f 347/2/6 348/2/6 353/2/6
f 353/2/6 348/2/6 354/2/6
f 350/2/6 351/2/6 355/2/6
f 355/2/6 351/2/6 356/2/6
f 352/2/6 353/2/6 357/2/6
f 357/2/6 353/2/6 358/2/6
f 356/2/6 357/2/6 359/2/6
f 359/2/6 357/2/6 360/2/6
f 361/3/6 362/3/6 364/3/6
f 364/3/6 362/3/6 365/3/6
f 363/3/6 364/3/6 367/3/6
f 367/3/6 364/3/6 368/3/6
f 365/3/6 366/3/6 369/3/6
f 369/3/6 366/3/6 370/3/6
f 368/3/6 369/3/6 371/3/6
f 371/3/6 369/3/6 372/3/6
f 373/3/6 374/3/6 375/3/6
f 375/3/6 374/3/6 376/3/6
f 373/3/6 375/3/6 377/3/6
f 376/3/6 374/3/6 378/3/6
f 373/3/6 377/3/6 379/3/6
f 377/3/6 378/3/6 379/3/6
f 378/3/6 374/3/6 380/3/6
f 379/3/6 378/3/6 380/3/6
f 381/4/6 382/4/6 383/4/6
f 383/4/6 382/4/6 384/4/6
f 381/4/6 383/4/6 385/4/6
f 384/4/6 382/4/6 386/4/6
f 381/4/6 385/4/6 387/4/6
f 385/4/6 386/4/6 387/4/6
f 386/4/6 382/4/6 388/4/6
f 387/4/6 386/4/6 388/4/6
f 389/4/6 390/4/6 391/4/6
f 391/4/6 390/4/6 392/4/6
